<svg width="449" height="301" viewBox="0 0 449 301" fill="none" xmlns="http://www.w3.org/2000/svg">
<g clip-path="url(#clip0_8396_13548)">
<path d="M440.82 178.319L338.786 119.547V121.177L440.111 179.539C444.87 182.281 447.491 186.033 447.491 190.107C447.491 195.094 443.632 200.178 436.902 204.052L248.784 312.407C235.775 319.902 216.05 320.731 204.811 314.256L8.78891 201.354C4.03498 198.612 1.41346 194.86 1.41346 190.785C1.41346 185.794 5.27237 180.71 11.9973 176.835L123.91 112.375V110.75L11.293 175.616C4.11812 179.748 0 185.277 0 190.785C0 195.382 2.87095 199.568 8.08463 202.574L204.101 315.476C209.379 318.516 216.451 320.004 223.856 320.004C232.772 320.004 242.172 317.843 249.494 313.627L437.612 205.272C444.786 201.139 448.905 195.611 448.905 190.107C448.905 185.506 446.034 181.32 440.82 178.319Z" fill="url(#paint0_linear_8396_13548)"/>
<g style="mix-blend-mode:screen">
<path d="M389.862 181.172L325.165 143.909L240.01 94.8623C231.118 89.739 215.556 90.3733 205.309 96.2724L123.91 143.158L61.4928 179.108C56.0101 182.27 52.8604 186.496 52.8604 190.707C52.8604 194.22 55.0564 197.421 59.0424 199.714L208.894 286.029C212.929 288.351 218.334 289.493 223.997 289.493C230.815 289.493 238 287.839 243.595 284.614L387.406 201.783C392.894 198.621 396.044 194.395 396.044 190.185C396.044 186.671 393.848 183.471 389.862 181.172Z" fill="url(#paint1_linear_8396_13548)"/>
</g>
<g opacity="0.36">
<path d="M323.63 96.8562C323.38 96.2609 323.195 95.6559 322.857 95.0801L291.306 40.4903C290.714 39.4608 290.005 38.5191 289.242 37.714C288.474 36.9089 287.648 36.2356 286.802 35.7477L284.253 34.2839L229.539 2.76837C224.365 -0.217766 219.684 -0.661784 216.05 0.831286L211.819 2.61711L212.734 2.98794C210.259 5.47639 208.763 9.38472 208.763 14.5812V134.661C208.763 147.796 218.065 163.8 229.539 170.412L303.925 213.257C307.583 215.365 314.034 216.907 314.034 216.907L317.947 214.994C322.075 213.023 324.701 208.363 324.701 201.434V101.248C324.701 99.8716 324.256 98.3541 323.635 96.8464L323.63 96.8562Z" fill="url(#paint2_linear_8396_13548)"/>
<path d="M299.982 215.077L225.597 172.232C214.123 165.625 204.82 149.616 204.82 136.481V16.4013C204.82 3.26623 214.123 -2.02295 225.597 4.58364L282.859 37.5678C284.551 38.5437 286.175 40.2514 287.364 42.3105L318.915 96.9002C320.093 98.9398 320.754 101.16 320.754 103.077V203.264C320.754 216.399 311.451 221.689 299.977 215.082L299.982 215.077Z" fill="url(#paint3_linear_8396_13548)"/>
<path d="M290.504 88.1668L320.754 105.591V103.068C320.754 101.151 320.094 98.9305 318.915 96.891L287.364 42.3012C286.171 40.2421 284.552 38.5344 282.86 37.5585L280.312 36.0898V70.6207C280.312 77.0663 284.875 84.922 290.504 88.1619V88.1668Z" fill="url(#paint4_linear_8396_13548)"/>
<path d="M248.448 53.1958L252.806 69.1853C252.913 69.5756 253.119 69.9318 253.407 70.2197L265.135 81.9447C266.73 83.5353 265.36 86.2336 263.13 85.8969L254.811 84.6283C253.735 84.4624 252.688 85.0626 252.287 86.0726L249.196 93.8502C248.37 95.9337 245.362 95.7629 244.77 93.6014L240.412 77.6119C240.304 77.2215 240.099 76.8653 239.81 76.5774L228.082 64.8573C226.488 63.2667 227.857 60.5684 230.087 60.9051L238.407 62.1737C239.483 62.3396 240.529 61.7395 240.93 60.7294L244.022 52.9518C244.848 50.8683 247.856 51.0391 248.448 53.2007V53.1958Z" fill="url(#paint5_linear_8396_13548)"/>
<path d="M232.038 26.2519L234.523 35.3762C234.582 35.6006 234.704 35.8007 234.865 35.9666L241.556 42.6561C242.466 43.5637 241.683 45.1055 240.412 44.9104L235.663 44.1882C235.046 44.0955 234.45 44.4371 234.22 45.0128L232.459 49.453C231.985 50.6436 230.268 50.546 229.935 49.3115L227.451 40.1872C227.392 39.9627 227.27 39.7627 227.108 39.5968L220.418 32.9073C219.508 31.9997 220.291 30.4578 221.562 30.653L226.311 31.3752C226.928 31.4679 227.524 31.1263 227.754 30.5505L229.515 26.1104C229.989 24.9198 231.706 25.0174 232.038 26.2519Z" fill="url(#paint6_linear_8396_13548)"/>
<path d="M301.132 150.212L224.971 106.796C222.638 105.454 220.75 101.848 220.75 98.7496C220.75 95.6464 222.638 94.2216 224.971 95.5634L301.132 138.98C303.465 140.321 305.352 143.927 305.352 147.026C305.352 150.129 303.465 151.554 301.132 150.212Z" fill="url(#paint7_linear_8396_13548)"/>
<path d="M257.657 167.894L224.971 149.065C222.638 147.723 220.75 144.118 220.75 141.019C220.75 137.916 222.638 136.491 224.971 137.833L257.657 156.662C259.99 158.004 261.877 161.61 261.877 164.708C261.877 167.811 259.99 169.236 257.657 167.894Z" fill="url(#paint8_linear_8396_13548)"/>
<path d="M301.132 171.227L224.971 127.811C222.638 126.469 220.75 122.864 220.75 119.765C220.75 116.662 222.638 115.237 224.971 116.579L301.132 159.995C303.465 161.337 305.352 164.943 305.352 168.041C305.352 171.144 303.465 172.569 301.132 171.227Z" fill="url(#paint9_linear_8396_13548)"/>
</g>
<g opacity="0.63">
<path d="M288.504 109.997C288.255 109.402 288.069 108.796 287.731 108.221L256.18 53.631C255.588 52.6014 254.879 51.6597 254.116 50.8546C253.348 50.0496 252.522 49.3762 251.676 48.8883L249.127 47.4245L194.413 15.909C189.239 12.9229 184.558 12.4788 180.924 13.9719L176.694 15.7577L177.608 16.1286C175.133 18.617 173.637 22.5253 173.637 27.7218V147.802C173.637 160.937 182.939 176.941 194.413 183.552L268.799 226.398C272.457 228.506 278.908 230.047 278.908 230.047L282.821 228.135C286.949 226.163 289.575 221.504 289.575 214.575V114.388C289.575 113.012 289.13 111.495 288.509 109.987L288.504 109.997Z" fill="url(#paint10_linear_8396_13548)"/>
<path d="M264.856 228.218L190.471 185.373C178.997 178.766 169.694 162.757 169.694 149.622V29.542C169.694 16.4069 178.997 11.1177 190.471 17.7243L247.733 50.7084C249.425 51.6843 251.049 53.392 252.238 55.4511L283.789 110.041C284.967 112.08 285.628 114.301 285.628 116.218V216.405C285.628 229.54 276.325 234.829 264.851 228.223L264.856 228.218Z" fill="url(#paint11_linear_8396_13548)"/>
<path d="M255.378 101.311L285.628 118.735V116.213C285.628 114.295 284.968 112.075 283.789 110.035L252.238 55.4457C251.045 53.3867 249.426 51.6789 247.734 50.703L245.186 49.2344V83.7653C245.186 90.2108 249.749 98.0665 255.378 101.306V101.311Z" fill="url(#paint12_linear_8396_13548)"/>
<path d="M213.321 66.3364L217.679 82.3259C217.786 82.7163 217.992 83.0724 218.28 83.3603L230.009 95.0853C231.603 96.676 230.233 99.3742 228.003 99.0376L219.684 97.7689C218.608 97.603 217.561 98.2032 217.16 99.2132L214.069 106.991C213.243 109.074 210.235 108.904 209.643 106.742L205.285 90.7525C205.178 90.3621 204.972 90.0059 204.684 89.7181L192.955 77.998C191.361 76.4073 192.73 73.709 194.96 74.0457L203.28 75.3143C204.356 75.4802 205.403 74.8801 205.804 73.8701L208.895 66.0924C209.721 64.009 212.729 64.1797 213.321 66.3413V66.3364Z" fill="url(#paint13_linear_8396_13548)"/>
<path d="M196.912 39.3964L199.396 48.5207C199.455 48.7452 199.577 48.9452 199.738 49.1111L206.429 55.8007C207.339 56.7082 206.556 58.2501 205.285 58.0549L200.536 57.3328C199.919 57.2401 199.323 57.5816 199.093 58.1574L197.332 62.5975C196.858 63.7881 195.141 63.6905 194.808 62.456L192.324 53.3317C192.265 53.1073 192.143 52.9072 191.982 52.7413L185.291 46.0518C184.381 45.1442 185.164 43.6024 186.435 43.7975L191.184 44.5197C191.801 44.6124 192.397 44.2708 192.627 43.6951L194.388 39.2549C194.862 38.0643 196.579 38.1619 196.912 39.3964Z" fill="url(#paint14_linear_8396_13548)"/>
<path d="M266.006 163.352L189.845 119.936C187.512 118.594 185.624 114.989 185.624 111.89C185.624 108.787 187.512 107.362 189.845 108.704L266.006 152.12C268.339 153.462 270.226 157.068 270.226 160.166C270.226 163.269 268.339 164.694 266.006 163.352Z" fill="url(#paint15_linear_8396_13548)"/>
<path d="M222.531 181.035L189.845 162.206C187.512 160.864 185.624 157.258 185.624 154.16C185.624 151.057 187.512 149.632 189.845 150.974L222.531 169.803C224.864 171.145 226.751 174.75 226.751 177.849C226.751 180.952 224.864 182.377 222.531 181.035Z" fill="url(#paint16_linear_8396_13548)"/>
<path d="M266.006 184.368L189.845 140.952C187.512 139.61 185.624 136.004 185.624 132.906C185.624 129.803 187.512 128.378 189.845 129.72L266.006 173.136C268.339 174.478 270.226 178.083 270.226 181.182C270.226 184.285 268.339 185.71 266.006 184.368Z" fill="url(#paint17_linear_8396_13548)"/>
</g>
<path d="M255.573 125.329C255.324 124.734 255.138 124.129 254.801 123.553L223.249 68.963C222.658 67.9335 221.948 66.9918 221.185 66.1867C220.418 65.3816 219.591 64.7082 218.745 64.2203L216.197 62.7565L161.483 31.241C156.308 28.2549 151.627 27.8109 147.993 29.3039L143.763 31.0898L144.677 31.4606C142.203 33.949 140.706 37.8574 140.706 43.0538V163.134C140.706 176.269 150.009 192.273 161.483 198.884L235.868 241.73C239.526 243.838 245.977 245.379 245.977 245.379L249.89 243.467C254.018 241.496 256.644 236.836 256.644 229.907V129.72C256.644 128.344 256.199 126.827 255.578 125.319L255.573 125.329Z" fill="url(#paint18_linear_8396_13548)"/>
<path d="M231.926 243.55L157.54 200.705C146.066 194.098 136.764 178.089 136.764 164.954V44.874C136.764 31.7389 146.066 26.4497 157.54 33.0563L214.803 66.0405C216.495 67.0163 218.119 68.7241 219.307 70.7831L250.858 125.373C252.037 127.412 252.697 129.633 252.697 131.55V231.737C252.697 244.872 243.395 250.161 231.921 243.555L231.926 243.55Z" fill="url(#paint19_linear_8396_13548)"/>
<path d="M222.447 116.643L252.698 134.067V131.545C252.698 129.627 252.037 127.407 250.859 125.368L219.308 70.7778C218.114 68.7187 216.495 67.0109 214.803 66.0351L212.255 64.5664V99.0973C212.255 105.543 216.818 113.399 222.447 116.638V116.643Z" fill="url(#paint20_linear_8396_13548)"/>
<path d="M180.39 81.6655L184.748 97.655C184.856 98.0454 185.061 98.4015 185.35 98.6894L197.078 110.41C198.672 112 197.303 114.698 195.073 114.362L186.753 113.093C185.677 112.927 184.631 113.527 184.229 114.537L181.138 122.315C180.312 124.399 177.304 124.228 176.712 122.066L172.354 106.077C172.247 105.686 172.041 105.33 171.753 105.042L160.025 93.3222C158.43 91.7315 159.8 89.0333 162.03 89.3699L170.349 90.6386C171.425 90.8044 172.472 90.2043 172.873 89.1943L175.964 81.4167C176.79 79.3332 179.798 79.504 180.39 81.6655Z" fill="url(#paint21_linear_8396_13548)"/>
<path d="M163.981 54.7284L166.465 63.8527C166.524 64.0772 166.646 64.2773 166.808 64.4431L173.499 71.1327C174.408 72.0402 173.626 73.5821 172.354 73.3869L167.605 72.6648C166.989 72.5721 166.392 72.9136 166.167 73.4894L164.401 77.9296C163.932 79.1201 162.21 79.0225 161.878 77.7881L159.393 68.6638C159.335 68.4393 159.212 68.2392 159.051 68.0734L152.36 61.3838C151.45 60.4763 152.233 58.9344 153.505 59.1296L158.254 59.8517C158.87 59.9444 159.467 59.6029 159.692 59.0271L161.452 54.5869C161.927 53.3964 163.643 53.494 163.976 54.7284H163.981Z" fill="url(#paint22_linear_8396_13548)"/>
<path d="M233.075 178.684L156.914 135.268C154.581 133.926 152.693 130.321 152.693 127.222C152.693 124.119 154.581 122.694 156.914 124.036L233.075 167.452C235.408 168.794 237.296 172.4 237.296 175.498C237.296 178.601 235.408 180.026 233.075 178.684Z" fill="url(#paint23_linear_8396_13548)"/>
<path d="M189.6 196.367L156.914 177.538C154.581 176.196 152.693 172.59 152.693 169.492C152.693 166.389 154.581 164.964 156.914 166.306L189.6 185.135C191.933 186.477 193.821 190.083 193.821 193.181C193.821 196.284 191.933 197.709 189.6 196.367Z" fill="url(#paint24_linear_8396_13548)"/>
<path d="M233.075 199.7L156.914 156.284C154.581 154.942 152.693 151.336 152.693 148.238C152.693 145.135 154.581 143.71 156.914 145.052L233.075 188.468C235.408 189.81 237.296 193.415 237.296 196.514C237.296 199.617 235.408 201.042 233.075 199.7Z" fill="url(#paint25_linear_8396_13548)"/>
</g>
<defs>
<linearGradient id="paint0_linear_8396_13548" x1="38.179" y1="83.1449" x2="336.631" y2="255.865" gradientUnits="userSpaceOnUse">
<stop stop-color="#4DC9C0"/>
<stop offset="0.11" stop-color="#4DC9C0"/>
<stop offset="0.28" stop-color="#4DC9C0"/>
<stop offset="0.48" stop-color="#3A789F"/>
<stop offset="0.71" stop-color="#4FA7C2"/>
<stop offset="0.97" stop-color="#69E1EF"/>
<stop offset="1" stop-color="#6DEAF6"/>
</linearGradient>
<linearGradient id="paint1_linear_8396_13548" x1="37.2027" y1="82.5764" x2="296.67" y2="232.735" gradientUnits="userSpaceOnUse">
<stop stop-color="#6DEAF6"/>
<stop offset="0.23" stop-color="#5AC8F3"/>
<stop offset="0.76" stop-color="#307EEC"/>
<stop offset="1" stop-color="#2061EA"/>
</linearGradient>
<linearGradient id="paint2_linear_8396_13548" x1="203.035" y1="6.98898" x2="325.192" y2="227.141" gradientUnits="userSpaceOnUse">
<stop offset="0.14" stop-color="#00FFFF"/>
<stop offset="0.66" stop-color="#21ACEF"/>
<stop offset="1" stop-color="#0045A8"/>
</linearGradient>
<linearGradient id="paint3_linear_8396_13548" x1="211.658" y1="12.6004" x2="305.719" y2="215.667" gradientUnits="userSpaceOnUse">
<stop stop-color="#F3F6FF"/>
<stop offset="0.76" stop-color="#ADF7FE"/>
<stop offset="1" stop-color="#96F8FE"/>
</linearGradient>
<linearGradient id="paint4_linear_8396_13548" x1="281.079" y1="81.5553" x2="301.222" y2="70.4145" gradientUnits="userSpaceOnUse">
<stop stop-color="#21ACEF"/>
<stop offset="0.24" stop-color="#24AFEF"/>
<stop offset="0.46" stop-color="#30B8F0"/>
<stop offset="0.69" stop-color="#43C8F2"/>
<stop offset="0.9" stop-color="#5EDEF4"/>
<stop offset="1" stop-color="#6DEAF6"/>
</linearGradient>
<linearGradient id="paint5_linear_8396_13548" x1="239.302" y1="95.0603" x2="252.081" y2="56.9736" gradientUnits="userSpaceOnUse">
<stop stop-color="#17A1E5"/>
<stop offset="0.5" stop-color="#34AFEB"/>
<stop offset="1" stop-color="#56C1F2"/>
</linearGradient>
<linearGradient id="paint6_linear_8396_13548" x1="206.557" y1="71.2099" x2="237.011" y2="29.3401" gradientUnits="userSpaceOnUse">
<stop stop-color="#17A1E5"/>
<stop offset="0.5" stop-color="#34AFEB"/>
<stop offset="1" stop-color="#56C1F2"/>
</linearGradient>
<linearGradient id="paint7_linear_8396_13548" x1="167.288" y1="111.036" x2="347.47" y2="133.438" gradientUnits="userSpaceOnUse">
<stop stop-color="#21ACEF"/>
<stop offset="0.54" stop-color="#21ACEF"/>
<stop offset="0.63" stop-color="#29B2EF"/>
<stop offset="0.79" stop-color="#40C4F0"/>
<stop offset="0.98" stop-color="#66E0F2"/>
<stop offset="1" stop-color="#6BE4F3"/>
</linearGradient>
<linearGradient id="paint8_linear_8396_13548" x1="194.672" y1="147.094" x2="282.427" y2="158.006" gradientUnits="userSpaceOnUse">
<stop stop-color="#21ACEF"/>
<stop offset="0.54" stop-color="#21ACEF"/>
<stop offset="0.63" stop-color="#29B2EF"/>
<stop offset="0.79" stop-color="#40C4F0"/>
<stop offset="0.98" stop-color="#66E0F2"/>
<stop offset="1" stop-color="#6BE4F3"/>
</linearGradient>
<linearGradient id="paint9_linear_8396_13548" x1="167.288" y1="132.056" x2="347.47" y2="154.454" gradientUnits="userSpaceOnUse">
<stop stop-color="#21ACEF"/>
<stop offset="0.54" stop-color="#21ACEF"/>
<stop offset="0.63" stop-color="#29B2EF"/>
<stop offset="0.79" stop-color="#40C4F0"/>
<stop offset="0.98" stop-color="#66E0F2"/>
<stop offset="1" stop-color="#6BE4F3"/>
</linearGradient>
<linearGradient id="paint10_linear_8396_13548" x1="167.909" y1="20.1296" x2="290.066" y2="240.286" gradientUnits="userSpaceOnUse">
<stop offset="0.14" stop-color="#00FFFF"/>
<stop offset="0.66" stop-color="#21ACEF"/>
<stop offset="1" stop-color="#0045A8"/>
</linearGradient>
<linearGradient id="paint11_linear_8396_13548" x1="176.532" y1="25.741" x2="270.593" y2="228.808" gradientUnits="userSpaceOnUse">
<stop stop-color="#F3F6FF"/>
<stop offset="0.76" stop-color="#ADF7FE"/>
<stop offset="1" stop-color="#96F8FE"/>
</linearGradient>
<linearGradient id="paint12_linear_8396_13548" x1="245.953" y1="94.6949" x2="266.096" y2="83.5542" gradientUnits="userSpaceOnUse">
<stop stop-color="#21ACEF"/>
<stop offset="0.24" stop-color="#24AFEF"/>
<stop offset="0.46" stop-color="#30B8F0"/>
<stop offset="0.69" stop-color="#43C8F2"/>
<stop offset="0.9" stop-color="#5EDEF4"/>
<stop offset="1" stop-color="#6DEAF6"/>
</linearGradient>
<linearGradient id="paint13_linear_8396_13548" x1="204.175" y1="108.206" x2="216.954" y2="70.1191" gradientUnits="userSpaceOnUse">
<stop stop-color="#17A1E5"/>
<stop offset="0.5" stop-color="#34AFEB"/>
<stop offset="1" stop-color="#56C1F2"/>
</linearGradient>
<linearGradient id="paint14_linear_8396_13548" x1="171.43" y1="84.3495" x2="201.889" y2="42.4846" gradientUnits="userSpaceOnUse">
<stop stop-color="#17A1E5"/>
<stop offset="0.5" stop-color="#34AFEB"/>
<stop offset="1" stop-color="#56C1F2"/>
</linearGradient>
<linearGradient id="paint15_linear_8396_13548" x1="132.162" y1="124.176" x2="312.344" y2="146.579" gradientUnits="userSpaceOnUse">
<stop stop-color="#21ACEF"/>
<stop offset="0.54" stop-color="#21ACEF"/>
<stop offset="0.63" stop-color="#29B2EF"/>
<stop offset="0.79" stop-color="#40C4F0"/>
<stop offset="0.98" stop-color="#66E0F2"/>
<stop offset="1" stop-color="#6BE4F3"/>
</linearGradient>
<linearGradient id="paint16_linear_8396_13548" x1="159.546" y1="160.235" x2="247.301" y2="171.147" gradientUnits="userSpaceOnUse">
<stop stop-color="#21ACEF"/>
<stop offset="0.54" stop-color="#21ACEF"/>
<stop offset="0.63" stop-color="#29B2EF"/>
<stop offset="0.79" stop-color="#40C4F0"/>
<stop offset="0.98" stop-color="#66E0F2"/>
<stop offset="1" stop-color="#6BE4F3"/>
</linearGradient>
<linearGradient id="paint17_linear_8396_13548" x1="132.162" y1="145.197" x2="312.344" y2="167.595" gradientUnits="userSpaceOnUse">
<stop stop-color="#21ACEF"/>
<stop offset="0.54" stop-color="#21ACEF"/>
<stop offset="0.63" stop-color="#29B2EF"/>
<stop offset="0.79" stop-color="#40C4F0"/>
<stop offset="0.98" stop-color="#66E0F2"/>
<stop offset="1" stop-color="#6BE4F3"/>
</linearGradient>
<linearGradient id="paint18_linear_8396_13548" x1="134.979" y1="35.4616" x2="257.136" y2="255.618" gradientUnits="userSpaceOnUse">
<stop offset="0.14" stop-color="#00FFFF"/>
<stop offset="0.66" stop-color="#21ACEF"/>
<stop offset="1" stop-color="#0045A8"/>
</linearGradient>
<linearGradient id="paint19_linear_8396_13548" x1="143.601" y1="41.073" x2="237.662" y2="244.14" gradientUnits="userSpaceOnUse">
<stop stop-color="#F3F6FF"/>
<stop offset="0.76" stop-color="#ADF7FE"/>
<stop offset="1" stop-color="#96F8FE"/>
</linearGradient>
<linearGradient id="paint20_linear_8396_13548" x1="213.023" y1="110.027" x2="233.166" y2="98.8862" gradientUnits="userSpaceOnUse">
<stop stop-color="#21ACEF"/>
<stop offset="0.24" stop-color="#24AFEF"/>
<stop offset="0.46" stop-color="#30B8F0"/>
<stop offset="0.69" stop-color="#43C8F2"/>
<stop offset="0.9" stop-color="#5EDEF4"/>
<stop offset="1" stop-color="#6DEAF6"/>
</linearGradient>
<linearGradient id="paint21_linear_8396_13548" x1="171.244" y1="123.535" x2="184.023" y2="85.4482" gradientUnits="userSpaceOnUse">
<stop stop-color="#17A1E5"/>
<stop offset="0.5" stop-color="#34AFEB"/>
<stop offset="1" stop-color="#56C1F2"/>
</linearGradient>
<linearGradient id="paint22_linear_8396_13548" x1="138.499" y1="99.6815" x2="168.958" y2="57.8167" gradientUnits="userSpaceOnUse">
<stop stop-color="#17A1E5"/>
<stop offset="0.5" stop-color="#34AFEB"/>
<stop offset="1" stop-color="#56C1F2"/>
</linearGradient>
<linearGradient id="paint23_linear_8396_13548" x1="99.2312" y1="139.508" x2="279.413" y2="161.911" gradientUnits="userSpaceOnUse">
<stop stop-color="#21ACEF"/>
<stop offset="0.54" stop-color="#21ACEF"/>
<stop offset="0.63" stop-color="#29B2EF"/>
<stop offset="0.79" stop-color="#40C4F0"/>
<stop offset="0.98" stop-color="#66E0F2"/>
<stop offset="1" stop-color="#6BE4F3"/>
</linearGradient>
<linearGradient id="paint24_linear_8396_13548" x1="126.615" y1="175.567" x2="214.371" y2="186.479" gradientUnits="userSpaceOnUse">
<stop stop-color="#21ACEF"/>
<stop offset="0.54" stop-color="#21ACEF"/>
<stop offset="0.63" stop-color="#29B2EF"/>
<stop offset="0.79" stop-color="#40C4F0"/>
<stop offset="0.98" stop-color="#66E0F2"/>
<stop offset="1" stop-color="#6BE4F3"/>
</linearGradient>
<linearGradient id="paint25_linear_8396_13548" x1="99.2311" y1="160.529" x2="279.413" y2="182.932" gradientUnits="userSpaceOnUse">
<stop stop-color="#21ACEF"/>
<stop offset="0.54" stop-color="#21ACEF"/>
<stop offset="0.63" stop-color="#29B2EF"/>
<stop offset="0.79" stop-color="#40C4F0"/>
<stop offset="0.98" stop-color="#66E0F2"/>
<stop offset="1" stop-color="#6BE4F3"/>
</linearGradient>
<clipPath id="clip0_8396_13548">
<rect width="448.905" height="320" fill="white"/>
</clipPath>
</defs>
</svg>
