<svg width="115" height="72" viewBox="0 0 115 72" fill="none" xmlns="http://www.w3.org/2000/svg">
<path d="M44.0847 44.4425C45.2673 44.4425 46.2259 43.476 46.2259 42.2837C46.2259 41.0915 45.2673 40.125 44.0847 40.125C42.902 40.125 41.9434 41.0915 41.9434 42.2837C41.9434 43.476 42.902 44.4425 44.0847 44.4425Z" fill="url(#paint0_linear_8396_13972)"/>
<path d="M103.538 40.6349C103.916 38.4762 104.168 36.1905 104.168 34.0317C104.168 15.2381 88.8007 0 69.7809 0C57.9409 0 47.6123 5.84127 41.4403 14.8571C39.0471 14.0952 36.402 13.5873 33.6309 13.5873C20.5312 13.5873 9.95071 23.619 9.95071 36.0635C9.95071 37.7143 10.2026 39.3651 10.5805 41.0159C4.40854 43.3016 0 49.1429 0 56C0 64.7619 7.30559 72 16.2486 72H98.7514C107.694 72 115 64.7619 115 56C114.748 48.7619 110.088 42.7936 103.538 40.6349ZM76.7086 46.2222L74.0635 43.5556L71.4184 46.2222L68.6473 43.5556L66.0022 46.2222L63.3571 43.5556L60.7119 46.2222H56.3034C54.7919 49.2698 51.7689 51.4286 48.1161 51.4286C43.0778 51.4286 39.0471 47.3651 39.0471 42.2857C39.0471 37.2063 43.0778 33.1429 48.1161 33.1429C51.7689 33.1429 54.7919 35.3016 56.3034 38.3492H76.8346L80.7393 42.2857L76.7086 46.2222Z" fill="url(#paint1_linear_8396_13972)"/>
<defs>
<linearGradient id="paint0_linear_8396_13972" x1="44.0847" y1="40.125" x2="44.0847" y2="44.4425" gradientUnits="userSpaceOnUse">
<stop stop-color="white"/>
<stop offset="1" stop-color="#B8DBF4"/>
</linearGradient>
<linearGradient id="paint1_linear_8396_13972" x1="57.5" y1="0" x2="57.5" y2="72" gradientUnits="userSpaceOnUse">
<stop stop-color="white"/>
<stop offset="1" stop-color="#B8DBF4"/>
</linearGradient>
</defs>
</svg>
