<svg width="72" height="72" viewBox="0 0 72 72" fill="none" xmlns="http://www.w3.org/2000/svg">
<path d="M33.8467 36C33.8467 38.6875 29.8184 38.6875 29.8184 36C29.8184 33.3125 33.8467 33.3125 33.8467 36Z" fill="url(#paint0_linear_8396_13991)"/>
<path d="M42.0972 24.3946H29.9039C29.5301 24.3917 29.1849 24.5914 28.9966 24.9138L22.8998 35.4784C22.7144 35.8007 22.7144 36.2002 22.8998 36.5225L28.9966 47.0871C29.1849 47.4095 29.5301 47.6092 29.9039 47.6063H42.0972C42.4709 47.6092 42.8161 47.4095 43.0044 47.0871L49.1012 36.5225C49.2866 36.2002 49.2866 35.8007 49.1012 35.4784L43.0044 24.9138C42.8161 24.5914 42.4709 24.3917 42.0972 24.3946ZM43.6007 36.0006V38.7252H42.1828V36.711H40.0544V38.7252H38.6365V36.711H35.193C34.8279 38.4285 33.2245 39.5982 31.4757 39.4156C29.7268 39.233 28.4002 37.7581 28.4002 36.0006C28.4002 34.2432 29.7268 32.7682 31.4757 32.5856C33.2245 32.403 34.8279 33.5728 35.193 35.2902H42.8903C43.0785 35.2902 43.2583 35.3672 43.3924 35.4985C43.5265 35.6325 43.6007 35.8123 43.6007 36.0006Z" fill="url(#paint1_linear_8396_13991)"/>
<path d="M23.4162 40.2538L21.7786 37.418H12.4037C12.0271 37.418 11.6648 37.5663 11.3995 37.8345L7.12858 42.1054C5.00887 40.9756 2.38126 41.5719 0.951957 43.5005C-0.47735 45.4319 -0.277671 48.1194 1.41984 49.8169C3.12018 51.5144 5.80482 51.7141 7.73625 50.2876C9.66767 48.8583 10.2611 46.2307 9.13422 44.111L12.9914 40.2539L23.4162 40.2538Z" fill="url(#paint2_linear_8396_13991)"/>
<path d="M48.585 31.7452L50.2226 34.581H59.5974C59.974 34.581 60.3363 34.4326 60.6017 34.1644L64.8726 29.8936C66.9923 31.0233 69.6199 30.4271 71.0492 28.4984C72.4785 26.567 72.2788 23.8795 70.5784 22.1821C68.8809 20.4846 66.1963 20.2848 64.2649 21.7113C62.3334 23.1406 61.74 25.7682 62.8669 27.8879L59.0097 31.7451L48.585 31.7452Z" fill="url(#paint3_linear_8396_13991)"/>
<path d="M40.2539 12.9911L44.1111 9.13395C46.2308 10.2609 48.8584 9.66746 50.2877 7.73599C51.7141 5.80457 51.5145 3.11993 49.8169 1.42245C48.1166 -0.277889 45.432 -0.47764 43.5005 0.951712C41.572 2.38101 40.9757 5.00861 42.1054 7.12831L37.8345 11.3992C37.5663 11.6645 37.418 12.0268 37.418 12.4034V22.9738H40.2538L40.2539 12.9911Z" fill="url(#paint4_linear_8396_13991)"/>
<path d="M31.7462 59.0091L27.8891 62.8662C25.7694 61.7393 23.1418 62.3327 21.7124 64.2642C20.2831 66.1957 20.4828 68.8803 22.1832 70.5778C23.8807 72.2781 26.5682 72.4778 28.4996 71.0485C30.4282 69.6192 31.0244 66.9916 29.8947 64.8719L34.1656 60.601C34.4338 60.3357 34.5822 59.9733 34.5822 59.5968V49.0234L31.7463 49.0263L31.7462 59.0091Z" fill="url(#paint5_linear_8396_13991)"/>
<path d="M4.8543 30.4636C5.64739 30.4665 6.42909 30.2696 7.12811 29.8959L11.399 34.1668C11.6643 34.435 12.0267 34.5833 12.4033 34.5833H21.7781L23.4157 31.7475H12.9913L9.13418 27.8904C10.1555 25.9675 9.76754 23.5995 8.18698 22.1017C6.60927 20.6039 4.22422 20.3443 2.35838 21.4684C0.492537 22.5896 -0.397548 24.8177 0.1844 26.9146C0.769254 29.0144 2.67754 30.4665 4.8543 30.4636Z" fill="url(#paint6_linear_8396_13991)"/>
<path d="M67.1464 41.5377C66.3533 41.5348 65.5716 41.7316 64.8726 42.1054L60.6017 37.8345C60.3363 37.5663 59.974 37.418 59.5974 37.418H50.2226L48.585 40.2538H59.0093L62.8665 44.1109C61.8452 46.0338 62.2331 48.4017 63.8137 49.8996C65.3914 51.3974 67.7765 51.6569 69.6423 50.5329C71.5081 49.4117 72.3982 47.1836 71.8134 45.0867C71.2314 42.9869 69.3231 41.5348 67.1464 41.5377Z" fill="url(#paint7_linear_8396_13991)"/>
<path d="M25.6178 9.70285C26.4109 9.70285 27.1898 9.50885 27.8888 9.13512L31.7459 12.9923V22.9747H34.5818V12.4043C34.5818 12.0277 34.4334 11.6654 34.1652 11.4001L29.8943 7.12921C30.9157 5.20633 30.5305 2.83838 28.95 1.34057C27.3694 -0.157235 24.9844 -0.416803 23.1185 0.70437C21.2527 1.82846 20.3655 4.05654 20.9474 6.15346C21.5294 8.25038 23.4382 9.70285 25.6178 9.70285Z" fill="url(#paint8_linear_8396_13991)"/>
<path d="M46.3829 62.2992C45.5898 62.2992 44.811 62.4932 44.1119 62.867L40.2548 59.0098V49.0273H37.4189V59.6007V59.5978C37.4189 59.9744 37.5673 60.3367 37.8355 60.602L42.1064 64.8729C41.085 66.7958 41.4702 69.1638 43.0507 70.6616C44.6313 72.1594 47.0163 72.4189 48.8822 71.2978C50.748 70.1737 51.6353 67.9456 51.0533 65.8487C50.4713 63.7518 48.5596 62.2992 46.3829 62.2992Z" fill="url(#paint9_linear_8396_13991)"/>
<defs>
<linearGradient id="paint0_linear_8396_13991" x1="31.8325" y1="33.9844" x2="31.8325" y2="38.0156" gradientUnits="userSpaceOnUse">
<stop stop-color="white"/>
<stop offset="1" stop-color="#C3EFC7"/>
</linearGradient>
<linearGradient id="paint1_linear_8396_13991" x1="36.0005" y1="24.3945" x2="36.0005" y2="47.6064" gradientUnits="userSpaceOnUse">
<stop stop-color="white"/>
<stop offset="1" stop-color="#C3EFC7"/>
</linearGradient>
<linearGradient id="paint2_linear_8396_13991" x1="11.7081" y1="37.418" x2="11.7081" y2="51.2372" gradientUnits="userSpaceOnUse">
<stop stop-color="white"/>
<stop offset="1" stop-color="#C3EFC7"/>
</linearGradient>
<linearGradient id="paint3_linear_8396_13991" x1="60.2929" y1="20.7617" x2="60.2929" y2="34.581" gradientUnits="userSpaceOnUse">
<stop stop-color="white"/>
<stop offset="1" stop-color="#C3EFC7"/>
</linearGradient>
<linearGradient id="paint4_linear_8396_13991" x1="44.3276" y1="0" x2="44.3276" y2="22.9738" gradientUnits="userSpaceOnUse">
<stop stop-color="white"/>
<stop offset="1" stop-color="#C3EFC7"/>
</linearGradient>
<linearGradient id="paint5_linear_8396_13991" x1="27.6714" y1="49.0234" x2="27.6714" y2="72.0002" gradientUnits="userSpaceOnUse">
<stop stop-color="white"/>
<stop offset="1" stop-color="#C3EFC7"/>
</linearGradient>
<linearGradient id="paint6_linear_8396_13991" x1="11.7118" y1="20.7734" x2="11.7118" y2="34.5833" gradientUnits="userSpaceOnUse">
<stop stop-color="white"/>
<stop offset="1" stop-color="#C3EFC7"/>
</linearGradient>
<linearGradient id="paint7_linear_8396_13991" x1="60.2882" y1="37.418" x2="60.2882" y2="51.2278" gradientUnits="userSpaceOnUse">
<stop stop-color="white"/>
<stop offset="1" stop-color="#C3EFC7"/>
</linearGradient>
<linearGradient id="paint8_linear_8396_13991" x1="27.6761" y1="0.0117187" x2="27.6761" y2="22.9747" gradientUnits="userSpaceOnUse">
<stop stop-color="white"/>
<stop offset="1" stop-color="#C3EFC7"/>
</linearGradient>
<linearGradient id="paint9_linear_8396_13991" x1="44.3246" y1="49.0273" x2="44.3246" y2="71.9904" gradientUnits="userSpaceOnUse">
<stop stop-color="white"/>
<stop offset="1" stop-color="#C3EFC7"/>
</linearGradient>
</defs>
</svg>
