<svg width="328" height="354" viewBox="0 0 328 354" fill="none" xmlns="http://www.w3.org/2000/svg">
<rect x="33.8804" y="73.0357" width="168.448" height="107.08" rx="12.3231" fill="black" fill-opacity="0.01" stroke="#E1E1E1" stroke-width="0.704179"/>
<rect x="90.5674" y="111.82" width="23.2914" height="53.2799" fill="url(#paint0_linear_8406_15115)"/>
<rect x="56.7129" y="127.5" width="23.2914" height="37.5976" fill="url(#paint1_linear_8406_15115)"/>
<rect x="124.422" y="99.7461" width="23.2914" height="65.3552" fill="url(#paint2_linear_8406_15115)"/>
<rect x="158.276" y="89.9062" width="23.2914" height="75.1952" fill="url(#paint3_linear_8406_15115)"/>
<path d="M290.94 228.953H159.164V249.834H290.94V228.953Z" fill="#74F9FC"/>
<path d="M290.939 223.396H268.424C243.404 210.605 205.842 210.59 181.064 223.396H159.156V251.472H159.171C159.105 261.315 165.578 271.187 178.604 278.719C204.414 293.644 246.128 293.718 271.777 278.888C284.825 271.341 291.188 261.395 290.903 251.472H290.924V223.396H290.939Z" fill="url(#paint4_linear_8406_15115)"/>
<path d="M271.785 254.476C246.135 269.306 204.421 269.233 178.611 254.308C152.801 239.382 152.669 215.252 178.318 200.422C203.967 185.592 245.681 185.665 271.492 200.591C297.302 215.516 297.434 239.646 271.785 254.476Z" fill="#74F9FC"/>
<path d="M290.94 198.984H159.164V227.06H290.94V198.984Z" fill="#74F9FC"/>
<path d="M290.939 193.415H268.424C243.404 180.624 205.842 180.609 181.064 193.415H159.156V221.491H159.171C159.105 231.334 165.578 241.206 178.604 248.739C204.414 263.664 246.128 263.737 271.777 248.907C284.825 241.36 291.188 231.415 290.902 221.491H290.924V193.415H290.939Z" fill="url(#paint5_linear_8406_15115)"/>
<path d="M271.785 224.195C246.135 239.025 204.421 238.952 178.611 224.026C152.801 209.101 152.669 184.971 178.318 170.141C203.967 155.31 245.681 155.384 271.492 170.309C297.302 185.235 297.434 209.365 271.785 224.195Z" fill="#74F9FC"/>
<path d="M290.94 168.699H159.164V196.775H290.94V168.699Z" fill="#74F9FC"/>
<path d="M290.939 163.134H268.424C243.404 150.343 205.842 150.328 181.064 163.134H159.156V191.21H159.171C159.105 201.053 165.578 210.925 178.604 218.457C204.414 233.383 246.128 233.463 271.777 218.626C284.825 211.079 291.188 201.133 290.902 191.21H290.924V163.134H290.939Z" fill="url(#paint6_linear_8406_15115)"/>
<path d="M271.785 191.703C246.135 206.533 204.421 206.46 178.611 191.534C152.801 176.609 152.669 152.479 178.318 137.648C203.967 122.818 245.681 122.892 271.492 137.817C297.302 152.743 297.434 176.873 271.785 191.703Z" fill="url(#paint7_linear_8406_15115)"/>
<path d="M245.36 176.418C234.215 182.865 216.086 182.828 204.876 176.345C193.658 169.861 193.607 159.373 204.751 152.933C215.895 146.487 234.025 146.523 245.235 153.007C256.452 159.49 256.504 169.979 245.36 176.418Z" fill="url(#paint8_linear_8406_15115)"/>
<path d="M229.403 216.747C229.403 218.896 227.661 220.641 225.515 220.641C223.37 220.641 221.635 218.896 221.635 216.747C221.635 214.598 223.37 212.859 225.515 212.859C227.661 212.859 229.403 214.598 229.403 216.747Z" fill="white"/>
<path d="M216.444 215.239C216.444 217.388 214.701 219.126 212.563 219.126C210.425 219.126 208.683 217.38 208.683 215.239C208.683 213.097 210.425 211.352 212.563 211.352C214.701 211.352 216.444 213.097 216.444 215.239Z" fill="white"/>
<path d="M242.584 215.239C242.584 217.388 240.841 219.126 238.703 219.126C236.565 219.126 234.822 217.38 234.822 215.239C234.822 213.097 236.558 211.352 238.703 211.352C240.848 211.352 242.584 213.097 242.584 215.239Z" fill="white"/>
<path d="M229.403 247.567C229.403 249.716 227.661 251.454 225.515 251.454C223.37 251.454 221.635 249.709 221.635 247.567C221.635 245.425 223.37 243.68 225.515 243.68C227.661 243.68 229.403 245.425 229.403 247.567Z" fill="white"/>
<path d="M216.444 246.063C216.444 248.212 214.701 249.958 212.563 249.958C210.425 249.958 208.683 248.212 208.683 246.063C208.683 243.914 210.425 242.176 212.563 242.176C214.701 242.176 216.444 243.921 216.444 246.063Z" fill="white"/>
<path d="M242.584 246.063C242.584 248.212 240.841 249.958 238.703 249.958C236.565 249.958 234.822 248.212 234.822 246.063C234.822 243.914 236.558 242.176 238.703 242.176C240.848 242.176 242.584 243.921 242.584 246.063Z" fill="white"/>
<path d="M229.403 278.395C229.403 280.544 227.661 282.282 225.515 282.282C223.37 282.282 221.635 280.537 221.635 278.395C221.635 276.253 223.37 274.508 225.515 274.508C227.661 274.508 229.403 276.246 229.403 278.395Z" fill="white"/>
<path d="M216.444 276.883C216.444 279.032 214.701 280.771 212.563 280.771C210.425 280.771 208.683 279.025 208.683 276.883C208.683 274.742 210.425 272.996 212.563 272.996C214.701 272.996 216.444 274.742 216.444 276.883Z" fill="white"/>
<path d="M242.584 276.883C242.584 279.032 240.841 280.771 238.703 280.771C236.565 280.771 234.822 279.025 234.822 276.883C234.822 274.742 236.558 272.996 238.703 272.996C240.848 272.996 242.584 274.742 242.584 276.883Z" fill="white"/>
<path d="M163.524 251.403C160.793 249.855 158.333 249.723 156.561 250.757H156.553L146.954 256.559L154.13 266.732L155.287 263.989C156.524 266.922 158.406 269.687 160.632 271.8L158.245 277.447L161.225 280.645L170.773 274.865C170.773 274.865 170.787 274.858 170.795 274.851L170.824 274.836C172.574 273.773 173.636 271.565 173.599 268.441C173.526 262.133 169.016 254.505 163.524 251.403Z" fill="url(#paint9_linear_8406_15115)"/>
<path d="M197.835 276.383L192.058 270.985C191.319 270.295 190.755 269.305 190.513 268.33C190.001 266.261 189.356 264.157 188.573 262.037C188.199 261.032 188.17 260.071 188.522 259.47L191.18 254.857C191.641 254.057 191.443 252.664 190.696 251.395L186.72 244.669C185.974 243.408 184.846 242.564 183.923 242.579L178.593 242.681C177.897 242.696 177.07 242.212 176.367 241.398C174.888 239.689 173.358 238.105 171.791 236.66C171.051 235.978 170.458 235.002 170.209 234.027L168.261 226.362C167.925 225.042 166.995 223.751 165.948 223.157L160.398 220.018C159.782 219.673 159.233 219.644 158.809 219.857L158.772 219.827L149.158 225.673L150.483 226.648C150.418 226.648 150.344 226.641 150.278 226.648C149.583 226.67 148.755 226.223 148.052 225.416L142.649 219.241C141.712 218.17 140.591 217.737 139.859 218.17L136.396 220.216L136.286 220.282L135.993 220.458C135.993 220.458 135.986 220.473 135.978 220.473L130.187 224.03L137.362 234.203L138.504 231.496C138.739 232.355 138.717 233.139 138.409 233.653C137.662 234.907 137.055 236.301 136.586 237.811C136.366 238.523 135.81 238.882 135.078 238.736L129.352 237.628C128.993 237.562 128.708 237.635 128.451 237.782L128.415 237.753L118.713 243.635L124.073 246.561L127.77 243.774L127.792 245.689C127.807 246.884 128.488 248.329 129.484 249.253L131.146 250.808L130.663 266.584L136.044 271.058C135.744 271.88 135.942 273.097 136.615 274.234L140.591 280.96C140.943 281.561 141.389 282.052 141.851 282.412C141.485 283.072 141.258 283.571 141.375 283.651C141.785 283.923 153.727 300.975 153.727 300.975L158.194 295.9L159.05 299.266C159.387 300.586 160.317 301.877 161.364 302.471L161.781 302.706L159.028 304.32L158.853 311.661L168.598 305.772V305.72C168.847 305.566 169.067 305.346 169.177 304.994L170.971 299.45C171.198 298.738 171.776 298.423 172.508 298.577C174.061 298.899 175.576 299.039 177.033 298.987C177.443 298.973 177.897 299.142 178.344 299.435L172.559 298.936L181.287 311.243L189.847 306.058L191.326 305.185C192.051 304.76 192.219 303.564 191.729 302.229L188.924 294.521C188.719 293.956 188.639 293.413 188.668 292.937L189.283 293.707L198.904 287.869L198.882 287.832C199.329 287.583 199.607 287.062 199.6 286.306L199.527 279.933C199.512 278.737 198.831 277.3 197.835 276.368V276.383ZM176.579 284.671C169.631 288.771 158.216 282.309 151.084 270.237C143.945 258.164 143.791 245.058 150.74 240.958C152.504 239.916 154.562 239.564 156.758 239.799L155.221 240.833L172.896 257.409L178.476 278.943L177.736 283.842C177.377 284.143 176.997 284.421 176.587 284.663L176.579 284.671Z" fill="url(#paint10_linear_8406_15115)"/>
<path d="M164.006 274.248C164.08 280.556 159.694 283.145 154.202 280.035C148.711 276.925 144.2 269.298 144.127 262.997C144.054 256.69 148.44 254.101 153.931 257.211C159.423 260.32 163.933 267.948 164.006 274.248Z" fill="white"/>
<path d="M129.751 223.102C130.46 222.683 131.262 222.742 131.937 223.001C132.612 223.261 133.254 223.75 133.802 224.375L139.205 230.551L139.207 230.553C139.81 231.244 140.373 231.45 140.646 231.441C142.19 231.387 143.784 231.535 145.405 231.872C145.587 231.907 145.66 231.872 145.675 231.864C145.683 231.86 145.74 231.83 145.789 231.676L145.79 231.672L147.584 226.127C147.825 225.376 148.358 224.79 149.131 224.581C149.861 224.384 150.624 224.572 151.289 224.947L151.29 224.948L156.84 228.087L156.842 228.088C158.076 228.788 159.101 230.182 159.549 231.626L159.631 231.915V231.916L161.579 239.581V239.582C161.779 240.371 162.268 241.178 162.869 241.732L163.466 242.291C164.655 243.421 165.821 244.628 166.958 245.906L167.523 246.551L167.524 246.552C168.146 247.271 168.712 247.494 168.972 247.489H168.974L174.305 247.387H174.308C175.067 247.375 175.793 247.708 176.387 248.152C176.918 248.55 177.409 249.082 177.813 249.698L177.981 249.967V249.968L181.957 256.693L182.112 256.97C182.458 257.621 182.689 258.306 182.781 258.964C182.878 259.653 182.834 260.397 182.514 261.031L182.446 261.156L179.788 265.77L179.785 265.774C179.673 265.967 179.599 266.452 179.805 267.168L179.91 267.489L179.911 267.491C180.607 269.381 181.197 271.251 181.683 273.099L181.884 273.89L181.971 274.188C182.168 274.783 182.51 275.373 182.931 275.834L183.147 276.054L183.148 276.055L188.926 281.452H188.925C190.02 282.47 190.812 284.022 190.922 285.451L190.935 285.735V285.736L191.008 292.109L191.001 292.396C190.961 293.062 190.747 293.703 190.286 294.18C189.73 294.755 188.959 294.939 188.186 294.79H188.185L182.459 293.683L182.452 293.682C182.295 293.65 182.24 293.685 182.23 293.69C182.216 293.7 182.149 293.747 182.096 293.92V293.921C181.606 295.499 180.968 296.966 180.177 298.295C180.058 298.498 179.974 298.981 180.165 299.675L180.265 299.986L183.067 307.692L183.167 307.986C183.381 308.673 183.46 309.362 183.374 309.989C183.276 310.703 182.941 311.432 182.239 311.852L182.235 311.854L178.361 314.142C177.652 314.56 176.85 314.502 176.176 314.243C175.5 313.983 174.858 313.495 174.311 312.869L168.907 306.693L168.905 306.691C168.302 305.999 167.738 305.793 167.465 305.802C165.921 305.856 164.327 305.708 162.706 305.371C162.526 305.336 162.452 305.372 162.438 305.38C162.429 305.385 162.372 305.415 162.323 305.568L162.322 305.572L160.528 311.113L160.529 311.114C160.288 311.867 159.755 312.454 158.981 312.663C158.251 312.86 157.488 312.671 156.823 312.296H156.822L151.272 309.156H151.271C149.954 308.409 148.875 306.872 148.481 305.328V305.327L146.534 297.663L146.533 297.662C146.333 296.873 145.845 296.067 145.243 295.512C143.647 294.04 142.091 292.428 140.589 290.692L140.588 290.691C139.967 289.972 139.4 289.75 139.141 289.755H139.139L133.808 289.857H133.805C133.045 289.869 132.32 289.536 131.726 289.092C131.194 288.694 130.703 288.163 130.299 287.546L130.131 287.276L126.155 280.551C125.723 279.82 125.437 279.032 125.331 278.28C125.228 277.546 125.285 276.747 125.666 276.087L128.324 271.475L128.327 271.469C128.455 271.249 128.533 270.646 128.202 269.755L128.201 269.752C127.406 267.592 126.75 265.459 126.229 263.354C126.032 262.562 125.558 261.744 124.965 261.19L124.964 261.189L119.189 255.794L118.974 255.583C117.92 254.497 117.195 252.919 117.178 251.509V251.508L117.104 245.134L117.105 245.133C117.096 244.367 117.3 243.608 117.826 243.064C118.382 242.489 119.154 242.305 119.927 242.454H119.928L125.653 243.562L125.66 243.562C125.817 243.594 125.872 243.56 125.882 243.554C125.896 243.545 125.963 243.498 126.017 243.324V243.323C126.506 241.745 127.144 240.278 127.936 238.949C128.071 238.717 128.161 238.119 127.848 237.258V237.257L125.045 229.552L124.945 229.258C124.731 228.571 124.652 227.881 124.738 227.254C124.837 226.54 125.171 225.812 125.873 225.393L125.877 225.391L129.751 223.102ZM153.334 248.795C148.871 246.269 144.69 245.843 141.655 247.634C138.621 249.424 136.976 253.287 137.036 258.411C137.096 263.505 138.856 269.63 142.353 275.543C145.846 281.452 150.365 285.947 154.801 288.457C159.264 290.982 163.444 291.408 166.479 289.617C169.513 287.827 171.158 283.965 171.098 278.841C171.038 273.747 169.279 267.622 165.782 261.709V261.708C162.289 255.799 157.77 251.305 153.334 248.795Z" fill="white" stroke="#29B2EF" stroke-width="2"/>
<defs>
<linearGradient id="paint0_linear_8406_15115" x1="90.5674" y1="111.82" x2="134.821" y2="126.671" gradientUnits="userSpaceOnUse">
<stop stop-color="#209BC4"/>
<stop offset="1" stop-color="#4DC9C0"/>
</linearGradient>
<linearGradient id="paint1_linear_8406_15115" x1="56.7129" y1="127.5" x2="96.8687" y2="146.596" gradientUnits="userSpaceOnUse">
<stop stop-color="#209BC4"/>
<stop offset="1" stop-color="#4DC9C0"/>
</linearGradient>
<linearGradient id="paint2_linear_8406_15115" x1="124.422" y1="99.7461" x2="170.23" y2="112.278" gradientUnits="userSpaceOnUse">
<stop stop-color="#209BC4"/>
<stop offset="1" stop-color="#4DC9C0"/>
</linearGradient>
<linearGradient id="paint3_linear_8406_15115" x1="158.276" y1="89.9062" x2="204.879" y2="100.987" gradientUnits="userSpaceOnUse">
<stop stop-color="#209BC4"/>
<stop offset="1" stop-color="#4DC9C0"/>
</linearGradient>
<linearGradient id="paint4_linear_8406_15115" x1="159.164" y1="251.883" x2="290.939" y2="251.883" gradientUnits="userSpaceOnUse">
<stop stop-color="#45ACF4"/>
<stop offset="0.49" stop-color="#376ADB"/>
<stop offset="0.59" stop-color="#3A71DC"/>
<stop offset="0.75" stop-color="#4387E1"/>
<stop offset="0.94" stop-color="#52ABE9"/>
<stop offset="1" stop-color="#58B9EC"/>
</linearGradient>
<linearGradient id="paint5_linear_8406_15115" x1="119.104" y1="221.902" x2="119.837" y2="221.902" gradientUnits="userSpaceOnUse">
<stop stop-color="#45ACF4"/>
<stop offset="0.49" stop-color="#376ADB"/>
<stop offset="0.59" stop-color="#3A71DC"/>
<stop offset="0.75" stop-color="#4387E1"/>
<stop offset="0.94" stop-color="#52ABE9"/>
<stop offset="1" stop-color="#58B9EC"/>
</linearGradient>
<linearGradient id="paint6_linear_8406_15115" x1="119.104" y1="191.621" x2="119.837" y2="191.621" gradientUnits="userSpaceOnUse">
<stop stop-color="#45ACF4"/>
<stop offset="0.49" stop-color="#376ADB"/>
<stop offset="0.59" stop-color="#3A71DC"/>
<stop offset="0.75" stop-color="#4387E1"/>
<stop offset="0.94" stop-color="#52ABE9"/>
<stop offset="1" stop-color="#58B9EC"/>
</linearGradient>
<linearGradient id="paint7_linear_8406_15115" x1="166.938" y1="130.403" x2="179.174" y2="215.58" gradientUnits="userSpaceOnUse">
<stop stop-color="#F3F6FF"/>
<stop offset="0.76" stop-color="#ADF7FE"/>
<stop offset="1" stop-color="#96F8FE"/>
</linearGradient>
<linearGradient id="paint8_linear_8406_15115" x1="225.055" y1="181.024" x2="225.055" y2="147.447" gradientUnits="userSpaceOnUse">
<stop stop-color="#21ACEF"/>
<stop offset="1" stop-color="#6DEAF6"/>
</linearGradient>
<linearGradient id="paint9_linear_8406_15115" x1="131.68" y1="229.136" x2="202.33" y2="312.359" gradientUnits="userSpaceOnUse">
<stop stop-color="#45ACF4"/>
<stop offset="0.49" stop-color="#376ADB"/>
<stop offset="0.56" stop-color="#3A71DC"/>
<stop offset="0.67" stop-color="#4387E1"/>
<stop offset="0.81" stop-color="#52ABE8"/>
<stop offset="0.96" stop-color="#67DDF3"/>
<stop offset="1" stop-color="#6DEAF6"/>
</linearGradient>
<linearGradient id="paint10_linear_8406_15115" x1="131.49" y1="229.296" x2="193.497" y2="302.339" gradientUnits="userSpaceOnUse">
<stop stop-color="#45ACF4"/>
<stop offset="0.59" stop-color="#376ADB"/>
<stop offset="0.64" stop-color="#3A71DC"/>
<stop offset="0.73" stop-color="#4387E1"/>
<stop offset="0.84" stop-color="#52ABE8"/>
<stop offset="0.97" stop-color="#67DDF3"/>
<stop offset="1" stop-color="#6DEAF6"/>
</linearGradient>
</defs>
</svg>
