<svg width="84" height="72" viewBox="0 0 84 72" fill="none" xmlns="http://www.w3.org/2000/svg">
<path d="M60 64.5V72H0V64.5C0 57.5715 9.40772 51.7566 22.1751 50.0332C22.7554 48.9578 23.0874 47.7537 23.0874 46.4832C23.0874 45.3386 22.748 44.2705 22.2603 43.2629C17.9251 40.3047 15 34.9956 15 28.875C15 19.5552 21.7156 12 30 12C38.2844 12 45 19.5552 45 28.875C45 34.9956 42.075 40.3047 37.7398 43.2629C37.252 44.2705 36.9126 45.3386 36.9126 46.4832C36.9126 47.7537 37.2446 48.9578 37.825 50.0332C50.5923 51.7566 60 57.5715 60 64.5Z" fill="url(#paint0_linear_8396_14015)"/>
<path d="M84 36C84 38.209 82.2092 40 80 40H56C53.7908 40 52 38.209 52 36V20C52 17.7908 53.7908 16 56 16V12C56 5.37256 61.3726 0 68 0C74.6274 0 80 5.37256 80 12V16C82.2092 16 84 17.7908 84 20V36ZM68 24C65.7908 24 64 25.7908 64 28C64 30.209 65.7908 32 68 32C70.2092 32 72 30.209 72 28C72 25.7908 70.2092 24 68 24ZM68 4C63.5889 4 60 7.58887 60 12V16H76V12C76 7.58887 72.4114 4 68 4Z" fill="url(#paint1_linear_8396_14015)"/>
<defs>
<linearGradient id="paint0_linear_8396_14015" x1="30" y1="12" x2="30" y2="72" gradientUnits="userSpaceOnUse">
<stop stop-color="white"/>
<stop offset="1" stop-color="#F7DEED"/>
</linearGradient>
<linearGradient id="paint1_linear_8396_14015" x1="68" y1="0" x2="68" y2="40" gradientUnits="userSpaceOnUse">
<stop stop-color="white"/>
<stop offset="1" stop-color="#F7DEED"/>
</linearGradient>
</defs>
</svg>
