<svg width="2052" height="449" viewBox="0 0 2052 449" fill="none" xmlns="http://www.w3.org/2000/svg">
<g clip-path="url(#clip0_979_23)">
<path d="M662.963 139.018H618.83V292.077H662.963V139.018Z" fill="white"/>
<path d="M707.099 94.8848H662.967V139.017H707.099V94.8848Z" fill="white"/>
<path d="M264.32 3.51172H220.188V47.6442H264.32V3.51172Z" fill="white"/>
<path d="M1621.97 7.12109H1577.84V51.2536H1621.97V7.12109Z" fill="white"/>
<path d="M618.855 292.102H574.723V336.234H618.855V292.102Z" fill="white"/>
<path d="M171.766 48.6191V120.234C163.065 111.132 152.884 103.885 141.249 98.4187C129.714 92.9272 116.901 90.194 102.809 90.194C86.4847 90.194 71.9912 93.3284 59.1777 99.5972C46.2639 105.841 35.5066 113.965 26.7052 123.945C18.0041 134.026 11.3591 145.084 6.74525 157.295C2.25678 169.532 0 181.769 0 193.981V237.135C0 249.347 2.25678 261.584 6.74525 273.82C11.3591 285.932 18.0041 297.09 26.7052 307.07C35.5066 317.15 46.2639 325.25 59.1777 331.519C71.9912 337.787 86.4847 340.922 102.809 340.922C115.622 340.922 127.959 338.063 139.87 332.497C151.806 326.829 162.388 319.482 171.766 310.38L176.555 336.208H220.186V48.6191H171.766ZM171.766 239.969C171.766 246.513 170.311 253.158 167.378 259.904C164.343 266.674 160.131 272.742 154.664 278.208C149.173 283.675 142.628 288.088 134.98 291.423C127.257 294.633 118.957 296.313 109.855 296.313C99.4737 296.313 90.4716 294.533 82.8488 290.922C75.1256 287.311 68.7564 282.622 63.5909 276.829C58.4004 271.062 54.5889 264.618 52.1315 257.572C49.5989 250.525 48.3201 243.68 48.3201 237.135V193.981C48.3201 187.336 49.5989 180.59 52.1315 173.544C54.5889 166.498 58.4004 160.054 63.5909 154.261C68.7564 148.494 75.1256 143.705 82.8488 139.994C90.4716 136.182 99.4737 134.326 109.855 134.326C118.957 134.326 127.257 136.182 134.98 139.994C142.628 143.705 149.173 148.494 154.664 154.261C160.131 160.054 164.343 166.498 167.378 173.544C170.311 180.59 171.766 187.336 171.766 193.981V239.969Z" fill="white"/>
<path d="M476.081 228.711V222.167C476.081 211.785 475.905 202.106 475.604 193.004C475.303 183.902 474.225 175.201 472.37 167.001C470.414 158.676 467.279 150.652 462.991 143.029C458.578 135.306 452.309 127.557 444.21 119.734C434.431 110.657 423.172 103.51 410.358 98.1191C397.545 92.8533 384.029 90.1953 369.962 90.1953H362.038C345.689 90.1953 331.02 93.3297 317.805 99.5985C304.716 105.842 293.558 113.967 284.556 123.947C275.453 134.027 268.407 145.085 263.442 157.297C258.352 169.534 255.895 181.77 255.895 193.982V237.137C255.895 249.348 258.252 261.585 262.941 273.822C267.63 285.933 274.375 296.991 283.101 306.871C291.903 316.751 302.66 324.674 315.473 330.843C328.387 336.911 342.856 339.945 359.205 339.945H372.796C386.888 339.945 399.977 337.688 412.214 333.175C424.451 328.586 435.208 322.518 444.385 314.895C453.588 307.172 460.835 298.37 466.025 288.29C471.191 278.31 473.749 267.929 473.749 257.372H425.805C425.805 263.917 424.15 269.609 420.714 274.499C417.204 279.288 412.791 283.4 407.324 286.71C401.833 289.945 395.489 292.402 388.242 293.957C381.095 295.537 373.773 296.314 366.226 296.314C355.87 296.314 346.868 294.534 339.245 290.923C331.522 287.312 325.152 282.623 319.962 276.831C314.796 271.063 310.86 264.619 308.227 257.573C305.594 250.527 304.215 243.681 304.215 237.137V228.711H476.081ZM310.584 169.333C313.894 162.889 318.307 157.096 323.974 151.931C329.566 146.74 336.211 142.527 343.934 139.218C351.557 135.983 360.082 134.328 369.461 134.328C377.284 134.328 384.832 135.582 392.053 138.039C399.2 140.572 405.569 144.207 411.035 148.897C416.527 153.586 420.915 159.253 424.25 166.023C427.485 172.768 429.14 180.191 429.14 188.315H304.716C305.293 182.046 307.249 175.702 310.584 169.333Z" fill="white"/>
<path d="M599.476 292.102L598.272 289.168L527.259 94.8848H478.438L570.489 336.209H617.555L599.476 292.102Z" fill="white"/>
<path d="M941.799 228.711V222.167C941.799 211.785 941.699 202.106 941.423 193.004C941.022 183.902 939.944 175.201 938.088 167.001C936.233 158.676 933.098 150.652 928.685 143.029C924.297 135.306 918.028 127.557 909.904 119.734C900.225 110.657 888.991 103.51 876.077 98.1191C863.264 92.8533 849.848 90.1953 835.756 90.1953H827.757C811.508 90.1953 796.739 93.3297 783.625 99.5985C770.435 105.842 759.377 113.967 750.274 123.947C741.172 134.027 734.126 145.085 729.136 157.297C724.146 169.534 721.613 181.77 721.613 193.982V237.137C721.613 249.348 723.97 261.585 728.659 273.822C733.349 285.933 740.094 296.991 748.895 306.871C757.621 316.751 768.479 324.674 781.292 330.843C794.106 336.911 808.675 339.945 824.898 339.945H838.514C852.582 339.945 865.796 337.688 878.033 333.175C890.245 328.586 900.927 322.518 910.205 314.895C919.407 307.172 926.554 298.37 931.719 288.29C936.91 278.31 939.543 267.929 939.543 257.372H891.624C891.624 263.917 889.868 269.609 886.433 274.499C883.023 279.288 878.509 283.4 873.043 286.71C867.552 289.945 861.207 292.402 854.061 293.957C846.814 295.537 839.492 296.314 831.945 296.314C821.689 296.314 812.687 294.534 804.964 290.923C797.316 287.312 790.871 282.623 785.681 276.831C780.59 271.063 776.679 264.619 773.945 257.573C771.312 250.527 770.034 243.681 770.034 237.137V228.711H941.799ZM776.302 169.333C779.612 162.889 784.126 157.096 789.693 151.931C795.36 146.74 802.03 142.527 809.653 139.218C817.376 135.983 825.876 134.328 835.28 134.328C843.103 134.328 850.626 135.582 857.772 138.039C865.019 140.572 871.363 144.207 876.854 148.897C882.321 153.586 886.634 159.253 889.969 166.023C893.279 172.768 894.858 180.191 894.858 188.315H770.435C771.112 182.046 773.068 175.702 776.302 169.333Z" fill="white"/>
<path d="M978.008 0V336.209H1026.33V0H978.008Z" fill="white"/>
<path d="M1284.18 157.297C1279.09 145.085 1272.04 134.027 1263.04 123.947C1253.94 113.967 1242.8 105.842 1229.69 99.5985C1216.48 93.3297 1201.81 90.1953 1185.58 90.1953H1168.16C1151.93 90.1953 1137.16 93.3297 1124.05 99.5985C1110.83 105.842 1099.78 113.967 1090.7 123.947C1081.6 134.027 1074.55 145.085 1069.56 157.297C1064.57 169.534 1062.04 181.77 1062.04 193.982V237.137C1062.04 249.348 1064.37 261.585 1069.06 273.822C1073.77 285.933 1080.52 296.991 1089.32 306.871C1098.02 316.751 1108.78 324.674 1121.69 330.843C1134.5 336.911 1149.07 339.945 1165.32 339.945H1188.32C1204.64 339.945 1219.21 336.911 1232.05 330.843C1244.86 324.674 1255.62 316.751 1264.42 306.871C1273.22 296.991 1279.87 285.933 1284.56 273.822C1289.27 261.585 1291.6 249.348 1291.6 237.137V193.982C1291.6 181.77 1289.17 169.534 1284.18 157.297ZM1243.28 237.137C1243.28 246.816 1241.43 255.416 1237.61 262.763C1233.9 270.085 1228.91 276.254 1222.64 281.244C1216.38 286.334 1209.25 290.045 1201.23 292.578C1193.31 295.035 1185.08 296.314 1176.58 296.314C1168.08 296.314 1160.03 295.035 1152.21 292.578C1144.38 290.045 1137.34 286.334 1131.09 281.244C1124.83 276.254 1119.84 270.085 1116.02 262.763C1112.31 255.416 1110.46 246.816 1110.46 237.137V193.982C1110.46 184.604 1112.21 176.178 1115.82 168.856C1119.36 161.509 1124.15 155.241 1130.12 150.075C1136.08 144.885 1143.13 140.973 1151.23 138.34C1159.35 135.682 1167.85 134.328 1176.58 134.328C1185.31 134.328 1193.31 135.582 1201.23 138.039C1209.25 140.572 1216.38 144.283 1222.64 149.097C1228.91 153.987 1233.9 160.13 1237.61 167.678C1241.43 175.201 1243.28 183.902 1243.28 193.982V237.137Z" fill="white"/>
<path d="M1491.15 254.539C1491.15 261.083 1489.6 267.051 1486.46 272.342C1483.33 277.733 1479.22 282.021 1474.05 285.557C1468.86 288.967 1462.89 291.6 1456.25 293.481C1449.5 295.336 1442.56 296.314 1435.31 296.314C1427.49 296.314 1419.76 295.136 1412.02 292.778C1404.39 290.446 1397.55 286.811 1391.38 282.021C1385.31 277.131 1380.42 270.963 1376.61 263.44C1372.9 255.918 1371.04 247.016 1371.04 236.635V193.982C1371.04 183.626 1372.9 174.724 1376.61 167.176C1380.42 159.654 1385.31 153.586 1391.38 148.896C1397.55 144.207 1404.39 140.672 1412.02 138.34C1419.76 135.983 1427.49 134.804 1435.31 134.804C1442.56 134.804 1449.4 135.682 1455.95 137.638C1462.49 139.493 1468.46 142.151 1473.55 145.561C1478.74 148.997 1482.95 153.285 1486.09 158.475C1489.1 163.666 1490.68 169.533 1490.68 176.078H1539.1C1539.1 161.133 1536.36 148.119 1530.87 137.161C1525.41 126.203 1517.96 117.201 1508.58 110.155C1499.18 103.109 1488.32 97.9184 1475.91 94.6084C1463.57 91.3737 1450.48 89.7188 1436.77 89.7188C1423.05 89.7188 1408.81 91.7749 1395.19 95.787C1381.6 99.8742 1369.39 106.143 1358.53 114.568C1347.75 123.069 1339.05 133.826 1332.5 147.041C1325.96 160.13 1322.62 175.802 1322.62 193.982V236.635C1322.62 254.539 1325.96 269.985 1332.7 283.2C1339.45 296.314 1348.25 307.071 1359.01 315.572C1369.86 323.997 1382 330.241 1395.69 334.353C1409.28 338.365 1423.07 340.421 1437.17 340.421C1451.26 340.421 1464.07 338.767 1476.38 335.532C1488.72 332.197 1499.68 327.031 1509.06 319.985C1518.46 312.939 1525.88 304.037 1531.37 293.28C1536.84 282.422 1539.57 269.509 1539.57 254.539H1491.15Z" fill="white"/>
<path d="M1575.68 94.8848V336.209H1624.1V94.8848H1575.68Z" fill="white"/>
<path d="M1783.73 293.481C1770.82 293.481 1761.44 290.923 1755.57 285.732C1749.6 280.567 1746.57 270.286 1746.57 255.015V135.682H1806.25V94.8845H1746.57V37.0859H1715.18C1715.18 50.8773 1713.32 62.3117 1709.48 71.414C1705.77 80.5163 1700.78 87.5625 1694.71 92.7531C1688.67 97.9186 1681.63 101.554 1673.8 103.611C1665.98 105.567 1658.13 106.645 1650.31 106.645V135.682H1698.25V255.918C1698.25 284.755 1704.02 306.094 1715.65 319.985C1727.21 333.977 1746.57 340.923 1773.85 340.923H1780.42C1783.26 340.923 1786.19 340.823 1789.32 340.723C1792.46 340.522 1795.49 340.321 1798.23 340.221C1801.06 340.046 1803.12 339.845 1804.37 339.544L1809.96 293.481H1783.73Z" fill="white"/>
<path d="M2051.76 94.8848V359.805H2003.36V348.396C2003.41 347.468 2003.44 346.565 2003.44 345.613V298.647C1994.64 308.05 1984.46 315.472 1972.92 320.964C1961.39 326.43 1948.47 329.163 1934.38 329.163C1918.13 329.163 1903.56 326.054 1890.75 319.785C1877.94 313.516 1867.08 305.417 1858.38 295.337C1849.58 285.357 1842.91 274.198 1838.42 262.062C1833.83 249.85 1831.57 237.613 1831.57 225.377V94.8848H1879.99V225.377C1879.99 231.946 1881.17 238.792 1883.7 245.838C1886.26 252.884 1890.07 259.329 1895.26 265.096C1900.33 270.863 1906.8 275.678 1914.42 279.389C1922.14 283.2 1931.15 285.056 1941.43 285.056C1950.53 285.056 1958.93 283.2 1966.55 279.389C1974.3 275.678 1980.85 270.863 1986.31 265.096C1991.8 259.329 1996.02 252.884 1998.95 245.838C2001.98 238.792 2003.44 231.946 2003.44 225.377V94.8848H2051.76Z" fill="white"/>
<path d="M2003.36 359.807H1917.05V403.914H2003.36V359.807Z" fill="white"/>
<path d="M1917.05 403.912H1872.95V448.045H1917.05V403.912Z" fill="white"/>
</g>
<defs>
<clipPath id="clip0_979_23">
<rect width="2051.76" height="448.045" fill="white"/>
</clipPath>
</defs>
</svg>
