<svg width="901" height="162" viewBox="0 0 901 162" fill="none" xmlns="http://www.w3.org/2000/svg">
<g clip-path="url(#clip0_998_42)">
<path d="M404.315 51.3906H388.543V106.089H404.315V51.3906Z" fill="white"/>
<path d="M420.084 35.6172H404.312V51.3888H420.084V35.6172Z" fill="white"/>
<path d="M261.85 2.96484H246.078V18.7365H261.85V2.96484Z" fill="white"/>
<path d="M747.033 4.25391H731.262V20.0255H747.033V4.25391Z" fill="white"/>
<path d="M388.549 106.098H372.777V121.869H388.549V106.098Z" fill="white"/>
<path d="M228.774 19.0859V44.679C225.665 41.4261 222.027 38.8363 217.869 36.8828C213.747 34.9203 209.167 33.9435 204.131 33.9435C198.298 33.9435 193.118 35.0637 188.539 37.3039C183.924 39.5353 180.08 42.4387 176.934 46.0052C173.825 49.6076 171.45 53.5595 169.801 57.9235C168.197 62.2966 167.391 66.6696 167.391 71.0337V86.4558C167.391 90.8199 168.197 95.193 169.801 99.566C171.45 103.894 173.825 107.882 176.934 111.448C180.08 115.051 183.924 117.945 188.539 120.186C193.118 122.426 198.298 123.546 204.131 123.546C208.71 123.546 213.119 122.524 217.376 120.535C221.641 118.51 225.423 115.884 228.774 112.631L230.486 121.861H246.078V19.0859H228.774ZM228.774 87.4684C228.774 89.8073 228.255 92.182 227.206 94.5926C226.122 97.0121 224.617 99.1807 222.663 101.134C220.7 103.088 218.362 104.665 215.628 105.857C212.868 107.004 209.902 107.604 206.649 107.604C202.939 107.604 199.722 106.968 196.998 105.677C194.238 104.387 191.962 102.711 190.116 100.641C188.261 98.5803 186.899 96.2773 186.021 93.7592C185.116 91.2411 184.659 88.7947 184.659 86.4558V71.0337C184.659 68.659 185.116 66.2485 186.021 63.7304C186.899 61.2123 188.261 58.9093 190.116 56.8392C191.962 54.7782 194.238 53.0666 196.998 51.7404C199.722 50.3783 202.939 49.7151 206.649 49.7151C209.902 49.7151 212.868 50.3783 215.628 51.7404C218.362 53.0666 220.7 54.7782 222.663 56.8392C224.617 58.9093 226.122 61.2123 227.206 63.7304C228.255 66.2485 228.774 68.659 228.774 71.0337V87.4684Z" fill="white"/>
<path d="M337.528 83.4428V81.1039C337.528 77.394 337.465 73.935 337.357 70.6821C337.25 67.4292 336.865 64.3197 336.201 61.3894C335.502 58.4143 334.382 55.5467 332.85 52.8225C331.273 50.0625 329.032 47.2935 326.138 44.4976C322.643 41.2537 318.62 38.6998 314.04 36.7731C309.461 34.8913 304.631 33.9414 299.604 33.9414H296.772C290.93 33.9414 285.687 35.0615 280.965 37.3018C276.287 39.5332 272.299 42.4366 269.082 46.0031C265.83 49.6055 263.311 53.5574 261.537 57.9214C259.718 62.2945 258.84 66.6675 258.84 71.0316V86.4537C258.84 90.8178 259.682 95.1908 261.358 99.5639C263.034 103.892 265.444 107.844 268.563 111.375C271.708 114.905 275.552 117.737 280.132 119.942C284.747 122.11 289.917 123.194 295.76 123.194H300.617C305.653 123.194 310.331 122.388 314.704 120.775C319.077 119.135 322.921 116.966 326.201 114.242C329.49 111.482 332.079 108.337 333.934 104.734C335.78 101.168 336.694 97.458 336.694 93.6854H319.561C319.561 96.0242 318.969 98.0584 317.741 99.8058C316.487 101.517 314.91 102.987 312.956 104.17C310.994 105.326 308.727 106.204 306.137 106.76C303.583 107.324 300.966 107.602 298.269 107.602C294.568 107.602 291.351 106.966 288.627 105.675C285.867 104.385 283.591 102.709 281.736 100.639C279.89 98.5782 278.483 96.2751 277.542 93.7571C276.601 91.239 276.108 88.7926 276.108 86.4537V83.4428H337.528ZM278.384 62.2228C279.567 59.9198 281.144 57.8497 283.169 56.0037C285.168 54.1488 287.542 52.6433 290.302 51.4604C293.027 50.3045 296.073 49.713 299.425 49.713C302.221 49.713 304.918 50.1611 307.499 51.0393C310.053 51.9443 312.329 53.2437 314.282 54.9194C316.245 56.5952 317.813 58.6204 319.005 61.0399C320.161 63.4505 320.752 66.103 320.752 69.0064H276.287C276.493 66.7661 277.192 64.4989 278.384 62.2228Z" fill="white"/>
<path d="M381.623 106.097L381.193 105.048L355.815 35.6172H338.367L371.264 121.859H388.084L381.623 106.097Z" fill="white"/>
<path d="M503.961 83.4428V81.1039C503.961 77.394 503.925 73.935 503.827 70.6821C503.683 67.4292 503.298 64.3197 502.635 61.3894C501.972 58.4143 500.852 55.5467 499.275 52.8225C497.706 50.0625 495.466 47.2935 492.563 44.4976C489.104 41.2537 485.089 38.6998 480.474 36.7731C475.895 34.8913 471.101 33.9414 466.065 33.9414H463.206C457.399 33.9414 452.121 35.0615 447.434 37.3018C442.721 39.5332 438.769 42.4366 435.516 46.0031C432.263 49.6055 429.745 53.5574 427.962 57.9214C426.179 62.2945 425.273 66.6675 425.273 71.0316V86.4537C425.273 90.8178 426.116 95.1908 427.792 99.5639C429.467 103.892 431.878 107.844 435.023 111.375C438.142 114.905 442.022 117.737 446.601 119.942C451.18 122.11 456.387 123.194 462.184 123.194H467.05C472.077 123.194 476.8 122.388 481.173 120.775C485.537 119.135 489.355 116.966 492.67 114.242C495.959 111.482 498.513 108.337 500.359 104.734C502.214 101.168 503.155 97.458 503.155 93.6854H486.03C486.03 96.0242 485.403 98.0584 484.175 99.8058C482.956 101.517 481.343 102.987 479.39 104.17C477.427 105.326 475.16 106.204 472.606 106.76C470.016 107.324 467.4 107.602 464.702 107.602C461.037 107.602 457.82 106.966 455.06 105.675C452.327 104.385 450.024 102.709 448.169 100.639C446.35 98.5782 444.952 96.2751 443.975 93.7571C443.034 91.239 442.577 88.7926 442.577 86.4537V83.4428H503.961ZM444.818 62.2228C446.001 59.9198 447.614 57.8497 449.603 56.0037C451.628 54.1488 454.012 52.6433 456.736 51.4604C459.496 50.3045 462.534 49.713 465.894 49.713C468.69 49.713 471.379 50.1611 473.932 51.0393C476.522 51.9443 478.789 53.2437 480.752 54.9194C482.705 56.5952 484.247 58.6204 485.439 61.0399C486.621 63.4505 487.186 66.103 487.186 69.0064H442.721C442.963 66.7661 443.662 64.4989 444.818 62.2228Z" fill="white"/>
<path d="M516.898 1.70703V121.858H534.167V1.70703H516.898Z" fill="white"/>
<path d="M626.316 57.9214C624.497 53.5574 621.979 49.6055 618.762 46.0031C615.509 42.4366 611.531 39.5332 606.844 37.3018C602.121 35.0615 596.879 33.9414 591.081 33.9414H584.853C579.055 33.9414 573.777 35.0615 569.091 37.3018C564.368 39.5332 560.416 42.4366 557.172 46.0031C553.919 49.6055 551.401 53.5574 549.618 57.9214C547.835 62.2945 546.93 66.6675 546.93 71.0316V86.4537C546.93 90.8178 547.763 95.1908 549.439 99.5639C551.123 103.892 553.534 107.844 556.679 111.375C559.789 114.905 563.633 117.737 568.248 119.942C572.827 122.11 578.034 123.194 583.841 123.194H592.058C597.892 123.194 603.098 122.11 607.686 119.942C612.265 117.737 616.11 114.905 619.255 111.375C622.4 107.844 624.775 103.892 626.451 99.5639C628.136 95.1908 628.969 90.8178 628.969 86.4537V71.0316C628.969 66.6675 628.1 62.2945 626.316 57.9214ZM611.701 86.4537C611.701 89.9127 611.038 92.9864 609.676 95.612C608.349 98.2287 606.566 100.433 604.326 102.216C602.086 104.035 599.541 105.362 596.673 106.267C593.841 107.145 590.902 107.602 587.864 107.602C584.826 107.602 581.95 107.145 579.154 106.267C576.358 105.362 573.84 104.035 571.609 102.216C569.368 100.433 567.585 98.2287 566.223 95.612C564.897 92.9864 564.234 89.9127 564.234 86.4537V71.0316C564.234 67.6801 564.861 64.6692 566.151 62.0525C567.415 59.4269 569.126 57.1866 571.259 55.3406C573.392 53.4857 575.91 52.0877 578.804 51.1468C581.708 50.1969 584.746 49.713 587.864 49.713C590.983 49.713 593.841 50.1611 596.673 51.0393C599.541 51.9443 602.086 53.2706 604.326 54.9911C606.566 56.7386 608.349 58.934 609.676 61.6313C611.038 64.3197 611.701 67.4292 611.701 71.0316V86.4537Z" fill="white"/>
<path d="M700.283 92.6712C700.283 95.01 699.727 97.1428 698.607 99.0336C697.487 100.96 696.017 102.493 694.171 103.756C692.316 104.975 690.183 105.916 687.809 106.588C685.398 107.251 682.916 107.6 680.326 107.6C677.53 107.6 674.77 107.179 672.001 106.337C669.277 105.504 666.831 104.204 664.626 102.493C662.458 100.745 660.71 98.5407 659.348 95.8524C658.022 93.164 657.359 89.9828 657.359 86.2729V71.03C657.359 67.329 658.022 64.1478 659.348 61.4505C660.71 58.7622 662.458 56.5936 664.626 54.9178C666.831 53.2421 669.277 51.9786 672.001 51.1452C674.77 50.3028 677.53 49.8817 680.326 49.8817C682.916 49.8817 685.362 50.1953 687.701 50.8943C690.04 51.5574 692.173 52.5073 693.992 53.726C695.847 54.9537 697.352 56.486 698.472 58.341C699.548 60.196 700.112 62.2929 700.112 64.6317H717.416C717.416 59.2909 716.439 54.64 714.477 50.724C712.523 46.808 709.862 43.5909 706.511 41.0729C703.15 38.5548 699.27 36.6998 694.834 35.517C690.425 34.361 685.748 33.7695 680.846 33.7695C675.944 33.7695 670.854 34.5043 665.988 35.9381C661.131 37.3988 656.767 39.6391 652.887 42.65C649.034 45.6879 645.924 49.5322 643.585 54.2547C641.247 58.9324 640.055 64.5331 640.055 71.03V86.2729C640.055 92.6712 641.246 98.1912 643.657 102.914C646.068 107.6 649.213 111.445 653.057 114.483C656.937 117.494 661.275 119.725 666.167 121.194C671.024 122.628 675.953 123.363 680.989 123.363C686.025 123.363 690.605 122.772 695.004 121.616C699.413 120.424 703.329 118.578 706.681 116.06C710.041 113.542 712.694 110.36 714.656 106.516C716.61 102.636 717.586 98.021 717.586 92.6712H700.283Z" fill="white"/>
<path d="M730.492 35.6172V121.859H747.796V35.6172H730.492Z" fill="white"/>
<path d="M804.842 106.589C800.227 106.589 796.876 105.675 794.779 103.82C792.646 101.974 791.562 98.2996 791.562 92.8423V50.1962H812.89V35.6164H791.562V14.9609H780.343C780.343 19.8896 779.679 23.9758 778.308 27.2287C776.982 30.4816 775.199 32.9997 773.03 34.8547C770.871 36.7007 768.353 38 765.557 38.7349C762.761 39.4338 759.956 39.8192 757.16 39.8192V50.1962H774.294V93.1649C774.294 103.47 776.355 111.096 780.513 116.061C784.644 121.061 791.562 123.543 801.312 123.543H803.66C804.672 123.543 805.721 123.507 806.841 123.471C807.961 123.4 809.045 123.328 810.022 123.292C811.035 123.229 811.769 123.158 812.217 123.05L814.216 106.589H804.842Z" fill="white"/>
<path d="M900.625 35.6172V130.292H883.33V126.214C883.348 125.883 883.357 125.56 883.357 125.22V108.435C880.212 111.796 876.574 114.448 872.451 116.411C868.329 118.364 863.714 119.341 858.678 119.341C852.871 119.341 847.665 118.23 843.086 115.99C838.507 113.749 834.626 110.855 831.517 107.253C828.372 103.686 825.988 99.6983 824.384 95.3611C822.744 90.9971 821.938 86.624 821.938 82.251V35.6172H839.241V82.251C839.241 84.5988 839.663 87.0452 840.568 89.5633C841.482 92.0814 842.844 94.3844 844.699 96.4455C846.509 98.5065 848.821 100.227 851.545 101.553C854.305 102.915 857.522 103.579 861.196 103.579C864.449 103.579 867.451 102.915 870.175 101.553C872.944 100.227 875.283 98.5065 877.237 96.4455C879.199 94.3844 880.705 92.0814 881.753 89.5633C882.837 87.0452 883.357 84.5988 883.357 82.251V35.6172H900.625Z" fill="white"/>
<path d="M883.333 130.293H852.488V146.056H883.333V130.293Z" fill="white"/>
<path d="M852.485 146.055H836.723V161.826H852.485V146.055Z" fill="white"/>
</g>
<g clip-path="url(#clip1_998_42)">
<path fill-rule="evenodd" clip-rule="evenodd" d="M119.48 14.7649H119.457C108.934 4.57649 95.2233 -0.327914 81.6413 0.0213162C81.6109 0.0137242 81.5881 0.0137242 81.5578 0.0213162C81.1022 0.0137242 80.6467 0.00613225 80.1836 0.00613225H0.0429688V138.172H95.0411C158.965 80.0481 137.844 32.5376 119.48 14.7649ZM35.1709 110.947L19.0228 103.15V103.12C18.9317 97.5627 23.373 92.9999 28.9303 92.9164C34.4877 92.8253 39.0656 97.2514 39.1415 102.809C39.1947 106.119 37.6231 109.072 35.1709 110.947ZM99.7557 73.2988C76.0536 97.7221 46.8474 69.2599 2.1839 52.9752V2.14706H68.082C60.2471 4.45502 52.8602 8.623 46.612 14.651C45.6478 15.5924 45.1012 16.883 45.086 18.2344C45.086 19.5858 45.6326 20.8764 46.6044 21.8254L53.3081 28.3165C55.0922 30.0475 57.8709 30.1993 59.8372 28.6733C64.7871 24.847 70.9822 22.5239 77.7314 22.4176C94.3122 22.1594 107.97 35.377 108.221 51.9503C108.35 60.2331 105.108 67.7871 99.7557 73.2988Z" fill="url(#paint0_linear_998_42)"/>
<rect x="0.105469" y="0.00390625" width="5.19197" height="54.5975" fill="#30ABC2"/>
<rect x="74.1094" y="0.00390625" width="5.19005" height="71.756" transform="rotate(90 74.1094 0.00390625)" fill="#30ABC2"/>
</g>
<defs>
<linearGradient id="paint0_linear_998_42" x1="0.0429687" y1="0.00390625" x2="138.211" y2="138.092" gradientUnits="userSpaceOnUse">
<stop stop-color="#209BC4"/>
<stop offset="1" stop-color="#4DC9C0"/>
</linearGradient>
<clipPath id="clip0_998_42">
<rect width="733.237" height="160.118" fill="white" transform="translate(167.391 1.70703)"/>
</clipPath>
<clipPath id="clip1_998_42">
<rect width="138.174" height="138.174" fill="white"/>
</clipPath>
</defs>
</svg>
