<svg width="214" height="113" viewBox="0 0 214 113" fill="none" xmlns="http://www.w3.org/2000/svg">
<path d="M58.2561 27.0806L53.2996 32.037C42.4319 44.7942 38.8816 62.9521 37.9859 71.5729C37.17 79.426 39.2608 92.013 40.4081 97.3249L91.9121 92.8629L76.6139 107.779C64.2903 108.841 36.8385 111.195 25.6199 112.113C21.1324 94.7752 23.7501 77.8621 25.6199 71.5729C27.8636 61.0681 36.4136 49.433 40.4081 44.9285L53.2996 32.037C54.8069 30.2677 56.4549 28.6023 58.2561 27.0806Z" fill="url(#paint0_linear_254_818)"></path>
<path d="M124.124 101.404L128.312 94.2651C125.812 96.658 121.627 96.3785 117.792 94.2651C112.735 91.4793 113.117 86.1061 113.967 83.5564C112.423 86.896 108.425 95.1411 104.788 101.404C104.788 109.767 114.624 117.689 124.124 101.404Z" fill="url(#paint1_linear_254_818)"></path>
<path d="M88.3804 22.0183C111.011 20.0384 135.051 26.8563 155.212 40.9725C175.371 55.0887 190.001 75.3473 195.88 97.2905C195.951 97.5569 195.786 97.7928 195.511 97.817L144.32 102.296C144.275 101.972 144.223 101.646 144.168 101.32L194.752 96.8949C188.857 75.3936 174.466 55.565 154.689 41.7171C134.765 27.7659 111.006 21.0275 88.6392 22.9842C66.2725 24.9411 47.1297 35.4327 35.4231 52.1515C23.8034 68.7462 20.4558 90.1268 26.0893 111.651L76.6744 107.225C76.792 107.546 76.9128 107.865 77.0392 108.182L25.8471 112.661C25.5722 112.685 25.2913 112.488 25.2196 112.221C19.3399 90.2781 22.6909 68.4465 34.5358 51.5302C46.3807 34.6139 65.7494 23.9983 88.3804 22.0183Z" fill="white"></path>
<path d="M40.1208 95.0743C40.397 95.0556 40.6749 95.2571 40.7411 95.524C40.8337 95.8986 40.9294 96.274 41.0275 96.6487L42.1589 96.5497C42.434 96.5257 42.715 96.7224 42.7864 96.9891C42.8575 97.2556 42.6926 97.4916 42.4178 97.5157L40.7863 97.6584C40.5114 97.6824 40.2305 97.4855 40.1588 97.219C40.0135 96.677 39.8738 96.1341 39.7398 95.5923C39.674 95.3252 39.8444 95.0931 40.1208 95.0743ZM48.6848 95.9788C48.9598 95.9549 49.2409 96.1516 49.3123 96.4182C49.3834 96.6846 49.2183 96.9205 48.9436 96.9447L45.6807 97.2302C45.4058 97.2542 45.1249 97.0573 45.0532 96.7908C44.9817 96.5241 45.1468 96.2883 45.4219 96.2643L48.6848 95.9788ZM55.2097 95.4079C55.4848 95.3839 55.7657 95.5806 55.8372 95.8473C55.9083 96.1138 55.7434 96.3498 55.4685 96.3739L52.2056 96.6593C51.9308 96.6831 51.6497 96.4863 51.5781 96.22C51.5066 95.9534 51.6719 95.7177 51.9467 95.6934L55.2097 95.4079ZM61.7355 94.837C62.0106 94.813 62.2916 95.0097 62.363 95.2764C62.4341 95.5429 62.2692 95.7789 61.9943 95.8029L58.7314 96.0884C58.4566 96.1124 58.1756 95.9154 58.1039 95.649C58.0325 95.3823 58.1976 95.1466 58.4726 95.1225L61.7355 94.837ZM68.2614 94.2661C68.5364 94.2422 68.8174 94.4388 68.8889 94.7055C68.96 94.9719 68.7949 95.2078 68.5202 95.232L65.2573 95.5175C64.9824 95.5415 64.7015 95.3445 64.6298 95.0781C64.5583 94.8113 64.7234 94.5756 64.9985 94.5515L68.2614 94.2661ZM74.7863 93.6952C75.0614 93.6711 75.3423 93.8679 75.4138 94.1346C75.4849 94.4011 75.32 94.6371 75.0451 94.6611L71.7822 94.9466C71.5074 94.9704 71.2263 94.7735 71.1546 94.5072C71.0832 94.2406 71.2485 94.005 71.5233 93.9807L74.7863 93.6952ZM81.3121 93.1243C81.5872 93.1002 81.8682 93.2969 81.9396 93.5637C82.0107 93.8302 81.8458 94.0662 81.5709 94.0902L78.308 94.3757C78.0332 94.3996 77.7522 94.2027 77.6805 93.9363C77.609 93.6696 77.7742 93.4339 78.0492 93.4097L81.3121 93.1243ZM87.838 92.5533C88.113 92.5294 88.394 92.7261 88.4655 92.9927C88.5366 93.2591 88.3715 93.4951 88.0968 93.5193L84.8339 93.8047C84.559 93.8288 84.2781 93.6318 84.2064 93.3653C84.1349 93.0986 84.3 92.8629 84.575 92.8388L87.838 92.5533ZM91.6126 92.2231C91.7302 92.5437 91.851 92.8628 91.9775 93.1797L91.3597 93.2338C91.0848 93.2578 90.8039 93.0609 90.7322 92.7944C90.6607 92.5277 90.8258 92.2919 91.1009 92.2679L91.6126 92.2231ZM166.144 85.7024C166.419 85.6784 166.7 85.8751 166.772 86.1418C166.843 86.4083 166.678 86.6442 166.403 86.6683L163.14 86.9538C162.865 86.9778 162.584 86.7809 162.513 86.5144C162.441 86.2477 162.606 86.012 162.881 85.9879L166.144 85.7024ZM172.67 85.1315C172.945 85.1077 173.226 85.3043 173.298 85.5709C173.369 85.8372 173.204 86.0731 172.929 86.0974L169.666 86.3829C169.391 86.4069 169.11 86.21 169.039 85.9435C168.967 85.6768 169.132 85.441 169.407 85.417L172.67 85.1315ZM179.195 84.5606C179.47 84.5366 179.751 84.7333 179.823 85C179.894 85.2665 179.729 85.5025 179.454 85.5266L176.191 85.812C175.916 85.8359 175.635 85.639 175.563 85.3726C175.492 85.106 175.657 84.8703 175.932 84.8461L179.195 84.5606ZM185.721 83.9897C185.996 83.9657 186.277 84.1624 186.348 84.4291C186.42 84.6956 186.255 84.9315 185.98 84.9556L182.717 85.2411C182.442 85.2651 182.161 85.0681 182.089 84.8017C182.018 84.535 182.183 84.2993 182.458 84.2752L185.721 83.9897ZM192.247 83.4188C192.522 83.3949 192.803 83.5915 192.874 83.8581C192.945 84.1245 192.78 84.3604 192.506 84.3847L189.243 84.6701C188.968 84.6942 188.687 84.4972 188.615 84.2308C188.544 83.964 188.709 83.7283 188.984 83.7042L192.247 83.4188ZM198.772 82.8479C199.047 82.8238 199.328 83.0205 199.399 83.2873C199.47 83.5538 199.305 83.7898 199.03 83.8138L195.768 84.0993C195.493 84.1231 195.212 83.9262 195.14 83.6599C195.069 83.3933 195.234 83.1576 195.509 83.1334L198.772 82.8479ZM205.297 82.277C205.573 82.2529 205.854 82.4496 205.925 82.7163C205.996 82.9828 205.831 83.2188 205.556 83.2429L202.293 83.5284C202.019 83.5523 201.738 83.3554 201.666 83.089C201.594 82.8223 201.76 82.5866 202.035 82.5624L205.297 82.277ZM209.733 80.2352C210.006 80.206 210.29 80.3983 210.367 80.6643C210.523 81.2042 210.674 81.7461 210.819 82.2881C210.89 82.5546 210.725 82.7905 210.451 82.8147L208.819 82.9574C208.544 82.9815 208.263 82.7845 208.192 82.518C208.12 82.2513 208.285 82.0156 208.56 81.9915L209.692 81.8925C209.589 81.5182 209.484 81.1436 209.376 80.7703C209.3 80.5043 209.459 80.2645 209.733 80.2352ZM159.618 86.2734C159.894 86.2493 160.175 86.446 160.246 86.7127C160.317 86.9793 160.152 87.2152 159.877 87.2393L159.259 87.2934C159.213 86.9693 159.161 86.6443 159.106 86.3182L159.618 86.2734ZM38.8249 88.5921C39.1056 88.5944 39.3689 88.8135 39.413 89.0813C39.59 90.154 39.7892 91.2289 40.0109 92.3046C40.0657 92.572 39.8848 92.796 39.6061 92.8043C39.3276 92.8126 39.0569 92.6023 39.0014 92.3349C38.7772 91.2466 38.5752 90.1582 38.3962 89.0727C38.3523 88.8051 38.5443 88.5899 38.8249 88.5921ZM207.575 73.8284C207.842 73.7783 208.138 73.9516 208.236 74.2146C208.633 75.2808 209.01 76.3533 209.366 77.4299C209.453 77.6944 209.305 77.9414 209.035 77.9812C208.765 78.0209 208.474 77.8382 208.386 77.5736C208.035 76.5094 207.663 75.4495 207.27 74.3957C207.172 74.1326 207.308 73.8785 207.575 73.8284ZM38.0635 82.1162C38.3466 82.1395 38.5943 82.3747 38.6164 82.6413C38.7045 83.7106 38.8146 84.7834 38.9476 85.858C38.9805 86.1253 38.7788 86.3319 38.4967 86.3193C38.2146 86.3066 37.9592 86.0795 37.9257 85.8122C37.7912 84.7249 37.6794 83.6392 37.5902 82.5573C37.5684 82.2906 37.7802 82.093 38.0635 82.1162ZM204.911 67.519C205.169 67.4484 205.474 67.6007 205.593 67.8589C206.074 68.9066 206.536 69.9616 206.977 71.0221C207.085 71.2828 206.96 71.5431 206.698 71.6036C206.435 71.6639 206.134 71.5012 206.025 71.2406C205.589 70.1925 205.134 69.1499 204.658 68.1145C204.539 67.8562 204.652 67.5896 204.911 67.519ZM37.8404 75.6878C38.1246 75.7319 38.3558 75.982 38.3554 76.2461C38.3542 77.3053 38.3751 78.3692 38.4186 79.4361C38.4291 79.7013 38.2075 79.8894 37.9238 79.8559C37.6399 79.8222 37.4013 79.5792 37.3902 79.3136C37.3461 78.2342 37.3246 77.1578 37.3259 76.0861C37.3263 75.8222 37.5565 75.644 37.8404 75.6878ZM201.756 61.347C202.004 61.2564 202.318 61.3871 202.457 61.6391C203.019 62.6614 203.562 63.6921 204.085 64.7297C204.214 64.9849 204.113 65.2576 203.86 65.3383C203.607 65.4188 203.297 65.2772 203.168 65.0223C202.651 63.9969 202.114 62.9781 201.558 61.9677C201.42 61.7158 201.508 61.4378 201.756 61.347ZM37.605 69.6997C37.6276 69.4398 37.8761 69.2815 38.1594 69.3462C38.4423 69.411 38.6538 69.6737 38.6314 69.9334C38.5407 70.9759 38.4724 72.0246 38.4263 73.0773C38.4145 73.3391 38.1746 73.5076 37.8909 73.4533C37.607 73.3989 37.3864 73.1417 37.3976 72.8796C37.4442 71.8147 37.5132 70.7543 37.605 69.6997ZM198.132 55.3504C198.369 55.2402 198.689 55.3488 198.846 55.5929C199.486 56.5835 200.107 57.5836 200.709 58.5916C200.857 58.8397 200.781 59.1229 200.539 59.2234C200.297 59.3237 199.98 59.204 199.831 58.9562C199.236 57.9596 198.622 56.9706 197.989 55.9913C197.832 55.7473 197.896 55.4605 198.132 55.3504ZM38.4257 63.4359C38.4705 63.182 38.7353 63.0455 39.0159 63.1303C39.2961 63.2154 39.4868 63.4899 39.4421 63.7437C39.2625 64.7629 39.1056 65.7894 38.9703 66.8212C38.9363 67.0779 38.6796 67.2259 38.3977 67.1512C38.1158 67.0763 37.9142 66.8065 37.9477 66.5496C38.0846 65.5056 38.244 64.4671 38.4257 63.4359ZM194.06 49.5657C194.284 49.4368 194.607 49.522 194.783 49.7564C195.496 50.7093 196.192 51.6731 196.869 52.6458C197.036 52.8853 196.985 53.1772 196.755 53.2968C196.525 53.416 196.203 53.3187 196.036 53.0797C195.367 52.1182 194.679 51.1658 193.974 50.2239C193.798 49.9893 193.837 49.6948 194.06 49.5657ZM39.784 57.3354C39.8506 57.0888 40.1288 56.9738 40.4051 57.0783C40.6808 57.183 40.8506 57.4669 40.7843 57.7132C40.5168 58.7031 40.2717 59.7018 40.0481 60.7066C39.9921 60.9567 39.72 61.0831 39.4416 60.9885C39.1633 60.8938 38.9829 60.6137 39.0381 60.3635C39.2644 59.3468 39.5133 58.3369 39.784 57.3354ZM189.566 44.0285C189.775 43.8815 190.1 43.9437 190.293 44.1676C191.076 45.0769 191.842 45.998 192.59 46.9294C192.774 47.1588 192.748 47.457 192.532 47.5949C192.315 47.7324 191.991 47.6584 191.806 47.4295C191.067 46.509 190.31 45.5979 189.536 44.6991C189.344 44.4753 189.357 44.1755 189.566 44.0285ZM41.6696 51.434C41.7577 51.1965 42.048 51.1042 42.3182 51.2276C42.5883 51.3512 42.7358 51.6438 42.6477 51.8814C42.2939 52.8355 41.9622 53.7996 41.6517 54.7711C41.574 55.0128 41.2889 55.1163 41.0157 55.0024C40.7427 54.8882 40.5846 54.5997 40.6618 54.3576C40.9759 53.3746 41.3116 52.3995 41.6696 51.434ZM184.676 38.773C184.869 38.6089 185.195 38.6472 185.404 38.8589C186.251 39.7189 187.082 40.592 187.896 41.4762C188.097 41.6942 188.096 41.9966 187.895 42.1521C187.694 42.3074 187.369 42.2573 187.168 42.04C186.363 41.1661 185.541 40.3031 184.704 39.4531C184.495 39.2416 184.483 38.9371 184.676 38.773ZM44.0726 45.7693C44.1817 45.5421 44.4826 45.4731 44.7451 45.6149C45.0074 45.7567 45.1316 46.0557 45.0226 46.2828C44.5846 47.1954 44.1684 48.1187 43.773 49.0508C43.6743 49.2831 43.3778 49.3638 43.1115 49.2313C42.845 49.0986 42.7093 48.8021 42.8077 48.5696C43.2077 47.6265 43.6294 46.6926 44.0726 45.7693ZM179.422 33.8322C179.598 33.6521 179.922 33.6664 180.145 33.8645C181.051 34.6698 181.942 35.4888 182.818 36.3203C183.033 36.5253 183.059 36.8314 182.874 37.0036C182.69 37.1756 182.365 37.1492 182.149 36.9445C181.283 36.1226 180.402 35.313 179.506 34.517C179.283 34.3189 179.246 34.0123 179.422 33.8322ZM46.9773 40.3754C47.1067 40.1601 47.417 40.1151 47.67 40.2742C47.9228 40.4335 48.0229 40.7374 47.8936 40.9526C47.3741 41.8179 46.8755 42.695 46.3978 43.582C46.2783 43.8029 45.972 43.8606 45.7143 43.7103C45.4565 43.5598 45.3442 43.2576 45.463 43.0362C45.9465 42.1386 46.4515 41.251 46.9773 40.3754ZM173.835 29.2362C173.993 29.0411 174.312 29.0309 174.549 29.2143C175.509 29.96 176.455 30.7207 177.386 31.4945C177.615 31.6854 177.666 31.9929 177.499 32.1806C177.332 32.3677 177.01 32.3651 176.781 32.1749C175.86 31.4102 174.924 30.6588 173.976 29.9219C173.739 29.7386 173.677 29.4314 173.835 29.2362ZM50.3667 35.2856C50.5155 35.0835 50.8325 35.0618 51.0746 35.2372C51.3165 35.4128 51.3925 35.7192 51.244 35.9213C50.9458 36.3267 50.6515 36.7362 50.3623 37.1492C50.0731 37.5623 49.789 37.9788 49.51 38.3977C49.3708 38.6062 49.0568 38.6398 48.8092 38.4725C48.5617 38.305 48.4737 37.9997 48.6126 37.7908C48.8948 37.367 49.1824 36.9458 49.475 36.5279C49.7676 36.11 50.065 35.6958 50.3667 35.2856ZM167.949 25.0121C168.088 24.8035 168.402 24.7698 168.649 24.9372C169.152 25.277 169.653 25.6215 170.151 25.9702C170.649 26.3188 171.144 26.6716 171.635 27.0277C171.877 27.2034 171.952 27.5099 171.803 27.712C171.654 27.9138 171.337 27.9357 171.095 27.7604C170.61 27.4084 170.121 27.0594 169.628 26.7148C169.136 26.3702 168.642 26.0296 168.145 25.6938C167.897 25.5263 167.81 25.221 167.949 25.0121ZM54.2186 30.5319C54.386 30.3443 54.7083 30.3467 54.938 30.5375C55.1674 30.7284 55.2182 31.0359 55.0511 31.2237C54.3811 31.976 53.7274 32.7445 53.092 33.5286C52.9339 33.7235 52.6141 33.7335 52.378 33.5505C52.142 33.3673 52.0783 33.0602 52.2361 32.865C52.8792 32.0714 53.5405 31.2932 54.2186 30.5319ZM161.801 21.1882C161.921 20.9669 162.227 20.9093 162.485 21.0599C163.53 21.6703 164.568 22.2999 165.597 22.9472C165.85 23.1064 165.951 23.4102 165.822 23.6255C165.692 23.8406 165.382 23.8856 165.129 23.7267C164.112 23.087 163.086 22.4656 162.053 21.8623C161.795 21.7117 161.682 21.4096 161.801 21.1882ZM58.5101 26.1443C58.6949 25.972 59.0199 25.9983 59.2358 26.2034C59.4514 26.4084 59.4772 26.7146 59.2925 26.8867C58.5518 27.5771 57.8265 28.284 57.1188 29.0077C56.9426 29.1877 56.6191 29.1732 56.3962 28.9754C56.1733 28.7773 56.1353 28.4708 56.3113 28.2906C57.0274 27.5583 57.7607 26.8427 58.5101 26.1443ZM155.431 17.7874C155.53 17.5549 155.825 17.4743 156.091 17.607C157.172 18.1454 158.247 18.7026 159.314 19.279C159.576 19.4209 159.701 19.7199 159.592 19.9469C159.483 20.1738 159.182 20.2429 158.919 20.1013C157.865 19.5317 156.803 18.9813 155.735 18.4492C155.468 18.3164 155.332 18.0199 155.431 17.7874ZM63.2151 22.1481C63.4162 21.9926 63.7413 22.0426 63.9421 22.2602C64.1425 22.478 64.143 22.7813 63.9422 22.9369C63.1355 23.561 62.3431 24.2023 61.5674 24.8612C61.3743 25.025 61.0489 24.9865 60.8404 24.7751C60.6321 24.5635 60.6196 24.2591 60.8125 24.095C61.5974 23.4284 62.3988 22.7795 63.2151 22.1481ZM148.874 14.8296C148.952 14.5874 149.237 14.4841 149.51 14.5982C150.62 15.0611 151.725 15.5433 152.822 16.0452C153.092 16.1688 153.24 16.4615 153.152 16.6989C153.064 16.9363 152.773 17.0286 152.503 16.9053C151.418 16.4092 150.326 15.9328 149.23 15.4752C148.956 15.3611 148.797 15.0718 148.874 14.8296ZM68.3035 18.5683C68.5197 18.4305 68.8445 18.5044 69.0288 18.7336C69.2128 18.963 69.1874 19.2619 68.9714 19.3999C68.1036 19.9537 67.249 20.5256 66.4102 21.1155C66.2015 21.2619 65.8766 21.1995 65.684 20.9764C65.4913 20.7525 65.5043 20.4518 65.7131 20.3048C66.5617 19.7079 67.4255 19.1286 68.3035 18.5683ZM142.175 12.3341C142.231 12.0839 142.502 11.9577 142.781 12.0524C143.912 12.4369 145.039 12.842 146.162 13.2664C146.438 13.371 146.608 13.6558 146.541 13.9023C146.474 14.1484 146.196 14.2636 145.92 14.1593C144.811 13.7398 143.697 13.3402 142.579 12.9601C142.3 12.8654 142.12 12.5845 142.175 12.3341ZM73.7436 15.4278C73.9736 15.3082 74.2959 15.4055 74.4628 15.6449C74.6293 15.8843 74.5784 16.1762 74.3485 16.2959C73.4252 16.7759 72.5144 17.2744 71.618 17.7917C71.3949 17.9204 71.0717 17.8351 70.8958 17.601C70.7202 17.3664 70.758 17.071 70.9811 16.9419C71.888 16.4184 72.8093 15.9135 73.7436 15.4278ZM135.373 10.3159C135.407 10.0591 135.662 9.91139 135.944 9.98595C137.09 10.2896 138.234 10.6139 139.373 10.9584C139.654 11.0433 139.845 11.3186 139.801 11.5726C139.755 11.8261 139.492 11.9627 139.211 11.8781C138.085 11.5376 136.955 11.2178 135.823 10.9176C135.541 10.8428 135.339 10.573 135.373 10.3159ZM79.5037 12.7459C79.7461 12.6455 80.0632 12.765 80.2115 13.0132C80.3594 13.2613 80.2835 13.5445 80.0413 13.645C79.0678 14.0483 78.1058 14.4711 77.1571 14.9129C76.9209 15.0226 76.6016 14.9137 76.4439 14.6703C76.2863 14.4262 76.3501 14.1385 76.5865 14.0283C77.5462 13.5814 78.5189 13.1539 79.5037 12.7459ZM129.044 8.41172C130.197 8.63271 131.35 8.87412 132.5 9.13655C132.783 9.20125 132.995 9.46482 132.972 9.72468C132.949 9.98395 132.701 10.1423 132.419 10.0782C131.282 9.81879 130.143 9.57983 129.003 9.36142C128.719 9.30704 128.498 9.04979 128.509 8.78768C128.521 8.52558 128.76 8.35746 129.044 8.41172ZM85.5472 10.5384C85.8005 10.4577 86.1104 10.5989 86.2392 10.8543C86.3676 11.1095 86.267 11.3822 86.0139 11.4629C84.9965 11.7869 83.9897 12.1311 82.9948 12.4946C82.7468 12.5851 82.4327 12.4533 82.294 12.2016C82.1557 11.9497 82.2445 11.6725 82.4923 11.5818C83.499 11.2141 84.5176 10.8662 85.5472 10.5384ZM122.122 7.33845C123.276 7.47522 124.431 7.63303 125.584 7.81181C125.867 7.85608 126.097 8.10545 126.097 8.36927C126.097 8.63318 125.866 8.8126 125.582 8.76865C124.442 8.59194 123.302 8.43565 122.161 8.30047C121.877 8.26679 121.638 8.02378 121.627 7.75825C121.617 7.49259 121.838 7.30479 122.122 7.33845ZM91.837 8.81898C92.0996 8.7587 92.4003 8.92122 92.5088 9.18208C92.6169 9.44286 92.492 9.7032 92.2295 9.76355C91.1741 10.0061 90.1285 10.2696 89.0935 10.5525C88.8355 10.6228 88.5298 10.4704 88.411 10.2125C88.2923 9.95427 88.4056 9.68767 88.6636 9.61696C89.7109 9.3307 90.7691 9.06442 91.837 8.81898ZM115.22 6.7732C116.368 6.82483 117.517 6.89799 118.666 6.99208C118.949 7.01556 119.197 7.25053 119.219 7.51715C119.241 7.78347 119.029 7.98108 118.746 7.95823C117.61 7.86525 116.474 7.79264 115.34 7.74161C115.058 7.72891 114.803 7.50186 114.769 7.23453C114.736 6.96701 114.938 6.7605 115.22 6.7732ZM98.3343 7.59889C98.6046 7.55937 98.8946 7.74182 98.9821 8.00657C99.0694 8.27124 98.9212 8.51807 98.6509 8.55782C97.5643 8.71744 96.4862 8.89782 95.4176 9.09847C95.151 9.1485 94.855 8.97593 94.7568 8.71317C94.6587 8.45009 94.796 8.19588 95.0627 8.14577C96.1439 7.94277 97.2349 7.76038 98.3343 7.59889ZM108.382 6.71984C109.516 6.68597 110.652 6.67349 111.79 6.68234C112.071 6.68454 112.335 6.90363 112.379 7.17143C112.423 7.43894 112.231 7.65417 111.95 7.65206C110.825 7.64331 109.702 7.65551 108.582 7.68899C108.303 7.69732 108.032 7.48711 107.977 7.21961C107.922 6.95195 108.103 6.7282 108.382 6.71984ZM103.32 7.01599C103.879 6.96708 104.439 6.92365 104.999 6.88546C105.276 6.86663 105.553 7.06798 105.619 7.33513C105.685 7.60205 105.515 7.83427 105.239 7.85309C104.684 7.89084 104.131 7.93358 103.578 7.98191C103.026 8.03027 102.475 8.08416 101.926 8.1429C101.653 8.17194 101.368 7.9796 101.291 7.7138C101.214 7.44769 101.374 7.20812 101.648 7.17867C102.203 7.11924 102.76 7.06491 103.32 7.01599Z" fill="white"></path>
<path d="M129.262 93.3052C126.771 96.6775 121.477 97.0301 117.437 94.0927C113.396 91.1552 112.14 86.0401 114.63 82.6678C117.121 79.2954 147.497 60.929 150.968 59.7226C150.743 63.5477 131.752 89.9328 129.262 93.3052Z" stroke="white" stroke-linecap="round" stroke-linejoin="round"></path>
<path d="M144.054 101.659L158.842 87.1261L210.346 82.5366L195.558 97.3249L144.054 101.659Z" fill="url(#paint2_linear_254_818)"></path>
<defs>
<linearGradient id="paint0_linear_254_818" x1="98.9238" y1="28.9928" x2="19.0086" y2="73.5978" gradientUnits="userSpaceOnUse">
<stop stop-color="#D76AFF"></stop>
<stop offset="1" stop-color="#0B0D0F"></stop>
</linearGradient>
<linearGradient id="paint1_linear_254_818" x1="129.749" y1="61.0017" x2="118.969" y2="100.307" gradientUnits="userSpaceOnUse">
<stop stop-color="#D76AFF"></stop>
<stop offset="1" stop-color="#0B0D0F"></stop>
</linearGradient>
<linearGradient id="paint2_linear_254_818" x1="226.409" y1="40.2116" x2="233.235" y2="90.124" gradientUnits="userSpaceOnUse">
<stop stop-color="#D76AFF"></stop>
<stop offset="1" stop-color="#0B0D0F"></stop>
</linearGradient>
</defs>
</svg>