<svg width="2037" height="748" viewBox="0 0 2037 748" fill="none" xmlns="http://www.w3.org/2000/svg">
<path fill-rule="evenodd" clip-rule="evenodd" d="M1397.81 684.572L1298.27 635.654C1298.27 635.654 1298.27 635.516 1298.27 635.447C1297.95 601.073 1325.61 573.031 1359.99 572.712C1394.36 572.392 1422.47 599.983 1422.72 634.356C1422.93 654.856 1413.07 673.08 1397.81 684.572ZM1923.19 92.904C1798.13 -29.8991 1598.53 -30.7663 1472.58 89.1654C1466.54 94.9221 1463.11 102.905 1462.98 111.256C1462.92 119.607 1466.25 127.635 1472.22 133.542L1513.42 173.99C1524.39 184.762 1541.57 185.845 1553.78 176.472C1584.59 153.007 1622.99 138.91 1664.75 138.503C1767.31 137.609 1851.24 219.965 1852.13 322.533C1852.54 373.818 1832.21 420.406 1798.85 454.276C1543.87 713.651 1194.03 -3.89359 417.773 373.498C391.182 386.431 371.215 409.763 362.672 438.072C354.13 466.312 357.858 496.844 372.87 522.275L508.594 752.061C538.005 801.816 601.872 818.744 652.104 790.096L655.43 788.186L652.794 790.1L711.826 756.473C711.826 756.473 813.225 693.938 897.336 615.756C909.143 604.792 927.232 604.018 939.932 614.042L940.069 614.181L940.275 614.321C947.278 619.89 951.501 628.2 951.855 637.106C952.208 646.012 948.63 654.684 942.032 660.713C876.119 721.833 797.541 777.897 745.281 810.327L743.272 811.487L684.309 845.184C658.534 859.849 630.395 866.974 602.51 867.269C543.909 867.77 486.41 837.978 454.748 784.343L326.39 567.445C85.1002 740.707 -59.2517 1071.99 23.4438 1488.73C26.3134 1503.25 39.1494 1513.69 53.9202 1513.58L197.765 1512.35C213.295 1512.24 226.28 1500.6 228.11 1485.15C240.477 1381.36 328.402 1300.44 435.734 1299.51C543.065 1298.58 632.391 1377.94 646.53 1481.49C648.634 1496.83 661.808 1508.31 677.339 1508.14L817.594 1506.94C833.124 1506.84 846.11 1495.2 847.94 1479.75C860.237 1375.96 948.163 1295.04 1055.56 1294.11C1162.89 1293.18 1252.22 1372.54 1266.36 1476.09C1268.46 1491.43 1281.64 1502.91 1297.17 1502.74L1435.63 1501.53C1452.47 1501.37 1466.02 1487.8 1466.2 1470.96C1467.73 1275.64 1518.46 1050.91 1667.69 937.283C2184.34 543.986 2044.68 211.956 1923.32 92.8359" fill="url(#paint0_linear_881_926)" fill-opacity="0.2"/>
<defs>
<linearGradient id="paint0_linear_881_926" x1="249.31" y1="-179.451" x2="1696.1" y2="1757.91" gradientUnits="userSpaceOnUse">
<stop stop-color="#2099C2"/>
<stop offset="1" stop-color="#4DC7BE"/>
</linearGradient>
</defs>
</svg>
