<svg width="190" height="173" viewBox="0 0 190 173" fill="none" xmlns="http://www.w3.org/2000/svg">
<path d="M15.47 76.3533L15.2362 49.6658C16.595 59.9158 20.845 69.2908 31.97 84.7908C38.5391 93.9432 51.1685 105.632 64.1575 115.166C71.599 120.628 79.4073 125.119 85.6307 128.687C106.157 139.478 124.407 141.353 130.907 140.697C133.714 139.706 140.501 133.26 144.22 128.228C138.828 137.872 131.595 152.01 120.126 158.666C113.314 159.853 94.2876 154.658 83.1247 149.646C71.9619 144.634 49.8354 129.108 35.9387 114.072C24.8214 102.043 17.5012 88.0408 15.47 76.3533Z" fill="url(#paint0_linear_254_817)"></path>
<path d="M15.9612 49.2874C36.7729 43.7109 51.4736 31.3499 58.6131 15.7053C79.4841 23.8445 102.607 26.0708 123.418 20.4943C123.749 20.4057 124.078 20.3154 124.406 20.2233C130.911 26.4369 136.529 33.4332 140.945 41.082C159.795 73.7309 160.009 123.914 130.792 140.724C92.5946 141.977 42.5686 105.142 23.7187 72.4927C19.3027 64.8439 16.4189 57.115 14.9674 49.5473C15.2992 49.4626 15.6305 49.376 15.9612 49.2874Z" stroke="white" stroke-linecap="round" stroke-linejoin="round" stroke-dasharray="3.65 3.65"></path>
<path d="M16.3467 75.9763C35.1604 70.9352 48.4497 59.761 54.9037 45.6184C73.7709 52.9762 94.6737 54.9887 113.487 49.9476C113.786 49.8675 114.084 49.7859 114.38 49.7027C120.261 55.3197 125.339 61.6443 129.331 68.5588C146.371 98.0731 146.564 143.438 120.153 158.634C85.6228 159.767 40.3996 126.468 23.3595 96.9538C19.3674 90.0393 16.7605 83.0525 15.4484 76.2113C15.7484 76.1348 16.0478 76.0564 16.3467 75.9763Z" stroke="white" stroke-linecap="round" stroke-linejoin="round"></path>
<defs>
<linearGradient id="paint0_linear_254_817" x1="112.968" y1="42.1179" x2="55.1036" y2="129.371" gradientUnits="userSpaceOnUse">
<stop stop-color="#D76AFF"></stop>
<stop offset="1" stop-color="#0B0D0F"></stop>
</linearGradient>
</defs>
</svg>