<?xml version="1.0" encoding="UTF-8"?>
<svg id="a" xmlns="http://www.w3.org/2000/svg" xmlns:xlink="http://www.w3.org/1999/xlink" version="1.1" viewBox="0 0 882.6 182">
  <!-- Generator: Adobe Illustrator 30.1.0, SVG Export Plug-In . SVG Version: 2.1.1 Build 136)  -->
  <defs>
    <style>
      .st0 {
        fill: url(#linear-gradient);
      }

      .st1 {
        fill: #fff;
      }
    </style>
    <linearGradient id="linear-gradient" x1="31.8" y1="-913.9" x2="205.2" y2="-677.4" gradientTransform="translate(0 890.7)" gradientUnits="userSpaceOnUse">
      <stop offset="0" stop-color="#209bc4"/>
      <stop offset="1" stop-color="#4dc9c0"/>
    </linearGradient>
  </defs>
  <path class="st1" d="M764,182h-25.6V37.4h25.6v144.6Z"/>
  <path class="st1" d="M693.6,37.4h25.6v93.3c0,28.2-23,51.3-51.3,51.3s-51.5-23-51.5-51.3,23.2-51.7,45.8-51.7,23,4.4,31.2,13.2v-54.9h0ZM667.9,158.6c14,0,25.6-12.4,25.6-27.8s-11.6-28-25.6-28-25.8,12.4-25.8,28,11.6,27.8,25.8,27.8Z"/>
  <path class="st1" d="M601.9,130.3v43.9c0,4.2-3.4,7.6-7.6,7.6s-4.4-1.2-5.8-3l-10.2-12.8c-8.2,10.4-20.6,15.8-33.2,15.8-22.6,0-45.9-17-45.9-51.7s23-51.3,51.5-51.3,51.3,22.8,51.3,51.5h0ZM576.2,130.3v-.2c0-15.4-11.6-28-25.6-28s-25.8,12.6-25.8,28,11.6,28,25.8,28,25.4-12.4,25.6-27.8Z"/>
  <path class="st1" d="M461,92.7c8-8.8,19.2-13.4,30.6-13.6v23.8c-18.4,0-29.4,7.4-29.4,23.8v55.3h-25.6v-95.1c0-4.2,3.6-7.8,7.8-7.8s4.2.8,5.8,2.4l10.8,11.2h0Z"/>
  <path class="st1" d="M343,105.1h76.9v3.4c0,49.9-32.6,73.3-65.8,73.3s-70.2-25.4-70.2-72.1,34.6-72.3,69.4-72.3,56.6,16.7,66.6,52.9h-28.6c-8.2-18.7-24.1-27.8-39.6-27.8s-40.7,16.3-40.7,47.1,22.9,46.7,44.7,46.7,31.6-8.9,36.6-27.8h-49.3v-23.6h0Z"/>
  <path class="st1" d="M857,145.1c-4.6,8.4-13.9,12.7-23.2,12.7s-24-7-26.4-21.8h75.3v-3c-1-36.6-26-53.9-50.9-53.9s-50.5,17.8-50.5,51.3,26.8,51.7,53.1,51.7,37.8-9.5,46-29.3l-23.4-7.6h0ZM832.4,102.1c9.2,0,18.4,5,22.4,14.8h-45.2c4.4-9.8,13.6-14.8,22.8-14.8Z"/>
  <path class="st0" d="M234.5,11.6c-15-15-39.2-15.4-54.6-.9-.7.7-1.2,1.6-1.2,2.7,0,1,.4,2,1.1,2.7l5,4.9c1.3,1.3,3.4,1.5,4.9.3,3.9-2.9,8.6-4.5,13.5-4.5,12.4,0,22.5,10.1,22.5,22.5s-2.4,11.7-6.6,15.9c-31.1,31.3-72.9-56.1-167.4-11.2-6.4,3-9.2,10.6-6.2,17,.2.3.3.7.5,1l16.2,28c3.5,6.1,11.2,8.2,17.4,4.8l.4-.2-.3.2,7.2-4c8-5,15.6-10.6,22.7-16.8,1.4-1.3,3.6-1.4,5.2-.2,1.6,1.3,1.8,3.6.5,5.2-.2.2-.3.4-.5.5-7.4,6.6-15.3,12.6-23.7,17.8h-.3c0,.1-7.2,4.1-7.2,4.1-3,1.7-6.4,2.6-9.9,2.6-7.3,0-14.1-3.9-17.8-10.2l-15.4-26.4C10.9,88.3-7,128.3,2.6,178.9c.3,1.8,1.9,3,3.7,3h17.4c1.9,0,3.6-1.3,3.8-3.3,1.8-14,14.7-23.9,28.7-22.1,11.5,1.5,20.6,10.6,22.1,22.1.2,1.8,1.8,3.2,3.6,3.3h17c1.9,0,3.5-1.4,3.7-3.3,1.8-14,14.6-23.9,28.6-22.1,11.6,1.5,20.7,10.6,22.2,22.1.2,1.9,1.8,3.3,3.7,3.3h16.8c2,0,3.7-1.6,3.7-3.7.4-23.7,6.8-50.9,25-64.5,63-47.1,46.4-87.6,31.8-102.2h0ZM170.2,82.9h0s-12-6.1-12-6.1c0-4.2,3.4-7.6,7.5-7.6,4.2,0,7.6,3.3,7.6,7.5,0,2.4-1.1,4.7-3.1,6.1Z"/>
</svg>