<svg width="214" height="113" viewBox="0 0 214 113" fill="none" xmlns="http://www.w3.org/2000/svg">
<path d="M58.2561 27.0806L53.2996 32.037C42.4319 44.7942 38.8816 62.9521 37.9859 71.5729C37.17 79.426 39.2608 92.013 40.4081 97.3249L91.9121 92.8629L76.6139 107.779C64.2903 108.841 36.8385 111.195 25.6199 112.113C21.1324 94.7752 23.7501 77.8621 25.6199 71.5729C27.8636 61.0681 36.4136 49.433 40.4081 44.9285L53.2996 32.037C54.8069 30.2677 56.4549 28.6023 58.2561 27.0806Z" fill="url(#paint0_linear_254_818)"></path>
<path d="M124.124 101.404L128.312 94.2651C125.812 96.658 121.627 96.3785 117.792 94.2651C112.735 91.4793 113.117 86.1061 113.967 83.5564C112.423 86.896 108.425 95.1411 104.788 101.404C104.788 109.767 114.624 117.689 124.124 101.404Z" fill="url(#paint1_linear_254_818)"></path>
<path d="M88.4909 22.4305C111.009 20.4605 134.929 27.2443 154.989 41.2902C175.049 55.3362 189.605 75.4937 195.455 97.3277C195.465 97.3666 195.441 97.4011 195.401 97.4048L144.259 101.879C144.251 101.831 144.244 101.783 144.237 101.735L195.289 97.2688C189.436 75.5001 174.915 55.4066 154.912 41.4003C134.887 27.3786 111.008 20.6054 88.5288 22.572C66.0494 24.5387 46.8112 35.0842 35.0456 51.8872C23.293 68.6718 19.9576 90.3275 25.7714 112.1L76.8254 107.633C76.8433 107.68 76.862 107.727 76.8801 107.774L25.7366 112.248C25.6963 112.252 25.6555 112.223 25.6447 112.184C19.7943 90.3501 23.1286 68.6275 34.9145 51.7954C46.7004 34.9633 65.9725 24.4006 88.4909 22.4305Z" fill="white"></path>
<path d="M40.2225 95.4873C40.2632 95.4845 40.3042 95.5143 40.3139 95.5536C40.4411 96.068 40.5732 96.5828 40.7106 97.0974L42.2691 96.961C42.3096 96.9575 42.3508 96.9871 42.3613 97.0263C42.3715 97.0654 42.3476 97.0999 42.3073 97.1034L40.6758 97.2462C40.6355 97.2497 40.5947 97.2208 40.5839 97.1818C40.4394 96.6425 40.2996 96.1028 40.1663 95.5637C40.1566 95.5244 40.1819 95.4902 40.2225 95.4873ZM48.795 96.3901C48.8354 96.3867 48.8767 96.4162 48.8872 96.4554C48.8973 96.4943 48.8733 96.5288 48.8332 96.5325L45.5702 96.818C45.5299 96.8215 45.4881 96.7927 45.4773 96.7537C45.4668 96.7144 45.4916 96.6791 45.5321 96.6755L48.795 96.3901ZM55.3199 95.8192C55.3604 95.8157 55.4025 95.8452 55.413 95.8844C55.4232 95.9235 55.3984 95.9581 55.358 95.9617L52.0951 96.2471C52.0549 96.2504 52.0139 96.2216 52.0032 96.1828C51.9927 96.1436 52.0167 96.1084 52.0569 96.1047L55.3199 95.8192ZM61.8457 95.2483C61.8862 95.2447 61.9274 95.2743 61.9379 95.3136C61.9481 95.3526 61.9242 95.3872 61.8839 95.3907L58.621 95.6762C58.5807 95.6796 58.5398 95.6508 58.529 95.6118C58.5185 95.5726 58.5424 95.5374 58.5828 95.5337L61.8457 95.2483ZM68.3716 94.6773C68.412 94.674 68.4533 94.7035 68.4638 94.7426C68.4739 94.7816 68.4499 94.8161 68.4097 94.8198L65.1468 95.1052C65.1065 95.1088 65.0647 95.08 65.0539 95.041C65.0434 95.0017 65.0681 94.9664 65.1087 94.9628L68.3716 94.6773ZM74.8965 94.1065C74.937 94.1029 74.9791 94.1324 74.9896 94.1717C74.9998 94.2108 74.975 94.2454 74.9346 94.2489L71.6717 94.5344C71.6315 94.5377 71.5905 94.5089 71.5798 94.47C71.5693 94.4309 71.5933 94.3957 71.6335 94.392L74.8965 94.1065ZM81.4223 93.5355C81.4628 93.532 81.504 93.5616 81.5145 93.6009C81.5247 93.6399 81.5008 93.6745 81.4605 93.678L78.1976 93.9635C78.1573 93.9669 78.1164 93.938 78.1056 93.8991C78.0951 93.8599 78.119 93.8246 78.1594 93.821L81.4223 93.5355ZM87.9482 92.9646C87.9886 92.9612 88.0298 92.9907 88.0403 93.0299C88.0505 93.0689 88.0265 93.1034 87.9863 93.107L84.7234 93.3925C84.6831 93.396 84.6413 93.3672 84.6305 93.3282C84.62 93.289 84.6447 93.2536 84.6852 93.2501L87.9482 92.9646ZM91.8184 92.7718L91.2493 92.8216C91.2089 92.8251 91.1671 92.7963 91.1564 92.7573C91.1458 92.718 91.1706 92.6827 91.2111 92.6791L91.7637 92.6308C91.7816 92.6779 91.8003 92.7248 91.8184 92.7718ZM166.255 86.1137C166.295 86.1102 166.336 86.1398 166.347 86.179C166.357 86.218 166.333 86.2525 166.293 86.2561L163.03 86.5416C162.989 86.5451 162.949 86.5162 162.938 86.4772C162.927 86.438 162.951 86.4027 162.992 86.3992L166.255 86.1137ZM172.78 85.5428C172.821 85.5395 172.862 85.5689 172.873 85.6081C172.883 85.647 172.859 85.6815 172.819 85.6852L169.556 85.9707C169.515 85.9742 169.473 85.9454 169.463 85.9064C169.452 85.8671 169.477 85.8318 169.517 85.8282L172.78 85.5428ZM179.305 84.9719C179.346 84.9684 179.388 84.9978 179.398 85.0371C179.409 85.0762 179.384 85.1108 179.343 85.1143L176.08 85.3998C176.04 85.4031 175.999 85.3743 175.989 85.3354C175.978 85.2963 176.002 85.2611 176.042 85.2574L179.305 84.9719ZM185.831 84.401C185.872 84.3975 185.913 84.427 185.923 84.4663C185.933 84.5053 185.91 84.5398 185.869 84.5434L182.606 84.8289C182.566 84.8324 182.525 84.8035 182.514 84.7645C182.504 84.7252 182.528 84.69 182.568 84.6864L185.831 84.401ZM192.357 83.83C192.397 83.8267 192.439 83.8562 192.449 83.8953C192.459 83.9343 192.435 83.9687 192.395 83.9725L189.132 84.2579C189.092 84.2615 189.05 84.2327 189.039 84.1937C189.029 84.1544 189.054 84.119 189.094 84.1155L192.357 83.83ZM198.882 83.2592C198.922 83.2556 198.964 83.2851 198.975 83.3244C198.985 83.3635 198.96 83.3981 198.92 83.4016L195.657 83.6871C195.617 83.6904 195.576 83.6616 195.565 83.6227C195.555 83.5836 195.579 83.5484 195.619 83.5446L198.882 83.2592ZM205.408 82.6882C205.448 82.6847 205.489 82.7143 205.5 82.7535C205.51 82.7926 205.486 82.8271 205.446 82.8307L202.183 83.1161C202.143 83.1196 202.102 83.0908 202.091 83.0518C202.08 83.0125 202.104 82.9773 202.145 82.9737L205.408 82.6882ZM209.851 80.6467C209.891 80.6424 209.933 80.6708 209.945 80.71C210.1 81.2472 210.25 81.786 210.394 82.3253C210.404 82.3643 210.38 82.3988 210.34 82.4025L208.709 82.5452C208.668 82.5487 208.627 82.5199 208.616 82.4809C208.605 82.4416 208.63 82.4063 208.671 82.4028L210.228 82.2665C210.09 81.7521 209.947 81.2381 209.799 80.7256C209.788 80.6865 209.811 80.6513 209.851 80.6467ZM159.729 86.6846C159.769 86.6811 159.811 86.7106 159.822 86.7499C159.832 86.7889 159.807 86.8235 159.767 86.8271L159.197 86.8769C159.189 86.829 159.183 86.7811 159.175 86.7331L159.729 86.6846ZM38.8931 89.0061C38.9344 89.0064 38.9734 89.0382 38.9799 89.0776C39.1578 90.1558 39.3574 91.2361 39.5801 92.3171C39.588 92.3563 39.562 92.3894 39.5212 92.3908C39.4803 92.3921 39.4402 92.3607 39.4319 92.3214C39.2088 91.2386 39.0083 90.1562 38.8302 89.0762C38.8239 89.0369 38.8518 89.0058 38.8931 89.0061ZM207.727 74.235C207.766 74.2278 207.809 74.2528 207.823 74.2913C208.219 75.3522 208.594 76.4192 208.948 77.4906C208.961 77.5295 208.939 77.5663 208.9 77.5721C208.86 77.578 208.817 77.5508 208.804 77.512C208.45 76.4424 208.076 75.3773 207.681 74.3182C207.667 74.2795 207.687 74.2424 207.727 74.235ZM38.0972 82.5284C38.1388 82.5318 38.1751 82.5661 38.1786 82.6052C38.2672 83.6798 38.3785 84.7582 38.5122 85.8381C38.5168 85.8772 38.4872 85.9083 38.4459 85.9067C38.4046 85.9048 38.3665 85.8711 38.3612 85.832C38.2273 84.7502 38.1158 83.6699 38.0271 82.5934C38.0238 82.5541 38.0555 82.5249 38.0972 82.5284ZM205.094 67.918C205.132 67.9077 205.177 67.9302 205.194 67.9682C205.673 69.0106 206.132 70.0604 206.571 71.1156C206.587 71.1538 206.569 71.1923 206.53 71.2012C206.492 71.21 206.447 71.1853 206.431 71.1471C205.993 70.0938 205.535 69.0458 205.057 68.0053C205.04 67.9674 205.056 67.9284 205.094 67.918ZM37.8401 76.0952C37.8818 76.1017 37.9157 76.1387 37.9159 76.1774C37.9146 77.2419 37.9357 78.3114 37.9795 79.3837C37.9808 79.4224 37.9489 79.4506 37.9076 79.446C37.866 79.4411 37.8304 79.4049 37.8284 79.3661C37.7845 78.2919 37.763 77.2204 37.7642 76.154C37.7644 76.1153 37.7985 76.0889 37.8401 76.0952ZM201.97 61.7357C202.006 61.7224 202.054 61.7417 202.074 61.7787C202.634 62.7961 203.174 63.8222 203.695 64.8546C203.713 64.892 203.698 64.9326 203.661 64.9445C203.624 64.9561 203.578 64.9347 203.559 64.8974C203.039 63.8668 202.5 62.8425 201.942 61.827C201.922 61.7901 201.934 61.7492 201.97 61.7357ZM38.1244 69.747C38.1659 69.7567 38.1967 69.7955 38.1934 69.8336C38.1023 70.8814 38.0339 71.9351 37.9876 72.993C37.9857 73.0313 37.9503 73.056 37.9088 73.0482C37.8671 73.0402 37.8349 73.0023 37.8364 72.9638C37.8827 71.9041 37.9516 70.8489 38.0429 69.7995C38.0462 69.7612 38.0827 69.7374 38.1244 69.747ZM198.376 55.7268C198.41 55.7106 198.458 55.727 198.481 55.763C199.117 56.7487 199.736 57.7438 200.335 58.747C200.356 58.7835 200.345 58.8252 200.31 58.8399C200.274 58.8546 200.228 58.837 200.206 58.8008C199.608 57.7992 198.991 56.8055 198.355 55.8213C198.332 55.7854 198.341 55.7431 198.376 55.7268ZM38.9467 63.5225C38.9877 63.5353 39.0153 63.5755 39.0087 63.6127C38.8282 64.637 38.6701 65.6689 38.5342 66.7058C38.5288 66.7431 38.4915 66.7644 38.4504 66.7537C38.4091 66.7428 38.3796 66.7035 38.3841 66.6659C38.5203 65.627 38.6782 64.5931 38.859 63.5669C38.8657 63.5296 38.9054 63.5101 38.9467 63.5225ZM194.332 49.9281C194.364 49.9092 194.412 49.9213 194.438 49.9555C195.147 50.9038 195.841 51.8633 196.514 52.8313C196.538 52.8664 196.531 52.9089 196.497 52.9264C196.463 52.9438 196.416 52.93 196.391 52.8951C195.718 51.9288 195.027 50.9714 194.319 50.0248C194.293 49.9904 194.299 49.9472 194.332 49.9281ZM40.302 57.459C40.3424 57.4746 40.3677 57.5164 40.3579 57.5526C40.0891 58.5473 39.8422 59.5502 39.6175 60.5599C39.6091 60.5965 39.5689 60.6153 39.5281 60.6015C39.4871 60.5876 39.4605 60.5461 39.4685 60.5092C39.6936 59.4978 39.9413 58.4934 40.2106 57.497C40.2204 57.4606 40.2613 57.4436 40.302 57.459ZM189.864 44.3741C189.894 44.3525 189.942 44.3617 189.971 44.3947C190.749 45.2994 191.512 46.2154 192.256 47.1421C192.283 47.1758 192.279 47.22 192.247 47.2403C192.216 47.2605 192.167 47.2494 192.14 47.2159C191.397 46.2908 190.636 45.3761 189.859 44.473C189.831 44.44 189.833 44.3958 189.864 44.3741ZM42.1826 51.5948C42.2221 51.6131 42.2442 51.6561 42.2313 51.6909C41.8757 52.6499 41.5411 53.6183 41.2291 54.5947C41.2174 54.6299 41.1757 54.6455 41.1357 54.6289C41.0957 54.6122 41.0726 54.5696 41.0834 54.534C41.396 53.5559 41.7308 52.5851 42.087 51.6244C42.1001 51.5897 42.1429 51.5767 42.1826 51.5948ZM184.998 39.1C185.027 39.0759 185.074 39.081 185.105 39.1119C185.948 39.9677 186.776 40.8369 187.586 41.7167C187.615 41.7487 187.615 41.7934 187.586 41.8162C187.556 41.8389 187.508 41.8314 187.478 41.7995C186.669 40.9213 185.844 40.0543 185.002 39.2001C184.972 39.169 184.97 39.1242 184.998 39.1ZM44.4776 45.9878C44.4938 45.9545 44.5387 45.9447 44.5772 45.9655C44.6154 45.9865 44.6331 46.0301 44.6174 46.0634C44.1771 46.9806 43.758 47.9087 43.3606 48.8456C43.3459 48.8794 43.3023 48.8917 43.2632 48.8724C43.2242 48.8529 43.2049 48.809 43.2192 48.7749C43.6173 47.8364 44.0366 46.9066 44.4776 45.9878ZM179.766 34.138C179.792 34.1116 179.84 34.1132 179.873 34.1422C180.774 34.9436 181.661 35.7591 182.533 36.5865C182.564 36.6167 182.568 36.6619 182.541 36.6872C182.514 36.7121 182.466 36.7081 182.434 36.6782C181.564 35.8524 180.679 35.039 179.779 34.2392C179.746 34.2101 179.74 34.1646 179.766 34.138ZM47.3677 40.6212C47.3868 40.5895 47.433 40.583 47.4703 40.6064C47.5074 40.6299 47.5222 40.6752 47.5032 40.7068C46.981 41.5765 46.4791 42.458 45.9989 43.3494C45.9811 43.3814 45.936 43.3897 45.8984 43.3679C45.8607 43.3457 45.8445 43.3013 45.8618 43.2688C46.3429 42.3756 46.8446 41.4925 47.3677 40.6212ZM174.199 29.5191C174.222 29.4906 174.269 29.4891 174.304 29.5157C175.259 30.2577 176.201 31.0145 177.128 31.7845C177.161 31.8126 177.169 31.8578 177.144 31.8854C177.119 31.9126 177.072 31.9126 177.038 31.885C176.114 31.1165 175.174 30.3611 174.22 29.6205C174.186 29.5936 174.176 29.5478 174.199 29.5191ZM50.7411 35.557C50.763 35.5273 50.8091 35.5241 50.8448 35.5498C50.8802 35.5757 50.8917 35.6212 50.8699 35.6509C50.5702 36.0582 50.2754 36.4699 49.9848 36.8849C49.6942 37.2999 49.4082 37.7178 49.128 38.1386C49.1074 38.1691 49.0607 38.1741 49.0244 38.1496C48.9881 38.125 48.9754 38.0805 48.9956 38.0498C49.2765 37.6281 49.5625 37.2089 49.8537 36.7931C50.1448 36.3773 50.4409 35.9651 50.7411 35.557ZM168.331 25.2712C168.351 25.2404 168.398 25.2355 168.434 25.2602C168.934 25.5982 169.433 25.941 169.928 26.2879C170.424 26.6349 170.916 26.986 171.405 27.3404C171.44 27.3662 171.451 27.4109 171.43 27.4405C171.408 27.4701 171.361 27.4734 171.325 27.4478C170.837 27.0941 170.346 26.7443 169.851 26.398C169.356 26.0516 168.859 25.7094 168.36 25.3719C168.323 25.3474 168.31 25.3019 168.331 25.2712ZM54.5735 30.8272C54.5981 30.7996 54.6453 30.7997 54.6792 30.8276C54.7126 30.8556 54.7204 30.9008 54.6962 30.9284C54.0227 31.6845 53.3661 32.4576 52.7275 33.2458C52.7042 33.2743 52.6565 33.276 52.6219 33.2492C52.5872 33.2223 52.5776 33.1765 52.6007 33.1478C53.2405 32.3582 53.8988 31.5847 54.5735 30.8272ZM162.2 21.4207C162.218 21.3884 162.263 21.3802 162.301 21.4023C163.341 22.0096 164.374 22.6354 165.397 23.2794C165.434 23.3028 165.45 23.3481 165.431 23.3797C165.412 23.4111 165.366 23.4177 165.329 23.3945C164.306 22.7516 163.275 22.1262 162.237 21.5199C162.199 21.4977 162.183 21.4532 162.2 21.4207ZM58.8438 26.4607C58.8709 26.4354 58.9187 26.4387 58.9505 26.4687C58.982 26.4989 58.9856 26.5441 58.9585 26.5694C58.2141 27.2632 57.4862 27.9745 56.7749 28.7018C56.7491 28.7281 56.701 28.7263 56.6683 28.6977C56.6356 28.6686 56.6296 28.6231 56.6551 28.5965C57.3677 27.8678 58.098 27.1558 58.8438 26.4607ZM155.842 17.9918C155.857 17.9578 155.901 17.9464 155.94 17.9659C157.015 18.5016 158.084 19.0563 159.145 19.6297C159.184 19.6507 159.203 19.695 159.187 19.7284C159.171 19.7615 159.126 19.7713 159.087 19.7507C158.028 19.1782 156.961 18.624 155.887 18.0892C155.848 18.0697 155.828 18.026 155.842 17.9918ZM63.5251 22.484C63.5548 22.4614 63.6027 22.4687 63.6321 22.5007C63.6613 22.5327 63.6612 22.5772 63.6319 22.6001C62.8211 23.2273 62.0256 23.8728 61.246 24.535C61.2177 24.5589 61.1697 24.5528 61.1391 24.5222C61.1085 24.4912 61.1062 24.4464 61.1342 24.4222C61.9151 23.7588 62.7129 23.1123 63.5251 22.484ZM149.39 14.9717C150.494 15.4323 151.593 15.913 152.686 16.4124C152.725 16.4307 152.747 16.4736 152.734 16.5086C152.721 16.5432 152.679 16.557 152.639 16.5391C151.548 16.0406 150.452 15.5607 149.349 15.1008C149.309 15.084 149.286 15.0415 149.297 15.006C149.309 14.9704 149.35 14.9551 149.39 14.9717ZM68.5876 18.9228C68.6195 18.9025 68.6676 18.9134 68.6947 18.9472C68.7216 18.981 68.718 19.0252 68.6862 19.0455C67.8142 19.602 66.9563 20.177 66.1135 20.7698C66.0829 20.7912 66.0348 20.7818 66.0064 20.7493C65.9781 20.7163 65.9802 20.6721 66.0108 20.6504C66.8551 20.0566 67.7141 19.4803 68.5876 18.9228ZM142.695 12.4392C143.821 12.8218 144.942 13.2248 146.059 13.6471C146.099 13.6626 146.124 13.7045 146.115 13.7407C146.104 13.7767 146.064 13.7938 146.023 13.7786C144.908 13.3571 143.789 12.9551 142.665 12.5731C142.624 12.5592 142.598 12.5177 142.606 12.4808C142.614 12.444 142.654 12.4253 142.695 12.4392ZM74.0021 15.7981C74.036 15.7807 74.0828 15.7952 74.1073 15.8304C74.1313 15.8655 74.1243 15.9078 74.091 15.9255C73.163 16.4079 72.2475 16.9093 71.3467 17.4293C71.314 17.448 71.2667 17.4358 71.2407 17.4019C71.2149 17.3674 71.2198 17.3234 71.2524 17.3043C72.155 16.7834 73.0724 16.2814 74.0021 15.7981ZM135.893 10.3834C137.033 10.6856 138.17 11.0079 139.304 11.3506C139.345 11.3631 139.374 11.4042 139.367 11.4416C139.36 11.4785 139.322 11.4982 139.281 11.4859C138.149 11.1437 137.013 10.8218 135.874 10.5201C135.833 10.5091 135.804 10.4698 135.808 10.4323C135.813 10.3944 135.851 10.3724 135.893 10.3834ZM79.7329 13.1294C79.7686 13.1146 79.8151 13.132 79.8369 13.1686C79.8584 13.205 79.8476 13.2468 79.8121 13.2615C78.8337 13.6669 77.867 14.0915 76.9136 14.5355C76.879 14.5515 76.8319 14.5357 76.8086 14.5003C76.7854 14.4644 76.7953 14.422 76.83 14.4057C77.785 13.961 78.7529 13.5354 79.7329 13.1294ZM129.027 8.81674C130.175 9.0366 131.321 9.27721 132.465 9.5383C132.507 9.54793 132.538 9.58666 132.535 9.62485C132.532 9.66264 132.495 9.68559 132.453 9.67641C131.311 9.41575 130.166 9.17581 129.021 8.95632C128.979 8.94833 128.947 8.91037 128.948 8.8719C128.95 8.83328 128.985 8.80873 129.027 8.81674ZM85.7463 10.9322C85.7836 10.9205 85.8296 10.9417 85.8485 10.9793C85.8668 11.0166 85.8516 11.0563 85.8146 11.0681C84.7919 11.3938 83.7799 11.7397 82.7799 12.105C82.7435 12.118 82.6971 12.0986 82.6767 12.0619C82.6566 12.025 82.6698 11.984 82.706 11.9705C83.7077 11.6046 84.7218 11.2584 85.7463 10.9322ZM122.139 7.74829C123.287 7.88438 124.435 8.04144 125.582 8.21933C125.624 8.22585 125.658 8.26268 125.658 8.30151C125.658 8.34019 125.624 8.3667 125.582 8.36028C124.437 8.18271 123.291 8.02553 122.145 7.88968C122.103 7.88476 122.068 7.84948 122.066 7.81066C122.064 7.77154 122.097 7.74335 122.139 7.74829ZM92.0045 9.22137C92.0431 9.21273 92.0877 9.23715 92.1037 9.27545C92.1191 9.31366 92.1004 9.35232 92.0619 9.36116C91.0013 9.60494 89.9501 9.8691 88.9099 10.1534C88.8721 10.1634 88.8274 10.1409 88.8098 10.1033C88.7924 10.0653 88.8089 10.0255 88.8469 10.0151C89.889 9.73025 90.9421 9.46558 92.0045 9.22137ZM115.271 7.18581C116.413 7.23718 117.556 7.30968 118.7 7.4033C118.741 7.40682 118.778 7.44189 118.781 7.48112C118.784 7.52019 118.753 7.54952 118.711 7.54615C117.57 7.4527 116.428 7.38037 115.289 7.32909C115.247 7.32703 115.21 7.29335 115.205 7.25435C115.2 7.215 115.23 7.18402 115.271 7.18581ZM98.4688 8.00804C98.5086 8.00219 98.5517 8.02919 98.5646 8.0682C98.577 8.10696 98.5551 8.14295 98.5154 8.14876C97.4233 8.30919 96.3401 8.49108 95.266 8.69274C95.2269 8.70001 95.1836 8.67407 95.1691 8.63558C95.1547 8.59695 95.1745 8.56006 95.2135 8.55253C96.2894 8.35053 97.3748 8.16873 98.4688 8.00804ZM108.467 7.13333C109.595 7.09962 110.726 7.08752 111.858 7.09633C111.899 7.09667 111.938 7.12846 111.945 7.16789C111.951 7.20703 111.923 7.23912 111.882 7.23901C110.752 7.23022 109.622 7.24194 108.496 7.27559C108.455 7.27654 108.416 7.24598 108.408 7.20703C108.4 7.16772 108.426 7.13474 108.467 7.13333ZM103.43 7.42821C103.986 7.37953 104.544 7.33542 105.102 7.29741C105.142 7.29473 105.183 7.32458 105.193 7.36375C105.202 7.4029 105.177 7.43728 105.137 7.44011C104.58 7.47805 104.023 7.52111 103.468 7.5697C102.913 7.61829 102.359 7.67234 101.808 7.73136C101.768 7.73565 101.726 7.70712 101.714 7.66811C101.703 7.62901 101.726 7.59349 101.767 7.58918C102.319 7.53005 102.874 7.47688 103.43 7.42821Z" fill="white"></path>
<path d="M129.262 93.3052C126.771 96.6775 121.477 97.0301 117.437 94.0927C113.396 91.1552 112.14 86.0401 114.63 82.6678C117.121 79.2954 147.497 60.929 150.968 59.7226C150.743 63.5477 131.752 89.9328 129.262 93.3052Z" stroke="white" stroke-width="0.147284" stroke-linecap="round" stroke-linejoin="round"></path>
<path d="M144.054 101.659L158.842 87.1261L210.346 82.5366L195.558 97.3249L144.054 101.659Z" fill="url(#paint2_linear_254_818)"></path>
<defs>
<linearGradient id="paint0_linear_254_818" x1="98.9238" y1="28.9928" x2="19.0086" y2="73.5978" gradientUnits="userSpaceOnUse">
<stop stop-color="#D76AFF"></stop>
<stop offset="1" stop-color="#0B0D0F"></stop>
</linearGradient>
<linearGradient id="paint1_linear_254_818" x1="129.749" y1="61.0017" x2="118.969" y2="100.307" gradientUnits="userSpaceOnUse">
<stop stop-color="#D76AFF"></stop>
<stop offset="1" stop-color="#0B0D0F"></stop>
</linearGradient>
<linearGradient id="paint2_linear_254_818" x1="226.409" y1="40.2116" x2="233.235" y2="90.124" gradientUnits="userSpaceOnUse">
<stop stop-color="#D76AFF"></stop>
<stop offset="1" stop-color="#0B0D0F"></stop>
</linearGradient>
</defs>
</svg>