<svg width="389" height="387" viewBox="0 0 389 387" fill="none" xmlns="http://www.w3.org/2000/svg">
<g clip-path="url(#clip0_982_1328)">
<path fill-rule="evenodd" clip-rule="evenodd" d="M334.337 41.3182H334.273C304.829 12.8088 266.463 -0.914834 228.457 0.0623887C228.372 0.0411447 228.309 0.0411447 228.224 0.0623887C226.949 0.0411447 225.674 0.0199007 224.378 0.0199007H0.126953V386.639H265.953C444.827 223.995 385.726 91.0503 334.337 41.3182ZM98.4228 310.458L53.2369 288.641V288.556C52.982 273.005 65.4097 260.237 80.9603 260.004C96.5109 259.749 109.321 272.134 109.533 287.685C109.682 296.947 105.285 305.211 98.4228 310.458ZM279.145 205.109C212.822 273.451 131.096 193.807 6.11776 148.239V6.0107H190.515C168.592 12.4689 147.921 24.1318 130.438 40.9995C127.74 43.6338 126.21 47.2453 126.167 51.0267C126.167 54.8081 127.697 58.4196 130.416 61.0751L149.175 79.2387C154.167 84.0823 161.942 84.5072 167.445 80.2372C181.296 69.5302 198.631 63.0295 217.517 62.7321C263.913 62.0098 302.131 98.9956 302.832 145.371C303.194 168.548 294.122 189.686 279.145 205.109Z" fill="url(#paint0_linear_982_1328)"/>
<rect x="0.294922" y="0.0136719" width="14.5283" height="152.776" fill="#30ABC2"/>
<rect x="207.383" y="0.0136719" width="14.5229" height="200.789" transform="rotate(90 207.383 0.0136719)" fill="#30ABC2"/>
<rect x="180.328" y="105" width="80" height="80" fill="white"/>
</g>
<defs>
<linearGradient id="paint0_linear_982_1328" x1="0.126953" y1="0.0136719" x2="386.752" y2="386.416" gradientUnits="userSpaceOnUse">
<stop stop-color="#209BC4"/>
<stop offset="1" stop-color="#4DC9C0"/>
</linearGradient>
<clipPath id="clip0_982_1328">
<rect width="386.64" height="386.64" fill="white"/>
</clipPath>
</defs>
</svg>
