<svg width="524" height="50" viewBox="0 0 524 50" fill="none" xmlns="http://www.w3.org/2000/svg">
<path d="M213.337 46.4931L213.264 49.4276H183.975V0.552454H213.264V3.4898H187.533V23.2473H208.946V26.1144H187.533V46.4931H213.337ZM265.415 46.4228V49.4276H238.712V0.552454H242.27V46.4228H265.415ZM323.383 14.75C322.258 11.6748 320.667 9.04405 318.616 6.8571C316.569 4.67015 314.112 2.9838 311.245 1.79773C308.378 0.611355 305.219 0.018166 301.761 0.018166C298.31 0.018166 295.156 0.617006 292.3 1.81437C289.444 3.01173 286.993 4.69839 284.941 6.87405C282.89 9.0497 281.304 11.6748 280.174 14.75C279.044 17.8223 278.482 21.2374 278.482 24.9898C278.482 28.7677 279.044 32.1913 280.174 35.2664C281.304 38.3388 282.89 40.9642 284.941 43.1395C286.993 45.318 289.444 46.999 292.3 48.1823C295.156 49.3715 298.31 49.9615 301.761 49.9615C305.219 49.9615 308.378 49.3715 311.245 48.1823C314.112 46.999 316.569 45.318 318.616 43.1395C320.667 40.9642 322.258 38.3388 323.383 35.2664C324.513 32.1913 325.075 28.7677 325.075 24.9898C325.075 21.2374 324.513 17.8223 323.383 14.75ZM319.998 34.1956C319.054 36.9023 317.722 39.1987 315.99 41.085C314.264 42.9738 312.195 44.4128 309.778 45.4024C307.355 46.3945 304.685 46.8895 301.761 46.8895C298.861 46.8895 296.202 46.3945 293.784 45.4024C291.367 44.4128 289.287 42.9738 287.55 41.085C285.813 39.1987 284.464 36.9023 283.508 34.1956C282.552 31.4886 282.074 28.4222 282.074 24.9898C282.074 21.5832 282.552 18.5194 283.508 15.8014C284.464 13.0859 285.813 10.7838 287.55 8.89497C289.287 7.00618 291.367 5.56119 293.784 4.56062C296.202 3.55722 298.861 3.05693 301.761 3.05693C304.685 3.05693 307.355 3.55722 309.778 4.56062C312.195 5.56119 314.264 7.00618 315.99 8.89497C317.722 10.7838 319.054 13.0859 319.998 15.8014C320.943 18.5194 321.415 21.5832 321.415 24.9898C321.415 28.4222 320.943 31.4886 319.998 34.1956ZM381.704 41.2045C381.935 41.2045 382.132 41.286 382.295 41.4462L383.672 42.9332C382.66 44.0153 381.558 44.9879 380.378 45.8508C379.192 46.7137 377.887 47.453 376.471 48.063C375.054 48.6729 373.502 49.1451 371.81 49.4768C370.118 49.8113 368.257 49.98 366.233 49.98C362.849 49.98 359.746 49.3869 356.924 48.2007C354.102 47.0145 351.679 45.3336 349.655 43.158C347.626 40.9824 346.057 38.3515 344.938 35.2651C343.82 32.1788 343.263 28.7496 343.263 24.9718C343.263 21.2643 343.837 17.88 344.989 14.8161C346.142 11.7551 347.755 9.12417 349.824 6.92607C351.898 4.72517 354.383 3.02179 357.289 1.81313C360.19 0.604458 363.389 0.000123652 366.891 0.000123652C370.225 0.000123652 373.188 0.517321 375.762 1.55453C378.343 2.58892 380.693 4.05338 382.812 5.93946L381.738 7.49387C381.553 7.77214 381.266 7.90987 380.878 7.90987C380.603 7.90987 380.153 7.6569 379.529 7.14813C378.905 6.64218 378.045 6.08563 376.937 5.47567C375.835 4.86571 374.458 4.30636 372.811 3.8004C371.164 3.29163 369.191 3.03866 366.891 3.03866C363.94 3.03866 361.241 3.54743 358.79 4.55933C356.339 5.57124 354.231 7.02445 352.466 8.91054C350.706 10.7994 349.329 13.1015 348.34 15.8196C347.35 18.5349 346.855 21.5875 346.855 24.9718C346.855 28.4263 347.356 31.5126 348.356 34.2279C349.363 36.946 350.734 39.2425 352.488 41.1201C354.237 42.9978 356.3 44.4341 358.684 45.4376C361.067 46.4383 363.642 46.9386 366.408 46.9386C368.156 46.9386 369.713 46.8234 371.085 46.5929C372.451 46.3652 373.716 46.0195 374.868 45.5585C376.015 45.0975 377.089 44.5325 378.078 43.8663C379.068 43.1974 380.046 42.416 381.013 41.5165C381.131 41.4237 381.243 41.3506 381.362 41.2916C381.474 41.2354 381.592 41.2045 381.704 41.2045ZM409.585 49.4276H406.027V0.552454H409.585V49.4276ZM470.453 3.56007H453.284V49.4276H449.725V3.56007H432.455V0.552454H470.453V3.56007ZM505.876 29.2907V49.4276H502.351V29.2907L484.255 0.552454H487.364C487.684 0.552454 487.948 0.628349 488.156 0.777323C488.364 0.929108 488.539 1.13992 488.673 1.4182L502.666 23.8685C502.964 24.3969 503.239 24.9113 503.492 25.406C503.745 25.9008 503.965 26.3898 504.15 26.8733C504.336 26.3898 504.538 25.9008 504.768 25.406C504.999 24.9113 505.263 24.3969 505.567 23.8685L519.554 1.4182C519.666 1.16522 519.835 0.95722 520.054 0.794188C520.273 0.633968 520.543 0.552454 520.869 0.552454H523.972L505.876 29.2907ZM163.136 0.000123652L148.028 49.98H144.966L160.073 0.000123652H163.136ZM137.302 18.401L131.74 0H128.677L135.771 23.467L137.302 18.401ZM21.4109 42.824V24.2185C20.8987 24.5198 20.5673 24.7006 20.5221 24.7257C20.1254 24.9467 19.6634 25.0672 19.1963 25.0672C18.2221 25.0672 17.3132 24.5499 16.8261 23.7113C16.8261 23.7113 13.3561 17.7003 13.341 17.6652C12.6982 16.3143 13.2858 14.6772 14.6567 14.0294C18.5435 12.1965 22.2094 11.3077 25.8501 11.3077C27.0252 11.3077 28.1953 11.4031 29.3603 11.5889C33.4279 12.2769 36.7271 13.9491 39.6397 15.4255C41.9849 16.6307 44.32 17.8359 46.2734 17.8359C47.4937 17.8359 48.5081 17.389 49.4723 16.4198C50.341 15.546 50.8231 14.381 50.8231 13.1507C50.8231 10.6046 48.7491 8.53067 46.2031 8.53067C45.2139 8.53067 44.2346 8.85206 43.4512 9.43961L42.8486 9.89657L40.6692 7.72218L41.3321 7.1045C42.8637 5.67834 44.8623 4.88993 46.9514 4.88993C49.1609 4.88993 51.2299 5.74864 52.7866 7.31039C54.7953 9.38938 55.8097 12.2216 55.5937 15.089C55.2623 19.6337 51.9932 24.3541 46.1429 28.733C42.9491 31.1183 41.7288 35.4169 41.2668 38.6007L41.2216 38.912L40.9906 39.123C39.7402 40.2579 38.314 41.1567 36.7422 41.7895L35.8785 42.141L35.5872 41.2522C34.9495 39.3238 33.3074 37.9529 31.3037 37.6767C31.0576 37.6466 30.8216 37.6315 30.5856 37.6315C28.0245 37.6315 25.7999 39.5448 25.4082 42.0807L25.2927 42.824H21.4109Z" fill="white"/>
<path d="M103.273 43.963V47.9876C103.273 49.0992 102.372 50 101.26 50H71.5097C70.3987 50 69.4976 49.0992 69.4976 47.9876V2.0123C69.4976 0.900934 70.3987 0.00016421 71.5097 0.00016421H100.692C101.804 0.00016421 102.705 0.900934 102.705 2.0123V6.03688C102.705 7.14856 101.804 8.04933 100.692 8.04933H77.5467V20.9755H96.2177C97.3291 20.9755 98.2302 21.8763 98.2302 22.9876V27.0122C98.2302 28.1239 97.3291 29.0247 96.2177 29.0247H77.5467V41.9508H101.26C102.372 41.9508 103.273 42.8516 103.273 43.963ZM153.506 0.00016421H148.76C147.873 0.00016421 147.09 0.581112 146.834 1.43009L135.746 38.1174L124.658 1.43009C124.401 0.581112 123.619 0.00016421 122.731 0.00016421H117.985C116.905 0.00016421 116.132 1.04217 116.444 2.0757L130.496 48.5698C130.752 49.419 131.535 50 132.422 50H139.069C139.956 50 140.739 49.419 140.995 48.5698L155.047 2.0757C155.36 1.04217 154.586 0.00016421 153.506 0.00016421ZM2.80745 20.7756H0V17.9678H2.80745V20.7756ZM5.58602 28.8511H9.23555V25.2016H5.58602V28.8511ZM5.82392 10.6732H3.04535V13.4517H5.82393L5.82392 10.6732ZM56.3671 15.1497C56.1722 17.8846 54.9968 20.6011 52.9254 23.2776V28.5354C52.9254 40.3901 43.3154 50 31.4607 50H9.47816V46.7457H12.2184V43.7499H7.60067V39.1528H4.77093V35.2397H8.68379V37.5001H11.5502V31.2499H14.2331V25.0001H12.2184V18.7499H9.33002V12.5001H13.8505V6.24997H7.36653V2.32268H10.3717V0.000137329H31.4607C36.4212 0.000137329 40.9658 1.70846 44.599 4.53537C47.6168 3.70553 50.9678 4.44404 53.328 6.80707C55.488 9.02509 56.5943 12.062 56.3671 15.1497ZM22.2829 10.8844C29.9435 9.69078 35.6174 12.5761 40.0484 14.8186C41.5192 15.5677 42.7501 16.1666 43.8383 16.5715C41.8738 11.6078 37.1151 8.04931 31.4607 8.04931H22.2829V10.8844ZM34.8902 41.4484C34.2333 39.4246 32.218 38.0845 30.0289 38.36C28.0971 38.6036 26.594 40.069 26.2064 41.9509H31.4607C32.6549 41.9509 33.7904 41.7434 34.8902 41.4484ZM54.7175 15.0257C54.9212 12.405 53.9937 9.8226 52.1693 7.93036C49.3637 5.11977 44.836 5.03597 41.9288 7.7411L42.9278 8.74042C43.8737 8.03424 45.0231 7.65448 46.2035 7.65825C49.2372 7.65793 51.6969 10.1164 51.6972 13.1501C51.6975 14.6073 51.1188 16.0053 50.0881 17.0357C47.0016 20.14 43.4425 18.3661 39.3212 16.2435C36.4419 14.7831 33.1841 13.1216 29.2166 12.4537C24.6227 11.7086 19.9814 12.4891 15.0262 14.8186C14.0928 15.258 13.692 16.3712 14.1317 17.3049C14.1578 17.3599 17.5801 23.2663 17.5807 23.2676C18.0932 24.1476 19.2159 24.4552 20.1054 23.9593C20.1057 23.9593 23.8221 21.9431 26.213 19.7675C26.5397 19.4702 27.0454 19.4941 27.3423 19.8205C27.6395 20.1472 27.6156 20.6529 27.2892 20.9498C25.7836 22.2909 22.4527 24.5626 22.4527 24.5626L22.2829 24.6564V41.9509H24.5417C25.0514 38.6547 28.1015 36.3586 31.4193 36.8105C33.777 37.1319 35.6934 38.7803 36.413 40.9817C37.8938 40.385 39.2399 39.5317 40.4025 38.473C40.9024 35.0134 42.2059 30.5839 45.6181 28.0332C51.2647 23.8055 54.4099 19.318 54.7175 15.0257ZM38.4227 19.3717C37.5539 19.3748 36.8524 20.0816 36.8556 20.9501L39.3686 22.2096C39.7707 21.9114 40.0029 21.4388 40.0014 20.9385C39.9979 20.07 39.2911 19.3682 38.4227 19.3717ZM1.1801 47.5199H4.43448V44.2656H1.1801V47.5199Z" fill="url(#paint0_linear_1068_252)"/>
<defs>
<linearGradient id="paint0_linear_1068_252" x1="72.0011" y1="51.3756" x2="79.196" y2="-2.3968" gradientUnits="userSpaceOnUse">
<stop stop-color="#209BC4"/>
<stop offset="1" stop-color="#4DC9C0"/>
</linearGradient>
</defs>
</svg>
