<svg width="2162" height="388" viewBox="0 0 2162 388" fill="none" xmlns="http://www.w3.org/2000/svg">
<g clip-path="url(#clip0_963_23140)">
<path d="M207.382 0.0136719V0.0195312H224.379C225.675 0.0195312 226.95 0.041256 228.225 0.0625C228.31 0.0412834 228.373 0.0413011 228.458 0.0625C266.463 -0.914723 304.83 12.8089 334.274 41.3184H334.338C385.727 91.0505 444.828 223.995 265.954 386.639H0.12793V0.0195312H0.294922V0.0136719H207.382ZM80.9609 260.004C65.4105 260.238 52.9834 273.005 53.2383 288.556V288.641L98.4238 310.458C105.286 305.211 109.683 296.947 109.534 287.685C109.322 272.134 96.5115 259.749 80.9609 260.004ZM14.8232 14.5361V151.492C134.914 197.454 214.375 271.852 279.146 205.109C294.123 189.686 303.194 168.548 302.833 145.371C302.132 98.9956 263.914 62.0101 217.518 62.7324C198.632 63.0298 181.296 69.5303 167.445 80.2373C161.943 84.5072 154.168 84.0819 149.176 79.2383L130.417 61.0752C127.698 58.4197 126.168 54.8078 126.168 51.0264C126.211 47.2452 127.741 43.6342 130.438 41C141.901 29.9419 154.732 21.1204 168.389 14.5361H14.8232Z" fill="#30ABC2"/>
</g>
<path d="M2111.22 133.869H2161.48L2097.51 286.061C2067.29 361.63 2029.68 387.64 1969.93 387.64V345.814C2007.53 345.814 2028.97 331.051 2046.2 291.334L1974.14 133.869H2024.05L2070.8 231.933L2111.22 133.869Z" fill="#0B0D0F"/>
<path d="M1962.83 311.72C1952.64 312.423 1943.5 312.774 1935.07 312.774C1878.83 312.774 1861.96 295.552 1861.96 249.507V174.993H1842.63C1837 174.993 1832.43 170.424 1832.43 164.8C1832.43 162.339 1833.14 160.231 1834.89 158.122L1886.56 95.5577C1888.67 93.0973 1891.83 91.3398 1895.35 91.3398C1902.03 91.3398 1907.3 96.6121 1907.3 103.29V133.869H1951.23V174.993H1907.3V242.478C1907.3 265.676 1915.73 273.408 1962.83 274.111V311.72Z" fill="#0B0D0F"/>
<path d="M1794.72 110.672C1791.91 111.726 1788.74 112.429 1785.93 112.429C1777.14 112.429 1768.71 107.157 1764.84 98.3698C1759.92 86.7709 1765.54 73.4145 1777.14 68.4937C1779.96 67.4393 1783.12 66.7363 1785.93 66.7363C1795.07 66.7363 1803.5 72.0086 1807.02 80.7957C1811.94 92.3946 1806.32 106.102 1794.72 110.672ZM1808.07 311.72H1763.08V133.87H1808.07V311.72Z" fill="#0B0D0F"/>
<path d="M1647.26 272.004C1665.19 272.004 1680.65 260.756 1687.68 244.237H1734.78C1725.29 283.603 1689.44 313.127 1647.26 313.127C1597.35 313.127 1556.93 272.707 1556.93 222.796C1556.93 172.885 1597.35 132.816 1647.26 132.816C1689.44 132.816 1725.29 161.99 1734.78 201.707H1687.68C1680.65 185.187 1665.19 173.588 1647.26 173.588C1622.31 173.588 1601.92 195.732 1601.92 222.796C1601.92 249.86 1622.31 272.004 1647.26 272.004Z" fill="#0B0D0F"/>
<path d="M1446.46 132.816C1496.02 132.816 1536.44 172.885 1536.44 222.796C1536.44 272.707 1496.02 313.127 1446.46 313.127C1396.55 313.127 1356.13 272.707 1356.13 222.796C1356.13 172.885 1396.55 132.816 1446.46 132.816ZM1446.46 272.004C1471.07 272.004 1491.45 249.86 1491.45 222.796C1491.45 195.732 1471.07 173.588 1446.46 173.588C1421.51 173.588 1401.12 195.732 1401.12 222.796C1401.12 249.86 1421.51 272.004 1446.46 272.004Z" fill="#0B0D0F"/>
<path d="M1326.5 311.721H1281.51V59.707H1326.5V311.721Z" fill="#0B0D0F"/>
<path d="M1020.05 133.869H1069.96L990.521 304.339C988.06 309.611 982.436 313.126 976.461 313.126C970.486 313.126 965.214 309.611 962.753 304.339L882.615 133.869H932.526L976.461 230.527L1020.05 133.869Z" fill="#0B0D0F"/>
<path d="M577.811 66.0332C711.023 66.0332 712.429 300.121 585.895 311.369V311.72H578.865C578.162 311.72 577.108 311.72 576.405 311.72H479.396V66.0332H577.811ZM576.405 270.596C649.513 270.596 650.216 107.157 574.647 107.157H526.494V270.596H576.405Z" fill="#0B0D0F"/>
<path d="M790.305 132.934C833.829 132.934 877.703 163.12 879.458 227.353V232.618H747.482C751.695 258.592 773.106 270.877 793.814 270.877C810.338 270.877 826.859 263.101 834.825 248.103L875.713 261.471C861.472 296.58 828.315 313.348 794.867 313.348C748.886 313.348 701.853 281.758 701.853 222.79C701.853 164.173 746.079 132.934 790.305 132.934ZM791.357 173.299C775.212 173.299 759.066 182.074 751.344 199.272H830.67C823.65 182.074 807.503 173.299 791.357 173.299Z" fill="#0B0D0F"/>
<path d="M1162.06 132.934C1205.58 132.934 1249.46 163.12 1251.21 227.353V232.618H1119.23C1123.45 258.592 1144.86 270.877 1165.57 270.877C1182.09 270.877 1198.61 263.101 1206.58 248.103L1247.47 261.471C1233.22 296.58 1200.07 313.348 1166.62 313.348C1120.64 313.348 1073.6 281.758 1073.6 222.79C1073.6 164.173 1117.83 132.934 1162.06 132.934ZM1163.11 173.299C1146.96 173.299 1130.82 182.074 1123.1 199.272H1202.42C1195.4 182.074 1179.26 173.299 1163.11 173.299Z" fill="#0B0D0F"/>
<defs>
<clipPath id="clip0_963_23140">
<rect width="386.64" height="386.64" fill="white"/>
</clipPath>
</defs>
</svg>
