<svg width="389" height="387" viewBox="0 0 389 387" fill="none" xmlns="http://www.w3.org/2000/svg">
<g clip-path="url(#clip0_770_29570)">
<path d="M207.382 0.0136719V0.0195312H224.379C225.675 0.0195312 226.95 0.041256 228.225 0.0625C228.31 0.0412844 228.373 0.0413011 228.458 0.0625C266.463 -0.914723 304.83 12.8089 334.274 41.3184H334.338C385.727 91.0505 444.828 223.995 265.954 386.639H0.12793V0.0195312H0.294922V0.0136719H207.382ZM80.9609 260.004C65.4105 260.238 52.9834 273.005 53.2383 288.556V288.641L98.4238 310.458C105.286 305.211 109.683 296.947 109.534 287.685C109.322 272.134 96.5115 259.749 80.9609 260.004ZM14.8232 14.5361V151.492C134.914 197.454 214.375 271.852 279.146 205.109C294.123 189.686 303.194 168.548 302.833 145.371C302.132 98.9955 263.914 62.0101 217.518 62.7324C198.632 63.0298 181.296 69.5303 167.445 80.2373C161.943 84.5072 154.168 84.0818 149.176 79.2383L130.417 61.0752C127.698 58.4197 126.168 54.8078 126.168 51.0264C126.211 47.2452 127.741 43.6342 130.438 41C141.901 29.9419 154.732 21.1204 168.389 14.5361H14.8232Z" fill="#30ABC2"/>
</g>
<defs>
<clipPath id="clip0_770_29570">
<rect width="386.64" height="386.64" fill="white"/>
</clipPath>
</defs>
</svg>
