<?xml version="1.0" encoding="UTF-8"?>
<svg id="Layer_1" xmlns="http://www.w3.org/2000/svg" xmlns:xlink="http://www.w3.org/1999/xlink" version="1.1" viewBox="0 0 1856 342">
  <!-- Generator: Adobe Illustrator 30.3.0, SVG Export Plug-In . SVG Version: 2.1.3 Build 182)  -->
  <defs>
    <style>
      .st0 {
        fill: none;
      }

      .st1 {
        clip-path: url(#clippath);
      }
    </style>
    <clipPath id="clippath">
      <rect class="st0" width="1856" height="341.8"/>
    </clipPath>
  </defs>
  <g class="st1">
    <g>
      <path d="M522.2.3h-36.2v36.2h36.2V.3Z"/>
      <path d="M856.3,71.3h-36.2v36.2h36.2v-36.2Z"/>
      <path d="M820.1,107.5h-36.2v114.7h36.2v-114.7Z"/>
      <path d="M1755.3,305.6h-36.2v36.2h36.2v-36.2Z"/>
      <path d="M1535.6.4h-36.2v36.2h36.2V.4Z"/>
      <path d="M449.8,90.1c-6.5-6.8-14.1-12.2-22.8-16.3-8.6-4.1-18.2-6.2-28.7-6.2s-23,2.4-32.6,7c-9.6,4.7-17.7,10.7-24.3,18.2-6.5,7.5-11.5,15.8-14.9,24.9-3.4,9.1-5.1,18.3-5.1,27.4v32.3c0,9.1,1.7,18.3,5.1,27.4,3.5,9.1,8.4,17.4,14.9,24.9,6.6,7.5,14.6,13.6,24.3,18.3,9.6,4.7,20.4,7,32.6,7s18.8-2.1,27.7-6.3c8.9-4.2,16.8-9.7,23.8-16.5l2.4,22.8h33.8V36.5h-36.2v53.5h0ZM449.8,179.6c0,4.9-1.1,9.9-3.3,14.9-2.3,5.1-5.4,9.6-9.5,13.7-4.1,4.1-9,7.4-14.7,9.9-5.8,2.4-12,3.7-18.8,3.7s-14.5-1.3-20.2-4c-5.8-2.7-10.5-6.2-14.4-10.5-3.9-4.3-6.7-9.1-8.6-14.4-1.9-5.3-2.9-10.4-2.9-15.3v-32.3c0-5,1-10,2.9-15.3,1.8-5.3,4.7-10.1,8.6-14.4,3.9-4.3,8.6-7.9,14.4-10.7,5.7-2.9,12.4-4.2,20.2-4.2s13,1.4,18.8,4.2c5.7,2.8,10.6,6.4,14.7,10.7,4.1,4.3,7.2,9.1,9.5,14.4,2.2,5.3,3.3,10.3,3.3,15.3v34.4h0Z"/>
      <path d="M674.4,125.8c-1.5-6.2-3.8-12.2-7-17.9-3.3-5.8-8-11.6-14-17.4-7.3-6.8-15.7-12.1-25.3-16.2-9.6-3.9-19.7-5.9-30.2-5.9h-5.9c-12.2,0-23.2,2.4-33.1,7-9.8,4.7-18.1,10.7-24.9,18.2-6.8,7.5-12.1,15.8-15.8,24.9-3.8,9.1-5.6,18.3-5.6,27.4v32.3c0,9.1,1.8,18.3,5.3,27.4,3.5,9.1,8.6,17.3,15.1,24.7,6.6,7.4,14.6,13.3,24.2,17.9,9.6,4.5,20.5,6.8,32.7,6.8h10.2c10.5,0,20.3-1.7,29.5-5.1,9.1-3.4,17.2-8,24.1-13.7,6.9-5.8,12.3-12.3,16.2-19.9,3.9-7.5,5.8-15.2,5.8-23.1h-35.8c0,4.9-1.2,9.1-3.8,12.8-2.6,3.6-5.9,6.7-10,9.1-4.1,2.4-8.8,4.3-14.3,5.4-5.3,1.2-10.8,1.8-16.5,1.8s-14.5-1.3-20.2-4c-5.8-2.7-10.5-6.2-14.4-10.5-3.9-4.3-6.8-9.1-8.8-14.4-2-5.3-3-10.4-3-15.3v-6.3h128.5v-4.9c0-7.8-.1-15-.4-21.8-.2-6.8-1-13.3-2.4-19.4h0ZM549,141.7c.4-4.7,1.9-9.4,4.4-14.2,2.5-4.8,5.8-9.1,10-13,4.2-3.9,9.1-7,14.9-9.5,5.7-2.4,12.1-3.7,19.1-3.7s11.5.9,16.9,2.8c5.3,1.9,10.1,4.6,14.2,8.1,4.1,3.5,7.4,7.8,9.9,12.8,2.4,5.1,3.7,10.6,3.7,16.7h-93.1Z"/>
      <path d="M769.4,218.8l-.9-2.2-53.1-145.3h-36.5l66.7,174.7,3.4,9.1h34.9v-32.8h-13.1l-1.4-3.5Z"/>
      <path d="M1022.6,125.8c-1.4-6.2-3.7-12.2-7-17.9-3.3-5.8-8-11.6-14-17.4-7.2-6.8-15.6-12.1-25.3-16.2-9.6-3.9-19.6-5.9-30.2-5.9h-6c-12.1,0-23.2,2.4-33,7-9.9,4.7-18.1,10.7-24.9,18.2-6.8,7.5-12.1,15.8-15.8,24.9-3.7,9.1-5.6,18.3-5.6,27.4v32.3c0,9.1,1.8,18.3,5.3,27.4,3.5,9.1,8.6,17.3,15.1,24.7,6.5,7.4,14.6,13.3,24.2,17.9,9.6,4.5,20.5,6.8,32.6,6.8h10.2c10.5,0,20.4-1.7,29.5-5.1,9.1-3.4,17.1-8,24.1-13.7,6.9-5.8,12.2-12.3,16.1-19.9,3.9-7.5,5.9-15.2,5.9-23.1h-35.8c0,4.9-1.3,9.1-3.9,12.8-2.5,3.6-5.9,6.7-10,9.1-4.1,2.4-8.8,4.3-14.2,5.4-5.4,1.2-10.9,1.8-16.5,1.8s-14.4-1.3-20.2-4c-5.7-2.7-10.5-6.2-14.4-10.5-3.8-4.3-6.7-9.1-8.8-14.4-2-5.3-2.9-10.4-2.9-15.3v-6.3h128.4v-4.9c0-7.8,0-15-.3-21.8-.3-6.8-1.1-13.3-2.5-19.4h0ZM897.3,141.7c.5-4.7,2-9.4,4.4-14.2,2.5-4.8,5.9-9.1,10-13,4.2-3.9,9.2-7,14.9-9.5,5.8-2.4,12.1-3.7,19.2-3.7s11.5.9,16.8,2.8c5.4,1.9,10.2,4.6,14.3,8.1,4.1,3.5,7.3,7.8,9.8,12.8,2.5,5.1,3.7,10.6,3.7,16.7h-93.1Z"/>
      <path d="M1088.6.4h-36.2v254.7h36.2V.4Z"/>
      <path d="M1265.6,93.6c-6.8-7.5-15.1-13.5-24.9-18.2-9.9-4.7-20.8-7-33-7h-13c-12.1,0-23.2,2.4-33,7-9.9,4.7-18.2,10.7-25,18.2-6.8,7.5-12.1,15.8-15.8,24.9-3.7,9.1-5.6,18.3-5.6,27.4v32.3c0,9.1,1.7,18.3,5.2,27.4,3.5,9.1,8.6,17.3,15.2,24.7,6.5,7.4,14.5,13.3,24.2,17.9,9.6,4.5,20.5,6.8,32.6,6.8h17.2c12.2,0,23.1-2.3,32.7-6.8,9.6-4.6,17.6-10.5,24.2-17.9,6.6-7.4,11.5-15.7,15.1-24.7,3.5-9.1,5.3-18.3,5.3-27.4v-32.3c0-9.1-1.8-18.3-5.6-27.4-3.8-9.1-9.1-17.4-15.8-24.9h0ZM1250.8,178.2c0,7.2-1.4,13.7-4.2,19.2-2.8,5.5-6.5,10.1-11.2,13.8-4.7,3.8-10,6.6-16,8.5-5.9,1.8-12.1,2.8-18.4,2.8s-12.4-1-18.2-2.8c-5.9-1.9-11.1-4.7-15.8-8.5-4.7-3.7-8.4-8.3-11.3-13.8-2.8-5.5-4.2-11.9-4.2-19.2v-32.3c0-7,1.3-13.3,4-18.8,2.7-5.5,6.2-10.2,10.7-14,4.5-3.9,9.7-6.8,15.8-8.8,6.1-2,12.4-3,19-3s12.5.9,18.4,2.8c6,1.9,11.3,4.7,16,8.3,4.7,3.7,8.4,8.3,11.2,13.9,2.9,5.6,4.2,12.1,4.2,19.7v32.3Z"/>
      <path d="M1432.7,204.2c-2.3,4-5.4,7.2-9.3,9.8-3.9,2.5-8.3,4.5-13.3,5.9-5.1,1.4-10.2,2.1-15.7,2.1s-11.6-.9-17.4-2.6c-5.7-1.7-10.8-4.4-15.4-8-4.5-3.6-8.2-8.2-11-13.8-2.8-5.6-4.2-12.2-4.2-19.9v-31.7c0-7.7,1.4-14.3,4.2-19.9,2.8-5.6,6.5-10.1,11-13.6,4.6-3.5,9.7-6.1,15.4-7.9,5.8-1.8,11.6-2.6,17.4-2.6s10.5.7,15.4,2.1c4.9,1.4,9.4,3.4,13.2,5.9,3.9,2.6,7,5.7,9.4,9.6,2.2,3.9,3.4,8.2,3.4,13.1h36.2c0-11.1-2.1-20.8-6.2-29-4.1-8.2-9.7-14.9-16.7-20.1-7-5.2-15.1-9.1-24.4-11.6-9.2-2.4-19-3.6-29.3-3.6s-20.9,1.5-31.1,4.5c-10.2,3-19.3,7.7-27.4,14-8.1,6.3-14.6,14.3-19.4,24.2-4.9,9.7-7.4,21.4-7.4,34.9v31.7c0,13.3,2.5,24.8,7.5,34.7,5.1,9.8,11.6,17.8,19.7,24.1,8.1,6.3,17.2,10.9,27.4,14,10.2,3,20.5,4.5,31,4.5s20.1-1.2,29.3-3.6c9.2-2.5,17.4-6.3,24.4-11.6,7-5.2,12.6-11.9,16.7-19.9,4.1-8.1,6.1-17.7,6.1-28.8h-36.2c0,4.9-1.2,9.3-3.5,13.2h0Z"/>
      <path d="M1535.6,71.3h-36.2v183.6h36.2V71.3Z"/>
      <path d="M1819.9,71.3v97.6c0,4.9-1.1,10-3.4,15.3-2.2,5.3-5.3,10.1-9.4,14.4-4.1,4.3-9,7.9-14.8,10.7-5.7,2.9-12,4.2-18.8,4.2s-14.4-1.4-20.2-4.2c-5.7-2.8-10.5-6.4-14.3-10.7-3.9-4.3-6.7-9.1-8.6-14.4-1.9-5.3-2.8-10.4-2.8-15.3v-97.6h-36.2v97.6c0,9.1,1.7,18.3,5.1,27.4,3.4,9.1,8.3,17.4,14.9,24.9,6.5,7.5,14.6,13.6,24.2,18.3,9.6,4.7,20.5,7,32.6,7s20.2-2,28.8-6.1c8.6-4.1,16.2-9.6,22.8-16.7v35.1c0,.7,0,1.4,0,2.1v8.5h-64.5v36.2h64.5v-36.2h36.2V71.3h-36.2Z"/>
      <path d="M1627.2,28.1h-23.5c0,10.3-1.4,18.9-4.3,25.7-2.8,6.8-6.5,12.1-11,16-4.5,3.9-9.8,6.6-15.6,8.1-5.8,1.5-11.7,2.3-17.6,2.3v21.7h35.8v89.9c0,21.6,4.3,37.5,13,47.9,7.7,9.4,20.1,14.5,37.2,15.5h30.5v-35.3h-19.5c-8.3-.3-14.4-2.2-18.4-5.7-4.5-3.9-6.7-11.5-6.7-23v-89.2h44.6v-30.5h-44.6V28.1Z"/>
      <path d="M33.8,74.3c38.1-9,70.6-13.3,97.1-12.8,16,.3,24.9,19.9,14.4,31.6L0,255.1l186.1-112.7c13.4-8.1,31,4.2,28.4,20-4.4,26.1-14.7,57.2-30.6,93C292.9,107.1,313.5,40,291.6,13.5c-21.6-26.1-91.7-18.7-257.8,60.8Z"/>
    </g>
  </g>
</svg>