<svg width="1856" height="342" viewBox="0 0 1856 342" fill="none" xmlns="http://www.w3.org/2000/svg">
<g clip-path="url(#clip0_1136_1627)">
<path d="M522.209 0.339844H485.994V36.5545H522.209V0.339844Z" fill="white"/>
<path d="M856.328 71.3008H820.113V107.515H856.328V71.3008Z" fill="white"/>
<path d="M820.135 107.5H783.92V222.248H820.135V107.5Z" fill="white"/>
<path d="M1755.29 305.602H1719.07V341.816H1755.29V305.602Z" fill="white"/>
<path d="M1535.58 0.367188H1499.37V36.5818H1535.58V0.367188Z" fill="white"/>
<path d="M449.781 90.0948C443.265 83.2817 435.652 77.8632 426.964 73.7937C418.345 69.6784 408.765 67.6436 398.225 67.6436C386.017 67.6436 375.18 69.9984 365.6 74.6853C355.952 79.3493 347.904 85.4308 341.32 92.8841C334.804 100.429 329.843 108.682 326.391 117.827C323.03 126.972 321.338 136.118 321.338 145.263V177.522C321.338 186.644 323.03 195.812 326.391 204.957C329.843 214.011 334.804 222.356 341.32 229.809C347.904 237.354 355.952 243.413 365.6 248.099C375.18 252.786 386.017 255.141 398.225 255.141C407.805 255.141 417.041 253.015 425.935 248.831C434.852 244.601 442.762 239.092 449.781 232.301L452.159 255.118H485.996V36.5273H449.781V90.072V90.0948ZM449.781 179.625C449.781 184.518 448.684 189.479 446.512 194.532C444.248 199.585 441.093 204.134 437.001 208.227C432.885 212.319 427.993 215.611 422.277 218.103C416.493 220.504 410.297 221.762 403.484 221.762C395.71 221.762 388.989 220.435 383.296 217.738C377.512 215.04 372.756 211.542 368.892 207.198C365.006 202.877 362.171 198.076 360.319 192.794C358.421 187.536 357.461 182.415 357.461 177.522V145.263C357.461 140.301 358.421 135.249 360.319 129.99C362.148 124.732 365.006 119.908 368.892 115.564C372.756 111.243 377.512 107.676 383.296 104.887C388.989 102.029 395.733 100.657 403.484 100.657C410.297 100.657 416.493 102.052 422.277 104.887C427.993 107.653 432.885 111.243 437.001 115.564C441.093 119.885 444.248 124.709 446.512 129.99C448.706 135.249 449.781 140.301 449.781 145.263V179.648V179.625Z" fill="white"/>
<path d="M674.382 125.759C672.919 119.541 670.587 113.528 667.363 107.835C664.071 102.051 659.384 96.2664 653.326 90.4136C646.009 83.6233 637.596 78.2734 628.016 74.2496C618.437 70.3172 608.332 68.3281 597.815 68.3281H591.893C579.662 68.3281 568.71 70.683 558.811 75.3699C549.026 80.0339 540.681 86.1154 533.959 93.5686C527.146 101.113 521.887 109.367 518.161 118.512C514.366 127.657 512.514 136.802 512.514 145.947V178.207C512.514 187.329 514.274 196.497 517.772 205.642C521.27 214.696 526.323 222.972 532.839 230.357C539.423 237.741 547.471 243.663 557.05 248.281C566.698 252.808 577.535 255.094 589.744 255.094H599.895C610.435 255.094 620.22 253.402 629.365 250.041C638.51 246.612 646.558 242.062 653.417 236.37C660.299 230.585 665.717 224.024 669.604 216.479C673.468 209.026 675.388 201.252 675.388 193.365H639.539C639.539 198.257 638.305 202.51 635.744 206.168C633.115 209.757 629.823 212.821 625.73 215.29C621.615 217.713 616.882 219.543 611.464 220.709C606.114 221.897 600.65 222.469 595.003 222.469C587.252 222.469 580.53 221.143 574.838 218.445C569.053 215.747 564.298 212.249 560.411 207.905C556.547 203.584 553.598 198.783 551.632 193.502C549.666 188.243 548.637 183.122 548.637 178.229V171.919H677.149V167.027C677.149 159.253 677.011 152.029 676.783 145.216C676.554 138.403 675.754 131.909 674.359 125.782L674.382 125.759ZM549.026 141.695C549.46 137.008 550.923 132.275 553.415 127.497C555.884 122.673 559.199 118.352 563.429 114.488C567.613 110.601 572.574 107.446 578.358 104.977C584.051 102.554 590.43 101.319 597.449 101.319C603.302 101.319 608.949 102.256 614.344 104.086C619.694 105.983 624.45 108.704 628.542 112.202C632.658 115.7 635.927 119.952 638.419 125.005C640.842 130.058 642.077 135.59 642.077 141.672H549.048L549.026 141.695Z" fill="white"/>
<path d="M769.426 218.766L768.534 216.571L715.424 71.3008H678.912L745.58 246.018L749.009 255.072H783.921V222.241H770.843L769.426 218.766Z" fill="white"/>
<path d="M1022.63 125.759C1021.24 119.541 1018.9 113.528 1015.59 107.835C1012.3 102.051 1007.61 96.2664 1001.55 90.4136C994.303 83.6233 985.913 78.2734 976.264 74.2496C966.685 70.3172 956.648 68.3281 946.108 68.3281H940.118C927.978 68.3281 916.936 70.683 907.127 75.3699C897.274 80.0339 888.997 86.1154 882.184 93.5686C875.371 101.113 870.113 109.367 866.386 118.512C862.659 127.657 860.762 136.802 860.762 145.947V178.207C860.762 187.329 862.522 196.497 866.02 205.642C869.518 214.696 874.571 222.972 881.155 230.357C887.671 237.741 895.788 243.663 905.39 248.281C914.969 252.808 925.875 255.094 937.992 255.094H948.166C958.683 255.094 968.56 253.402 977.705 250.041C986.827 246.612 994.829 242.062 1001.76 236.37C1008.64 230.585 1013.99 224.024 1017.85 216.479C1021.74 209.026 1023.7 201.252 1023.7 193.365H987.879C987.879 198.257 986.576 202.51 983.992 206.168C981.454 209.757 978.071 212.821 973.978 215.29C969.863 217.713 965.13 219.543 959.78 220.709C954.362 221.897 948.898 222.469 943.251 222.469C935.592 222.469 928.847 221.143 923.086 218.445C917.37 215.747 912.546 212.249 908.659 207.905C904.864 203.584 901.938 198.783 899.88 193.502C897.914 188.243 896.954 183.122 896.954 178.229V171.919H1025.4V167.027C1025.4 159.253 1025.33 152.029 1025.12 145.216C1024.83 138.403 1024 131.909 1022.63 125.782V125.759ZM897.251 141.695C897.754 137.008 899.217 132.275 901.64 127.497C904.11 122.673 907.493 118.352 911.654 114.488C915.884 110.601 920.868 107.446 926.584 104.977C932.368 102.554 938.724 101.319 945.743 101.319C951.596 101.319 957.22 102.256 962.57 104.086C967.988 105.983 972.721 108.704 976.836 112.202C980.928 115.7 984.152 119.952 986.644 125.005C989.113 130.058 990.302 135.59 990.302 141.672H897.274L897.251 141.695Z" fill="white"/>
<path d="M1088.61 0.367188H1052.46V255.104H1088.61V0.367188Z" fill="white"/>
<path d="M1265.59 93.5686C1258.78 86.1154 1250.46 80.0339 1240.65 75.3699C1230.77 70.683 1219.8 68.3281 1207.66 68.3281H1194.63C1182.49 68.3281 1171.44 70.683 1161.64 75.3699C1151.76 80.0339 1143.48 86.1154 1136.69 93.5686C1129.88 101.113 1124.62 109.367 1120.87 118.512C1117.15 127.657 1115.25 136.802 1115.25 145.947V178.207C1115.25 187.329 1116.99 196.497 1120.48 205.642C1124 214.696 1129.06 222.972 1135.64 230.357C1142.16 237.741 1150.18 243.663 1159.85 248.281C1169.43 252.808 1180.34 255.094 1192.48 255.094H1209.67C1221.88 255.094 1232.76 252.831 1242.37 248.281C1251.94 243.663 1259.99 237.741 1266.58 230.357C1273.16 222.972 1278.12 214.696 1281.64 205.642C1285.16 196.497 1286.9 187.352 1286.9 178.207V145.947C1286.9 136.825 1285.1 127.657 1281.35 118.512C1277.55 109.39 1272.27 101.113 1265.55 93.5686H1265.59ZM1250.82 178.207C1250.82 185.454 1249.43 191.879 1246.57 197.366C1243.81 202.83 1240.08 207.448 1235.37 211.175C1230.68 214.97 1225.36 217.759 1219.37 219.657C1213.44 221.486 1207.29 222.446 1200.94 222.446C1194.58 222.446 1188.57 221.486 1182.72 219.657C1176.86 217.759 1171.6 214.993 1166.94 211.175C1162.25 207.448 1158.5 202.83 1155.67 197.366C1152.9 191.879 1151.51 185.431 1151.51 178.207V145.947C1151.51 138.928 1152.81 132.641 1155.51 127.154C1158.16 121.667 1161.73 116.98 1166.19 113.116C1170.67 109.23 1175.93 106.303 1181.98 104.337C1188.07 102.348 1194.42 101.342 1200.94 101.342C1207.45 101.342 1213.44 102.279 1219.37 104.108C1225.36 106.006 1230.68 108.772 1235.37 112.385C1240.06 116.043 1243.81 120.638 1246.57 126.285C1249.43 131.91 1250.82 138.425 1250.82 145.947V178.207Z" fill="white"/>
<path d="M1432.65 204.224C1430.32 208.225 1427.23 211.426 1423.37 214.055C1419.48 216.593 1415.02 218.559 1410.06 219.954C1405.01 221.326 1399.82 222.057 1394.4 222.057C1388.55 222.057 1382.79 221.189 1376.98 219.428C1371.29 217.691 1366.17 214.993 1361.55 211.426C1357.02 207.791 1353.36 203.196 1350.51 197.594C1347.74 191.993 1346.34 185.363 1346.34 177.658V145.924C1346.34 138.22 1347.74 131.589 1350.51 125.988C1353.36 120.387 1357.02 115.883 1361.55 112.385C1366.17 108.887 1371.29 106.257 1376.98 104.52C1382.79 102.759 1388.55 101.891 1394.4 101.891C1399.82 101.891 1404.94 102.554 1409.83 103.994C1414.73 105.366 1419.18 107.355 1423 109.893C1426.89 112.453 1430.02 115.631 1432.38 119.495C1434.62 123.359 1435.81 127.726 1435.81 132.595H1472.02C1472.02 121.484 1469.96 111.79 1465.87 103.628C1461.78 95.4662 1456.22 88.7674 1449.2 83.5319C1442.16 78.2963 1434.05 74.4325 1424.76 71.9633C1415.53 69.5627 1405.74 68.3281 1395.5 68.3281C1385.26 68.3281 1374.58 69.8599 1364.41 72.855C1354.25 75.8957 1345.11 80.5597 1336.99 86.8241C1328.92 93.1571 1322.43 101.159 1317.54 110.99C1312.64 120.73 1310.15 132.39 1310.15 145.924V177.658C1310.15 190.987 1312.64 202.464 1317.7 212.318C1322.75 222.08 1329.33 230.082 1337.36 236.415C1345.48 242.68 1354.55 247.321 1364.79 250.384C1374.95 253.379 1385.28 254.911 1395.8 254.911C1406.31 254.911 1415.92 253.677 1425.11 251.276C1434.34 248.784 1442.53 244.943 1449.55 239.707C1456.59 234.472 1462.12 227.842 1466.24 219.84C1470.33 211.769 1472.36 202.144 1472.36 191.01H1436.15C1436.15 195.88 1434.98 200.315 1432.65 204.247V204.224Z" fill="white"/>
<path d="M1535.58 71.3008H1499.37V254.889H1535.58V71.3008Z" fill="white"/>
<path d="M1819.88 71.3008V168.879C1819.88 173.795 1818.8 178.916 1816.52 184.174C1814.32 189.433 1811.17 194.257 1807.08 198.578C1802.98 202.899 1798.09 206.488 1792.28 209.255C1786.59 212.113 1780.3 213.484 1773.51 213.484C1765.83 213.484 1759.09 212.09 1753.33 209.255C1747.63 206.488 1742.79 202.876 1739.01 198.578C1735.13 194.257 1732.29 189.456 1730.37 184.174C1728.47 178.916 1727.61 173.795 1727.61 168.879V71.3008H1691.39V168.879C1691.39 178.024 1693.08 187.169 1696.51 196.314C1699.87 205.391 1704.86 213.736 1711.44 221.189C1717.96 228.734 1726.07 234.792 1735.65 239.479C1745.23 244.166 1756.14 246.498 1768.28 246.498C1778.82 246.498 1788.47 244.463 1797.11 240.371C1805.73 236.256 1813.34 230.723 1819.93 223.681V258.798C1819.93 259.507 1819.93 260.193 1819.88 260.879V269.407H1755.34V305.621H1819.88V269.407H1856.07V71.3008H1819.93H1819.88Z" fill="white"/>
<path d="M1627.15 28.0938H1603.67C1603.67 38.4049 1602.29 46.9555 1599.41 53.7686C1596.65 60.5818 1592.9 65.8402 1588.37 69.7269C1583.84 73.5907 1578.59 76.3113 1572.73 77.8431C1566.88 79.3064 1561.03 80.1066 1555.17 80.1066V101.803H1591.02V191.723C1591.02 213.282 1595.34 229.24 1604.03 239.62C1611.76 248.971 1624.15 254.092 1641.25 255.098H1671.77V219.752H1652.29C1644 219.432 1637.85 217.512 1633.87 214.014C1629.39 210.15 1627.15 202.468 1627.15 191.06V101.826H1671.77V71.3273H1627.15V28.0938Z" fill="white"/>
<path d="M33.7912 74.2847C71.9263 65.3225 104.437 60.9557 130.889 61.5273C146.916 61.8702 155.787 81.4408 145.316 93.1465L0 255.106L186.149 142.439C199.569 134.299 217.173 146.668 214.521 162.466C210.155 188.553 199.843 219.692 183.954 255.495C292.918 107.07 313.517 39.9677 291.569 13.4926C269.986 -12.571 199.866 -5.20916 33.7912 74.2847Z" fill="#2CA7BE"/>
</g>
<defs>
<clipPath id="clip0_1136_1627">
<rect width="1856" height="341.798" fill="white"/>
</clipPath>
</defs>
</svg>
