<?xml version="1.0" encoding="UTF-8"?>
<svg id="b" data-name="Layer 2" xmlns="http://www.w3.org/2000/svg" xmlns:xlink="http://www.w3.org/1999/xlink" viewBox="0 0 2713.06 453.19">
  <defs>
    <style>
      .f {
        fill: none;
      }

      .g {
        fill: #fff;
      }

      .h {
        clip-path: url(#e);
      }

      .i {
        clip-path: url(#d);
      }
    </style>
    <clipPath id="d">
      <rect class="f" x="555.08" y="13.88" width="2157.98" height="439.31"/>
    </clipPath>
    <clipPath id="e">
      <rect class="f" width="413.44" height="365.18"/>
    </clipPath>
  </defs>
  <g id="c" data-name="Layer 1">
    <g>
      <g class="i">
        <path class="g" d="M682.02,37.9h-126.95v289.37h126.95c84.74,0,128.49-54.6,128.49-144.69s-44.18-144.69-128.49-144.69ZM680.73,284.73h-76.05V80.45h76.05c53.74,0,78.54,38.07,78.54,102.14s-24.8,102.14-78.54,102.14Z"/>
        <path class="g" d="M1013.51,256.57c-10.34,21.53-31.01,33.07-59.08,33.07-33.07,0-62.87-18.17-65.37-59.08h156.31v-21.1c0-67-42.63-104.98-100.93-104.98s-103.69,37.55-103.69,114.46,46.68,113.34,111.61,113.34c47.88,0,82.25-19.46,99.21-55.46l-38.06-20.24ZM944.09,146.59c28.94.43,48.31,16.54,53.31,48.83h-107.48c5.34-32.73,25.23-48.83,54.17-48.83Z"/>
        <path class="g" d="M1249.58,108.61l-69.5,166.99-68.99-166.99h-52.53l94.65,218.67h54.17l94.73-218.67h-52.53Z"/>
        <path class="g" d="M1484.78,256.57c-10.33,21.53-31,33.07-59.08,33.07-33.07,0-62.87-18.17-65.37-59.08h156.32v-21.1c0-67-42.64-104.98-100.94-104.98s-103.78,37.55-103.78,114.46,46.77,113.34,111.7,113.34c47.89,0,82.25-19.46,99.22-55.46l-38.07-20.24ZM1415.37,146.59c28.93.43,48.31,16.54,53.31,48.83h-107.49c5.34-32.73,25.24-48.83,54.18-48.83Z"/>
        <path class="g" d="M1560.39,15.94v311.33h47.54V15.94h-47.54Z"/>
        <path class="g" d="M1755.97,103.61c-69.5,0-109.2,46.33-109.2,114.54s39.7,114.89,109.2,114.89,109.12-46.25,109.12-114.89-39.28-114.54-109.12-114.54ZM1755.97,290.5c-39.27,0-61.66-29.37-61.66-72.34s22.39-72,61.66-72,61.58,28.94,61.58,72-21.88,72.34-61.58,72.34Z"/>
        <path class="g" d="M2066.01,245.46c-6.63,28.94-27.73,43.75-59.17,43.75-37.55,0-63.21-23.94-63.21-71.05,0-49.61,23.51-72.34,58.74-72.34,28.07.35,47.88,15.68,56.58,40.48l40.56-20.67c-15.76-41.34-52.96-62.44-97.14-62.44-57.1,0-107.14,32.3-107.14,114.97s48.83,114.89,110.41,114.89c51.24,0,87.67-21.1,103.35-71.05l-42.98-16.54Z"/>
        <path class="g" d="M2138.7,108.61v218.67h47.97V108.61h-47.97ZM2162.73,13.88c-18.17,0-29.37,12.06-29.37,28.94s11.54,29.37,29.37,29.37,29.37-12.4,29.37-29.37-11.63-28.94-29.37-28.94Z"/>
      </g>
      <polygon class="g" points="2353.84 106.05 2353.84 153.81 2252.04 153.81 2252.04 52.56 2299.79 52.56 2299.79 106.05 2353.84 106.05"/>
      <g class="h">
        <g>
          <path class="g" d="M266.5,0h-73.47v73.07h73.47V0Z"/>
          <path class="g" d="M339.97,73.07h-73.47v73.07h73.47v-73.07Z"/>
          <path class="g" d="M413.44,145.79h-73.47v73.07h73.47v-73.07Z"/>
          <path class="g" d="M157.99,0h-73.47v365.18h73.47V0Z"/>
          <path class="g" d="M339.97,219.03h-73.47v73.07h73.47v-73.07Z"/>
          <path class="g" d="M266.5,292.1h-73.47v73.07h73.47v-73.07Z"/>
        </g>
      </g>
      <path class="g" d="M2417.83,272.33c-16.19,43.41-46.33,60.29-84.74,60.29-45.9,0-81.04-27.22-81.04-80.18v-62.63h47.54v58.92c0,24.81,14.9,38.07,37.2,38.07,21.1,0,34.71-12.06,42.12-35.14l38.92,20.67Z"/>
      <path class="g" d="M2647.91,108.7l-8.27,20.62-99.99,249.29-.63,1.55c-13.35,32.23-36.06,46.34-68.96,47.19h-.26s.02-.03.03-.07c1.01-2.18,23.57-55.05,28.05-65.38.2-.46.4-.92.58-1.38.07-.14.13-.29.19-.43l14.47-37.72,22.31-57.01v-.18l.02-.05.07.14,60.71-156.57h51.68Z"/>
      <polygon class="g" points="2497.42 291.63 2404.01 108.7 2457.75 108.7 2519.97 233.96 2511.83 254.93 2511.4 255.97 2497.42 291.63"/>
      <path class="g" d="M2647.91,108.7l-8.27,20.62-99.99,249.29-.63,1.55-19.01,47.19-.04.09-49.91-.09h-.26s.02-.03.03-.07c1.01-2.18,23.57-55.05,28.05-65.38.2-.46.4-.92.58-1.38.07-.14.13-.29.19-.43l14.47-37.72,22.31-57.01v-.18l.02-.05.07.14,60.71-156.57h51.68Z"/>
    </g>
    <polygon class="g" points="2520.01 427.35 2519.97 427.44 2470.06 427.35 2520.01 427.35"/>
  </g>
</svg>