<svg width="181" height="38" viewBox="0 0 181 38" fill="none" xmlns="http://www.w3.org/2000/svg">
<path d="M174.907 8.43999H180.627L173.347 25.76C169.907 34.36 165.627 37.32 158.827 37.32V32.56C163.107 32.56 165.547 30.88 167.507 26.36L159.307 8.43999H164.987L170.307 19.6L174.907 8.43999Z" fill="white"/>
<path d="M159.22 28.68C158.06 28.76 157.02 28.8 156.06 28.8C149.66 28.8 147.74 26.84 147.74 21.6V13.12H145.54C144.9 13.12 144.38 12.6 144.38 11.96C144.38 11.68 144.46 11.44 144.66 11.2L150.54 4.07999C150.78 3.79999 151.14 3.59999 151.54 3.59999C152.3 3.59999 152.9 4.19999 152.9 4.95999V8.43999H157.9V13.12H152.9V20.8C152.9 23.44 153.86 24.32 159.22 24.4V28.68Z" fill="white"/>
<path d="M141.288 5.79999C140.968 5.91999 140.608 5.99999 140.288 5.99999C139.288 5.99999 138.328 5.39999 137.888 4.39999C137.328 3.07999 137.968 1.55999 139.288 0.999988C139.608 0.879987 139.968 0.799988 140.288 0.799988C141.328 0.799988 142.288 1.39999 142.688 2.39999C143.248 3.71999 142.608 5.27999 141.288 5.79999ZM142.808 28.68H137.688V8.43999H142.808V28.68Z" fill="white"/>
<path d="M125.707 24.16C127.747 24.16 129.507 22.88 130.307 21H135.667C134.587 25.48 130.507 28.84 125.707 28.84C120.027 28.84 115.427 24.24 115.427 18.56C115.427 12.88 120.027 8.31999 125.707 8.31999C130.507 8.31999 134.587 11.64 135.667 16.16H130.307C129.507 14.28 127.747 12.96 125.707 12.96C122.867 12.96 120.547 15.48 120.547 18.56C120.547 21.64 122.867 24.16 125.707 24.16Z" fill="white"/>
<path d="M104.056 8.31999C109.696 8.31999 114.296 12.88 114.296 18.56C114.296 24.24 109.696 28.84 104.056 28.84C98.3756 28.84 93.7756 24.24 93.7756 18.56C93.7756 12.88 98.3756 8.31999 104.056 8.31999ZM104.056 24.16C106.856 24.16 109.176 21.64 109.176 18.56C109.176 15.48 106.856 12.96 104.056 12.96C101.216 12.96 98.8956 15.48 98.8956 18.56C98.8956 21.64 101.216 24.16 104.056 24.16Z" fill="white"/>
<path d="M91.6034 28.68H86.4834V0H91.6034V28.68Z" fill="white"/>
<path d="M69.2291 19.68C69.7091 22.64 72.1491 24.04 74.5091 24.04C76.5491 24.04 78.5891 23 79.3891 21L84.2691 21.68C82.9891 26.56 78.8291 28.88 74.6291 28.88C69.3891 28.88 64.0291 25.28 64.0291 18.56C64.0291 11.88 69.0691 8.31999 74.1091 8.31999C79.0691 8.31999 84.0691 11.76 84.2691 19.08V19.68H69.2291ZM78.7091 15.88C77.9091 13.92 76.0691 12.92 74.2291 12.92C72.3891 12.92 70.5491 13.92 69.6691 15.88H78.7091Z" fill="white"/>
<path d="M59.1278 8.43999H64.8078L55.7678 27.84C55.4878 28.44 54.8478 28.84 54.1678 28.84C53.4878 28.84 52.8878 28.44 52.6078 27.84L43.4878 8.43999H49.1678L54.1678 19.44L59.1278 8.43999Z" fill="white"/>
<path d="M29.2853 19.68C29.7653 22.64 32.2053 24.04 34.5653 24.04C36.6053 24.04 38.6453 23 39.4453 21L44.3253 21.68C43.0453 26.56 38.8853 28.88 34.6853 28.88C29.4453 28.88 24.0853 25.28 24.0853 18.56C24.0853 11.88 29.1253 8.31999 34.1653 8.31999C39.1253 8.31999 44.1253 11.76 44.3253 19.08V19.68H29.2853ZM38.7653 15.88C37.9653 13.92 36.1253 12.92 34.2853 12.92C32.4453 12.92 30.6053 13.92 29.7253 15.88H38.7653Z" fill="white"/>
<path d="M11.2 0.719986C26.36 0.719986 26.52 27.36 12.12 28.64V28.68H11.32C11.24 28.68 11.12 28.68 11.04 28.68H0V0.719986H11.2ZM11.04 24C19.36 24 19.44 5.39999 10.84 5.39999H5.36V24H11.04Z" fill="white"/>
</svg>
