<svg width="302" height="357" viewBox="0 0 302 357" fill="none" xmlns="http://www.w3.org/2000/svg">
<path d="M149.782 171.18L0 85.5897L149.782 0L299.564 85.5897L149.782 171.18Z" fill="url(#paint0_linear_1005_1066)"/>
<path d="M148.712 171.796V354.222L1.07031 268.981V87.4297L148.712 171.796Z" fill="url(#paint1_linear_1005_1066)" stroke="#209BC4" stroke-width="5.5"/>
<path d="M150.854 171.796V354.227L298.496 268.986V87.4297L150.854 171.796Z" fill="url(#paint2_linear_1005_1066)" stroke="#209BC4" stroke-width="5.5"/>
<path d="M296.618 85.5898L149.781 169.496L2.94434 85.5898L149.781 1.68262L296.618 85.5898Z" fill="#0B0D0F" stroke="#2E3135" stroke-width="7.0"/>
<path d="M148.32 172.023V353.544L1.46094 268.755V88.1025L148.32 172.023Z" fill="#0B0D0F" stroke="#2E3135" stroke-width="7.0"/>
<path d="M151.246 172.023V353.549L298.105 268.759V88.1025L151.246 172.023Z" fill="#0B0D0F" stroke="#2E3135" stroke-width="7.0"/>
<path d="M74.0606 286.616C62.4573 279.917 53.509 271.628 47.2157 261.75C40.9223 251.758 37.5299 241.624 37.0382 231.348L50.1657 237.905C50.7557 245.626 53.214 252.325 57.5406 258.003C61.9656 263.737 67.4723 268.506 74.0606 272.309C78.5839 274.921 82.7631 276.652 86.5981 277.504C90.433 278.242 93.5305 277.703 95.8905 275.886C98.2505 273.956 99.4305 270.266 99.4305 264.815C99.4305 256.754 97.1197 249.515 92.498 243.1C87.8764 236.685 81.7797 231.291 74.2081 226.92L65.9481 222.151V207.844L74.2081 212.613C80.4031 216.19 85.5164 217.723 89.548 217.212C93.678 216.757 95.743 213.067 95.743 206.141C95.743 199.896 93.973 194.162 90.433 188.939C86.9914 183.659 81.7797 179.004 74.7981 174.973C67.9148 170.999 62.7031 169.523 59.1631 170.544C55.7215 171.623 53.6565 174.632 52.9681 179.571L39.6932 170.885C40.6765 162.369 44.1673 157.061 50.1657 154.96C56.164 152.746 64.3748 154.648 74.7981 160.666C81.8781 164.754 87.9747 169.636 93.088 175.313C98.2014 180.877 102.135 186.895 104.888 193.367C107.641 199.839 109.018 206.425 109.018 213.124C109.018 220.618 106.953 225.5 102.823 227.771C98.7914 229.985 92.793 229.645 84.8281 226.749V223.684C93.383 229.758 100.168 237.196 105.183 245.995C110.198 254.795 112.705 263.623 112.705 272.48C112.705 280.201 111.034 285.821 107.691 289.341C104.446 292.918 99.9222 294.451 94.1205 293.94C88.3189 293.429 81.6322 290.988 74.0606 286.616Z" fill="white"/>
<defs>
<linearGradient id="paint0_linear_1005_1066" x1="90.4683" y1="257.617" x2="361.191" y2="29.0163" gradientUnits="userSpaceOnUse">
<stop stop-color="#3099E3"/>
<stop offset="1" stop-color="#77DEF0"/>
</linearGradient>
<linearGradient id="paint1_linear_1005_1066" x1="45.2342" y1="492.66" x2="261.661" y2="434.833" gradientUnits="userSpaceOnUse">
<stop stop-color="#3099E3"/>
<stop offset="1" stop-color="#77DEF0"/>
</linearGradient>
<linearGradient id="paint2_linear_1005_1066" x1="254.332" y1="492.667" x2="37.9053" y2="434.84" gradientUnits="userSpaceOnUse">
<stop stop-color="#3099E3"/>
<stop offset="1" stop-color="#77DEF0"/>
</linearGradient>
</defs>
</svg>
