<svg width="302" height="357" viewBox="0 0 302 357" fill="none" xmlns="http://www.w3.org/2000/svg">
<path d="M149.782 171.18L0 85.5897L149.782 0L299.564 85.5897L149.782 171.18Z" fill="url(#paint0_linear_1005_1057)"/>
<path d="M148.712 171.796V354.222L1.07031 268.981V87.4297L148.712 171.796Z" fill="url(#paint1_linear_1005_1057)" stroke="#209BC4" stroke-width="5.5"/>
<path d="M150.854 171.796V354.227L298.496 268.986V87.4297L150.854 171.796Z" fill="url(#paint2_linear_1005_1057)" stroke="#209BC4" stroke-width="5.5"/>
<path d="M296.618 85.5898L149.781 169.496L2.94434 85.5898L149.781 1.68262L296.618 85.5898Z" fill="#0B0D0F" stroke="#2E3135" stroke-width="7.0"/>
<path d="M148.32 172.023V353.544L1.46094 268.755V88.1025L148.32 172.023Z" fill="#0B0D0F" stroke="#2E3135" stroke-width="7.0"/>
<path d="M151.246 172.023V353.549L298.105 268.759V88.1025L151.246 172.023Z" fill="#0B0D0F" stroke="#2E3135" stroke-width="7.0"/>
<path d="M38.0811 263.118C38.0811 254.602 39.2119 247.591 41.4735 242.084C43.8335 236.52 47.9144 232.291 53.716 229.395C59.616 226.557 67.7776 224.967 78.201 224.626C83.0193 224.456 86.9034 223.973 89.8534 223.179C92.8034 222.384 94.9667 220.965 96.3434 218.921C97.7201 216.877 98.4084 213.811 98.4084 209.724C98.4084 205.522 97.6217 201.435 96.0484 197.461C94.4751 193.373 92.1151 189.512 88.9684 185.879C85.9201 182.302 82.0851 179.18 77.4635 176.512C70.0885 172.254 64.2377 171.09 59.911 173.02C55.6827 175.007 53.0277 179.776 51.946 187.327L38.6711 178.641C39.8511 167.513 43.7844 160.36 50.471 157.18C57.1577 154.001 66.1551 155.676 77.4635 162.205C84.6418 166.349 90.7876 171.374 95.9009 177.278C101.014 183.182 104.898 189.569 107.553 196.439C110.307 203.251 111.683 210.121 111.683 217.047C111.683 223.179 110.798 228.004 109.028 231.524C107.258 234.931 104.259 237.343 100.031 238.763C95.9009 240.239 90.1976 241.09 82.9209 241.318C73.481 241.658 66.3026 243.361 61.386 246.427C56.5677 249.55 54.011 253.353 53.716 257.838L111.683 291.306V305.613L38.0811 263.118Z" fill="white"/>
<defs>
<linearGradient id="paint0_linear_1005_1057" x1="90.4683" y1="257.617" x2="361.191" y2="29.0163" gradientUnits="userSpaceOnUse">
<stop stop-color="#3099E3"/>
<stop offset="1" stop-color="#77DEF0"/>
</linearGradient>
<linearGradient id="paint1_linear_1005_1057" x1="45.2342" y1="492.66" x2="261.661" y2="434.833" gradientUnits="userSpaceOnUse">
<stop stop-color="#3099E3"/>
<stop offset="1" stop-color="#77DEF0"/>
</linearGradient>
<linearGradient id="paint2_linear_1005_1057" x1="254.332" y1="492.667" x2="37.9053" y2="434.84" gradientUnits="userSpaceOnUse">
<stop stop-color="#3099E3"/>
<stop offset="1" stop-color="#77DEF0"/>
</linearGradient>
</defs>
</svg>
