<svg width="2151" height="429" viewBox="0 0 2151 429" fill="none" xmlns="http://www.w3.org/2000/svg">
<g clip-path="url(#clip0_1160_303)">
<path d="M934.564 158.213H895.904V292.29H934.564V158.213Z" fill="black"/>
<path d="M973.229 119.551H934.57V158.21H973.229V119.551Z" fill="black"/>
<path d="M585.362 40.3828H546.703V79.042H585.362V40.3828Z" fill="black"/>
<path d="M147.965 193.174H90.8105V250.328H147.965V193.174Z" fill="black"/>
<path d="M1774.64 42.6699H1735.98V81.3291H1774.64V42.6699Z" fill="black"/>
<path d="M895.927 292.309H857.268V330.968H895.927V292.309Z" fill="black"/>
<path d="M504.286 79.0254V141.759C496.664 133.785 487.746 127.437 477.554 122.649C467.45 117.838 456.225 115.444 443.881 115.444C429.581 115.444 416.885 118.19 405.661 123.681C394.349 129.151 384.925 136.267 377.215 145.01C369.593 153.84 363.773 163.526 359.731 174.224C355.799 184.943 353.822 195.662 353.822 206.359V244.162C353.822 254.859 355.799 265.578 359.731 276.297C363.773 286.906 369.593 296.681 377.215 305.423C384.925 314.253 394.349 321.348 405.661 326.84C416.885 332.331 429.581 335.077 443.881 335.077C455.105 335.077 465.912 332.573 476.346 327.696C486.801 322.732 496.071 316.296 504.286 308.323L508.481 330.947H546.701V79.0254H504.286ZM504.286 246.644C504.286 252.377 503.012 258.198 500.442 264.106C497.784 270.037 494.094 275.353 489.305 280.141C484.495 284.93 478.762 288.795 472.062 291.717C465.297 294.528 458.026 296 450.053 296C440.959 296 433.074 294.441 426.396 291.278C419.631 288.115 414.052 284.007 409.527 278.933C404.98 273.881 401.641 268.236 399.488 262.064C397.27 255.891 396.15 249.895 396.15 244.162V206.359C396.15 200.538 397.27 194.63 399.488 188.457C401.641 182.285 404.98 176.64 409.527 171.566C414.052 166.514 419.631 162.318 426.396 159.068C433.074 155.729 440.959 154.103 450.053 154.103C458.026 154.103 465.297 155.729 472.062 159.068C478.762 162.318 484.495 166.514 489.305 171.566C494.094 176.64 497.784 182.285 500.442 188.457C503.012 194.63 504.286 200.538 504.286 206.359V246.644Z" fill="black"/>
<path d="M770.859 236.777V231.044C770.859 221.95 770.705 213.471 770.442 205.498C770.178 197.524 769.234 189.902 767.608 182.72C765.895 175.427 763.149 168.398 759.393 161.721C755.527 154.955 750.036 148.168 742.941 141.315C734.374 133.363 724.512 127.103 713.288 122.381C702.063 117.768 690.224 115.439 677.901 115.439H670.96C656.639 115.439 643.789 118.185 632.213 123.676C620.747 129.146 610.973 136.263 603.087 145.005C595.114 153.835 588.941 163.522 584.592 174.219C580.133 184.938 577.98 195.657 577.98 206.354V244.157C577.98 254.854 580.045 265.573 584.153 276.292C588.26 286.902 594.169 296.589 601.813 305.243C609.523 313.897 618.946 320.838 630.17 326.242C641.483 331.558 654.157 334.215 668.478 334.215H680.383C692.728 334.215 704.194 332.238 714.913 328.285C725.632 324.265 735.055 318.949 743.095 312.272C751.156 305.507 757.504 297.797 762.051 288.967C766.576 280.224 768.816 271.131 768.816 261.883H726.818C726.818 267.616 725.369 272.602 722.359 276.886C719.284 281.081 715.418 284.683 710.63 287.583C705.819 290.416 700.262 292.569 693.914 293.931C687.654 295.315 681.24 295.995 674.628 295.995C665.557 295.995 657.671 294.436 650.994 291.273C644.228 288.11 638.649 284.002 634.102 278.928C629.577 273.876 626.129 268.231 623.822 262.059C621.516 255.887 620.308 249.89 620.308 244.157V236.777H770.859ZM625.887 184.762C628.787 179.117 632.652 174.043 637.617 169.518C642.515 164.972 648.336 161.281 655.101 158.382C661.779 155.548 669.247 154.099 677.462 154.099C684.315 154.099 690.927 155.197 697.253 157.35C703.513 159.568 709.092 162.753 713.881 166.861C718.691 170.968 722.535 175.932 725.457 181.863C728.29 187.772 729.74 194.273 729.74 201.39H620.747C621.252 195.899 622.966 190.342 625.887 184.762Z" fill="black"/>
<path d="M878.953 292.309L877.899 289.739L815.693 119.551H772.926L853.561 330.946H894.79L878.953 292.309Z" fill="black"/>
<path d="M1178.82 236.777V231.044C1178.82 221.95 1178.73 213.471 1178.49 205.498C1178.14 197.524 1177.2 189.902 1175.57 182.72C1173.95 175.427 1171.2 168.398 1167.33 161.721C1163.49 154.955 1158 148.168 1150.88 141.315C1142.4 133.363 1132.56 127.103 1121.25 122.381C1110.03 117.768 1098.27 115.439 1085.93 115.439H1078.92C1064.69 115.439 1051.75 118.185 1040.26 123.676C1028.71 129.146 1019.02 136.263 1011.05 145.005C1003.08 153.835 996.904 163.522 992.533 174.219C988.162 184.938 985.943 195.657 985.943 206.354V244.157C985.943 254.854 988.008 265.573 992.116 276.292C996.223 286.902 1002.13 296.589 1009.84 305.243C1017.49 313.897 1027 320.838 1038.22 326.242C1049.45 331.558 1062.21 334.215 1076.42 334.215H1088.35C1100.67 334.215 1112.24 332.238 1122.96 328.285C1133.66 324.265 1143.02 318.949 1151.15 312.272C1159.21 305.507 1165.47 297.797 1169.99 288.967C1174.54 280.224 1176.85 271.131 1176.85 261.883H1134.87C1134.87 267.616 1133.33 272.602 1130.32 276.886C1127.33 281.081 1123.38 284.683 1118.59 287.583C1113.78 290.416 1108.23 292.569 1101.96 293.931C1095.62 295.315 1089.2 295.995 1082.59 295.995C1073.61 295.995 1065.72 294.436 1058.96 291.273C1052.26 288.11 1046.61 284.002 1042.07 278.928C1037.61 273.876 1034.18 268.231 1031.79 262.059C1029.48 255.887 1028.36 249.89 1028.36 244.157V236.777H1178.82ZM1033.85 184.762C1036.75 179.117 1040.7 174.043 1045.58 169.518C1050.54 164.972 1056.39 161.281 1063.06 158.382C1069.83 155.548 1077.28 154.099 1085.51 154.099C1092.37 154.099 1098.96 155.197 1105.22 157.35C1111.56 159.568 1117.12 162.753 1121.93 166.861C1126.72 170.968 1130.5 175.932 1133.42 181.863C1136.32 187.772 1137.7 194.273 1137.7 201.39H1028.71C1029.3 195.899 1031.02 190.342 1033.85 184.762Z" fill="black"/>
<path d="M1210.54 36.4336V330.946H1252.87V36.4336H1210.54Z" fill="black"/>
<path d="M1478.74 174.219C1474.28 163.522 1468.11 153.835 1460.22 145.005C1452.25 136.263 1442.5 129.146 1431.01 123.676C1419.43 118.185 1406.58 115.439 1392.37 115.439H1377.11C1362.89 115.439 1349.96 118.185 1338.47 123.676C1326.89 129.146 1317.21 136.263 1309.25 145.005C1301.28 153.835 1295.11 163.522 1290.74 174.219C1286.37 184.938 1284.15 195.657 1284.15 206.354V244.157C1284.15 254.854 1286.19 265.573 1290.3 276.292C1294.43 286.902 1300.34 296.589 1308.05 305.243C1315.67 313.897 1325.09 320.838 1336.4 326.242C1347.63 331.558 1360.39 334.215 1374.62 334.215H1394.77C1409.07 334.215 1421.83 331.558 1433.07 326.242C1444.3 320.838 1453.72 313.897 1461.43 305.243C1469.14 296.589 1474.96 286.902 1479.07 276.292C1483.2 265.573 1485.24 254.854 1485.24 244.157V206.354C1485.24 195.657 1483.11 184.938 1478.74 174.219ZM1442.91 244.157C1442.91 252.636 1441.29 260.17 1437.95 266.606C1434.7 273.02 1430.33 278.423 1424.84 282.794C1419.35 287.253 1413.11 290.504 1406.08 292.723C1399.14 294.875 1391.93 295.995 1384.49 295.995C1377.04 295.995 1369.99 294.875 1363.14 292.723C1356.28 290.504 1350.11 287.253 1344.64 282.794C1339.15 278.423 1334.78 273.02 1331.44 266.606C1328.19 260.17 1326.56 252.636 1326.56 244.157V206.354C1326.56 198.139 1328.1 190.759 1331.26 184.345C1334.36 177.909 1338.56 172.418 1343.78 167.893C1349.01 163.346 1355.18 159.919 1362.28 157.613C1369.4 155.285 1376.84 154.099 1384.49 154.099C1392.13 154.099 1399.14 155.197 1406.08 157.35C1413.11 159.568 1419.35 162.819 1424.84 167.036C1430.33 171.32 1434.7 176.701 1437.95 183.313C1441.29 189.902 1442.91 197.524 1442.91 206.354V244.157Z" fill="black"/>
<path d="M1660.05 259.402C1660.05 265.135 1658.68 270.363 1655.94 274.998C1653.19 279.72 1649.59 283.476 1645.07 286.574C1640.52 289.561 1635.29 291.867 1629.47 293.515C1623.56 295.14 1617.48 295.997 1611.13 295.997C1604.28 295.997 1597.51 294.964 1590.72 292.9C1584.05 290.857 1578.05 287.672 1572.65 283.477C1567.33 279.193 1563.05 273.79 1559.71 267.2C1556.46 260.61 1554.83 252.813 1554.83 243.719V206.356C1554.83 197.284 1556.46 189.486 1559.71 182.875C1563.05 176.285 1567.33 170.969 1572.65 166.862C1578.05 162.754 1584.05 159.657 1590.72 157.614C1597.51 155.55 1604.28 154.517 1611.13 154.517C1617.48 154.517 1623.47 155.286 1629.21 156.999C1634.94 158.625 1640.17 160.953 1644.63 163.941C1649.17 166.95 1652.86 170.706 1655.61 175.253C1658.24 179.8 1659.63 184.939 1659.63 190.672H1702.04C1702.04 177.581 1699.65 166.181 1694.84 156.582C1690.05 146.983 1683.53 139.098 1675.31 132.925C1667.07 126.753 1657.56 122.206 1646.69 119.307C1635.88 116.473 1624.42 115.023 1612.4 115.023C1600.39 115.023 1587.91 116.825 1575.98 120.339C1564.08 123.919 1553.38 129.411 1543.87 136.791C1534.43 144.237 1526.8 153.661 1521.07 165.236C1515.34 176.702 1512.42 190.431 1512.42 206.356V243.719C1512.42 259.402 1515.34 272.933 1521.25 284.509C1527.15 295.997 1534.86 305.42 1544.29 312.866C1553.8 320.247 1564.43 325.716 1576.42 329.318C1588.33 332.833 1600.41 334.634 1612.75 334.634C1625.1 334.634 1636.32 333.184 1647.11 330.351C1657.92 327.429 1667.51 322.904 1675.73 316.732C1683.97 310.56 1690.47 302.762 1695.28 293.339C1700.07 283.828 1702.46 272.516 1702.46 259.402H1660.05Z" fill="black"/>
<path d="M1734.09 119.551V330.946H1776.51V119.551H1734.09Z" fill="black"/>
<path d="M1916.34 293.517C1905.02 293.517 1896.81 291.276 1891.67 286.729C1886.44 282.204 1883.78 273.199 1883.78 259.822V155.288H1936.06V119.55H1883.78V68.9199H1856.28C1856.28 81.0009 1854.66 91.0172 1851.3 98.9906C1848.04 106.964 1843.67 113.136 1838.36 117.683C1833.06 122.208 1826.89 125.393 1820.04 127.194C1813.19 128.908 1806.31 129.852 1799.46 129.852V155.288H1841.45V260.612C1841.45 285.873 1846.51 304.565 1856.7 316.734C1866.83 328.991 1883.78 335.075 1907.68 335.075H1913.44C1915.92 335.075 1918.49 334.987 1921.23 334.9C1923.98 334.724 1926.64 334.548 1929.03 334.46C1931.51 334.306 1933.31 334.131 1934.41 333.867L1936.07 293.517H1916.34Z" fill="black"/>
<path d="M2151.12 119.551V351.616H2108.73V341.622C2108.77 340.809 2108.8 340.018 2108.8 339.183V298.042C2101.09 306.279 2092.17 312.781 2082.06 317.591C2071.96 322.38 2060.65 324.774 2048.3 324.774C2034.07 324.774 2021.31 322.05 2010.08 316.559C1998.86 311.068 1989.35 303.973 1981.73 295.143C1974.02 286.4 1968.17 276.626 1964.24 265.994C1960.22 255.297 1958.24 244.578 1958.24 233.859V119.551H2000.66V233.859C2000.66 239.614 2001.69 245.611 2003.91 251.783C2006.15 257.955 2009.49 263.6 2014.04 268.652C2018.47 273.704 2024.14 277.922 2030.82 281.173C2037.58 284.511 2045.47 286.137 2054.47 286.137C2062.45 286.137 2069.81 284.511 2076.48 281.173C2083.27 277.922 2089 273.704 2093.79 268.652C2098.6 263.6 2102.29 257.955 2104.86 251.783C2107.52 245.611 2108.8 239.614 2108.8 233.859V119.551H2151.12Z" fill="black"/>
<path d="M2108.73 351.613H2033.12V390.25H2108.73V351.613Z" fill="black"/>
<path d="M2033.12 390.256H1994.49V428.915H2033.12V390.256Z" fill="black"/>
<path d="M1936.07 293.678H1900.67V335.075H1936.07V293.678Z" fill="black"/>
<path d="M0.224609 162.215C174.999 105.898 254.458 135.216 174.999 331.164C304.614 121.137 408.033 -105.773 0.224609 162.215Z" fill="black"/>
</g>
<defs>
<clipPath id="clip0_1160_303">
<rect width="2151" height="429" fill="white"/>
</clipPath>
</defs>
</svg>
