<svg width="2232" height="430" viewBox="0 0 2232 430" fill="none" xmlns="http://www.w3.org/2000/svg">
<g clip-path="url(#clip0_1136_296)">
<path d="M1014.56 158.213H975.904V292.29H1014.56V158.213Z" fill="white"/>
<path d="M1053.23 119.551H1014.57V158.21H1053.23V119.551Z" fill="white"/>
<path d="M665.362 40.3828H626.703V79.042H665.362V40.3828Z" fill="white"/>
<path d="M191.826 199.709H124.363V267.172H191.826V199.709Z" fill="#2CA7BE"/>
<path d="M1854.64 42.6699H1815.98V81.3291H1854.64V42.6699Z" fill="white"/>
<path d="M975.927 292.309H937.268V330.968H975.927V292.309Z" fill="white"/>
<path d="M584.286 79.0254V141.759C576.664 133.785 567.746 127.437 557.554 122.649C547.45 117.838 536.225 115.444 523.881 115.444C509.581 115.444 496.885 118.19 485.661 123.681C474.349 129.151 464.925 136.267 457.215 145.01C449.593 153.84 443.773 163.526 439.731 174.224C435.799 184.943 433.822 195.662 433.822 206.359V244.162C433.822 254.859 435.799 265.578 439.731 276.297C443.773 286.906 449.593 296.681 457.215 305.423C464.925 314.253 474.349 321.348 485.661 326.84C496.885 332.331 509.581 335.077 523.881 335.077C535.105 335.077 545.912 332.573 556.346 327.696C566.801 322.732 576.071 316.296 584.286 308.323L588.481 330.947H626.701V79.0254H584.286ZM584.286 246.644C584.286 252.377 583.012 258.198 580.442 264.106C577.784 270.037 574.094 275.353 569.305 280.141C564.495 284.93 558.762 288.795 552.062 291.717C545.297 294.528 538.026 296 530.053 296C520.959 296 513.074 294.441 506.396 291.278C499.631 288.115 494.052 284.007 489.527 278.933C484.98 273.881 481.641 268.236 479.488 262.064C477.27 255.891 476.15 249.895 476.15 244.162V206.359C476.15 200.538 477.27 194.63 479.488 188.457C481.641 182.285 484.98 176.64 489.527 171.566C494.052 166.514 499.631 162.318 506.396 159.068C513.074 155.729 520.959 154.103 530.053 154.103C538.026 154.103 545.297 155.729 552.062 159.068C558.762 162.318 564.495 166.514 569.305 171.566C574.094 176.64 577.784 182.285 580.442 188.457C583.012 194.63 584.286 200.538 584.286 206.359V246.644Z" fill="white"/>
<path d="M850.859 236.777V231.044C850.859 221.95 850.705 213.471 850.442 205.498C850.178 197.524 849.234 189.902 847.608 182.72C845.895 175.427 843.149 168.398 839.393 161.721C835.527 154.955 830.036 148.168 822.941 141.315C814.374 133.363 804.512 127.103 793.288 122.381C782.063 117.768 770.224 115.439 757.901 115.439H750.96C736.639 115.439 723.789 118.185 712.213 123.676C700.747 129.146 690.973 136.263 683.087 145.005C675.114 153.835 668.941 163.522 664.592 174.219C660.133 184.938 657.98 195.657 657.98 206.354V244.157C657.98 254.854 660.045 265.573 664.153 276.292C668.26 286.902 674.169 296.589 681.813 305.243C689.523 313.897 698.946 320.838 710.17 326.242C721.483 331.558 734.157 334.215 748.478 334.215H760.383C772.728 334.215 784.194 332.238 794.913 328.285C805.632 324.265 815.055 318.949 823.095 312.272C831.156 305.507 837.504 297.797 842.051 288.967C846.576 280.224 848.816 271.131 848.816 261.883H806.818C806.818 267.616 805.369 272.602 802.359 276.886C799.284 281.081 795.418 284.683 790.63 287.583C785.819 290.416 780.262 292.569 773.914 293.931C767.654 295.315 761.24 295.995 754.628 295.995C745.557 295.995 737.671 294.436 730.994 291.273C724.228 288.11 718.649 284.002 714.102 278.928C709.577 273.876 706.129 268.231 703.822 262.059C701.516 255.887 700.308 249.89 700.308 244.157V236.777H850.859ZM705.887 184.762C708.787 179.117 712.652 174.043 717.617 169.518C722.515 164.972 728.336 161.281 735.101 158.382C741.779 155.548 749.247 154.099 757.462 154.099C764.315 154.099 770.927 155.197 777.253 157.35C783.513 159.568 789.092 162.753 793.881 166.861C798.691 170.968 802.535 175.932 805.457 181.863C808.29 187.772 809.74 194.273 809.74 201.39H700.747C701.252 195.899 702.966 190.342 705.887 184.762Z" fill="white"/>
<path d="M958.953 292.309L957.899 289.739L895.693 119.551H852.926L933.561 330.946H974.79L958.953 292.309Z" fill="white"/>
<path d="M1258.82 236.777V231.044C1258.82 221.95 1258.73 213.471 1258.49 205.498C1258.14 197.524 1257.2 189.902 1255.57 182.72C1253.95 175.427 1251.2 168.398 1247.33 161.721C1243.49 154.955 1238 148.168 1230.88 141.315C1222.4 133.363 1212.56 127.103 1201.25 122.381C1190.03 117.768 1178.27 115.439 1165.93 115.439H1158.92C1144.69 115.439 1131.75 118.185 1120.26 123.676C1108.71 129.146 1099.02 136.263 1091.05 145.005C1083.08 153.835 1076.9 163.522 1072.53 174.219C1068.16 184.938 1065.94 195.657 1065.94 206.354V244.157C1065.94 254.854 1068.01 265.573 1072.12 276.292C1076.22 286.902 1082.13 296.589 1089.84 305.243C1097.49 313.897 1107 320.838 1118.22 326.242C1129.45 331.558 1142.21 334.215 1156.42 334.215H1168.35C1180.67 334.215 1192.24 332.238 1202.96 328.285C1213.66 324.265 1223.02 318.949 1231.15 312.272C1239.21 305.507 1245.47 297.797 1249.99 288.967C1254.54 280.224 1256.85 271.131 1256.85 261.883H1214.87C1214.87 267.616 1213.33 272.602 1210.32 276.886C1207.33 281.081 1203.38 284.683 1198.59 287.583C1193.78 290.416 1188.23 292.569 1181.96 293.931C1175.62 295.315 1169.2 295.995 1162.59 295.995C1153.61 295.995 1145.72 294.436 1138.96 291.273C1132.26 288.11 1126.61 284.002 1122.07 278.928C1117.61 273.876 1114.18 268.231 1111.79 262.059C1109.48 255.887 1108.36 249.89 1108.36 244.157V236.777H1258.82ZM1113.85 184.762C1116.75 179.117 1120.7 174.043 1125.58 169.518C1130.54 164.972 1136.39 161.281 1143.06 158.382C1149.83 155.548 1157.28 154.099 1165.51 154.099C1172.37 154.099 1178.96 155.197 1185.22 157.35C1191.56 159.568 1197.12 162.753 1201.93 166.861C1206.72 170.968 1210.5 175.932 1213.42 181.863C1216.32 187.772 1217.7 194.273 1217.7 201.39H1108.71C1109.3 195.899 1111.02 190.342 1113.85 184.762Z" fill="white"/>
<path d="M1290.54 36.4336V330.946H1332.87V36.4336H1290.54Z" fill="white"/>
<path d="M1558.74 174.219C1554.28 163.522 1548.11 153.835 1540.22 145.005C1532.25 136.263 1522.5 129.146 1511.01 123.676C1499.43 118.185 1486.58 115.439 1472.37 115.439H1457.11C1442.89 115.439 1429.96 118.185 1418.47 123.676C1406.89 129.146 1397.21 136.263 1389.25 145.005C1381.28 153.835 1375.11 163.522 1370.74 174.219C1366.37 184.938 1364.15 195.657 1364.15 206.354V244.157C1364.15 254.854 1366.19 265.573 1370.3 276.292C1374.43 286.902 1380.34 296.589 1388.05 305.243C1395.67 313.897 1405.09 320.838 1416.4 326.242C1427.63 331.558 1440.39 334.215 1454.62 334.215H1474.77C1489.07 334.215 1501.83 331.558 1513.07 326.242C1524.3 320.838 1533.72 313.897 1541.43 305.243C1549.14 296.589 1554.96 286.902 1559.07 276.292C1563.2 265.573 1565.24 254.854 1565.24 244.157V206.354C1565.24 195.657 1563.11 184.938 1558.74 174.219ZM1522.91 244.157C1522.91 252.636 1521.29 260.17 1517.95 266.606C1514.7 273.02 1510.33 278.423 1504.84 282.794C1499.35 287.253 1493.11 290.504 1486.08 292.723C1479.14 294.875 1471.93 295.995 1464.49 295.995C1457.04 295.995 1449.99 294.875 1443.14 292.723C1436.28 290.504 1430.11 287.253 1424.64 282.794C1419.15 278.423 1414.78 273.02 1411.44 266.606C1408.19 260.17 1406.56 252.636 1406.56 244.157V206.354C1406.56 198.139 1408.1 190.759 1411.26 184.345C1414.36 177.909 1418.56 172.418 1423.78 167.893C1429.01 163.346 1435.18 159.919 1442.28 157.613C1449.4 155.285 1456.84 154.099 1464.49 154.099C1472.13 154.099 1479.14 155.197 1486.08 157.35C1493.11 159.568 1499.35 162.819 1504.84 167.036C1510.33 171.32 1514.7 176.701 1517.95 183.313C1521.29 189.902 1522.91 197.524 1522.91 206.354V244.157Z" fill="white"/>
<path d="M1740.05 259.402C1740.05 265.135 1738.68 270.363 1735.94 274.998C1733.19 279.72 1729.59 283.477 1725.07 286.574C1720.52 289.561 1715.29 291.867 1709.47 293.515C1703.56 295.14 1697.48 295.997 1691.13 295.997C1684.28 295.997 1677.51 294.964 1670.72 292.9C1664.05 290.857 1658.05 287.672 1652.65 283.477C1647.33 279.193 1643.05 273.79 1639.71 267.2C1636.46 260.61 1634.83 252.813 1634.83 243.719V206.356C1634.83 197.284 1636.46 189.486 1639.71 182.875C1643.05 176.285 1647.33 170.969 1652.65 166.862C1658.05 162.754 1664.05 159.657 1670.72 157.614C1677.51 155.55 1684.28 154.517 1691.13 154.517C1697.48 154.517 1703.47 155.286 1709.21 156.999C1714.94 158.625 1720.17 160.953 1724.63 163.941C1729.17 166.95 1732.86 170.706 1735.61 175.253C1738.24 179.8 1739.63 184.939 1739.63 190.672H1782.04C1782.04 177.581 1779.65 166.181 1774.84 156.582C1770.05 146.983 1763.53 139.098 1755.31 132.925C1747.07 126.753 1737.56 122.206 1726.69 119.307C1715.88 116.473 1704.42 115.023 1692.4 115.023C1680.39 115.023 1667.91 116.825 1655.98 120.339C1644.08 123.919 1633.38 129.411 1623.87 136.791C1614.43 144.237 1606.8 153.661 1601.07 165.236C1595.34 176.702 1592.42 190.431 1592.42 206.356V243.719C1592.42 259.402 1595.34 272.933 1601.25 284.509C1607.15 295.997 1614.86 305.42 1624.29 312.866C1633.8 320.247 1644.43 325.716 1656.42 329.318C1668.33 332.833 1680.41 334.634 1692.75 334.634C1705.1 334.634 1716.32 333.184 1727.11 330.351C1737.92 327.429 1747.51 322.904 1755.73 316.732C1763.97 310.56 1770.47 302.762 1775.28 293.339C1780.07 283.828 1782.46 272.516 1782.46 259.402H1740.05Z" fill="white"/>
<path d="M1814.09 119.551V330.946H1856.51V119.551H1814.09Z" fill="white"/>
<path d="M1996.34 293.517C1985.02 293.517 1976.81 291.276 1971.67 286.729C1966.44 282.204 1963.78 273.199 1963.78 259.822V155.288H2016.06V119.55H1963.78V68.9199H1936.28C1936.28 81.0009 1934.66 91.0172 1931.3 98.9906C1928.04 106.964 1923.67 113.136 1918.36 117.683C1913.06 122.208 1906.89 125.393 1900.04 127.194C1893.19 128.908 1886.31 129.852 1879.46 129.852V155.288H1921.45V260.612C1921.45 285.873 1926.51 304.565 1936.7 316.734C1946.83 328.991 1963.78 335.075 1987.68 335.075H1993.44C1995.92 335.075 1998.49 334.987 2001.23 334.9C2003.98 334.724 2006.64 334.548 2009.03 334.46C2011.51 334.306 2013.31 334.131 2014.41 333.867L2016.07 293.517H1996.34Z" fill="white"/>
<path d="M2231.12 119.551V351.616H2188.73V341.622C2188.77 340.809 2188.8 340.018 2188.8 339.183V298.042C2181.09 306.279 2172.17 312.781 2162.06 317.591C2151.96 322.38 2140.65 324.774 2128.3 324.774C2114.07 324.774 2101.31 322.05 2090.08 316.559C2078.86 311.068 2069.35 303.973 2061.73 295.143C2054.02 286.4 2048.17 276.626 2044.24 265.994C2040.22 255.297 2038.24 244.578 2038.24 233.859V119.551H2080.66V233.859C2080.66 239.614 2081.69 245.611 2083.91 251.783C2086.15 257.955 2089.49 263.6 2094.04 268.652C2098.47 273.704 2104.14 277.922 2110.82 281.173C2117.58 284.511 2125.47 286.137 2134.47 286.137C2142.45 286.137 2149.81 284.511 2156.48 281.173C2163.27 277.922 2169 273.704 2173.79 268.652C2178.6 263.6 2182.29 257.955 2184.86 251.783C2187.52 245.611 2188.8 239.614 2188.8 233.859V119.551H2231.12Z" fill="white"/>
<path d="M2188.73 351.613H2113.12V390.25H2188.73V351.613Z" fill="white"/>
<path d="M2113.12 390.256H2074.49V428.915H2113.12V390.256Z" fill="white"/>
<path d="M2016.07 293.678H1980.67V335.075H2016.07V293.678Z" fill="white"/>
<path d="M33.3711 148.307C240.508 81.5624 334.68 116.309 240.508 348.539C394.123 99.623 516.692 -169.304 33.3711 148.307Z" fill="#2CA7BE"/>
</g>
<defs>
<clipPath id="clip0_1136_296">
<rect width="2231.12" height="429.23" fill="white"/>
</clipPath>
</defs>
</svg>
