<svg width="661" height="612" viewBox="0 0 661 612" fill="none" xmlns="http://www.w3.org/2000/svg">
<g style="mix-blend-mode:screen" opacity="0.4">
<path d="M329.336 611.445C318.437 611.445 308.041 609.25 300.278 604.767L11.895 438.378C4.2256 433.951 0 427.784 0 421.003C0 412.892 6.05918 404.743 16.6139 398.651L293.372 238.968C313.086 227.592 343.037 226.374 360.144 236.243L648.518 402.632C656.188 407.059 660.413 413.226 660.413 420.007C660.413 428.118 654.354 436.267 643.799 442.359L367.041 602.041C356.272 608.255 342.441 611.436 329.327 611.436L329.336 611.445ZM331.077 231.611C318.335 231.611 304.895 234.708 294.405 240.764L17.6563 400.446C7.76245 406.157 2.08488 413.654 2.08488 421.003C2.08488 427.002 5.93818 432.537 12.9374 436.574L301.312 602.962C317.842 612.506 346.872 611.278 366.008 600.237L642.766 440.555C652.66 434.844 658.338 427.346 658.338 419.998C658.338 413.998 654.484 408.464 647.485 404.427L359.111 238.038C351.637 233.722 341.604 231.611 331.086 231.611H331.077Z" fill="#4DC9C0"/>
</g>
<g style="mix-blend-mode:screen" opacity="0.3">
<path d="M329.541 566.472C321.211 566.472 313.262 564.798 307.324 561.366L86.8669 434.165C81.0031 430.779 77.7734 426.063 77.7734 420.882C77.7734 414.678 82.3993 408.446 90.4782 403.795L302.056 281.72C317.125 273.023 340.031 272.092 353.108 279.636L573.565 406.837C579.429 410.222 582.659 414.938 582.659 420.119C582.659 426.324 578.033 432.556 569.954 437.207L358.376 559.282C350.148 564.035 339.575 566.463 329.541 566.463V566.472Z" fill="url(#paint0_linear_8402_14512)"/>
</g>
<path d="M508.627 397.915C508.608 394.958 501.618 394.669 496.741 393.748L472.132 402.594C468.521 401.915 465.747 400.25 464.603 398.157C462.173 393.739 459.065 389.414 455.286 385.237C453.489 383.256 453.396 380.912 455.146 378.921L468.493 363.732C469.368 362.736 469.778 361.657 469.759 360.588V331.436L446.928 344.654C443.298 342.561 437.75 342.04 433.199 343.38L406.877 351.081C403.434 352.086 399.376 352.039 395.941 350.998C388.709 348.812 381.207 347.026 373.547 345.621C369.927 344.961 367.041 343.361 365.859 341.277L356.589 324.953C354.988 322.144 350.446 320.228 345.318 320.218L318.047 320.172C312.928 320.172 308.395 322.06 306.831 324.86L297.738 341.147C296.574 343.221 293.708 344.812 290.096 345.463C282.455 346.84 274.981 348.598 267.768 350.756C264.342 351.779 260.275 351.816 256.831 350.802L230.426 343.008C225.856 341.659 212.509 332.906 212.509 332.906L194.08 330.45V359.909C194.024 361.034 194.425 362.178 195.355 363.239L208.87 378.475C210.638 380.465 210.573 382.809 208.795 384.791C205.054 388.949 202.001 393.265 199.618 397.674C198.492 399.757 195.737 401.413 192.135 402.083L176.182 390.307C171.314 391.209 155.761 394.223 155.771 397.171L155.854 429.532C155.873 432.49 159.186 435.113 164.054 436.034L192.34 441.382C195.951 442.061 198.725 443.726 199.869 445.819C202.299 450.237 205.407 454.563 209.186 458.739C210.983 460.72 211.076 463.065 209.326 465.055L209 465.427L194.713 453.605V483.277C194.713 483.333 194.713 483.379 194.713 483.435V483.538H194.732C194.825 485.24 195.998 486.905 198.194 488.179L217.535 499.341C221.165 501.434 226.712 501.955 231.264 500.625L257.585 492.923C261.02 491.918 265.087 491.965 268.522 493.007C275.753 495.193 283.255 496.978 290.915 498.383C294.536 499.043 297.421 500.643 298.603 502.727L307.874 519.051C309.474 521.861 314.017 523.777 319.145 523.786L346.416 523.833C351.535 523.833 356.068 521.944 357.631 519.144L366.725 502.857C367.888 500.783 370.755 499.192 374.366 498.541C382.008 497.165 389.482 495.407 396.695 493.249C400.12 492.225 404.188 492.188 407.631 493.202L434.037 500.997C438.607 502.346 444.145 501.853 447.756 499.769L466.985 488.672C469.377 487.295 470.531 485.426 470.383 483.547H470.41V454.349C470.41 454.349 462.48 450.73 464.863 446.321C465.989 444.238 468.744 442.582 472.346 441.912L500.576 436.666C505.444 435.764 508.72 433.15 508.711 430.192L508.627 397.934V397.915ZM398.584 461.055C362.174 482.068 302.959 481.956 266.316 460.814C229.672 439.671 229.495 405.506 265.906 384.493C302.317 363.481 361.531 363.592 398.175 384.735C434.819 405.878 434.995 440.043 398.584 461.055Z" fill="url(#paint1_linear_8402_14512)"/>
<path d="M397.905 391.412C397.905 391.412 382.138 398.156 378.527 396.082C352.801 381.236 311.234 381.162 285.666 395.914C281.98 398.044 266.576 391.412 266.576 391.412V422.452C266.539 432.219 272.989 442.013 285.945 449.492C311.671 464.337 353.238 464.412 378.806 449.659C391.781 442.171 398.128 432.302 397.868 422.452H397.886V391.412H397.905Z" fill="url(#paint2_linear_8402_14512)"/>
<path d="M378.825 419.745C353.266 434.498 311.69 434.423 285.964 419.578C260.238 404.732 260.107 380.753 285.675 366C311.234 351.248 352.81 351.322 378.536 366.168C404.262 381.013 404.392 404.993 378.825 419.745Z" fill="url(#paint3_linear_8402_14512)"/>
<path d="M508.627 386.112C508.608 383.154 505.295 380.531 500.427 379.61L472.142 374.261C468.53 373.582 465.757 371.917 464.612 369.824C462.183 365.406 459.074 361.081 455.295 356.904C453.499 354.923 453.406 352.579 455.155 350.588L468.502 335.399C470.811 332.766 469.917 329.576 466.287 327.474L446.937 316.312C443.307 314.219 437.76 313.698 433.208 315.028L406.887 322.73C403.443 323.734 399.385 323.688 395.95 322.646C388.719 320.46 381.217 318.674 373.557 317.27C369.936 316.609 367.051 315.009 365.869 312.926L356.598 296.601C354.997 293.792 350.455 291.876 345.327 291.867L318.056 291.82C312.937 291.811 308.404 293.709 306.84 296.508L297.747 312.796C296.584 314.87 293.717 316.461 290.106 317.112C282.464 318.488 274.99 320.246 267.777 322.404C264.352 323.428 260.284 323.465 256.841 322.451L230.435 314.656C225.865 313.307 220.327 313.8 216.716 315.884L197.487 326.981C193.875 329.064 193.019 332.255 195.355 334.896L208.87 350.133C210.638 352.123 210.573 354.467 208.795 356.449C205.054 360.606 202.001 364.922 199.618 369.331C198.492 371.415 195.737 373.071 192.135 373.74L163.905 378.987C159.037 379.889 155.761 382.503 155.771 385.46L155.854 401.199C155.873 404.157 159.186 406.78 164.054 407.701L192.34 413.049C195.951 413.728 198.725 415.393 199.869 417.486C202.299 421.905 205.407 426.23 209.186 430.406C210.983 432.388 211.076 434.732 209.326 436.722L195.979 451.912C193.671 454.544 194.564 457.735 198.194 459.837L217.535 470.999C221.165 473.092 226.712 473.613 231.264 472.273L257.585 464.571C261.02 463.567 265.087 463.613 268.522 464.655C275.753 466.841 283.255 468.627 290.915 470.032C294.536 470.692 297.421 472.292 298.603 474.375L307.874 490.7C309.474 493.509 314.017 495.425 319.145 495.434L346.416 495.481C351.535 495.481 356.068 493.593 357.631 490.793L366.725 474.506C367.888 472.431 370.755 470.841 374.366 470.19C382.008 468.813 389.482 467.055 396.695 464.897C400.12 463.874 404.188 463.837 407.631 464.85L434.037 472.645C438.607 473.994 444.145 473.501 447.756 471.417L466.985 460.321C470.597 458.237 471.453 455.046 469.117 452.405L455.602 437.169C453.834 435.178 453.899 432.834 455.677 430.853C459.418 426.695 462.471 422.379 464.854 417.97C465.98 415.886 468.735 414.231 472.337 413.561L500.567 408.315C505.435 407.412 508.711 404.799 508.701 401.841L508.618 386.102L508.627 386.112ZM398.584 431.15C362.174 452.163 302.959 452.051 266.316 430.909C229.672 409.766 229.495 375.601 265.906 354.588C302.317 333.576 361.531 333.687 398.175 354.83C434.819 375.973 434.995 410.138 398.584 431.15Z" fill="url(#paint4_linear_8402_14512)"/>
<path d="M367.441 409.582C348.128 419.256 316.706 419.209 297.272 409.47C277.838 399.732 277.736 383.993 297.049 374.31C316.362 364.636 347.784 364.683 367.218 374.422C386.652 384.16 386.754 399.899 367.441 409.582Z" fill="#6DEAF6"/>
<mask id="mask0_8402_14512" style="mask-type:luminance" maskUnits="userSpaceOnUse" x="231" y="150" width="203" height="267">
<path d="M433.021 150.547H231.067L277.838 386.903H277.94C278.47 394.465 283.711 401.953 293.744 407.748C314.863 419.933 348.993 419.989 369.982 407.888C380.043 402.083 385.2 394.53 385.572 386.903H385.656L433.012 150.547H433.021Z" fill="white"/>
</mask>
<g mask="url(#mask0_8402_14512)">
<path d="M307.957 212.823H286.978V196.145C291.557 195.14 295.001 191.066 295.001 186.192C295.001 180.565 290.421 175.988 284.79 175.988C279.159 175.988 274.58 180.565 274.58 186.192C274.58 191.131 278.098 195.252 282.761 196.192V214.934C282.761 216.097 283.701 217.037 284.865 217.037H305.844V444.807C305.844 445.97 306.784 446.909 307.947 446.909C309.111 446.909 310.051 445.97 310.051 444.807V214.934C310.051 213.772 309.111 212.832 307.947 212.832L307.957 212.823ZM278.796 186.192C278.796 182.89 281.486 180.202 284.79 180.202C288.095 180.202 290.784 182.89 290.784 186.192C290.784 189.494 288.095 192.183 284.79 192.183C281.486 192.183 278.796 189.494 278.796 186.192Z" fill="#209BC4"/>
<path d="M384.147 214.925V196.182C388.81 195.243 392.328 191.122 392.328 186.192C392.328 180.565 387.749 175.988 382.118 175.988C376.487 175.988 371.917 180.565 371.917 186.192C371.917 191.066 375.361 195.14 379.94 196.145V212.823H358.961C357.797 212.823 356.857 213.762 356.857 214.925V444.798C356.857 445.961 357.797 446.9 358.961 446.9C360.124 446.9 361.064 445.961 361.064 444.798V217.027H382.044C383.207 217.027 384.147 216.088 384.147 214.925ZM376.124 186.192C376.124 182.89 378.814 180.202 382.118 180.202C385.422 180.202 388.112 182.89 388.112 186.192C388.112 189.494 385.422 192.183 382.118 192.183C378.814 192.183 376.124 189.494 376.124 186.192Z" fill="#209BC4"/>
<path d="M295.782 280.638H274.803V263.96C279.383 262.955 282.826 258.881 282.826 254.007C282.826 248.389 278.247 243.812 272.616 243.812C266.985 243.812 262.415 248.389 262.415 254.007C262.415 258.946 265.933 263.067 270.596 264.006V282.749C270.596 283.912 271.536 284.852 272.7 284.852H293.679V444.813C293.679 445.976 294.619 446.915 295.782 446.915C296.946 446.915 297.886 445.976 297.886 444.813V282.749C297.886 281.587 296.946 280.647 295.782 280.647V280.638ZM266.622 254.007C266.622 250.705 269.312 248.017 272.616 248.017C275.92 248.017 278.61 250.705 278.61 254.007C278.61 257.309 275.92 259.997 272.616 259.997C269.312 259.997 266.622 257.309 266.622 254.007Z" fill="#209BC4"/>
<path d="M402.762 254.007C402.762 248.389 398.183 243.812 392.561 243.812C386.94 243.812 382.36 248.389 382.36 254.007C382.36 258.881 385.804 262.955 390.383 263.96V280.638H369.404C368.241 280.638 367.301 281.577 367.301 282.74V444.804C367.301 445.966 368.241 446.906 369.404 446.906C370.568 446.906 371.508 445.966 371.508 444.804V284.842H392.487C393.65 284.842 394.59 283.903 394.59 282.74V263.997C399.244 263.058 402.772 258.937 402.772 253.998L402.762 254.007ZM392.561 259.997C389.257 259.997 386.567 257.309 386.567 254.007C386.567 250.705 389.257 248.017 392.561 248.017C395.865 248.017 398.555 250.705 398.555 254.007C398.555 257.309 395.865 259.997 392.561 259.997Z" fill="#209BC4"/>
<path d="M333.673 164.945C328.042 164.945 323.472 169.522 323.472 175.14C323.472 180.014 326.915 184.088 331.495 185.093V444.796C331.495 445.959 332.435 446.898 333.598 446.898C334.762 446.898 335.702 445.959 335.702 444.796V185.139C340.365 184.2 343.883 180.079 343.883 175.14C343.883 169.522 339.304 164.945 333.673 164.945ZM333.673 181.14C330.359 181.14 327.679 178.451 327.679 175.149C327.679 171.847 330.369 169.159 333.673 169.159C336.977 169.159 339.667 171.847 339.667 175.149C339.667 178.451 336.977 181.14 333.673 181.14Z" fill="#209BC4"/>
</g>
<g opacity="0.2">
<path d="M409.33 157.473L386.48 144.293V118.09L409.33 131.27V157.473Z" fill="#6BE4F3"/>
<path d="M305.348 21.0043L295.947 15.5814V4.80078L305.348 10.2237V21.0043Z" fill="#6BE4F3"/>
<path d="M435.172 196.664L425.771 191.242V180.461L435.172 185.884V196.664Z" fill="#6BE4F3"/>
<path d="M483.622 182.149L462.62 170.034V145.949L483.622 158.064V182.149Z" fill="#6BE4F3"/>
<path d="M533.498 318.411L503.59 301.158V266.859L533.498 284.112V318.411Z" fill="#6BE4F3"/>
<path d="M173.752 247.881L161.568 240.858V226.887L173.752 233.919V247.881Z" fill="#6BE4F3"/>
<path d="M418.288 21.0032L430.472 13.9711V0L418.288 7.03208V21.0032Z" fill="#6BE4F3"/>
<path d="M347.647 30.5372L358.714 24.1563V11.4688L347.647 17.8497V30.5372Z" fill="#6BE4F3"/>
<path d="M225.539 258.494L236.606 252.113V239.426L225.539 245.807V258.494Z" fill="#6BE4F3"/>
<path d="M451.554 258.494L462.62 252.113V239.426L451.554 245.807V258.494Z" fill="#6BE4F3"/>
<path d="M188.512 190.959L200.695 183.936V169.965L188.512 176.997V190.959Z" fill="#6BE4F3"/>
<path d="M99.7529 198.664L123.658 184.885V157.473L99.7529 171.27V198.664Z" fill="#6BE4F3"/>
<path d="M117.565 331.421L142.802 316.874V287.934L117.565 302.5V331.421Z" fill="#6BE4F3"/>
<path d="M62.6328 275.051L77.7738 266.323V248.961L62.6328 257.7V275.051Z" fill="#6BE4F3"/>
<path d="M260.489 156.447L272.663 149.424V135.453L260.489 142.476V156.447Z" fill="#6BE4F3"/>
</g>
<defs>
<linearGradient id="paint0_linear_8402_14512" x1="-156.672" y1="139.554" x2="225.375" y2="360.266" gradientUnits="userSpaceOnUse">
<stop stop-color="#6DEAF6"/>
<stop offset="0.23" stop-color="#5AC8F3"/>
<stop offset="0.76" stop-color="#307EEC"/>
<stop offset="1" stop-color="#2061EA"/>
</linearGradient>
<linearGradient id="paint1_linear_8402_14512" x1="155.78" y1="421.988" x2="508.72" y2="421.988" gradientUnits="userSpaceOnUse">
<stop stop-color="#45ACF4"/>
<stop offset="0.49" stop-color="#376ADB"/>
<stop offset="0.56" stop-color="#3A71DC"/>
<stop offset="0.67" stop-color="#4387E1"/>
<stop offset="0.81" stop-color="#52ABE8"/>
<stop offset="0.96" stop-color="#67DDF3"/>
<stop offset="1" stop-color="#6DEAF6"/>
</linearGradient>
<linearGradient id="paint2_linear_8402_14512" x1="266.586" y1="422.777" x2="397.905" y2="422.777" gradientUnits="userSpaceOnUse">
<stop stop-color="#45ACF4"/>
<stop offset="0.49" stop-color="#376ADB"/>
<stop offset="0.56" stop-color="#3A71DC"/>
<stop offset="0.67" stop-color="#4387E1"/>
<stop offset="0.81" stop-color="#52ABE8"/>
<stop offset="0.96" stop-color="#67DDF3"/>
<stop offset="1" stop-color="#6DEAF6"/>
</linearGradient>
<linearGradient id="paint3_linear_8402_14512" x1="216.474" y1="323.854" x2="444.666" y2="460.054" gradientUnits="userSpaceOnUse">
<stop stop-color="#F3F6FF"/>
<stop offset="0.76" stop-color="#ADF7FE"/>
<stop offset="1" stop-color="#96F8FE"/>
</linearGradient>
<linearGradient id="paint4_linear_8402_14512" x1="222.58" y1="328.283" x2="438.731" y2="457.304" gradientUnits="userSpaceOnUse">
<stop stop-color="#F3F6FF"/>
<stop offset="0.76" stop-color="#ADF7FE"/>
<stop offset="1" stop-color="#96F8FE"/>
</linearGradient>
</defs>
</svg>
