<svg width="646" height="317" viewBox="0 0 646 317" fill="none" xmlns="http://www.w3.org/2000/svg">
<g clip-path="url(#clip0_8396_13658)">
<path opacity="0.32" d="M325.482 340.625C234.104 340.625 160.029 282.751 160.029 211.359C160.029 139.968 234.104 82.0938 325.482 82.0938C416.859 82.0938 490.935 139.968 490.935 211.359C490.935 282.751 416.859 340.625 325.482 340.625Z" fill="url(#paint0_radial_8396_13658)" style="mix-blend-mode:multiply"/>
<path d="M242.952 123.733L283.489 53.452C285.243 50.4205 287.608 47.9328 290.164 46.4647L363.694 3.9969C371.633 -0.584284 379.218 -1.26399 385.037 2.10733C390.814 5.45147 394.009 12.2621 394.009 21.3021V175.893C394.009 193.552 381.489 215.139 366.114 224.016L270.575 279.181C265.967 281.845 261.481 283.178 257.389 283.178C254.425 283.178 251.679 282.484 249.232 281.07C243.455 277.74 240.26 270.916 240.26 261.876V132.896C240.26 130 241.212 126.737 242.938 123.733H242.952Z" fill="#CFE0FE"/>
<g style="mix-blend-mode:screen">
<path d="M269.365 277.1L364.904 221.936C379.64 213.426 391.589 192.817 391.589 175.906V21.315C391.589 4.404 379.64 -2.40661 364.904 6.10326L291.36 48.571C289.185 49.8217 287.105 52.0239 285.569 54.6747L245.045 124.956C243.536 127.58 242.68 130.434 242.68 132.908V261.889C242.68 278.8 254.629 285.61 269.365 277.1Z" fill="url(#paint1_linear_8396_13658)"/>
<path d="M257.389 283.189C261.481 283.189 265.967 281.843 270.575 279.193L366.114 224.028C381.489 215.151 394.009 193.564 394.009 175.905V21.3138C394.009 12.2738 390.828 5.44959 385.037 2.11905C379.218 -1.25227 371.633 -0.572566 363.694 4.00862L290.15 46.4764C287.608 47.9445 285.229 50.4322 283.476 53.4637L242.938 123.745C241.212 126.749 240.26 130.012 240.26 132.907V261.887C240.26 270.927 243.441 277.752 249.232 281.082C251.679 282.496 254.425 283.189 257.389 283.189ZM268.155 275.006C261.78 278.676 255.921 279.356 251.652 276.895C247.438 274.462 245.1 269.119 245.1 261.887V132.907C245.1 130.868 245.847 128.421 247.139 126.165L287.663 55.8834C288.981 53.5996 290.762 51.6965 292.557 50.6633L366.1 8.19558C372.476 4.5116 378.348 3.84549 382.603 6.30601C386.818 8.73935 389.156 14.0682 389.156 21.3138V175.905C389.156 192.028 377.723 211.725 363.681 219.841L268.142 275.006H268.155Z" fill="url(#paint2_linear_8396_13658)"/>
</g>
<path d="M283.201 115.155L244.349 137.585V134.336C244.349 131.876 245.192 129.007 246.715 126.384L287.238 56.1027C288.775 53.4518 290.854 51.2496 293.029 49.9989L296.306 48.1094V92.5619C296.306 100.854 290.447 110.968 283.215 115.142L283.201 115.155Z" fill="url(#paint3_linear_8396_13658)"/>
<path d="M267.883 185.817L365.706 129.918C368.697 128.191 371.13 123.556 371.13 119.559C371.13 115.563 368.697 113.727 365.706 115.454L267.883 171.353C264.893 173.079 262.459 177.715 262.459 181.711C262.459 185.708 264.893 187.543 267.883 185.817Z" fill="url(#paint4_linear_8396_13658)"/>
<path d="M267.883 212.867L365.706 156.969C368.697 155.242 371.13 150.607 371.13 146.61C371.13 142.613 368.697 140.778 365.706 142.505L267.883 198.403C264.893 200.13 262.459 204.765 262.459 208.762C262.459 212.759 264.893 214.594 267.883 212.867Z" fill="url(#paint5_linear_8396_13658)"/>
<path d="M267.883 240.504L365.706 184.605C368.697 182.879 371.13 178.243 371.13 174.247C371.13 170.25 368.697 168.415 365.706 170.141L267.883 226.04C264.893 227.766 262.459 232.402 262.459 236.399C262.459 240.395 264.893 242.23 267.883 240.504Z" fill="url(#paint6_linear_8396_13658)"/>
<path d="M257.389 283.189C261.481 283.189 265.967 281.843 270.575 279.193L366.114 224.028C381.489 215.151 394.009 193.564 394.009 175.905V21.3138C394.009 12.2738 390.828 5.44959 385.037 2.11905C379.218 -1.25227 371.633 -0.572566 363.694 4.00862L290.15 46.4764C287.608 47.9445 285.229 50.4322 283.476 53.4637L242.938 123.745C241.212 126.749 240.26 130.012 240.26 132.907V261.887C240.26 270.927 243.441 277.752 249.232 281.082C251.679 282.496 254.425 283.189 257.389 283.189ZM268.155 275.006C261.78 278.676 255.921 279.356 251.652 276.895C247.438 274.462 245.1 269.119 245.1 261.887V132.907C245.1 130.868 245.847 128.421 247.139 126.165L287.663 55.8834C288.981 53.5996 290.762 51.6965 292.557 50.6633L366.1 8.19558C372.476 4.5116 378.348 3.84549 382.603 6.30601C386.818 8.73935 389.156 14.0682 389.156 21.3138V175.905C389.156 192.028 377.723 211.725 363.681 219.841L268.142 275.006H268.155Z" fill="url(#paint7_linear_8396_13658)"/>
<path d="M198.812 191.785L243.441 145.062L288.071 140.25L300.414 147.346C300.414 147.346 288.125 150.269 287.976 153.531C285.026 220.346 245.413 261.658 243.469 263.643V263.684C243.469 263.684 243.455 263.684 243.428 263.684C243.401 263.711 243.387 263.725 243.387 263.725V263.684C242.843 263.752 244.393 268.877 240.043 268.211C236.576 267.68 222.479 258.804 222.085 258.559C210.082 251.123 197.684 233.519 198.785 192.315C198.785 192.138 198.799 191.785 198.799 191.785H198.812Z" fill="url(#paint8_linear_8396_13658)"/>
<path d="M211.156 198.883L255.785 152.16L300.414 147.348C300.414 147.348 300.414 147.524 300.414 147.62C302.548 222.033 257.878 268.634 255.812 270.741V270.781C255.812 270.781 255.799 270.781 255.771 270.781C255.744 270.809 255.731 270.822 255.731 270.822V270.781C253.569 271.067 209.103 275.947 211.129 199.413C211.129 199.236 211.142 198.883 211.142 198.883H211.156Z" fill="#6DEAF6"/>
<path d="M212.788 199.343L255.785 154.319L298.783 149.684C298.783 149.684 298.783 149.86 298.783 149.942C300.836 221.637 257.797 266.538 255.813 268.563V268.604C255.813 268.604 255.799 268.604 255.772 268.604C255.745 268.631 255.731 268.645 255.731 268.645V268.618C253.651 268.89 210.803 273.593 212.747 199.859C212.747 199.682 212.76 199.343 212.76 199.343H212.788Z" fill="url(#paint9_linear_8396_13658)"/>
<path d="M218.932 201.084L255.785 162.505L292.639 158.535C292.639 158.535 292.639 158.685 292.639 158.766C294.392 220.211 257.512 258.682 255.812 260.422V260.45C255.812 260.45 255.812 260.45 255.785 260.45C255.758 260.477 255.758 260.49 255.758 260.49V260.463C253.977 260.694 217.26 264.732 218.932 201.533C218.932 201.384 218.932 201.098 218.932 201.098V201.084Z" fill="url(#paint10_linear_8396_13658)"/>
<path d="M246.609 201.617L265.953 190.442C266.633 190.048 267.313 189.735 267.965 189.572C271.336 188.729 273.797 190.864 273.797 195.078V209.175C273.797 214.273 270.194 220.485 265.749 223.054L246.69 234.052C242.245 236.621 238.643 234.568 238.643 229.471V215.374C238.643 211.2 241.062 206.279 244.379 203.221C245.1 202.555 245.861 202.038 246.609 201.603V201.617Z" fill="url(#paint11_linear_8396_13658)"/>
<path d="M254.167 213.333C254.167 214.543 254.942 215.086 255.948 214.692V218.621C255.948 219.64 256.668 220.048 257.552 219.532C258.435 219.015 259.156 217.778 259.156 216.758V212.83C260.162 212.055 260.937 210.628 260.937 209.418V206.509C260.937 205.163 259.985 204.633 258.816 205.299L256.274 206.767C255.105 207.447 254.153 209.078 254.153 210.41V213.319L254.167 213.333Z" fill="url(#paint12_linear_8396_13658)"/>
<path d="M262.704 192.371V189.013C262.704 184.663 259.618 182.909 255.839 185.098C252.06 187.286 248.974 192.602 248.974 196.938V200.296L245.358 202.376V199.018C245.358 192.384 250.062 184.282 255.839 180.952C261.617 177.621 266.32 180.299 266.32 186.919V190.277L262.704 192.357V192.371Z" fill="url(#paint13_linear_8396_13658)"/>
<path d="M399.988 207.471L401.619 210.297L348.406 241.019L346.775 238.194L399.988 207.471Z" fill="url(#paint14_linear_8396_13658)"/>
<path d="M401.095 140.251L448.017 149.066L447.414 152.273L400.493 143.458L401.095 140.251Z" fill="url(#paint15_linear_8396_13658)"/>
<path d="M446.431 213.145L449.029 215.117L402.116 276.924L399.517 274.951L446.431 213.145Z" fill="url(#paint16_linear_8396_13658)"/>
<path d="M398.537 145.188H401.8V276.288H398.537V145.188Z" fill="url(#paint17_linear_8396_13658)"/>
<path d="M447.027 154.746H450.29V209.666H447.027V154.746Z" fill="url(#paint18_linear_8396_13658)"/>
<path d="M393.876 133.87L396.673 135.551L334.99 238.208L332.194 236.528L393.876 133.87Z" fill="url(#paint19_linear_8396_13658)"/>
<path d="M339.871 243.073L401.554 274.516L400.072 277.422L338.389 245.98L339.871 243.073Z" fill="url(#paint20_linear_8396_13658)"/>
<path d="M447.388 148.53L449.928 150.578L402.075 209.924L399.536 207.877L447.388 148.53Z" fill="url(#paint21_linear_8396_13658)"/>
<path d="M401.057 207.709L448.711 212.34L448.395 215.587L400.742 210.957L401.057 207.709Z" fill="url(#paint22_linear_8396_13658)"/>
<path d="M363.75 184.365L405.072 208.547L403.424 211.363L362.102 187.181L363.75 184.365Z" fill="url(#paint23_linear_8396_13658)"/>
<path d="M392.736 147.757C387.092 142.114 387.092 132.964 392.736 127.321C398.379 121.678 407.528 121.678 413.172 127.321C418.815 132.964 418.815 142.114 413.172 147.757C407.528 153.4 398.379 153.4 392.736 147.757Z" fill="url(#paint24_radial_8396_13658)"/>
<path d="M388.873 208.261C387.071 200.486 391.912 192.723 399.687 190.921C407.462 189.119 415.225 193.961 417.027 201.735C418.829 209.51 413.987 217.273 406.213 219.075C398.438 220.878 390.675 216.036 388.873 208.261Z" fill="url(#paint25_radial_8396_13658)"/>
<path d="M327.643 238.208C327.643 246.188 334.114 252.659 342.093 252.659C350.073 252.659 356.544 246.188 356.544 238.208C356.544 230.229 350.073 223.758 342.093 223.758C334.114 223.758 327.643 230.229 327.643 238.208Z" fill="url(#paint26_radial_8396_13658)"/>
<path d="M436.994 148.868C436.994 156.848 443.464 163.319 451.444 163.319C459.424 163.319 465.895 156.848 465.895 148.868C465.895 140.889 459.424 134.418 451.444 134.418C443.464 134.418 436.994 140.889 436.994 148.868Z" fill="url(#paint27_radial_8396_13658)"/>
<path d="M446.658 225.356C439.277 222.321 435.753 213.877 438.788 206.496C441.823 199.115 450.267 195.591 457.648 198.626C465.029 201.661 468.553 210.105 465.518 217.486C462.483 224.867 454.039 228.391 446.658 225.356Z" fill="url(#paint28_radial_8396_13658)"/>
<path d="M356.607 195.543C349.226 192.509 345.702 184.065 348.737 176.684C351.772 169.302 360.216 165.779 367.597 168.814C374.978 171.848 378.502 180.292 375.467 187.673C372.432 195.055 363.988 198.578 356.607 195.543Z" fill="url(#paint29_radial_8396_13658)"/>
<path d="M392.736 282.679C387.092 277.036 387.092 267.886 392.736 262.243C398.379 256.6 407.528 256.6 413.172 262.243C418.815 267.886 418.815 277.036 413.172 282.679C407.528 288.322 398.379 288.322 392.736 282.679Z" fill="url(#paint30_radial_8396_13658)"/>
</g>
<defs>
<radialGradient id="paint0_radial_8396_13658" cx="0" cy="0" r="1" gradientUnits="userSpaceOnUse" gradientTransform="translate(318.755 217.109) rotate(180) scale(165.683 129.079)">
<stop offset="0.22" stop-color="#062FB5"/>
<stop offset="0.35" stop-color="#4765C8"/>
<stop offset="0.48" stop-color="#7F94D9"/>
<stop offset="0.6" stop-color="#ADBAE6"/>
<stop offset="0.72" stop-color="#D0D8F1"/>
<stop offset="0.82" stop-color="#EAEDF8"/>
<stop offset="0.92" stop-color="#F9FAFD"/>
<stop offset="1" stop-color="white"/>
</radialGradient>
<linearGradient id="paint1_linear_8396_13658" x1="382.807" y1="16.4217" x2="261.527" y2="277.64" gradientUnits="userSpaceOnUse">
<stop stop-color="#F3F6FF"/>
<stop offset="0.76" stop-color="#ADF7FE"/>
<stop offset="1" stop-color="#96F8FE"/>
</linearGradient>
<linearGradient id="paint2_linear_8396_13658" x1="384.941" y1="14.2321" x2="262.717" y2="281.38" gradientUnits="userSpaceOnUse">
<stop stop-color="#F3F6FF"/>
<stop offset="0.76" stop-color="#ADF7FE"/>
<stop offset="1" stop-color="#96F8FE"/>
</linearGradient>
<linearGradient id="paint3_linear_8396_13658" x1="295.319" y1="106.636" x2="269.416" y2="92.3392" gradientUnits="userSpaceOnUse">
<stop stop-color="#21ACEF"/>
<stop offset="0.24" stop-color="#24AFEF"/>
<stop offset="0.46" stop-color="#30B8F0"/>
<stop offset="0.69" stop-color="#43C8F2"/>
<stop offset="0.9" stop-color="#5EDEF4"/>
<stop offset="1" stop-color="#6DEAF6"/>
</linearGradient>
<linearGradient id="paint4_linear_8396_13658" x1="371.13" y1="150.635" x2="262.473" y2="150.635" gradientUnits="userSpaceOnUse">
<stop offset="0.12" stop-color="#5DA6D8"/>
<stop offset="0.4" stop-color="#5DA6D8"/>
<stop offset="0.91" stop-color="#5DA6D8"/>
<stop offset="1" stop-color="#B1C4F7"/>
</linearGradient>
<linearGradient id="paint5_linear_8396_13658" x1="371.13" y1="177.686" x2="262.473" y2="177.686" gradientUnits="userSpaceOnUse">
<stop offset="0.12" stop-color="#5DA6D8"/>
<stop offset="0.4" stop-color="#5DA6D8"/>
<stop offset="0.91" stop-color="#5DA6D8"/>
<stop offset="1" stop-color="#B1C4F7"/>
</linearGradient>
<linearGradient id="paint6_linear_8396_13658" x1="371.13" y1="205.323" x2="262.473" y2="205.323" gradientUnits="userSpaceOnUse">
<stop offset="0.12" stop-color="#5DA6D8"/>
<stop offset="0.4" stop-color="#5DA6D8"/>
<stop offset="0.91" stop-color="#5DA6D8"/>
<stop offset="1" stop-color="#B1C4F7"/>
</linearGradient>
<linearGradient id="paint7_linear_8396_13658" x1="390.801" y1="10.7649" x2="178.221" y2="73.7287" gradientUnits="userSpaceOnUse">
<stop stop-color="white"/>
<stop offset="0.428889" stop-color="#E4EFFF"/>
<stop offset="0.935995" stop-color="#FDF6FE"/>
</linearGradient>
<linearGradient id="paint8_linear_8396_13658" x1="281.163" y1="163.17" x2="202.571" y2="184.675" gradientUnits="userSpaceOnUse">
<stop stop-color="#F3F6FF"/>
<stop offset="0.76" stop-color="#ADF7FE"/>
<stop offset="1" stop-color="#96F8FE"/>
</linearGradient>
<linearGradient id="paint9_linear_8396_13658" x1="282.542" y1="171.004" x2="215.15" y2="187.801" gradientUnits="userSpaceOnUse">
<stop stop-color="#F3F6FF"/>
<stop offset="0.76" stop-color="#ADF7FE"/>
<stop offset="1" stop-color="#96F8FE"/>
</linearGradient>
<linearGradient id="paint10_linear_8396_13658" x1="313.655" y1="145.077" x2="232.471" y2="236.293" gradientUnits="userSpaceOnUse">
<stop stop-color="#F3F6FF"/>
<stop offset="1" stop-color="#D6DCFD"/>
</linearGradient>
<linearGradient id="paint11_linear_8396_13658" x1="273.797" y1="187.316" x2="235.258" y2="242.1" gradientUnits="userSpaceOnUse">
<stop stop-color="#45ACF4"/>
<stop offset="0.49" stop-color="#1259DB"/>
<stop offset="0.55" stop-color="#1760DC"/>
<stop offset="0.64" stop-color="#2476E0"/>
<stop offset="0.75" stop-color="#3B9AE7"/>
<stop offset="0.88" stop-color="#5ACCF0"/>
<stop offset="0.95" stop-color="#6DEAF6"/>
</linearGradient>
<linearGradient id="paint12_linear_8396_13658" x1="89.355" y1="303.056" x2="88.2067" y2="320.86" gradientUnits="userSpaceOnUse">
<stop stop-color="#21ACEF"/>
<stop offset="0.15" stop-color="#29B0F0"/>
<stop offset="0.38" stop-color="#40BEF3"/>
<stop offset="0.67" stop-color="#67D4F8"/>
<stop offset="1" stop-color="#9AF2FF"/>
</linearGradient>
<linearGradient id="paint13_linear_8396_13658" x1="263.805" y1="180.285" x2="225.266" y2="235.069" gradientUnits="userSpaceOnUse">
<stop stop-color="#45ACF4"/>
<stop offset="0.49" stop-color="#1259DB"/>
<stop offset="0.55" stop-color="#1760DC"/>
<stop offset="0.64" stop-color="#2476E0"/>
<stop offset="0.75" stop-color="#3B9AE7"/>
<stop offset="0.88" stop-color="#5ACCF0"/>
<stop offset="0.95" stop-color="#6DEAF6"/>
</linearGradient>
<linearGradient id="paint14_linear_8396_13658" x1="401.619" y1="210.297" x2="398.067" y2="204.835" gradientUnits="userSpaceOnUse">
<stop stop-color="#209BC4"/>
<stop offset="1" stop-color="#4DC9C0"/>
</linearGradient>
<linearGradient id="paint15_linear_8396_13658" x1="448.017" y1="149.066" x2="446.381" y2="155.368" gradientUnits="userSpaceOnUse">
<stop stop-color="#209BC4"/>
<stop offset="1" stop-color="#4DC9C0"/>
</linearGradient>
<linearGradient id="paint16_linear_8396_13658" x1="449.029" y1="215.117" x2="443.675" y2="211.397" gradientUnits="userSpaceOnUse">
<stop stop-color="#209BC4"/>
<stop offset="1" stop-color="#4DC9C0"/>
</linearGradient>
<linearGradient id="paint17_linear_8396_13658" x1="401.8" y1="145.188" x2="395.279" y2="145.35" gradientUnits="userSpaceOnUse">
<stop stop-color="#209BC4"/>
<stop offset="1" stop-color="#4DC9C0"/>
</linearGradient>
<linearGradient id="paint18_linear_8396_13658" x1="450.29" y1="154.746" x2="443.788" y2="155.132" gradientUnits="userSpaceOnUse">
<stop stop-color="#209BC4"/>
<stop offset="1" stop-color="#4DC9C0"/>
</linearGradient>
<linearGradient id="paint19_linear_8396_13658" x1="396.673" y1="135.551" x2="390.992" y2="132.345" gradientUnits="userSpaceOnUse">
<stop stop-color="#209BC4"/>
<stop offset="1" stop-color="#4DC9C0"/>
</linearGradient>
<linearGradient id="paint20_linear_8396_13658" x1="401.554" y1="274.516" x2="398.324" y2="280.177" gradientUnits="userSpaceOnUse">
<stop stop-color="#209BC4"/>
<stop offset="1" stop-color="#4DC9C0"/>
</linearGradient>
<linearGradient id="paint21_linear_8396_13658" x1="449.928" y1="150.578" x2="444.683" y2="146.707" gradientUnits="userSpaceOnUse">
<stop stop-color="#209BC4"/>
<stop offset="1" stop-color="#4DC9C0"/>
</linearGradient>
<linearGradient id="paint22_linear_8396_13658" x1="448.711" y1="212.34" x2="447.642" y2="218.762" gradientUnits="userSpaceOnUse">
<stop stop-color="#209BC4"/>
<stop offset="1" stop-color="#4DC9C0"/>
</linearGradient>
<linearGradient id="paint23_linear_8396_13658" x1="405.072" y1="208.547" x2="401.41" y2="213.929" gradientUnits="userSpaceOnUse">
<stop stop-color="#209BC4"/>
<stop offset="1" stop-color="#4DC9C0"/>
</linearGradient>
<radialGradient id="paint24_radial_8396_13658" cx="0" cy="0" r="1" gradientUnits="userSpaceOnUse" gradientTransform="translate(414.748 132) rotate(164.398) scale(33.463)">
<stop stop-color="#F3F6FF"/>
<stop offset="0.3" stop-color="#ACF8FF"/>
<stop offset="1" stop-color="#4DC9C0"/>
</radialGradient>
<radialGradient id="paint25_radial_8396_13658" cx="0" cy="0" r="1" gradientUnits="userSpaceOnUse" gradientTransform="translate(414.248 196.502) rotate(163.01) scale(28.2785 28.2785)">
<stop stop-color="#F3F6FF"/>
<stop offset="0.3" stop-color="#ACF8FF"/>
<stop offset="1" stop-color="#4DC9C0"/>
</radialGradient>
<radialGradient id="paint26_radial_8396_13658" cx="0" cy="0" r="1" gradientUnits="userSpaceOnUse" gradientTransform="translate(356.544 230.5) rotate(166.039) scale(29.7526 29.7526)">
<stop stop-color="#F3F6FF"/>
<stop offset="0.3" stop-color="#ACF8FF"/>
<stop offset="1" stop-color="#4DC9C0"/>
</radialGradient>
<radialGradient id="paint27_radial_8396_13658" cx="0" cy="0" r="1" gradientUnits="userSpaceOnUse" gradientTransform="translate(460.748 144) rotate(168.608) scale(24.3708 24.3708)">
<stop stop-color="#F3F6FF"/>
<stop offset="0.3" stop-color="#ACF8FF"/>
<stop offset="1" stop-color="#4DC9C0"/>
</radialGradient>
<radialGradient id="paint28_radial_8396_13658" cx="0" cy="0" r="1" gradientUnits="userSpaceOnUse" gradientTransform="translate(462.248 208.501) rotate(172.21) scale(27.1296 27.1296)">
<stop stop-color="#F3F6FF"/>
<stop offset="0.3" stop-color="#ACF8FF"/>
<stop offset="1" stop-color="#4DC9C0"/>
</radialGradient>
<radialGradient id="paint29_radial_8396_13658" cx="0" cy="0" r="1" gradientUnits="userSpaceOnUse" gradientTransform="translate(377.748 176) rotate(168.895) scale(33.0489 33.0488)">
<stop stop-color="#F3F6FF"/>
<stop offset="0.3" stop-color="#ACF8FF"/>
<stop offset="1" stop-color="#4DC9C0"/>
</radialGradient>
<radialGradient id="paint30_radial_8396_13658" cx="0" cy="0" r="1" gradientUnits="userSpaceOnUse" gradientTransform="translate(412.748 261.001) rotate(156.591) scale(28.8383)">
<stop stop-color="#F3F6FF"/>
<stop offset="0.3" stop-color="#ACF8FF"/>
<stop offset="1" stop-color="#4DC9C0"/>
</radialGradient>
<clipPath id="clip0_8396_13658">
<rect width="645.499" height="398.033" fill="white"/>
</clipPath>
</defs>
</svg>
