<svg width="2274" height="428" viewBox="0 0 2274 428" fill="none" xmlns="http://www.w3.org/2000/svg">
<g clip-path="url(#clip0_1136_2075)">
<path d="M677.434 19.2969H634.087V62.6442H677.434V19.2969Z" fill="#0B0D0F"/>
<path d="M1077.39 104.234H1034.04V147.582H1077.39V104.234Z" fill="#0B0D0F"/>
<path d="M1034.04 147.562H990.692V284.911H1034.04V147.562Z" fill="#0B0D0F"/>
<path d="M2153.41 384.66H2110.06V428.007H2153.41V384.66Z" fill="#0B0D0F"/>
<path d="M1890.42 19.2969H1847.07V62.6442H1890.42V19.2969Z" fill="#0B0D0F"/>
<path d="M590.742 126.7C582.942 118.545 573.83 112.059 563.431 107.188C553.114 102.262 541.648 99.8268 529.032 99.8268C514.419 99.8268 501.447 102.645 489.981 108.255C478.433 113.838 468.8 121.117 460.919 130.039C453.119 139.069 447.181 148.948 443.049 159.895C439.026 170.841 437.001 181.787 437.001 192.733V231.346C437.001 242.265 439.026 253.239 443.049 264.185C447.181 275.022 453.119 285.011 460.919 293.932C468.8 302.963 478.433 310.215 489.981 315.824C501.447 321.434 514.419 324.253 529.032 324.253C540.498 324.253 551.554 321.708 562.199 316.7C572.872 311.638 582.34 305.042 590.742 296.915L593.588 324.226H634.089V62.6094H590.742V126.7ZM590.742 233.864C590.742 239.72 589.428 245.659 586.828 251.707C584.119 257.754 580.343 263.2 575.444 268.099C570.518 272.997 564.662 276.938 557.821 279.921C550.897 282.794 543.481 284.299 535.326 284.299C526.022 284.299 517.976 282.712 511.162 279.483C504.239 276.254 498.547 272.067 493.922 266.867C489.27 261.695 485.876 255.948 483.66 249.627C481.388 243.333 480.239 237.203 480.239 231.346V192.733C480.239 186.795 481.388 180.747 483.66 174.453C485.849 168.159 489.27 162.385 493.922 157.185C498.547 152.013 504.239 147.744 511.162 144.406C517.976 140.985 526.049 139.343 535.326 139.343C543.481 139.343 550.897 141.012 557.821 144.406C564.662 147.717 570.518 152.013 575.444 157.185C580.343 162.357 584.119 168.132 586.828 174.453C589.455 180.747 590.742 186.795 590.742 192.733V233.891V233.864Z" fill="#0B0D0F"/>
<path d="M859.58 169.418C857.829 161.975 855.038 154.778 851.179 147.964C847.239 141.04 841.628 134.117 834.377 127.111C825.62 118.983 815.549 112.58 804.083 107.764C792.616 103.057 780.521 100.676 767.933 100.676H760.845C746.204 100.676 733.096 103.494 721.247 109.104C709.534 114.687 699.546 121.966 691.5 130.888C683.345 139.918 677.051 149.797 672.59 160.744C668.048 171.69 665.831 182.636 665.831 193.582V232.195C665.831 243.114 667.938 254.088 672.125 265.034C676.312 275.871 682.36 285.778 690.159 294.617C698.041 303.456 707.673 310.544 719.14 316.071C730.688 321.49 743.659 324.226 758.272 324.226H770.423C783.038 324.226 794.751 322.201 805.697 318.179C816.644 314.074 826.276 308.628 834.486 301.814C842.723 294.89 849.209 287.036 853.861 278.006C858.486 269.084 860.784 259.78 860.784 250.339H817.875C817.875 256.195 816.397 261.285 813.332 265.664C810.185 269.96 806.245 273.627 801.346 276.583C796.42 279.483 790.756 281.673 784.27 283.068C777.866 284.491 771.326 285.176 764.567 285.176C755.29 285.176 747.244 283.588 740.43 280.359C733.507 277.13 727.814 272.943 723.162 267.744C718.537 262.571 715.007 256.825 712.654 250.503C710.3 244.209 709.069 238.079 709.069 232.223V224.67H862.892V218.814C862.892 209.509 862.727 200.862 862.454 192.707C862.18 184.552 861.222 176.78 859.553 169.446L859.58 169.418ZM709.534 188.492C710.054 182.882 711.806 177.218 714.788 171.498C717.744 165.724 721.712 160.552 726.775 155.927C731.782 151.275 737.721 147.499 744.644 144.543C751.458 141.642 759.093 140.165 767.495 140.165C774.5 140.165 781.26 141.287 787.718 143.476C794.122 145.747 799.814 149.004 804.712 153.191C809.638 157.378 813.551 162.468 816.534 168.515C819.435 174.563 820.913 181.186 820.913 188.465H709.562L709.534 188.492Z" fill="#0B0D0F"/>
<path d="M973.342 280.743L972.275 278.116L908.731 104.234H865.028L944.799 313.363L948.904 324.2H990.692V284.903H975.066L973.342 280.743Z" fill="#0B0D0F"/>
<path d="M1276.42 169.418C1274.75 161.975 1271.96 154.778 1267.99 147.964C1264.05 141.04 1258.44 134.117 1251.19 127.111C1242.51 118.983 1232.47 112.58 1220.92 107.764C1209.45 103.057 1197.44 100.676 1184.82 100.676H1177.65C1163.12 100.676 1149.9 103.494 1138.16 109.104C1126.37 114.687 1116.46 121.966 1108.31 130.888C1100.15 139.918 1093.86 149.797 1089.4 160.744C1084.94 171.69 1082.67 182.636 1082.67 193.582V232.195C1082.67 243.114 1084.77 254.088 1088.96 265.034C1093.15 275.871 1099.2 285.778 1107.08 294.617C1114.88 303.456 1124.59 310.544 1136.08 316.071C1147.55 321.49 1160.6 324.226 1175.11 324.226H1187.29C1199.87 324.226 1211.7 322.201 1222.64 318.179C1233.56 314.074 1243.14 308.628 1251.43 301.814C1259.67 294.89 1266.07 287.036 1270.7 278.006C1275.35 269.084 1277.7 259.78 1277.7 250.339H1234.82C1234.82 256.195 1233.26 261.285 1230.17 265.664C1227.13 269.96 1223.08 273.627 1218.18 276.583C1213.26 279.483 1207.59 281.673 1201.19 283.068C1194.7 284.491 1188.16 285.176 1181.4 285.176C1172.23 285.176 1164.16 283.588 1157.27 280.359C1150.42 277.13 1144.65 272.943 1140 267.744C1135.46 262.571 1131.95 256.825 1129.49 250.503C1127.14 244.209 1125.99 238.079 1125.99 232.223V224.67H1279.73V218.814C1279.73 209.509 1279.65 200.862 1279.4 192.707C1279.04 184.552 1278.06 176.78 1276.42 169.446V169.418ZM1126.37 188.492C1126.97 182.882 1128.72 177.218 1131.62 171.498C1134.58 165.724 1138.63 160.552 1143.61 155.927C1148.67 151.275 1154.64 147.499 1161.48 144.543C1168.4 141.642 1176.01 140.165 1184.41 140.165C1191.42 140.165 1198.15 141.287 1204.55 143.476C1211.04 145.747 1216.7 149.004 1221.63 153.191C1226.53 157.378 1230.39 162.468 1233.37 168.515C1236.33 174.563 1237.75 181.186 1237.75 188.465H1126.4L1126.37 188.492Z" fill="#0B0D0F"/>
<path d="M1355.39 19.2969H1312.13V324.206H1355.39V19.2969Z" fill="#0B0D0F"/>
<path d="M1567.26 130.888C1559.11 121.966 1549.14 114.687 1537.4 109.104C1525.58 103.494 1512.45 100.676 1497.92 100.676H1482.32C1467.79 100.676 1454.57 103.494 1442.83 109.104C1431.01 114.687 1421.1 121.966 1412.97 130.888C1404.82 139.918 1398.52 149.797 1394.04 160.744C1389.58 171.69 1387.3 182.636 1387.3 193.582V232.195C1387.3 243.114 1389.38 254.088 1393.57 265.034C1397.78 275.871 1403.83 285.778 1411.71 294.617C1419.51 303.456 1429.12 310.544 1440.69 316.071C1452.16 321.49 1465.21 324.226 1479.75 324.226H1500.32C1514.94 324.226 1527.96 321.517 1539.46 316.071C1550.92 310.544 1560.56 303.456 1568.44 294.617C1576.32 285.778 1582.26 275.871 1586.47 265.034C1590.69 254.088 1592.77 243.142 1592.77 232.195V193.582C1592.77 182.663 1590.6 171.69 1586.12 160.744C1581.57 149.825 1575.25 139.918 1567.21 130.888H1567.26ZM1549.58 232.195C1549.58 240.87 1547.91 248.56 1544.49 255.128C1541.18 261.668 1536.72 267.196 1531.08 271.657C1525.47 276.2 1519.1 279.538 1511.93 281.81C1504.84 283.999 1497.48 285.148 1489.87 285.148C1482.26 285.148 1475.07 283.999 1468.06 281.81C1461.05 279.538 1454.76 276.227 1449.18 271.657C1443.57 267.196 1439.08 261.668 1435.69 255.128C1432.38 248.56 1430.71 240.843 1430.71 232.195V193.582C1430.71 185.181 1432.27 177.656 1435.49 171.088C1438.67 164.52 1442.94 158.91 1448.27 154.285C1453.64 149.633 1459.93 146.13 1467.18 143.777C1474.46 141.396 1482.07 140.192 1489.87 140.192C1497.67 140.192 1504.84 141.314 1511.93 143.503C1519.1 145.774 1525.47 149.086 1531.08 153.41C1536.69 157.788 1541.18 163.289 1544.49 170.048C1547.91 176.78 1549.58 184.579 1549.58 193.582V232.195Z" fill="#0B0D0F"/>
<path d="M1767.22 263.338C1764.43 268.127 1760.73 271.958 1756.11 275.105C1751.46 278.143 1746.12 280.496 1740.18 282.165C1734.14 283.807 1727.92 284.683 1721.44 284.683C1714.43 284.683 1707.54 283.643 1700.58 281.536C1693.77 279.456 1687.64 276.227 1682.11 271.958C1676.69 267.607 1672.32 262.106 1668.9 255.402C1665.58 248.697 1663.91 240.761 1663.91 231.539V193.555C1663.91 184.333 1665.58 176.397 1668.9 169.692C1672.32 162.988 1676.69 157.597 1682.11 153.41C1687.64 149.223 1693.77 146.076 1700.58 143.996C1707.54 141.889 1714.43 140.849 1721.44 140.849C1727.92 140.849 1734.05 141.642 1739.91 143.366C1745.77 145.008 1751.1 147.389 1755.67 150.427C1760.32 153.492 1764.07 157.295 1766.89 161.92C1769.57 166.545 1771 171.772 1771 177.601H1814.34C1814.34 164.301 1811.88 152.698 1806.98 142.928C1802.08 133.159 1795.43 125.141 1787.03 118.874C1778.6 112.607 1768.89 107.982 1757.78 105.027C1746.72 102.154 1735.01 100.676 1722.75 100.676C1710.49 100.676 1697.71 102.509 1685.53 106.094C1673.38 109.734 1662.44 115.316 1652.72 122.815C1643.06 130.395 1635.29 139.973 1629.43 151.74C1623.58 163.398 1620.59 177.355 1620.59 193.555V231.539C1620.59 247.493 1623.58 261.231 1629.63 273.025C1635.67 284.71 1643.55 294.288 1653.16 301.869C1662.87 309.367 1673.74 314.922 1686 318.589C1698.15 322.174 1710.52 324.008 1723.11 324.008C1735.69 324.008 1747.19 322.53 1758.19 319.656C1769.25 316.673 1779.04 312.076 1787.44 305.809C1795.87 299.543 1802.49 291.606 1807.42 282.028C1812.32 272.368 1814.75 260.847 1814.75 247.52H1771.41C1771.41 253.349 1770.01 258.658 1767.22 263.365V263.338Z" fill="#0B0D0F"/>
<path d="M1890.42 104.234H1847.07V323.981H1890.42V104.234Z" fill="#0B0D0F"/>
<path d="M2230.69 104.234V221.031C2230.69 226.915 2229.4 233.045 2226.66 239.339C2224.04 245.633 2220.26 251.407 2215.36 256.579C2210.46 261.752 2204.61 266.048 2197.66 269.359C2190.84 272.78 2183.32 274.422 2175.19 274.422C2165.99 274.422 2157.92 272.753 2151.03 269.359C2144.21 266.048 2138.41 261.724 2133.89 256.579C2129.24 251.407 2125.85 245.66 2123.55 239.339C2121.28 233.045 2120.24 226.915 2120.24 221.031V104.234H2076.89V221.031C2076.89 231.978 2078.92 242.924 2083.02 253.87C2087.04 264.734 2093.01 274.723 2100.89 283.644C2108.69 292.675 2118.41 299.927 2129.87 305.537C2141.34 311.147 2154.39 313.938 2168.92 313.938C2181.54 313.938 2193.09 311.502 2203.43 306.604C2213.75 301.678 2222.86 295.056 2230.74 286.627V328.661C2230.74 329.509 2230.74 330.33 2230.69 331.151V341.358H2153.43V384.706H2230.69V341.358H2274.01V104.234H2230.74H2230.69Z" fill="#0B0D0F"/>
<path d="M2000.02 52.4883H1971.92C1971.92 64.8302 1970.27 75.065 1966.83 83.22C1963.52 91.375 1959.03 97.6691 1953.61 102.321C1948.19 106.946 1941.9 110.203 1934.89 112.036C1927.89 113.788 1920.88 114.745 1913.87 114.745V140.715H1956.78V248.345C1956.78 274.151 1961.96 293.252 1972.35 305.676C1981.6 316.869 1996.44 322.999 2016.91 324.203H2053.44V281.895H2030.12C2020.19 281.512 2012.83 279.213 2008.07 275.026C2002.7 270.402 2000.02 261.207 2000.02 247.551V140.743H2053.44V104.237H2000.02V52.5156V52.4883Z" fill="#0B0D0F"/>
<path d="M72.0891 134.444C104.654 122.622 132.786 115.452 156.047 113.208C170.168 111.84 179.965 128.15 171.974 139.479L48.6914 305.042L212.968 178.585C223.914 170.047 240.662 179.105 239.978 193.253C238.829 216.623 233 245.029 222.737 278.141C303.111 136.496 314.276 75.416 292.274 54.4264C270.272 33.4369 209.793 47.4755 72.1165 134.471L72.0891 134.444Z" fill="#0B0D0F"/>
<path d="M331.565 19.2969H19.2949V331.567H331.565V19.2969Z" stroke="#0B0D0F" stroke-width="16" stroke-miterlimit="10"/>
<path d="M38.613 0H0V38.613H38.613V0Z" fill="#0B0D0F"/>
<path d="M350.882 312.27H312.269V350.883H350.882V312.27Z" fill="#0B0D0F"/>
</g>
<defs>
<clipPath id="clip0_1136_2075">
<rect width="2273.96" height="428" fill="white"/>
</clipPath>
</defs>
</svg>
