<?xml version="1.0" encoding="UTF-8"?>
<svg id="b" data-name="Layer 2" xmlns="http://www.w3.org/2000/svg" viewBox="0 0 430.45 397.23">
  <defs>
    <style>
      .d {
        fill: none;
      }

      .e {
        fill: #fff;
      }

      .f {
        fill: #1a1a1a;
      }
    </style>
  </defs>
  <g id="c" data-name="Layer 1">
    <g>
      <g>
        <polygon class="e" points="210.39 360.55 216.54 331.49 191.56 302.65 184.78 333.27 210.39 360.55 210.39 360.55"/>
        <path class="e" d="M282.77,167.14l1.66,3.44c-15.23-28.61-27.19-62.97-60.33-74.69-31.56-11.15-66.46-3.52-93.38,15.43-30.23,21.28-49.26,58.31-60.73,92.71-10.6,31.8-5.05,69.65,21.43,92.15,28.63,24.32,67.89,21.57,100.13,6.48l24.98,28.84c-25.93,12.02-55.29,15.62-81.34,2.21-26.67-13.74-40.8-42.54-39.62-72,.59-14.73,5.08-28.16,11.21-41.42,7.72-16.71,14.49-34.56,25.92-49.19,19.03-24.36,48.77-41.49,80.05-42.27,28.94-.73,56.19,12.28,70.01,38.33h0Z"/>
        <polygon class="e" points="284.43 170.57 308.5 113.53 290.48 73.69 264.66 133.45 284.43 170.57 284.43 170.57"/>
        <polygon class="e" points="308.5 113.53 349.53 123.57 333.68 83.71 290.48 73.69 308.5 113.53 308.5 113.53"/>
        <polygon class="e" points="247.39 373.31 210.39 360.55 184.78 333.27 223.78 346.44 247.39 373.31 247.39 373.31"/>
        <polygon class="e" points="349.53 123.57 247.39 373.31 223.78 346.44 333.68 83.71 349.53 123.57 349.53 123.57"/>
        <path class="e" d="M237.12,197.19c-12.42,28.75-20.58,59.79-52.05,72.69-26.19,10.74-62.36,3.55-73.31-25.27-10.03-26.4,8.55-57.54,20.75-79.86,13.25-24.25,41.41-39.66,69.03-34.26,30.03,5.86,47.65,38.25,35.58,66.7h0Z"/>
        <path class="e" d="M242.39,270.23c10.51-24.91,28.74-52.74,14.09-79.73-13.6-25.08-45.64-30.19-69.87-18.03s-37,42.91-45.93,67.85c-8.79,24.58.9,50.94,25.92,60.58,27.93,10.76,63.69-2.65,75.78-30.67h0Z"/>
        <path class="e" d="M333.68,83.71l-109.9,262.73-39-13.18,6.78-30.61c-27.68,12.92-59.2,17.02-86.95,2.33-27.85-14.73-41.71-45.44-39.57-76.22,1.13-16.25,6.92-30.65,13.85-45.16,8.03-16.8,15.08-34.39,26.86-49.01,20.69-25.67,52.9-43.76,86.3-44.01,30.73-.23,59.5,14.18,72.61,42.86l25.82-59.76c14.4,3.34,28.8,6.68,43.2,10.03Z"/>
        <path class="e" d="M247.39,373.31l102.14-249.73-41.03-10.04-24.07,57.04c-26.6-57.69-103.53-48.73-142.47-9.97-11.14,11.09-18.58,24.02-25.15,38.14-7.56,16.23-16.53,32.29-19.8,50.08-5.39,29.35,4.1,61.53,29.03,79.33,27.19,19.41,61.32,16.95,90.49,3.34l-6.14,29.06,36.99,12.76h0Z"/>
        <path class="e" d="M219.44,238.13c11.1-25.69,30.65-54.86,15.88-83.03-14.08-26.84-48.24-31.51-73.66-18.7s-38.55,44.19-48.62,70.2c-9.88,25.5-1.02,53.58,25.4,64.01,29.7,11.72,67.93-2.85,81-32.48h0Z"/>
        <path class="e" d="M258.81,231.3c-11.59,27.47-19.08,57.3-49.36,69.21-25.03,9.84-58.73,2.09-69.18-24.91-9.78-25.26,7.57-55.8,19.42-77.2,12.67-22.87,39.63-36.83,65.56-31.08,28.13,6.23,44.69,37.08,33.56,63.98h0Z"/>
      </g>
      <g>
        <polygon class="d" points="247.39 373.31 349.53 123.57 333.68 83.71 223.78 346.44 247.39 373.31 247.39 373.31"/>
        <polygon class="d" points="349.53 123.57 308.5 113.53 290.48 73.69 333.68 83.71 349.53 123.57 349.53 123.57"/>
        <polygon class="d" points="308.5 113.53 284.43 170.57 264.66 133.45 290.48 73.69 308.5 113.53 308.5 113.53"/>
        <path class="d" d="M144.48,337.78l2.49.9-28.89-27.96c-26.58-9.03-46.13-30.12-51.57-57.96-6.57-33.58,8.7-61.53,22.75-90.84,24.01-50.1,82.7-87.54,138.39-64.69,30.71,12.6,42.31,46.14,56.79,73.34-20.59-44.54-76.37-51.08-116.29-29.47-23.18,12.54-39.4,32.07-50.41,55.66-12.2,26.15-25.54,50.96-21.38,80.76,3.89,27.81,21.92,50.4,48.12,60.27h0Z"/>
        <polygon class="f" points="146.96 338.68 34.22 299.8 0 270.81 118.08 310.72 146.96 338.68 146.96 338.68"/>
        <polygon class="d" points="34.22 299.8 157.22 40.95 132.25 0 0 270.81 34.22 299.8 34.22 299.8"/>
        <polygon class="d" points="157.22 40.95 363.77 88.75 348.93 47.25 132.25 0 157.22 40.95 157.22 40.95"/>
        <polygon class="d" points="363.77 88.75 349.52 123.59 333.67 83.73 348.93 47.25 363.77 88.75 363.77 88.75"/>
        <polygon class="d" points="349.52 123.59 387.98 133.01 374.22 93.15 333.67 83.73 349.52 123.59 349.52 123.59"/>
        <polygon class="d" points="387.98 133.01 402.03 97.6 389.26 56.05 374.22 93.15 387.98 133.01 387.98 133.01"/>
        <polygon class="d" points="402.03 97.6 430.45 104.18 419.27 62.59 389.26 56.05 402.03 97.6 402.03 97.6"/>
        <polygon class="f" points="316.74 397.23 247.39 373.31 223.78 346.44 297.06 371.21 316.74 397.23 316.74 397.23"/>
        <polygon class="f" points="430.45 104.18 316.74 397.23 297.06 371.21 419.27 62.59 430.45 104.18 430.45 104.18"/>
        <path d="M419.27,62.59l-122.2,308.62-73.29-24.77,109.9-262.73-43.2-10.03-25.82,59.76c-21.74-47.59-82.2-52.07-123.61-28.71-25.22,14.22-41.47,35.59-53.74,61.24-12.92,27.01-26.31,52.67-21.38,83.59,4.65,29.18,24.37,51.73,52.14,61.15L0,270.81,132.25,0l216.68,47.25-15.26,36.48,40.55,9.41,15.04-37.1,30.01,6.54Z"/>
        <path class="d" d="M316.74,397.23l113.71-293.05-28.42-6.58-14.05,35.4-38.45-9.41,14.25-34.84-206.55-47.8L34.22,299.8l112.74,38.88c-23.06-7.99-41.06-25.44-48.03-49.12-7.55-25.62-1.2-49.83,9.71-73.26,12.72-27.32,24.33-51.98,50.06-69.45,20.7-14.05,46.46-21.01,71.32-16.74s44.03,17.98,54.42,40.47l24.07-57.04,41.03,10.04-102.14,249.74,69.35,23.92h0Z"/>
      </g>
      <g>
        <path class="d" d="M219.44,238.13c13.31-30.8,37.53-69.24,4.42-97.43-17.21-14.66-43.2-14.01-62.52-4.13-10.74,5.49-19.93,13.93-26.42,24.1-7.22,11.31-11.99,24.46-17.63,36.59-3.91,8.4-7.32,16.52-8.2,25.86-1.99,21.13,9.61,39.75,29.33,47.51,29.65,11.66,68.11-2.75,81.02-32.49h0Z"/>
        <path class="d" d="M258.81,231.3c-14.2,33.65-24.94,71.17-68.53,73.48-20.81,1.1-42.7-9.49-50.22-29.74-3.8-10.25-3.46-21.68-.28-32.06,5.78-18.86,15.37-42.23,28.97-57.02,13.95-15.15,35.37-23.03,55.72-18.81,28.3,5.87,45.73,37,34.33,64.15h0Z"/>
        <path d="M237.12,197.19c-15.31,35.44-26.9,74.55-72.62,77.58-21.72,1.44-44.95-9.2-52.84-30.45-3.96-10.66-3.49-22.49-.19-33.27,6.13-20.01,16.78-44.81,31.28-60.4s37.29-24.4,58.8-20.18c29.79,5.85,47.78,38.37,35.58,66.71h0Z"/>
        <path class="d" d="M242.39,270.23c12.6-29.87,34.94-66.3,3.14-93.3-16.4-13.92-41.06-13.65-59.5-4.16-10.2,5.25-18.92,13.41-24.92,23.19-10.13,16.52-22.01,39.29-23.6,59.07s9.53,38.03,28.36,45.58c28.02,11.23,64.46-2.01,76.53-30.38h0Z"/>
      </g>
      <g>
        <path class="d" d="M214.39,332.48l2.15-.98-24.98-28.84c-22.46,10.56-49.34,16.21-73.48,8.07l28.89,27.96c22.08,7.6,46.58,3.05,67.42-6.2h0Z"/>
        <polygon class="f" points="210.39 360.55 146.96 338.68 118.08 310.72 184.78 333.26 210.39 360.55 210.39 360.55"/>
        <polygon class="d" points="216.54 331.49 210.39 360.55 184.78 333.26 191.56 302.65 216.54 331.49 216.54 331.49"/>
        <path d="M191.56,302.65l-6.78,30.61-66.71-22.54c24.15,8.15,51.02,2.48,73.48-8.07h0Z"/>
        <path class="d" d="M210.39,360.55l6.14-29.06c-21.33,9.95-46.75,15.04-69.57,7.19l63.43,21.87h0Z"/>
      </g>
      <g>
        <polygon class="d" points="349.52 123.59 363.77 88.75 348.93 47.25 333.67 83.73 349.52 123.59 349.52 123.59"/>
        <polygon class="d" points="363.77 88.75 402.03 97.6 389.26 56.05 348.93 47.25 363.77 88.75 363.77 88.75"/>
        <polygon class="d" points="387.98 133.01 349.52 123.59 333.67 83.73 374.22 93.15 387.98 133.01 387.98 133.01"/>
        <polygon class="d" points="402.03 97.6 387.98 133.01 374.22 93.15 389.26 56.05 402.03 97.6 402.03 97.6"/>
        <path class="e" d="M389.26,56.05l-15.04,37.1-40.55-9.41,15.26-36.48c13.44,2.93,26.89,5.86,40.33,8.8Z"/>
        <path class="d" d="M387.98,133.01l14.05-35.4-38.25-8.85-14.25,34.84c12.82,3.14,25.63,6.28,38.45,9.41Z"/>
      </g>
    </g>
  </g>
</svg>