<svg width="3648" height="797" viewBox="0 0 3648 797" fill="none" xmlns="http://www.w3.org/2000/svg">
<g clip-path="url(#clip0_890_148)">
<path d="M2883.5 12.6602H2805.04V91.118H2883.5V12.6602Z" fill="white"/>
<path d="M1100.19 519.293H1021.73V597.751H1100.19V519.293Z" fill="white"/>
<path d="M305.361 86.4355V213.751C289.893 197.569 271.794 184.686 251.11 174.968C230.604 165.205 207.824 160.346 182.771 160.346C153.751 160.346 127.984 165.919 105.205 177.063C82.247 188.163 63.1229 202.607 47.4759 220.349C32.0072 238.269 20.194 257.928 11.9916 279.638C4.01205 301.392 0 323.146 0 344.856V421.575C0 443.285 4.01205 465.039 11.9916 486.793C20.194 508.324 32.0072 528.162 47.4759 545.904C63.1229 563.824 82.247 578.223 105.205 589.368C127.984 600.512 153.751 606.085 182.771 606.085C205.551 606.085 227.483 601.003 248.658 591.106C269.877 581.032 288.689 567.97 305.361 551.788L313.876 597.704H391.442V86.4355H305.361ZM305.361 426.612C305.361 438.247 302.776 450.061 297.56 462.052C292.166 474.088 284.677 484.876 274.959 494.594C265.196 504.312 253.561 512.158 239.965 518.087C226.235 523.793 211.479 526.78 195.298 526.78C176.842 526.78 160.838 523.615 147.287 517.196C133.557 510.776 122.234 502.44 113.051 492.143C103.823 481.89 97.047 470.433 92.6783 457.906C88.1759 445.38 85.9024 433.21 85.9024 421.575V344.856C85.9024 333.043 88.1759 321.051 92.6783 308.525C97.047 295.998 103.823 284.541 113.051 274.244C122.234 263.991 133.557 255.476 147.287 248.879C160.838 242.103 176.842 238.804 195.298 238.804C211.479 238.804 226.235 242.103 239.965 248.879C253.561 255.476 265.196 263.991 274.959 274.244C284.677 284.541 292.166 295.998 297.56 308.525C302.776 321.051 305.361 333.043 305.361 344.856V426.612Z" fill="white"/>
<path d="M846.368 406.598V394.963C846.368 376.508 846.056 359.301 845.521 343.119C844.986 326.937 843.069 311.468 839.77 296.891C836.293 282.091 830.721 267.826 823.098 254.274C815.252 240.544 804.108 226.769 789.709 212.861C772.323 196.724 752.308 184.019 729.528 174.434C706.749 165.073 682.721 160.348 657.712 160.348H643.626C614.561 160.348 588.482 165.92 564.99 177.065C541.72 188.165 521.882 202.608 505.879 220.35C489.697 238.271 477.17 257.93 468.344 279.639C459.294 301.393 454.926 323.148 454.926 344.857V421.576C454.926 443.286 459.116 465.04 467.452 486.794C475.788 508.326 487.78 527.985 503.293 545.549C518.94 563.112 538.064 577.199 560.844 588.166C583.802 598.953 609.523 604.347 638.588 604.347H662.75C687.803 604.347 711.073 600.335 732.827 592.311C754.581 584.153 773.705 573.366 790.021 559.814C806.381 546.084 819.264 530.437 828.492 512.516C837.675 494.774 842.222 476.319 842.222 457.551H756.988C756.988 469.186 754.046 479.305 747.939 487.998C741.698 496.513 733.852 503.823 724.134 509.708C714.371 515.458 703.093 519.827 690.21 522.591C677.505 525.399 664.488 526.781 651.07 526.781C632.659 526.781 616.656 523.616 603.104 517.197C589.374 510.778 578.051 502.441 568.823 492.144C559.64 481.891 552.641 470.434 547.961 457.908C543.28 445.381 540.828 433.211 540.828 421.576V406.598H846.368ZM552.151 301.037C558.035 289.58 565.881 279.283 575.956 270.099C585.897 260.872 597.71 253.383 611.44 247.498C624.992 241.748 640.149 238.805 656.821 238.805C670.729 238.805 684.147 241.034 696.986 245.403C709.691 249.905 721.014 256.369 730.732 264.705C740.494 273.042 748.296 283.116 754.224 295.152C759.975 307.144 762.917 320.339 762.917 334.782H541.72C542.745 323.638 546.222 312.36 552.151 301.037Z" fill="white"/>
<path d="M1065.74 519.292L1063.6 514.076L937.351 168.684H850.557L1014.2 597.705H1097.88L1065.74 519.292Z" fill="white"/>
<path d="M1674.31 406.598V394.963C1674.31 376.508 1674.13 359.301 1673.64 343.119C1672.93 326.937 1671.01 311.468 1667.72 296.891C1664.42 282.091 1658.84 267.826 1651 254.274C1643.2 240.544 1632.05 226.769 1617.61 212.861C1600.4 196.724 1580.43 184.019 1557.47 174.434C1534.69 165.073 1510.84 160.348 1485.79 160.348H1471.57C1442.68 160.348 1416.43 165.92 1393.11 177.065C1369.67 188.165 1350.01 202.608 1333.82 220.35C1317.64 238.271 1305.12 257.93 1296.24 279.639C1287.37 301.393 1282.87 323.148 1282.87 344.857V421.576C1282.87 443.286 1287.06 465.04 1295.4 486.794C1303.73 508.326 1315.73 527.985 1331.37 545.549C1346.89 563.112 1366.19 577.199 1388.97 588.166C1411.75 598.953 1437.65 604.347 1466.49 604.347H1490.7C1515.7 604.347 1539.2 600.335 1560.95 592.311C1582.66 584.153 1601.65 573.366 1618.14 559.814C1634.5 546.084 1647.21 530.437 1656.39 512.516C1665.62 494.774 1670.3 476.319 1670.3 457.551H1585.11C1585.11 469.186 1581.99 479.305 1575.88 487.998C1569.82 496.513 1561.8 503.823 1552.08 509.708C1542.32 515.458 1531.04 519.827 1518.33 522.591C1505.45 525.399 1492.43 526.781 1479.02 526.781C1460.78 526.781 1444.78 523.616 1431.05 517.197C1417.45 510.778 1406 502.441 1396.77 492.144C1387.72 481.891 1380.77 470.434 1375.91 457.908C1371.23 445.381 1368.95 433.211 1368.95 421.576V406.598H1674.31ZM1380.1 301.037C1385.98 289.58 1394 279.283 1403.9 270.099C1413.98 260.872 1425.83 253.383 1439.39 247.498C1453.12 241.748 1468.23 238.805 1484.94 238.805C1498.85 238.805 1512.23 241.034 1524.93 245.403C1537.81 249.905 1549.09 256.369 1558.86 264.705C1568.57 273.042 1576.24 283.116 1582.17 295.152C1588.05 307.144 1590.86 320.339 1590.86 334.782H1369.67C1370.87 323.638 1374.35 312.36 1380.1 301.037Z" fill="white"/>
<path d="M1738.68 0V597.706H1824.59V0H1738.68Z" fill="white"/>
<path d="M2282.98 279.639C2273.93 257.93 2261.41 238.271 2245.4 220.35C2229.22 202.608 2209.43 188.165 2186.11 177.065C2162.62 165.92 2136.54 160.348 2107.7 160.348H2076.72C2047.88 160.348 2021.62 165.92 1998.31 177.065C1974.81 188.165 1955.15 202.608 1939.02 220.35C1922.84 238.271 1910.31 257.93 1901.44 279.639C1892.57 301.393 1888.06 323.148 1888.06 344.857V421.576C1888.06 443.286 1892.21 465.04 1900.55 486.794C1908.93 508.326 1920.92 527.985 1936.57 545.549C1952.03 563.112 1971.16 577.199 1994.12 588.166C2016.9 598.953 2042.8 604.347 2071.68 604.347H2112.56C2141.58 604.347 2167.48 598.953 2190.31 588.166C2213.08 577.199 2232.21 563.112 2247.86 545.549C2263.5 527.985 2275.32 508.326 2283.65 486.794C2292.03 465.04 2296.18 443.286 2296.18 421.576V344.857C2296.18 323.148 2291.85 301.393 2282.98 279.639ZM2210.28 421.576C2210.28 438.784 2206.98 454.074 2200.2 467.135C2193.6 480.152 2184.73 491.119 2173.59 499.99C2162.44 509.039 2149.78 515.637 2135.52 520.139C2121.43 524.508 2106.81 526.781 2091.7 526.781C2076.59 526.781 2062.28 524.508 2048.37 520.139C2034.46 515.637 2021.93 509.039 2010.83 499.99C1999.69 491.119 1990.82 480.152 1984.04 467.135C1977.44 454.074 1974.15 438.784 1974.15 421.576V344.857C1974.15 328.185 1977.27 313.207 1983.68 300.19C1989.97 287.128 1998.48 275.984 2009.09 266.801C2019.7 257.573 2032.23 250.619 2046.63 245.938C2061.07 241.213 2076.18 238.805 2091.7 238.805C2107.21 238.805 2121.43 241.034 2135.52 245.403C2149.78 249.905 2162.44 256.503 2173.59 265.062C2184.73 273.755 2193.6 284.677 2200.2 298.095C2206.98 311.468 2210.28 326.937 2210.28 344.857V421.576Z" fill="white"/>
<path d="M2650.94 452.515C2650.94 464.15 2648.18 474.76 2642.6 484.166C2637.03 493.75 2629.72 501.373 2620.54 507.658C2611.31 513.721 2600.7 518.402 2588.89 521.745C2576.9 525.044 2564.55 526.783 2551.66 526.783C2537.76 526.783 2524.03 524.687 2510.25 520.497C2496.7 516.351 2484.53 509.887 2473.56 501.373C2462.78 492.68 2454.08 481.714 2447.31 468.34C2440.71 454.967 2437.41 439.142 2437.41 420.686V344.859C2437.41 326.448 2440.71 310.622 2447.31 297.204C2454.08 283.831 2462.78 273.043 2473.56 264.707C2484.53 256.371 2496.7 250.085 2510.25 245.939C2524.03 241.749 2537.76 239.654 2551.66 239.654C2564.55 239.654 2576.72 241.214 2588.35 244.691C2599.99 247.99 2610.6 252.715 2619.65 258.778C2628.87 264.885 2636.36 272.508 2641.94 281.736C2647.29 290.963 2650.09 301.395 2650.09 313.03H2736.17C2736.17 286.461 2731.32 263.325 2721.55 243.844C2711.83 224.363 2698.59 208.36 2681.92 195.833C2665.21 183.307 2645.9 174.079 2623.84 168.195C2601.9 162.444 2578.63 159.502 2554.25 159.502C2529.87 159.502 2504.55 163.157 2480.34 170.29C2456.18 177.556 2434.47 188.701 2415.17 203.679C2396 218.791 2380.53 237.915 2368.89 261.408C2357.26 284.678 2351.33 312.539 2351.33 344.859V420.686C2351.33 452.515 2357.26 479.975 2369.25 503.468C2381.24 526.783 2396.89 545.907 2416.01 561.019C2435.32 575.997 2456.89 587.097 2481.23 594.408C2505.39 601.54 2529.91 605.196 2554.96 605.196C2580.02 605.196 2602.8 602.254 2624.68 596.503C2646.62 590.574 2666.1 581.391 2682.77 568.864C2699.49 556.338 2712.68 540.513 2722.44 521.389C2732.16 502.086 2737.02 479.128 2737.02 452.515H2650.94Z" fill="white"/>
<path d="M2801.21 168.684V597.705H2887.3V168.684H2801.21Z" fill="white"/>
<path d="M3171.08 521.745C3148.12 521.745 3131.45 517.198 3121.02 507.97C3110.41 498.787 3105.02 480.51 3105.02 453.362V241.213H3211.11V168.685H3105.02V65.9316H3049.2C3049.2 90.4497 3045.9 110.777 3039.08 126.959C3032.49 143.141 3023.61 155.668 3012.83 164.895C3002.08 174.079 2989.56 180.542 2975.65 184.198C2961.74 187.675 2947.79 189.592 2933.88 189.592V241.213H3019.11V454.966C3019.11 506.231 3029.37 544.168 3050.05 568.864C3070.6 593.739 3105.01 606.087 3153.52 606.087H3165.2C3170.23 606.087 3175.45 605.909 3181.02 605.73C3186.59 605.374 3191.99 605.017 3196.85 604.839C3201.88 604.527 3205.54 604.17 3207.77 603.635L3217.71 521.745H3171.08Z" fill="white"/>
<path d="M3647.57 168.684V639.653H3561.54V619.37C3561.63 617.721 3561.67 616.116 3561.67 614.422V530.927C3546.02 547.644 3527.92 560.839 3507.42 570.602C3486.91 580.32 3463.95 585.179 3438.9 585.179C3410.02 585.179 3384.12 579.651 3361.34 568.506C3338.56 557.362 3319.25 542.963 3303.79 525.042C3288.14 507.3 3276.28 487.463 3268.3 465.887C3260.14 444.177 3256.13 422.423 3256.13 400.669V285.512L3342.21 285.512V400.669C3342.21 412.349 3344.31 424.518 3348.81 437.045C3353.36 449.571 3360.13 461.028 3369.36 471.281C3378.36 481.534 3389.87 490.093 3403.42 496.691C3417.15 503.467 3433.15 506.765 3451.43 506.765C3467.61 506.765 3482.54 503.467 3496.1 496.691C3509.87 490.093 3521.51 481.534 3531.22 471.281C3540.99 461.028 3548.48 449.571 3553.69 437.045C3559.08 424.518 3561.67 412.349 3561.67 400.669V168.684H3647.57Z" fill="white"/>
<rect x="3199.5" y="168.762" width="143" height="72.5" fill="white"/>
<path d="M1178.6 246.143H1100.14V518.249H1178.6V246.143Z" fill="url(#paint0_linear_890_148)"/>
<path d="M1257.06 167.682H1178.6V246.139H1257.06V167.682Z" fill="url(#paint1_linear_890_148)"/>
<path d="M469.899 7.02148H391.441V85.4793H469.899V7.02148Z" fill="url(#paint2_linear_890_148)"/>
<path d="M3561.53 638.654H3408.09V717.068H3561.53V638.654Z" fill="url(#paint3_linear_890_148)"/>
<path d="M3408.09 717.066H3329.68V795.524H3408.09V717.066Z" fill="url(#paint4_linear_890_148)"/>
</g>
<defs>
<linearGradient id="paint0_linear_890_148" x1="3815" y1="795.525" x2="1099.24" y2="2236.18" gradientUnits="userSpaceOnUse">
<stop stop-color="#8A5CFF"/>
<stop offset="1" stop-color="#4DC9C0"/>
</linearGradient>
<linearGradient id="paint1_linear_890_148" x1="3815" y1="795.525" x2="1099.24" y2="2236.18" gradientUnits="userSpaceOnUse">
<stop stop-color="#8A5CFF"/>
<stop offset="1" stop-color="#4DC9C0"/>
</linearGradient>
<linearGradient id="paint2_linear_890_148" x1="3815" y1="795.525" x2="1099.24" y2="2236.18" gradientUnits="userSpaceOnUse">
<stop stop-color="#8A5CFF"/>
<stop offset="1" stop-color="#4DC9C0"/>
</linearGradient>
<linearGradient id="paint3_linear_890_148" x1="3815" y1="795.525" x2="1099.24" y2="2236.18" gradientUnits="userSpaceOnUse">
<stop stop-color="#8A5CFF"/>
<stop offset="1" stop-color="#4DC9C0"/>
</linearGradient>
<linearGradient id="paint4_linear_890_148" x1="3815" y1="795.525" x2="1099.24" y2="2236.18" gradientUnits="userSpaceOnUse">
<stop stop-color="#8A5CFF"/>
<stop offset="1" stop-color="#4DC9C0"/>
</linearGradient>
<clipPath id="clip0_890_148">
<rect width="3647.57" height="796.525" fill="white"/>
</clipPath>
</defs>
</svg>
