<svg width="2504" height="529" viewBox="0 0 2504 529" fill="none" xmlns="http://www.w3.org/2000/svg">
<g clip-path="url(#clip0_974_25127)">
<path d="M1114.73 219.311H1070.6V372.37H1114.73V219.311Z" fill="#0B0D0F"/>
<path d="M1158.87 175.178H1114.74V219.31H1158.87V175.178Z" fill="#0B0D0F"/>
<path d="M716.09 84.8047H671.957V128.937H716.09V84.8047Z" fill="#0B0D0F"/>
<path d="M2073.74 87.4141H2029.61V131.547H2073.74V87.4141Z" fill="#0B0D0F"/>
<path d="M1070.62 372.395H1026.49V416.527H1070.62V372.395Z" fill="#0B0D0F"/>
<path d="M623.535 128.912V200.527C614.834 191.425 604.654 184.178 593.019 178.712C581.484 173.22 568.671 170.487 554.578 170.487C538.254 170.487 523.761 173.621 510.947 179.89C498.033 186.134 487.276 194.258 478.475 204.238C469.774 214.319 463.129 225.377 458.515 237.588C454.026 249.825 451.77 262.062 451.77 274.274V317.428C451.77 329.64 454.026 341.877 458.515 354.113C463.129 366.225 469.774 377.383 478.475 387.363C487.276 397.443 498.033 405.543 510.947 411.812C523.761 418.08 538.254 421.215 554.578 421.215C567.392 421.215 579.729 418.356 591.639 412.789C603.575 407.122 614.157 399.775 623.535 390.673L628.325 416.501H671.956V128.912H623.535ZM623.535 320.262C623.535 326.806 622.081 333.451 619.147 340.197C616.113 346.967 611.9 353.035 606.434 358.501C600.942 363.968 594.398 368.381 586.75 371.716C579.027 374.926 570.727 376.606 561.624 376.606C551.243 376.606 542.241 374.825 534.618 371.215C526.895 367.604 520.526 362.915 515.36 357.122C510.17 351.355 506.358 344.911 503.901 337.865C501.368 330.818 500.09 323.973 500.09 317.428V274.274C500.09 267.629 501.368 260.883 503.901 253.837C506.358 246.791 510.17 240.347 515.36 234.554C520.526 228.787 526.895 223.998 534.618 220.286C542.241 216.475 551.243 214.619 561.624 214.619C570.727 214.619 579.027 216.475 586.75 220.286C594.398 223.998 600.942 228.787 606.434 234.554C611.9 240.347 616.113 246.791 619.147 253.837C622.081 260.883 623.535 267.629 623.535 274.274V320.262Z" fill="#0B0D0F"/>
<path d="M927.85 309.004V302.46C927.85 292.078 927.675 282.399 927.374 273.297C927.073 264.195 925.995 255.494 924.139 247.294C922.183 238.969 919.049 230.945 914.761 223.322C910.348 215.599 904.079 207.85 895.979 200.027C886.2 190.95 874.941 183.803 862.128 178.412C849.314 173.146 835.799 170.488 821.732 170.488H813.808C797.459 170.488 782.79 173.623 769.575 179.892C756.486 186.135 745.327 194.26 736.325 204.24C727.223 214.32 720.177 225.378 715.212 237.59C710.121 249.826 707.664 262.063 707.664 274.275V317.429C707.664 329.641 710.021 341.878 714.71 354.115C719.399 366.226 726.145 377.284 734.871 387.164C743.672 397.044 754.429 404.967 767.243 411.136C780.157 417.204 794.625 420.238 810.974 420.238H824.565C838.657 420.238 851.747 417.981 863.983 413.468C876.22 408.879 886.977 402.811 896.155 395.188C905.358 387.465 912.604 378.663 917.795 368.583C922.961 358.603 925.518 348.222 925.518 337.665H877.574C877.574 344.21 875.919 349.902 872.484 354.792C868.973 359.581 864.56 363.693 859.094 367.003C853.602 370.238 847.258 372.695 840.011 374.25C832.865 375.83 825.543 376.607 817.995 376.607C807.639 376.607 798.637 374.827 791.014 371.216C783.291 367.605 776.922 362.916 771.731 357.124C766.566 351.356 762.629 344.912 759.996 337.866C757.363 330.82 755.984 323.974 755.984 317.429V309.004H927.85ZM762.353 249.626C765.663 243.182 770.076 237.389 775.743 232.224C781.335 227.033 787.98 222.82 795.703 219.51C803.326 216.276 811.852 214.621 821.23 214.621C829.054 214.621 836.601 215.875 843.823 218.332C850.969 220.865 857.338 224.5 862.805 229.19C868.296 233.879 872.685 239.546 876.02 246.316C879.254 253.061 880.909 260.483 880.909 268.608H756.486C757.062 262.339 759.018 255.995 762.353 249.626Z" fill="#0B0D0F"/>
<path d="M1051.25 372.395L1050.04 369.461L979.029 175.178H930.207L1022.26 416.502H1069.32L1051.25 372.395Z" fill="#0B0D0F"/>
<path d="M1393.57 309.004V302.46C1393.57 292.078 1393.47 282.399 1393.19 273.297C1392.79 264.195 1391.71 255.494 1389.86 247.294C1388 238.969 1384.87 230.945 1380.45 223.322C1376.07 215.599 1369.8 207.85 1361.67 200.027C1351.99 190.95 1340.76 183.803 1327.85 178.412C1315.03 173.146 1301.62 170.488 1287.53 170.488H1279.53C1263.28 170.488 1248.51 173.623 1235.39 179.892C1222.2 186.135 1211.15 194.26 1202.04 204.24C1192.94 214.32 1185.9 225.378 1180.91 237.59C1175.92 249.826 1173.38 262.063 1173.38 274.275V317.429C1173.38 329.641 1175.74 341.878 1180.43 354.115C1185.12 366.226 1191.86 377.284 1200.66 387.164C1209.39 397.044 1220.25 404.967 1233.06 411.136C1245.88 417.204 1260.44 420.238 1276.67 420.238H1290.28C1304.35 420.238 1317.57 417.981 1329.8 413.468C1342.01 408.879 1352.7 402.811 1361.97 395.188C1371.18 387.465 1378.32 378.663 1383.49 368.583C1388.68 358.603 1391.31 348.222 1391.31 337.665H1343.39C1343.39 344.21 1341.64 349.902 1338.2 354.792C1334.79 359.581 1330.28 363.693 1324.81 367.003C1319.32 370.238 1312.98 372.695 1305.83 374.25C1298.58 375.83 1291.26 376.607 1283.71 376.607C1273.46 376.607 1264.46 374.827 1256.73 371.216C1249.09 367.605 1242.64 362.916 1237.45 357.124C1232.36 351.356 1228.45 344.912 1225.71 337.866C1223.08 330.82 1221.8 323.974 1221.8 317.429V309.004H1393.57ZM1228.07 249.626C1231.38 243.182 1235.9 237.389 1241.46 232.224C1247.13 227.033 1253.8 222.82 1261.42 219.51C1269.15 216.276 1277.65 214.621 1287.05 214.621C1294.87 214.621 1302.4 215.875 1309.54 218.332C1316.79 220.865 1323.13 224.5 1328.62 229.19C1334.09 233.879 1338.4 239.546 1341.74 246.316C1345.05 253.061 1346.63 260.483 1346.63 268.608H1222.2C1222.88 262.339 1224.84 255.995 1228.07 249.626Z" fill="#0B0D0F"/>
<path d="M1429.78 80.293V416.502H1478.1V80.293H1429.78Z" fill="#0B0D0F"/>
<path d="M1735.95 237.59C1730.86 225.378 1723.81 214.32 1714.81 204.24C1705.71 194.26 1694.57 186.135 1681.46 179.892C1668.25 173.623 1653.58 170.488 1637.35 170.488H1619.93C1603.7 170.488 1588.93 173.623 1575.82 179.892C1562.6 186.135 1551.54 194.26 1542.47 204.24C1533.37 214.32 1526.32 225.378 1521.33 237.59C1516.34 249.826 1513.81 262.063 1513.81 274.275V317.429C1513.81 329.641 1516.14 341.878 1520.83 354.115C1525.54 366.226 1532.29 377.284 1541.09 387.164C1549.79 397.044 1560.55 404.967 1573.46 411.136C1586.27 417.204 1600.84 420.238 1617.09 420.238H1640.09C1656.41 420.238 1670.98 417.204 1683.82 411.136C1696.63 404.967 1707.39 397.044 1716.19 387.164C1724.99 377.284 1731.64 366.226 1736.32 354.115C1741.04 341.878 1743.37 329.641 1743.37 317.429V274.275C1743.37 262.063 1740.94 249.826 1735.95 237.59ZM1695.05 317.429C1695.05 327.109 1693.2 335.709 1689.38 343.056C1685.67 350.378 1680.68 356.547 1674.41 361.537C1668.15 366.627 1661.02 370.338 1653 372.871C1645.08 375.328 1636.85 376.607 1628.35 376.607C1619.85 376.607 1611.8 375.328 1603.98 372.871C1596.15 370.338 1589.11 366.627 1582.86 361.537C1576.6 356.547 1571.61 350.378 1567.79 343.056C1564.08 335.709 1562.23 327.109 1562.23 317.429V274.275C1562.23 264.897 1563.98 256.471 1567.59 249.149C1571.13 241.802 1575.92 235.534 1581.89 230.368C1587.85 225.177 1594.9 221.266 1603 218.633C1611.12 215.975 1619.62 214.621 1628.35 214.621C1637.08 214.621 1645.08 215.875 1653 218.332C1661.02 220.865 1668.15 224.576 1674.41 229.39C1680.68 234.28 1685.67 240.423 1689.38 247.971C1693.2 255.494 1695.05 264.195 1695.05 274.275V317.429Z" fill="#0B0D0F"/>
<path d="M1942.92 334.832C1942.92 341.376 1941.37 347.344 1938.23 352.635C1935.1 358.026 1930.99 362.314 1925.82 365.85C1920.63 369.26 1914.66 371.893 1908.02 373.774C1901.27 375.629 1894.33 376.607 1887.08 376.607C1879.26 376.607 1871.53 375.429 1863.79 373.071C1856.16 370.739 1849.32 367.104 1843.15 362.314C1837.08 357.424 1832.19 351.256 1828.38 343.733C1824.67 336.211 1822.81 327.309 1822.81 316.928V274.275C1822.81 263.919 1824.67 255.017 1828.38 247.469C1832.19 239.947 1837.08 233.878 1843.15 229.189C1849.32 224.5 1856.16 220.965 1863.79 218.633C1871.53 216.276 1879.26 215.097 1887.08 215.097C1894.33 215.097 1901.17 215.975 1907.72 217.931C1914.26 219.786 1920.23 222.444 1925.32 225.854C1930.51 229.29 1934.72 233.578 1937.86 238.768C1940.87 243.959 1942.45 249.826 1942.45 256.371H1990.87C1990.87 241.426 1988.13 228.412 1982.64 217.454C1977.18 206.496 1969.73 197.494 1960.35 190.448C1950.95 183.402 1940.09 178.211 1927.68 174.901C1915.34 171.667 1902.25 170.012 1888.54 170.012C1874.82 170.012 1860.58 172.068 1846.96 176.08C1833.37 180.167 1821.16 186.436 1810.3 194.861C1799.52 203.362 1790.82 214.119 1784.27 227.334C1777.73 240.423 1774.39 256.095 1774.39 274.275V316.928C1774.39 334.832 1777.73 350.278 1784.47 363.493C1791.22 376.607 1800.02 387.364 1810.78 395.865C1821.63 404.29 1833.77 410.534 1847.46 414.646C1861.05 418.658 1874.84 420.714 1888.94 420.714C1903.03 420.714 1915.84 419.059 1928.15 415.825C1940.49 412.49 1951.45 407.324 1960.83 400.278C1970.23 393.232 1977.65 384.33 1983.14 373.573C1988.61 362.715 1991.34 349.802 1991.34 334.832H1942.92Z" fill="#0B0D0F"/>
<path d="M2027.45 175.178V416.502H2075.87V175.178H2027.45Z" fill="#0B0D0F"/>
<path d="M2235.5 373.774C2222.59 373.774 2213.21 371.216 2207.34 366.025C2201.37 360.86 2198.34 350.579 2198.34 335.308V215.975H2258.02V175.177H2198.34V117.379H2166.95C2166.95 131.17 2165.09 142.605 2161.25 151.707C2157.54 160.809 2152.55 167.855 2146.48 173.046C2140.44 178.212 2133.4 181.847 2125.57 183.904C2117.75 185.86 2109.9 186.938 2102.08 186.938V215.975H2150.02V336.211C2150.02 365.048 2155.79 386.387 2167.42 400.278C2178.98 414.27 2198.34 421.216 2225.62 421.216H2232.19C2235.03 421.216 2237.96 421.116 2241.09 421.016C2244.23 420.815 2247.26 420.614 2250 420.514C2252.83 420.339 2254.88 420.138 2256.14 419.837L2261.73 373.774H2235.5Z" fill="#0B0D0F"/>
<path d="M2503.53 175.178V440.098H2455.13V428.689C2455.18 427.761 2455.21 426.858 2455.21 425.906V378.94C2446.41 388.343 2436.23 395.765 2424.69 401.257C2413.16 406.723 2400.24 409.456 2386.15 409.456C2369.9 409.456 2355.34 406.347 2342.52 400.078C2329.71 393.809 2318.85 385.71 2310.15 375.63C2301.35 365.65 2294.68 354.491 2290.19 342.355C2285.6 330.143 2283.34 317.906 2283.34 305.67V175.178H2331.76V305.67C2331.76 312.239 2332.94 319.085 2335.48 326.131C2338.03 333.177 2341.84 339.621 2347.04 345.389C2352.1 351.156 2358.57 355.971 2366.19 359.682C2373.92 363.493 2382.92 365.349 2393.2 365.349C2402.3 365.349 2410.7 363.493 2418.32 359.682C2426.07 355.971 2432.62 351.156 2438.08 345.389C2443.57 339.621 2447.79 333.177 2450.72 326.131C2453.76 319.085 2455.21 312.239 2455.21 305.67V175.178H2503.53Z" fill="#0B0D0F"/>
<path d="M2455.13 440.1H2368.82V484.207H2455.13V440.1Z" fill="#0B0D0F"/>
<path d="M2368.82 484.205H2324.72V528.338H2368.82V484.205Z" fill="#0B0D0F"/>
</g>
<g clip-path="url(#clip1_974_25127)">
<path d="M65 239.795C245 181.795 326.834 211.989 245 413.795C378.489 197.489 485 -36.2051 65 239.795Z" fill="#0B0D0F"/>
</g>
<g clip-path="url(#clip2_974_25127)">
<path d="M76.5554 297.165L36.3457 321.949C132.178 297.165 200.178 297.119 161.802 447.406L186.587 407.196C265.445 279.415 204.291 218.261 76.5098 297.119L76.5554 297.165Z" fill="#0B0D0F"/>
</g>
<defs>
<clipPath id="clip0_974_25127">
<rect width="2051.76" height="448.045" fill="white" transform="translate(451.77 80.293)"/>
</clipPath>
<clipPath id="clip1_974_25127">
<rect width="329.222" height="373.352" fill="white" transform="translate(0 232.795) rotate(-45)"/>
</clipPath>
<clipPath id="clip2_974_25127">
<rect width="155.507" height="177.422" fill="white" transform="translate(36.3457 321.949) rotate(-45)"/>
</clipPath>
</defs>
</svg>
