<svg width="1960" height="428" viewBox="0 0 1960 428" fill="none" xmlns="http://www.w3.org/2000/svg">
<g clip-path="url(#clip0_809_1749)">
<path d="M633.315 132.801H591.156V279.015H633.315V132.801Z" fill="white"/>
<path d="M675.473 90.6406H633.314V132.799H675.473V90.6406Z" fill="white"/>
<path d="M252.499 4.31055H210.34V46.4693H252.499V4.31055Z" fill="white"/>
<path d="M1549.43 6.80273H1507.27V48.9615H1549.43V6.80273Z" fill="white"/>
<path d="M591.178 279.039H549.02V321.198H591.178V279.039Z" fill="white"/>
<path d="M164.084 46.4473V114.859C155.772 106.164 146.047 99.2416 134.932 94.0196C123.913 88.7737 111.673 86.1628 98.2108 86.1628C82.6168 86.1628 68.7715 89.157 56.5311 95.1455C44.1949 101.11 33.9187 108.871 25.5109 118.405C17.1989 128.034 10.8511 138.598 6.44359 150.263C2.15585 161.953 0 173.642 0 185.308V226.532C0 238.198 2.15585 249.887 6.44359 261.577C10.8511 273.147 17.1989 283.806 25.5109 293.34C33.9187 302.969 44.1949 310.706 56.5311 316.695C68.7715 322.683 82.6168 325.677 98.2108 325.677C110.451 325.677 122.237 322.947 133.615 317.629C145.017 312.215 155.125 305.197 164.084 296.502L168.659 321.174H210.339V46.4473H164.084ZM164.084 229.239C164.084 235.491 162.695 241.839 159.892 248.282C156.994 254.75 152.969 260.547 147.747 265.769C142.501 270.991 136.25 275.207 128.944 278.392C121.566 281.459 113.637 283.063 104.942 283.063C95.0249 283.063 86.4255 281.363 79.1435 277.913C71.7657 274.464 65.6815 269.985 60.747 264.451C55.7885 258.942 52.1475 252.786 49.8001 246.055C47.3807 239.324 46.1591 232.784 46.1591 226.532V185.308C46.1591 178.96 47.3807 172.516 49.8001 165.785C52.1475 159.054 55.7885 152.898 60.747 147.365C65.6815 141.855 71.7657 137.28 79.1435 133.735C86.4255 130.094 95.0249 128.322 104.942 128.322C113.637 128.322 121.566 130.094 128.944 133.735C136.25 137.28 142.501 141.855 147.747 147.365C152.969 152.898 156.994 159.054 159.892 165.785C162.695 172.516 164.084 178.96 164.084 185.308V229.239Z" fill="white"/>
<path d="M454.792 218.483V212.231C454.792 202.314 454.624 193.068 454.337 184.373C454.049 175.678 453.019 167.366 451.247 159.533C449.378 151.58 446.384 143.915 442.288 136.633C438.072 129.255 432.084 121.853 424.347 114.38C415.005 105.708 404.249 98.8816 392.009 93.7315C379.768 88.7012 366.857 86.1621 353.419 86.1621H345.85C330.232 86.1621 316.219 89.1563 303.595 95.1448C291.091 101.109 280.432 108.87 271.832 118.404C263.137 128.033 256.406 138.597 251.663 150.263C246.801 161.952 244.453 173.642 244.453 185.307V226.532C244.453 238.197 246.705 249.887 251.184 261.576C255.664 273.146 262.107 283.71 270.443 293.147C278.851 302.585 289.127 310.155 301.367 316.047C313.704 321.844 327.525 324.742 343.143 324.742H356.126C369.588 324.742 382.092 322.587 393.781 318.275C405.471 313.891 415.747 308.095 424.514 300.813C433.305 293.435 440.228 285.027 445.186 275.398C450.121 265.864 452.564 255.947 452.564 245.862H406.764C406.764 252.114 405.183 257.552 401.902 262.223C398.548 266.798 394.332 270.727 389.11 273.888C383.865 276.978 377.804 279.326 370.882 280.811C364.055 282.32 357.06 283.063 349.85 283.063C339.957 283.063 331.358 281.362 324.076 277.913C316.698 274.463 310.614 269.984 305.655 264.451C300.721 258.941 296.96 252.785 294.445 246.054C291.93 239.323 290.612 232.784 290.612 226.532V218.483H454.792ZM296.696 161.76C299.858 155.604 304.074 150.071 309.488 145.136C314.83 140.178 321.177 136.154 328.555 132.992C335.837 129.902 343.981 128.321 352.94 128.321C360.414 128.321 367.624 129.519 374.523 131.866C381.349 134.285 387.434 137.759 392.656 142.238C397.901 146.717 402.093 152.131 405.279 158.599C408.369 165.042 409.95 172.132 409.95 179.894H291.091C291.642 173.905 293.511 167.845 296.696 161.76Z" fill="white"/>
<path d="M572.666 279.038L571.516 276.235L503.679 90.6406H457.041L544.976 321.173H589.937L572.666 279.038Z" fill="white"/>
<path d="M899.681 218.483V212.231C899.681 202.314 899.585 193.068 899.321 184.373C898.938 175.678 897.908 167.366 896.135 159.533C894.363 151.58 891.369 143.915 887.153 136.633C882.961 129.255 876.972 121.853 869.211 114.38C859.965 105.708 849.234 98.8816 836.898 93.7315C824.657 88.7012 811.842 86.1621 798.38 86.1621H790.738C775.216 86.1621 761.108 89.1563 748.58 95.1448C735.98 101.109 725.416 108.87 716.721 118.404C708.026 128.033 701.295 138.597 696.528 150.263C691.761 161.952 689.342 173.642 689.342 185.307V226.532C689.342 238.197 691.593 249.887 696.073 261.576C700.552 273.146 706.996 283.71 715.404 293.147C723.74 302.585 734.112 310.155 746.352 316.047C758.592 321.844 772.51 324.742 788.008 324.742H801.015C814.453 324.742 827.076 322.587 838.766 318.275C850.431 313.891 860.636 308.095 869.499 300.813C878.29 293.435 885.117 285.027 890.051 275.398C895.01 265.864 897.525 255.947 897.525 245.862H851.749C851.749 252.114 850.072 257.552 846.79 262.223C843.533 266.798 839.221 270.727 833.999 273.888C828.753 276.978 822.693 279.326 815.866 280.811C808.943 282.32 801.949 283.063 794.739 283.063C784.942 283.063 776.342 281.362 768.964 277.913C761.658 274.463 755.502 269.984 750.544 264.451C745.681 258.941 741.944 252.785 739.333 246.054C736.818 239.323 735.597 232.784 735.597 226.532V218.483H899.681ZM741.585 161.76C744.747 155.604 749.059 150.071 754.376 145.136C759.79 140.178 766.162 136.154 773.444 132.992C780.822 129.902 788.942 128.321 797.925 128.321C805.398 128.321 812.584 129.519 819.411 131.866C826.334 134.285 832.394 137.759 837.64 142.238C842.862 146.717 846.982 152.131 850.168 158.599C853.33 165.042 854.839 172.132 854.839 179.894H735.98C736.627 173.905 738.495 167.845 741.585 161.76Z" fill="white"/>
<path d="M934.27 0V321.173H980.429V0H934.27Z" fill="white"/>
<path d="M1226.75 150.263C1221.89 138.597 1215.15 128.033 1206.56 118.404C1197.86 108.87 1187.22 101.109 1174.7 95.1448C1162.07 89.1563 1148.06 86.1621 1132.56 86.1621H1115.91C1100.42 86.1621 1086.31 89.1563 1073.78 95.1448C1061.16 101.109 1050.59 108.87 1041.92 118.404C1033.23 128.033 1026.49 138.597 1021.73 150.263C1016.96 161.952 1014.54 173.642 1014.54 185.307V226.532C1014.54 238.197 1016.77 249.887 1021.25 261.576C1025.75 273.146 1032.2 283.71 1040.6 293.147C1048.91 302.585 1059.19 310.155 1071.53 316.047C1083.77 321.844 1097.68 324.742 1113.21 324.742H1135.17C1150.77 324.742 1164.68 321.844 1176.95 316.047C1189.19 310.155 1199.46 302.585 1207.87 293.147C1216.28 283.71 1222.63 273.146 1227.11 261.576C1231.61 249.887 1233.84 238.197 1233.84 226.532V185.307C1233.84 173.642 1231.51 161.952 1226.75 150.263ZM1187.68 226.532C1187.68 235.778 1185.91 243.994 1182.27 251.013C1178.72 258.007 1173.95 263.9 1167.97 268.667C1161.98 273.529 1155.17 277.074 1147.51 279.494C1139.94 281.841 1132.08 283.063 1123.96 283.063C1115.84 283.063 1108.15 281.841 1100.68 279.494C1093.21 277.074 1086.47 273.529 1080.51 268.667C1074.52 263.9 1069.75 258.007 1066.11 251.013C1062.57 243.994 1060.8 235.778 1060.8 226.532V185.307C1060.8 176.348 1062.47 168.3 1065.92 161.305C1069.3 154.287 1073.87 148.298 1079.58 143.364C1085.28 138.405 1092.01 134.669 1099.74 132.153C1107.51 129.614 1115.63 128.321 1123.96 128.321C1132.3 128.321 1139.94 129.519 1147.51 131.866C1155.17 134.285 1161.98 137.831 1167.97 142.43C1173.95 147.101 1178.72 152.969 1182.27 160.18C1185.91 167.366 1187.68 175.678 1187.68 185.307V226.532Z" fill="white"/>
<path d="M1424.46 243.158C1424.46 249.41 1422.98 255.111 1419.99 260.165C1416.99 265.315 1413.06 269.411 1408.13 272.789C1403.17 276.046 1397.47 278.561 1391.12 280.358C1384.68 282.131 1378.04 283.065 1371.12 283.065C1363.65 283.065 1356.27 281.939 1348.87 279.687C1341.58 277.46 1335.04 273.986 1329.15 269.411C1323.36 264.74 1318.68 258.847 1315.04 251.661C1311.5 244.475 1309.73 235.972 1309.73 226.055V185.309C1309.73 175.416 1311.5 166.913 1315.04 159.702C1318.68 152.516 1323.36 146.719 1329.15 142.24C1335.04 137.761 1341.58 134.383 1348.87 132.156C1356.27 129.904 1363.65 128.778 1371.12 128.778C1378.04 128.778 1384.58 129.616 1390.83 131.485C1397.09 133.257 1402.79 135.796 1407.65 139.054C1412.61 142.336 1416.63 146.432 1419.63 151.39C1422.5 156.349 1424.01 161.954 1424.01 168.206H1470.26C1470.26 153.93 1467.65 141.498 1462.41 131.03C1457.19 120.562 1450.07 111.962 1441.11 105.231C1432.13 98.5003 1421.76 93.5419 1409.9 90.38C1398.12 87.2899 1385.61 85.709 1372.51 85.709C1359.41 85.709 1345.8 87.6732 1332.79 91.5058C1319.81 95.4103 1308.14 101.399 1297.77 109.447C1287.47 117.568 1279.16 127.844 1272.91 140.467C1266.66 152.971 1263.47 167.943 1263.47 185.309V226.055C1263.47 243.158 1266.66 257.913 1273.1 270.537C1279.54 283.065 1287.95 293.341 1298.23 301.461C1308.6 309.51 1320.19 315.474 1333.27 319.403C1346.26 323.235 1359.43 325.2 1372.89 325.2C1386.35 325.2 1398.59 323.619 1410.36 320.529C1422.14 317.343 1432.61 312.408 1441.57 305.677C1450.55 298.946 1457.64 290.443 1462.89 280.166C1468.11 269.794 1470.72 257.458 1470.72 243.158H1424.46Z" fill="white"/>
<path d="M1505.21 90.6406V321.173H1551.47V90.6406H1505.21Z" fill="white"/>
<path d="M1703.96 280.356C1691.62 280.356 1682.66 277.913 1677.06 272.954C1671.36 268.02 1668.46 258.199 1668.46 243.611V129.614H1725.47V90.6414H1668.46V35.4277H1638.47C1638.47 48.6024 1636.7 59.5253 1633.03 68.2206C1629.49 76.9158 1624.72 83.6468 1618.92 88.6053C1613.15 93.5398 1606.42 97.0131 1598.94 98.9773C1591.47 100.846 1583.97 101.876 1576.5 101.876V129.614H1622.3V244.473C1622.3 272.02 1627.81 292.405 1638.92 305.675C1649.97 319.041 1668.46 325.677 1694.52 325.677H1700.8C1703.5 325.677 1706.31 325.581 1709.3 325.485C1712.29 325.293 1715.19 325.102 1717.8 325.006C1720.51 324.838 1722.47 324.647 1723.67 324.359L1729.01 280.356H1703.96Z" fill="white"/>
<path d="M1960 90.6406V343.713H1913.77V332.814C1913.82 331.928 1913.84 331.065 1913.84 330.155V285.29C1905.43 294.272 1895.71 301.363 1884.69 306.609C1873.67 311.83 1861.33 314.441 1847.87 314.441C1832.35 314.441 1818.43 311.471 1806.19 305.483C1793.95 299.494 1783.58 291.757 1775.27 282.128C1766.86 272.594 1760.49 261.935 1756.2 250.341C1751.82 238.675 1749.66 226.986 1749.66 215.296V90.6406H1795.92V215.296C1795.92 221.572 1797.04 228.112 1799.46 234.843C1801.9 241.574 1805.54 247.73 1810.5 253.239C1815.34 258.749 1821.52 263.348 1828.8 266.893C1836.18 270.534 1844.78 272.307 1854.6 272.307C1863.3 272.307 1871.32 270.534 1878.6 266.893C1886.01 263.348 1892.26 258.749 1897.48 253.239C1902.73 247.73 1906.75 241.574 1909.55 234.843C1912.45 228.112 1913.84 221.572 1913.84 215.296V90.6406H1960Z" fill="white"/>
<path d="M1913.77 343.715H1831.32V385.85H1913.77V343.715Z" fill="white"/>
<path d="M1831.32 385.85H1789.19V428.008H1831.32V385.85Z" fill="white"/>
</g>
<defs>
<clipPath id="clip0_809_1749">
<rect width="1960" height="428.007" fill="white"/>
</clipPath>
</defs>
</svg>
