<?xml version="1.0" encoding="UTF-8"?>
<svg id="a" data-name="Layer 1" xmlns="http://www.w3.org/2000/svg" viewBox="0 0 795 149.36">
  <defs>
    <style>
      .b {
        fill: #2ca7be;
      }

      .c {
        fill: #fff;
      }
    </style>
  </defs>
  <g>
    <rect class="c" x="195.76" y="0" width="15.84" height="15.84"/>
    <rect class="c" x="341.91" y="31.04" width="15.84" height="15.84"/>
    <rect class="c" x="326.07" y="46.88" width="15.84" height="50.19"/>
    <rect class="c" x="735.11" y="133.52" width="15.84" height="15.84"/>
    <rect class="c" x="639.01" y="0" width="15.84" height="15.84"/>
    <path class="c" d="M179.92,39.26c-2.85-2.98-6.18-5.35-9.98-7.13-3.77-1.8-7.96-2.69-12.57-2.69-5.34,0-10.08,1.03-14.27,3.08-4.22,2.04-7.74,4.7-10.62,7.96-2.85,3.3-5.02,6.91-6.53,10.91-1.47,4-2.21,8-2.21,12v14.11c0,3.99.74,8,2.21,12,1.51,3.96,3.68,7.61,6.53,10.87,2.88,3.3,6.4,5.95,10.62,8,4.19,2.05,8.93,3.08,14.27,3.08,4.19,0,8.23-.93,12.12-2.76,3.9-1.85,7.36-4.26,10.43-7.23l1.04,9.98h14.8V15.84h-15.84v23.42ZM179.92,78.42c0,2.14-.48,4.31-1.43,6.52-.99,2.21-2.37,4.2-4.16,5.99-1.8,1.79-3.94,3.23-6.44,4.32-2.53,1.05-5.24,1.6-8.22,1.6-3.4,0-6.34-.58-8.83-1.76-2.53-1.18-4.61-2.71-6.3-4.61-1.7-1.89-2.94-3.99-3.75-6.3-.83-2.3-1.25-4.54-1.25-6.68v-14.11c0-2.17.42-4.38,1.25-6.68.8-2.3,2.05-4.41,3.75-6.31,1.69-1.89,3.77-3.45,6.3-4.67,2.49-1.25,5.44-1.85,8.83-1.85,2.98,0,5.69.61,8.22,1.85,2.5,1.21,4.64,2.78,6.44,4.67,1.79,1.89,3.17,4,4.16,6.31.96,2.3,1.43,4.51,1.43,6.68v15.04Z"/>
    <path class="c" d="M278.17,54.87c-.64-2.72-1.66-5.35-3.07-7.84-1.44-2.53-3.49-5.06-6.14-7.62-3.2-2.97-6.88-5.31-11.07-7.07-4.19-1.72-8.61-2.59-13.21-2.59h-2.59c-5.35,0-10.14,1.03-14.47,3.08-4.28,2.04-7.93,4.7-10.87,7.96-2.98,3.3-5.28,6.91-6.91,10.91-1.66,4-2.47,8-2.47,12v14.11c0,3.99.77,8,2.3,12,1.53,3.96,3.74,7.58,6.59,10.81,2.88,3.23,6.4,5.82,10.59,7.84,4.22,1.98,8.96,2.98,14.3,2.98h4.44c4.61,0,8.89-.74,12.89-2.21,4-1.5,7.52-3.49,10.52-5.98,3.01-2.53,5.38-5.4,7.08-8.7,1.69-3.26,2.53-6.66,2.53-10.11h-15.68c0,2.14-.54,4-1.66,5.6-1.15,1.57-2.59,2.91-4.38,3.99-1.8,1.06-3.87,1.86-6.24,2.37-2.34.52-4.73.77-7.2.77-3.39,0-6.33-.58-8.82-1.76-2.53-1.18-4.61-2.71-6.31-4.61-1.69-1.89-2.98-3.99-3.84-6.3-.86-2.3-1.31-4.54-1.31-6.68v-2.76h56.21v-2.14c0-3.4-.06-6.56-.16-9.54-.1-2.98-.45-5.82-1.06-8.5ZM223.33,61.84c.19-2.05.83-4.12,1.92-6.21,1.08-2.11,2.53-4,4.38-5.69,1.83-1.7,4-3.08,6.53-4.16,2.49-1.06,5.28-1.6,8.35-1.6,2.56,0,5.03.41,7.39,1.21,2.34.83,4.42,2.02,6.21,3.55,1.8,1.53,3.23,3.39,4.32,5.6,1.06,2.21,1.6,4.63,1.6,7.29h-40.69Z"/>
    <polygon class="c" points="319.74 95.54 319.34 94.58 296.12 31.04 280.15 31.04 309.3 107.46 310.81 111.42 326.07 111.42 326.07 97.06 320.36 97.06 319.74 95.54"/>
    <path class="c" d="M430.48,54.87c-.61-2.72-1.63-5.35-3.08-7.84-1.44-2.53-3.49-5.06-6.14-7.62-3.17-2.97-6.84-5.31-11.06-7.07-4.19-1.72-8.58-2.59-13.19-2.59h-2.62c-5.31,0-10.14,1.03-14.43,3.08-4.31,2.04-7.93,4.7-10.91,7.96-2.98,3.3-5.28,6.91-6.91,10.91-1.63,4-2.46,8-2.46,12v14.11c0,3.99.77,8,2.3,12,1.53,3.96,3.74,7.58,6.62,10.81,2.85,3.23,6.4,5.82,10.6,7.84,4.19,1.98,8.96,2.98,14.26,2.98h4.45c4.6,0,8.92-.74,12.92-2.21,3.99-1.5,7.49-3.49,10.52-5.98,3.01-2.53,5.35-5.4,7.04-8.7,1.7-3.26,2.56-6.66,2.56-10.11h-15.67c0,2.14-.57,4-1.7,5.6-1.11,1.57-2.59,2.91-4.38,3.99-1.8,1.06-3.87,1.86-6.21,2.37-2.37.52-4.76.77-7.23.77-3.35,0-6.3-.58-8.82-1.76-2.5-1.18-4.61-2.71-6.31-4.61-1.66-1.89-2.94-3.99-3.84-6.3-.86-2.3-1.28-4.54-1.28-6.68v-2.76h56.18v-2.14c0-3.4-.03-6.56-.12-9.54-.13-2.98-.49-5.82-1.09-8.5ZM375.65,61.84c.22-2.05.86-4.12,1.92-6.21,1.08-2.11,2.56-4,4.38-5.69,1.85-1.7,4.03-3.08,6.53-4.16,2.53-1.06,5.31-1.6,8.38-1.6,2.56,0,5.02.41,7.36,1.21,2.37.83,4.44,2.02,6.24,3.55,1.79,1.53,3.2,3.39,4.29,5.6,1.08,2.21,1.6,4.63,1.6,7.29h-40.69Z"/>
    <rect class="c" x="443.54" y="0" width="15.81" height="111.42"/>
    <path class="c" d="M536.76,40.78c-2.98-3.26-6.62-5.92-10.91-7.96-4.32-2.05-9.12-3.08-14.43-3.08h-5.7c-5.31,0-10.14,1.03-14.43,3.08-4.32,2.04-7.94,4.7-10.91,7.96-2.98,3.3-5.28,6.91-6.92,10.91-1.63,4-2.46,8-2.46,12v14.11c0,3.99.76,8,2.29,12,1.54,3.96,3.75,7.58,6.63,10.81,2.85,3.23,6.36,5.82,10.59,7.84,4.19,1.98,8.96,2.98,14.27,2.98h7.52c5.34,0,10.1-.99,14.3-2.98,4.19-2.02,7.71-4.61,10.59-7.84,2.88-3.23,5.05-6.85,6.59-10.81,1.54-4,2.3-8,2.3-12v-14.11c0-3.99-.79-8-2.43-12-1.66-3.99-3.97-7.61-6.91-10.91ZM530.3,77.8c0,3.17-.61,5.98-1.86,8.38-1.21,2.39-2.84,4.41-4.9,6.04-2.05,1.66-4.38,2.88-7,3.71-2.59.8-5.28,1.22-8.06,1.22s-5.41-.42-7.97-1.22c-2.56-.83-4.86-2.04-6.9-3.71-2.05-1.63-3.69-3.65-4.93-6.04-1.21-2.4-1.82-5.22-1.82-8.38v-14.11c0-3.07.57-5.82,1.75-8.22,1.16-2.4,2.72-4.45,4.67-6.14,1.96-1.7,4.26-2.98,6.91-3.84,2.66-.87,5.44-1.31,8.29-1.31s5.47.41,8.06,1.21c2.62.83,4.95,2.04,7,3.62,2.05,1.6,3.69,3.61,4.9,6.08,1.25,2.46,1.86,5.31,1.86,8.6v14.11Z"/>
    <path class="c" d="M609.83,89.18c-1.02,1.75-2.37,3.15-4.06,4.3-1.7,1.11-3.65,1.97-5.82,2.58-2.21.6-4.48.92-6.85.92-2.56,0-5.08-.38-7.62-1.15-2.49-.76-4.73-1.94-6.75-3.5-1.98-1.59-3.58-3.6-4.83-6.05-1.21-2.45-1.82-5.35-1.82-8.72v-13.88c0-3.37.61-6.27,1.82-8.72,1.25-2.45,2.85-4.42,4.83-5.95,2.02-1.53,4.26-2.68,6.75-3.44,2.54-.77,5.06-1.15,7.62-1.15,2.37,0,4.61.29,6.75.92,2.14.6,4.09,1.47,5.76,2.58,1.7,1.12,3.07,2.51,4.1,4.2.98,1.69,1.5,3.6,1.5,5.73h15.84c0-4.86-.9-9.1-2.69-12.67-1.79-3.57-4.22-6.5-7.29-8.79-3.08-2.29-6.63-3.98-10.69-5.06-4.04-1.05-8.32-1.59-12.8-1.59s-9.15.67-13.6,1.98c-4.44,1.33-8.44,3.37-11.99,6.11-3.53,2.77-6.37,6.27-8.51,10.57-2.14,4.26-3.23,9.36-3.23,15.28v13.88c0,5.83,1.09,10.85,3.3,15.16,2.21,4.27,5.09,7.77,8.6,10.54,3.55,2.74,7.52,4.77,12,6.11,4.44,1.31,8.96,1.98,13.56,1.98s8.8-.54,12.82-1.59c4.04-1.09,7.62-2.77,10.69-5.06,3.08-2.29,5.5-5.19,7.3-8.69,1.79-3.53,2.68-7.74,2.68-12.61h-15.84c0,2.13-.51,4.07-1.53,5.79Z"/>
    <rect class="c" x="639.01" y="31.04" width="15.84" height="80.3"/>
    <path class="c" d="M779.19,31.04v42.68c0,2.15-.47,4.39-1.47,6.69-.96,2.3-2.34,4.41-4.13,6.3-1.79,1.89-3.93,3.46-6.47,4.67-2.49,1.25-5.24,1.85-8.21,1.85-3.36,0-6.31-.61-8.83-1.85-2.49-1.21-4.61-2.79-6.26-4.67-1.7-1.89-2.94-3.99-3.78-6.3-.83-2.3-1.21-4.54-1.21-6.69V31.04h-15.84v42.68c0,4,.74,8,2.24,12,1.47,3.97,3.65,7.62,6.53,10.88,2.85,3.3,6.4,5.95,10.59,8,4.19,2.05,8.96,3.07,14.27,3.07,4.61,0,8.83-.89,12.61-2.68,3.77-1.8,7.1-4.22,9.98-7.3v15.36c0,.31,0,.61-.02.91v3.73h-28.23s0,15.84,0,15.84h28.23s0-15.84,0-15.84h15.83V31.04h-15.81Z"/>
    <path class="c" d="M694.9,12.14h-10.27c0,4.51-.6,8.25-1.86,11.23-1.21,2.98-2.85,5.28-4.83,6.98-1.98,1.69-4.28,2.88-6.84,3.55-2.56.64-5.12.99-7.68.99v9.49h15.68v39.33c0,9.43,1.89,16.41,5.69,20.95,3.38,4.09,8.8,6.33,16.28,6.77h13.35v-15.46h-8.52c-3.63-.14-6.32-.98-8.06-2.51-1.96-1.69-2.94-5.05-2.94-10.04v-39.03h19.52v-13.34h-19.52V12.14Z"/>
  </g>
  <g>
    <path class="b" d="M8.85,42.66c62.35-24.99,87-9.82,60.24,57.46C112.99,27.9,147.89-50.04,8.85,42.66Z"/>
    <path class="b" d="M13.53,61.72h.02S0,70.45,0,70.45c31.7-8.85,54.65-9.52,42.85,40.69l7.98-13.53c25.4-42.99,4.67-62.93-37.3-35.89Z"/>
  </g>
</svg>