<svg width="744" height="651" viewBox="0 0 744 651" fill="none" xmlns="http://www.w3.org/2000/svg">
<g opacity="0.5">
<rect x="0.533885" width="132.543" height="132.543" rx="3.39063" transform="matrix(0.866025 -0.5 0.866025 0.5 25.6965 352.907)" fill="#0A0A0A" stroke="#FAFAFA" stroke-width="0.616477"/>
<rect x="0.533885" width="132.543" height="132.543" rx="3.39063" transform="matrix(0.866025 -0.5 0.866025 0.5 159.165 429.966)" fill="#0A0A0A" stroke="#FAFAFA" stroke-width="0.616477"/>
<rect x="0.533885" width="132.543" height="132.543" rx="3.39063" transform="matrix(0.866025 -0.5 0.866025 0.5 292.642 507.029)" fill="#0A0A0A" stroke="#FAFAFA" stroke-width="0.616477"/>
<rect x="0.533885" width="132.543" height="132.543" rx="3.39063" transform="matrix(0.866025 -0.5 0.866025 0.5 426.118 584.089)" fill="#0A0A0A" stroke="#FAFAFA" stroke-width="0.616477"/>
<rect x="0.533885" width="132.543" height="132.543" rx="3.39063" transform="matrix(0.866025 -0.5 0.866025 0.5 157.032 277.08)" fill="#0A0A0A" stroke="#FAFAFA" stroke-width="0.616477"/>
<rect x="0.533885" width="132.543" height="132.543" rx="3.39063" transform="matrix(0.866025 -0.5 0.866025 0.5 290.501 354.139)" fill="#0A0A0A" stroke="#FAFAFA" stroke-width="0.616477"/>
<g filter="url(#filter0_d_1100_33628)">
<rect width="133.159" height="133.159" rx="3.69886" transform="matrix(0.866025 -0.5 0.866025 0.5 25.625 323.051)" fill="#0A0A0A"/>
<rect x="0.533885" width="132.543" height="132.543" rx="3.39063" transform="matrix(0.866025 -0.5 0.866025 0.5 25.6965 323.318)" stroke="#FAFAFA" stroke-width="0.616477"/>
</g>
<rect x="0.533885" width="132.543" height="132.543" rx="3.39063" transform="matrix(0.866025 -0.5 0.866025 0.5 423.978 431.202)" fill="#0A0A0A" stroke="#FAFAFA" stroke-width="0.616477"/>
<rect x="0.533885" width="132.543" height="132.543" rx="3.39063" transform="matrix(0.866025 -0.5 0.866025 0.5 557.47 508.262)" fill="#0A0A0A" stroke="#FAFAFA" stroke-width="0.616477"/>
<rect x="0.533885" width="132.543" height="132.543" rx="3.39063" transform="matrix(0.866025 -0.5 0.866025 0.5 288.368 201.253)" fill="#0A0A0A" stroke="#FAFAFA" stroke-width="0.616477"/>
<rect x="0.533885" width="132.543" height="132.543" rx="3.39063" transform="matrix(0.866025 -0.5 0.866025 0.5 421.837 278.312)" fill="#0A0A0A" stroke="#FAFAFA" stroke-width="0.616477"/>
<rect x="0.533885" width="132.543" height="132.543" rx="3.39063" transform="matrix(0.866025 -0.5 0.866025 0.5 555.337 355.375)" fill="#0A0A0A" stroke="#FAFAFA" stroke-width="0.616477"/>
<rect x="0.533885" width="132.543" height="132.543" rx="3.39063" transform="matrix(0.866025 -0.5 0.866025 0.5 688.822 432.435)" fill="#0A0A0A" stroke="#FAFAFA" stroke-width="0.616477"/>
<rect x="0.533885" width="132.543" height="132.543" rx="3.39063" transform="matrix(0.866025 -0.5 0.866025 0.5 419.704 125.425)" fill="#0A0A0A" stroke="#FAFAFA" stroke-width="0.616477"/>
<g filter="url(#filter1_d_1100_33628)">
<rect width="133.159" height="133.159" rx="3.69886" transform="matrix(0.866025 -0.5 0.866025 0.5 419.641 104.198)" fill="#0A0A0A"/>
<rect x="0.533885" width="132.543" height="132.543" rx="3.39063" transform="matrix(0.866025 -0.5 0.866025 0.5 419.712 104.465)" stroke="#FAFAFA" stroke-width="0.616477"/>
</g>
<g filter="url(#filter2_d_1100_33628)">
<rect width="133.159" height="133.159" rx="3.69886" transform="matrix(0.866025 -0.5 0.866025 0.5 290.43 323.049)" fill="#0A0A0A"/>
<rect x="0.533885" width="132.543" height="132.543" rx="3.39063" transform="matrix(0.866025 -0.5 0.866025 0.5 290.501 323.316)" stroke="#FAFAFA" stroke-width="0.616477"/>
</g>
<g filter="url(#filter3_d_1100_33628)">
<rect width="133.159" height="133.159" rx="3.69886" transform="matrix(0.866025 -0.5 0.866025 0.5 290.43 287.292)" fill="#0A0A0A"/>
<rect x="0.533885" width="132.543" height="132.543" rx="3.39063" transform="matrix(0.866025 -0.5 0.866025 0.5 290.501 287.559)" stroke="#FAFAFA" stroke-width="0.616477"/>
</g>
<rect x="0.533885" width="132.543" height="132.543" rx="3.39063" transform="matrix(0.866025 -0.5 0.866025 0.5 553.197 202.484)" fill="#0A0A0A" stroke="#FAFAFA" stroke-width="0.616477"/>
<rect x="0.533885" width="132.543" height="132.543" rx="3.39063" transform="matrix(0.866025 -0.5 0.866025 0.5 686.689 279.547)" fill="#0A0A0A" stroke="#FAFAFA" stroke-width="0.616477"/>
<g filter="url(#filter4_d_1100_33628)">
<rect width="133.159" height="133.159" rx="3.69886" transform="matrix(0.866025 -0.5 0.866025 0.5 426.047 401.959)" fill="#0A0A0A"/>
<rect x="0.533885" width="132.543" height="132.543" rx="3.39063" transform="matrix(0.866025 -0.5 0.866025 0.5 426.118 402.226)" stroke="#FAFAFA" stroke-width="0.616477"/>
</g>
</g>
<defs>
<filter id="filter0_d_1100_33628" x="16.4034" y="252.007" width="249.084" height="153.185" filterUnits="userSpaceOnUse" color-interpolation-filters="sRGB">
<feFlood flood-opacity="0" result="BackgroundImageFix"/>
<feColorMatrix in="SourceAlpha" type="matrix" values="0 0 0 0 0 0 0 0 0 0 0 0 0 0 0 0 0 0 127 0" result="hardAlpha"/>
<feMorphology radius="3.08239" operator="dilate" in="SourceAlpha" result="effect1_dropShadow_1100_33628"/>
<feOffset dy="5.5483"/>
<feGaussianBlur stdDeviation="4.0071"/>
<feComposite in2="hardAlpha" operator="out"/>
<feColorMatrix type="matrix" values="0 0 0 0 1 0 0 0 0 1 0 0 0 0 1 0 0 0 0.5 0"/>
<feBlend mode="normal" in2="BackgroundImageFix" result="effect1_dropShadow_1100_33628"/>
<feBlend mode="normal" in="SourceGraphic" in2="effect1_dropShadow_1100_33628" result="shape"/>
</filter>
<filter id="filter1_d_1100_33628" x="410.419" y="33.1533" width="249.084" height="153.185" filterUnits="userSpaceOnUse" color-interpolation-filters="sRGB">
<feFlood flood-opacity="0" result="BackgroundImageFix"/>
<feColorMatrix in="SourceAlpha" type="matrix" values="0 0 0 0 0 0 0 0 0 0 0 0 0 0 0 0 0 0 127 0" result="hardAlpha"/>
<feMorphology radius="3.08239" operator="dilate" in="SourceAlpha" result="effect1_dropShadow_1100_33628"/>
<feOffset dy="5.5483"/>
<feGaussianBlur stdDeviation="4.0071"/>
<feComposite in2="hardAlpha" operator="out"/>
<feColorMatrix type="matrix" values="0 0 0 0 0.607843 0 0 0 0 0.364706 0 0 0 0 0.898039 0 0 0 0.5 0"/>
<feBlend mode="normal" in2="BackgroundImageFix" result="effect1_dropShadow_1100_33628"/>
<feBlend mode="normal" in="SourceGraphic" in2="effect1_dropShadow_1100_33628" result="shape"/>
</filter>
<filter id="filter2_d_1100_33628" x="281.208" y="252.005" width="249.084" height="153.185" filterUnits="userSpaceOnUse" color-interpolation-filters="sRGB">
<feFlood flood-opacity="0" result="BackgroundImageFix"/>
<feColorMatrix in="SourceAlpha" type="matrix" values="0 0 0 0 0 0 0 0 0 0 0 0 0 0 0 0 0 0 127 0" result="hardAlpha"/>
<feMorphology radius="3.08239" operator="dilate" in="SourceAlpha" result="effect1_dropShadow_1100_33628"/>
<feOffset dy="5.5483"/>
<feGaussianBlur stdDeviation="4.0071"/>
<feComposite in2="hardAlpha" operator="out"/>
<feColorMatrix type="matrix" values="0 0 0 0 1 0 0 0 0 1 0 0 0 0 1 0 0 0 0.5 0"/>
<feBlend mode="normal" in2="BackgroundImageFix" result="effect1_dropShadow_1100_33628"/>
<feBlend mode="normal" in="SourceGraphic" in2="effect1_dropShadow_1100_33628" result="shape"/>
</filter>
<filter id="filter3_d_1100_33628" x="281.208" y="216.248" width="249.084" height="153.185" filterUnits="userSpaceOnUse" color-interpolation-filters="sRGB">
<feFlood flood-opacity="0" result="BackgroundImageFix"/>
<feColorMatrix in="SourceAlpha" type="matrix" values="0 0 0 0 0 0 0 0 0 0 0 0 0 0 0 0 0 0 127 0" result="hardAlpha"/>
<feMorphology radius="3.08239" operator="dilate" in="SourceAlpha" result="effect1_dropShadow_1100_33628"/>
<feOffset dy="5.5483"/>
<feGaussianBlur stdDeviation="4.0071"/>
<feComposite in2="hardAlpha" operator="out"/>
<feColorMatrix type="matrix" values="0 0 0 0 0.172549 0 0 0 0 0.654902 0 0 0 0 0.745098 0 0 0 0.4 0"/>
<feBlend mode="normal" in2="BackgroundImageFix" result="effect1_dropShadow_1100_33628"/>
<feBlend mode="normal" in="SourceGraphic" in2="effect1_dropShadow_1100_33628" result="shape"/>
</filter>
<filter id="filter4_d_1100_33628" x="416.825" y="330.915" width="249.084" height="153.185" filterUnits="userSpaceOnUse" color-interpolation-filters="sRGB">
<feFlood flood-opacity="0" result="BackgroundImageFix"/>
<feColorMatrix in="SourceAlpha" type="matrix" values="0 0 0 0 0 0 0 0 0 0 0 0 0 0 0 0 0 0 127 0" result="hardAlpha"/>
<feMorphology radius="3.08239" operator="dilate" in="SourceAlpha" result="effect1_dropShadow_1100_33628"/>
<feOffset dy="5.5483"/>
<feGaussianBlur stdDeviation="4.0071"/>
<feComposite in2="hardAlpha" operator="out"/>
<feColorMatrix type="matrix" values="0 0 0 0 1 0 0 0 0 1 0 0 0 0 1 0 0 0 0.5 0"/>
<feBlend mode="normal" in2="BackgroundImageFix" result="effect1_dropShadow_1100_33628"/>
<feBlend mode="normal" in="SourceGraphic" in2="effect1_dropShadow_1100_33628" result="shape"/>
</filter>
</defs>
</svg>
