<?xml version="1.0" encoding="UTF-8"?>
<svg id="Layer_1" xmlns="http://www.w3.org/2000/svg" version="1.1" viewBox="0 0 2267 558">
  <!-- Generator: Adobe Illustrator 30.3.0, SVG Export Plug-In . SVG Version: 2.1.3 Build 182)  -->
  <defs>
    <style>
      .st0 {
        fill: #fff;
      }

      .st1 {
        fill: #fafafa;
      }
    </style>
  </defs>
  <g>
    <path class="st1" d="M429.7,119.5c-12.8-18.2-28.6-32.4-47-42.4-19.9-10.8-42.3-16.2-66.7-16.2h-124.1c-10.6,0-19.2,8.6-19.2,19.2v126.7c323.5-189.5,255.5-2.6,135.4,202.3h18.1c2.1,0,4.1-.3,6-1,36.1-4.3,67.4-21.7,90.5-50.4,10-12.4,18.4-26.7,24.9-42.5.2-.5.4-.9.5-1.4,8.9-22.1,14-47.2,14.8-72.4,0-.1,0-.2,0-.3,1.5-45.6-10.4-88.8-33.4-121.4Z"/>
    <path class="st1" d="M172.8,243.8v146.1c0,10.6,8.6,19.2,19.2,19.2h102.9c43.8-140.7-6.4-183.8-122.1-165.2Z"/>
  </g>
  <path class="st1" d="M877,188.4h61.1l-97.2,208.6c-3,6.5-9.9,10.8-17.2,10.8s-13.8-4.3-16.8-10.8l-98.1-208.6h61.1l53.8,118.3,53.3-118.3Z"/>
  <path class="st1" d="M543.1,309.3c5.2,31.8,31.4,46.9,56.8,46.9s43.9-11.2,52.5-32.7l52.5,7.3c-13.8,52.5-58.5,77.4-103.7,77.4s-114-38.7-114-111,54.2-110.1,108.4-110.1,107.1,37,109.3,115.7v6.5h-161.8ZM645.1,268.4c-8.6-21.1-28.4-31.8-48.2-31.8s-39.6,10.8-49,31.8h97.2Z"/>
  <path class="st0" d="M2205.4,193.3h61.5l-78.3,186.3c-37,92.5-83,124.3-156.2,124.3v-51.2c46,0,72.3-18.1,93.4-66.7l-88.2-192.7h61.1l57.2,120,49.5-120Z"/>
  <path class="st0" d="M2023.7,410.9c-12.5.9-23.7,1.3-34,1.3-68.8,0-89.5-21.1-89.5-77.4v-91.2h-23.7c-6.9,0-12.5-5.6-12.5-12.5s.9-5.6,3-8.2l63.2-76.6c2.6-3,6.4-5.2,10.8-5.2,8.2,0,14.6,6.5,14.6,14.6v37.4h53.8v50.3h-53.8v82.6c0,28.4,10.3,37.9,68,38.7v46Z"/>
  <path class="st0" d="M1818,164.9c-3.4,1.3-7.3,2.2-10.8,2.2-10.8,0-21.1-6.5-25.8-17.2-6-14.2.9-30.5,15.1-36.6,3.4-1.3,7.3-2.2,10.8-2.2,11.2,0,21.5,6.5,25.8,17.2,6,14.2-.9,31-15.1,36.6ZM1834.3,410.9h-55.1v-217.7h55.1v217.7Z"/>
  <path class="st0" d="M1637.5,362.3c21.9,0,40.9-13.8,49.5-34h57.7c-11.6,48.2-55.5,84.3-107.1,84.3s-110.6-49.5-110.6-110.6,49.5-110.1,110.6-110.1,95.5,35.7,107.1,84.3h-57.7c-8.6-20.2-27.5-34.4-49.5-34.4s-55.5,27.1-55.5,60.2,25,60.2,55.5,60.2Z"/>
  <path class="st0" d="M1391.7,192c60.7,0,110.1,49,110.1,110.1s-49.5,110.6-110.1,110.6-110.6-49.5-110.6-110.6,49.5-110.1,110.6-110.1ZM1391.7,362.3c30.1,0,55.1-27.1,55.1-60.2s-25-60.2-55.1-60.2-55.5,27.1-55.5,60.2,25,60.2,55.5,60.2Z"/>
  <path class="st0" d="M1244.9,410.9h-55.1V102.5h55.1v308.5Z"/>
  <path class="st0" d="M991.3,314.1c5.2,31.8,31.4,46.9,56.8,46.9s43.9-11.2,52.5-32.7l52.5,7.3c-13.8,52.5-58.5,77.4-103.7,77.4s-114-38.7-114-111,54.2-110.1,108.4-110.1,107.1,37,109.3,115.7v6.5h-161.8ZM1093.3,273.3c-8.6-21.1-28.4-31.8-48.2-31.8s-39.6,10.8-49,31.8h97.2Z"/>
</svg>