<svg width="2162" height="401" viewBox="0 0 2162 401" fill="none" xmlns="http://www.w3.org/2000/svg">
<g clip-path="url(#clip0_980_1080)">
<path d="M207.382 0.0136719V0.0195312H224.379C225.675 0.0195312 226.95 0.041256 228.225 0.0625C228.31 0.0412834 228.373 0.0413011 228.458 0.0625C266.463 -0.914723 304.83 12.8089 334.274 41.3184H334.338C385.727 91.0505 444.828 223.995 265.954 386.639H0.12793V0.0195312H0.294922V0.0136719H207.382ZM80.9609 260.004C65.4105 260.238 52.9834 273.005 53.2383 288.556V288.641L98.4238 310.458C105.286 305.211 109.683 296.947 109.534 287.685C109.322 272.134 96.5115 259.749 80.9609 260.004ZM14.8232 14.5361V151.492C134.914 197.454 214.375 271.852 279.146 205.109C294.123 189.686 303.194 168.548 302.833 145.371C302.132 98.9956 263.914 62.0101 217.518 62.7324C198.632 63.0298 181.296 69.5303 167.445 80.2373C161.943 84.5072 154.168 84.0819 149.176 79.2383L130.417 61.0752C127.698 58.4197 126.168 54.8078 126.168 51.0264C126.211 47.2452 127.741 43.6342 130.438 41C141.901 29.9419 154.732 21.1204 168.389 14.5361H14.8232Z" fill="#30ABC2"/>
</g>
<g clip-path="url(#clip1_980_1080)">
<path d="M1012.83 144.979H976.324V271.572H1012.83V144.979Z" fill="#0B0D0F"/>
<path d="M1049.33 108.475H1012.83V144.976H1049.33V108.475Z" fill="#0B0D0F"/>
<path d="M683.114 32.9023H646.612V69.4038H683.114V32.9023Z" fill="#2CA7BE"/>
<path d="M1806.01 35.8867H1769.51V72.3882H1806.01V35.8867Z" fill="#0B0D0F"/>
<path d="M976.345 271.59H939.844V308.091H976.345V271.59Z" fill="#0B0D0F"/>
<path d="M606.563 70.2109V129.443C599.367 121.914 590.947 115.921 581.323 111.4C571.783 106.858 561.185 104.597 549.53 104.597C536.028 104.597 524.041 107.189 513.443 112.374C502.762 117.538 493.865 124.258 486.586 132.512C479.389 140.85 473.893 149.996 470.077 160.096C466.365 170.217 464.498 180.338 464.498 190.438V226.13C464.498 236.23 466.365 246.351 470.077 256.472C473.893 266.489 479.389 275.718 486.586 283.973C493.865 292.31 502.762 299.009 513.443 304.194C524.041 309.379 536.028 311.971 549.53 311.971C560.128 311.971 570.332 309.607 580.183 305.003C590.055 300.315 598.807 294.239 606.563 286.71L610.525 308.072H646.611V70.2109H606.563ZM606.563 228.474C606.563 233.887 605.361 239.383 602.934 244.962C600.425 250.561 596.94 255.58 592.419 260.102C587.877 264.623 582.464 268.273 576.139 271.031C569.751 273.686 562.886 275.075 555.358 275.075C546.772 275.075 539.326 273.603 533.021 270.616C526.634 267.63 521.366 263.752 517.093 258.961C512.8 254.191 509.648 248.861 507.615 243.033C505.521 237.205 504.463 231.543 504.463 226.13V190.438C504.463 184.942 505.521 179.363 507.615 173.535C509.648 167.707 512.8 162.377 517.093 157.586C521.366 152.816 526.634 148.855 533.021 145.786C539.326 142.633 546.772 141.098 555.358 141.098C562.886 141.098 569.751 142.633 576.139 145.786C582.464 148.855 587.877 152.816 592.419 157.586C596.94 162.377 600.425 167.707 602.934 173.535C605.361 179.363 606.563 184.942 606.563 190.438V228.474Z" fill="#0B0D0F"/>
<path d="M858.258 219.161V213.748C858.258 205.161 858.113 197.156 857.864 189.628C857.615 182.099 856.723 174.903 855.188 168.121C853.571 161.235 850.978 154.599 847.432 148.294C843.782 141.906 838.597 135.498 831.898 129.027C823.81 121.519 814.498 115.608 803.9 111.149C793.302 106.794 782.123 104.596 770.488 104.596H763.935C750.413 104.596 738.28 107.188 727.35 112.373C716.524 117.537 707.295 124.257 699.85 132.511C692.321 140.848 686.494 149.994 682.387 160.095C678.177 170.215 676.145 180.336 676.145 190.436V226.129C676.145 236.229 678.094 246.35 681.972 256.471C685.851 266.488 691.43 275.634 698.647 283.805C705.926 291.977 714.824 298.531 725.422 303.632C736.102 308.651 748.069 311.161 761.591 311.161H772.832C784.488 311.161 795.314 309.294 805.434 305.561C815.555 301.766 824.452 296.747 832.043 290.442C839.655 284.054 845.648 276.775 849.941 268.438C854.214 260.183 856.329 251.597 856.329 242.866H816.675C816.675 248.279 815.306 252.987 812.465 257.031C809.562 260.992 805.911 264.393 801.39 267.131C796.848 269.806 791.601 271.839 785.607 273.125C779.697 274.431 773.641 275.074 767.398 275.074C758.833 275.074 751.387 273.602 745.083 270.615C738.695 267.629 733.427 263.75 729.134 258.96C724.862 254.19 721.605 248.859 719.428 243.032C717.25 237.204 716.109 231.542 716.109 226.129V219.161H858.258ZM721.377 170.049C724.115 164.719 727.765 159.929 732.452 155.656C737.077 151.363 742.573 147.879 748.961 145.141C755.266 142.466 762.317 141.097 770.074 141.097C776.544 141.097 782.787 142.134 788.76 144.167C794.671 146.261 799.938 149.269 804.46 153.147C809.002 157.025 812.631 161.712 815.389 167.312C818.065 172.891 819.434 179.03 819.434 185.749H716.524C717.001 180.564 718.619 175.317 721.377 170.049Z" fill="#0B0D0F"/>
<path d="M960.316 271.591L959.321 269.164L900.587 108.475H860.207L936.342 308.071H975.27L960.316 271.591Z" fill="#0B0D0F"/>
<path d="M1243.45 219.161V213.748C1243.45 205.161 1243.37 197.156 1243.14 189.628C1242.81 182.099 1241.91 174.903 1240.38 168.121C1238.85 161.235 1236.25 154.599 1232.6 148.294C1228.97 141.906 1223.79 135.498 1217.07 129.027C1209.06 121.519 1199.77 115.608 1189.09 111.149C1178.49 106.794 1167.4 104.596 1155.74 104.596H1149.13C1135.69 104.596 1123.47 107.188 1112.62 112.373C1101.72 117.537 1092.57 124.257 1085.04 132.511C1077.51 140.848 1071.68 149.994 1067.56 160.095C1063.43 170.215 1061.34 180.336 1061.34 190.436V226.129C1061.34 236.229 1063.29 246.35 1067.16 256.471C1071.04 266.488 1076.62 275.634 1083.9 283.805C1091.12 291.977 1100.1 298.531 1110.7 303.632C1121.29 308.651 1133.34 311.161 1146.76 311.161H1158.02C1169.66 311.161 1180.59 309.294 1190.71 305.561C1200.81 301.766 1209.64 296.747 1217.32 290.442C1224.93 284.054 1230.84 276.775 1235.11 268.438C1239.41 260.183 1241.58 251.597 1241.58 242.866H1201.95C1201.95 248.279 1200.5 252.987 1197.66 257.031C1194.84 260.992 1191.1 264.393 1186.58 267.131C1182.04 269.806 1176.79 271.839 1170.88 273.125C1164.89 274.431 1158.83 275.074 1152.59 275.074C1144.11 275.074 1136.66 273.602 1130.27 270.615C1123.95 267.629 1118.62 263.75 1114.33 258.96C1110.12 254.19 1106.88 248.859 1104.62 243.032C1102.44 237.204 1101.38 231.542 1101.38 226.129V219.161H1243.45ZM1106.57 170.049C1109.31 164.719 1113.04 159.929 1117.64 155.656C1122.33 151.363 1127.85 147.879 1134.15 145.141C1140.54 142.466 1147.57 141.097 1155.35 141.097C1161.82 141.097 1168.04 142.134 1173.95 144.167C1179.94 146.261 1185.19 149.269 1189.73 153.147C1194.26 157.025 1197.82 161.712 1200.58 167.312C1203.32 172.891 1204.62 179.03 1204.62 185.749H1101.72C1102.28 180.564 1103.89 175.317 1106.57 170.049Z" fill="#0B0D0F"/>
<path d="M1273.4 29.998V308.073H1313.36V29.998H1273.4Z" fill="#0B0D0F"/>
<path d="M1526.63 160.095C1522.42 149.994 1516.59 140.848 1509.14 132.511C1501.62 124.257 1492.41 117.537 1481.56 112.373C1470.63 107.188 1458.5 104.596 1445.08 104.596H1430.67C1417.25 104.596 1405.03 107.188 1394.19 112.373C1383.26 117.537 1374.11 124.257 1366.6 132.511C1359.07 140.848 1353.25 149.994 1349.12 160.095C1344.99 170.215 1342.9 180.336 1342.9 190.436V226.129C1342.9 236.229 1344.83 246.35 1348.7 256.471C1352.6 266.488 1358.18 275.634 1365.46 283.805C1372.66 291.977 1381.55 298.531 1392.24 303.632C1402.83 308.651 1414.88 311.161 1428.32 311.161H1447.34C1460.84 311.161 1472.89 308.651 1483.51 303.632C1494.11 298.531 1503.01 291.977 1510.28 283.805C1517.56 275.634 1523.06 266.488 1526.94 256.471C1530.84 246.35 1532.77 236.229 1532.77 226.129V190.436C1532.77 180.336 1530.75 170.215 1526.63 160.095ZM1492.8 226.129C1492.8 234.134 1491.27 241.248 1488.11 247.325C1485.04 253.381 1480.92 258.483 1475.73 262.61C1470.55 266.82 1464.66 269.889 1458.02 271.984C1451.47 274.016 1444.67 275.074 1437.63 275.074C1430.6 275.074 1423.95 274.016 1417.48 271.984C1411 269.889 1405.18 266.82 1400.01 262.61C1394.83 258.483 1390.7 253.381 1387.55 247.325C1384.48 241.248 1382.94 234.134 1382.94 226.129V190.436C1382.94 182.68 1384.4 175.711 1387.38 169.655C1390.31 163.579 1394.27 158.394 1399.2 154.122C1404.14 149.828 1409.97 146.593 1416.67 144.415C1423.39 142.217 1430.42 141.097 1437.63 141.097C1444.85 141.097 1451.47 142.134 1458.02 144.167C1464.66 146.261 1470.55 149.331 1475.73 153.313C1480.92 157.357 1485.04 162.438 1488.11 168.681C1491.27 174.903 1492.8 182.099 1492.8 190.436V226.129Z" fill="#0B0D0F"/>
<path d="M1697.81 240.524C1697.81 245.937 1696.53 250.873 1693.94 255.249C1691.34 259.708 1687.94 263.254 1683.67 266.178C1679.38 268.999 1674.44 271.177 1668.94 272.732C1663.37 274.267 1657.62 275.076 1651.63 275.076C1645.16 275.076 1638.77 274.101 1632.36 272.151C1626.06 270.223 1620.39 267.215 1615.29 263.254C1610.27 259.21 1606.23 254.108 1603.08 247.886C1600.01 241.664 1598.47 234.302 1598.47 225.716V190.438C1598.47 181.872 1600.01 174.51 1603.08 168.267C1606.23 162.046 1610.27 157.027 1615.29 153.148C1620.39 149.27 1626.06 146.346 1632.36 144.417C1638.77 142.467 1645.16 141.493 1651.63 141.493C1657.62 141.493 1663.28 142.219 1668.7 143.836C1674.11 145.371 1679.04 147.569 1683.25 150.39C1687.55 153.231 1691.03 156.778 1693.62 161.071C1696.11 165.364 1697.42 170.217 1697.42 175.63H1737.47C1737.47 163.269 1735.21 152.505 1730.67 143.442C1726.14 134.379 1719.98 126.934 1712.23 121.106C1704.45 115.278 1695.47 110.985 1685.2 108.247C1675 105.572 1664.17 104.203 1652.83 104.203C1641.49 104.203 1629.71 105.904 1618.44 109.222C1607.2 112.603 1597.1 117.787 1588.12 124.756C1579.2 131.787 1572.01 140.684 1566.6 151.614C1561.18 162.44 1558.42 175.402 1558.42 190.438V225.716C1558.42 240.524 1561.18 253.299 1566.76 264.229C1572.34 275.076 1579.62 283.973 1588.52 291.004C1597.5 297.972 1607.53 303.136 1618.86 306.537C1630.1 309.856 1641.51 311.556 1653.16 311.556C1664.82 311.556 1675.42 310.188 1685.6 307.512C1695.8 304.754 1704.87 300.481 1712.62 294.654C1720.4 288.826 1726.54 281.463 1731.08 272.566C1735.6 263.586 1737.86 252.905 1737.86 240.524H1697.81Z" fill="#0B0D0F"/>
<path d="M1767.73 108.475V308.071H1807.77V108.475H1767.73Z" fill="#0B0D0F"/>
<path d="M1939.8 272.731C1929.12 272.731 1921.36 270.616 1916.51 266.323C1911.58 262.05 1909.07 253.547 1909.07 240.917V142.218H1958.43V108.474H1909.07V60.6699H1883.1C1883.1 72.0766 1881.57 81.5338 1878.39 89.0623C1875.32 96.5907 1871.2 102.418 1866.18 106.712C1861.18 110.984 1855.35 113.991 1848.88 115.692C1842.41 117.309 1835.92 118.201 1829.45 118.201V142.218H1869.1V241.663C1869.1 265.514 1873.87 283.163 1883.49 294.653C1893.06 306.225 1909.07 311.97 1931.63 311.97H1937.06C1939.41 311.97 1941.83 311.887 1944.43 311.804C1947.02 311.638 1949.53 311.472 1951.79 311.389C1954.13 311.244 1955.83 311.078 1956.87 310.829L1961.5 272.731H1939.8Z" fill="#0B0D0F"/>
<path d="M2161.48 108.475V327.587H2121.46V318.151C2121.5 317.383 2121.52 316.637 2121.52 315.849V277.004C2114.24 284.781 2105.82 290.92 2096.28 295.462C2086.74 299.983 2076.06 302.244 2064.4 302.244C2050.96 302.244 2038.91 299.672 2028.32 294.487C2017.72 289.302 2008.74 282.603 2001.54 274.266C1994.26 266.012 1988.74 256.783 1985.03 246.745C1981.24 236.645 1979.37 226.524 1979.37 216.403V108.475H2019.42V216.403C2019.42 221.837 2020.39 227.498 2022.49 233.326C2024.6 239.154 2027.76 244.484 2032.05 249.254C2036.24 254.024 2041.59 258.006 2047.89 261.076C2054.28 264.228 2061.73 265.763 2070.23 265.763C2077.76 265.763 2084.71 264.228 2091.01 261.076C2097.42 258.006 2102.83 254.024 2107.35 249.254C2111.9 244.484 2115.38 239.154 2117.81 233.326C2120.32 227.498 2121.52 221.837 2121.52 216.403V108.475H2161.48Z" fill="#0B0D0F"/>
<path d="M2121.46 327.59H2050.07V364.071H2121.46V327.59Z" fill="#2CA7BE"/>
<path d="M2050.07 364.068H2013.59V400.57H2050.07V364.068Z" fill="#2CA7BE"/>
</g>
<defs>
<clipPath id="clip0_980_1080">
<rect width="386.64" height="386.64" fill="white"/>
</clipPath>
<clipPath id="clip1_980_1080">
<rect width="1696.99" height="370.573" fill="white" transform="translate(464.498 29.998)"/>
</clipPath>
</defs>
</svg>
