<svg width="2162" height="401" viewBox="0 0 2162 401" fill="none" xmlns="http://www.w3.org/2000/svg">
<g clip-path="url(#clip0_980_1079)">
<path d="M207.382 0.0136719V0.0195312H224.379C225.675 0.0195312 226.95 0.041256 228.225 0.0625C228.31 0.0412834 228.373 0.0413011 228.458 0.0625C266.463 -0.914723 304.83 12.8089 334.274 41.3184H334.338C385.727 91.0505 444.828 223.995 265.954 386.639H0.12793V0.0195312H0.294922V0.0136719H207.382ZM80.9609 260.004C65.4105 260.238 52.9834 273.005 53.2383 288.556V288.641L98.4238 310.458C105.286 305.211 109.683 296.947 109.534 287.685C109.322 272.134 96.5115 259.749 80.9609 260.004ZM14.8232 14.5361V151.492C134.914 197.454 214.375 271.852 279.146 205.109C294.123 189.686 303.194 168.548 302.833 145.371C302.132 98.9956 263.914 62.0101 217.518 62.7324C198.632 63.0298 181.296 69.5303 167.445 80.2373C161.943 84.5072 154.168 84.0819 149.176 79.2383L130.417 61.0752C127.698 58.4197 126.168 54.8078 126.168 51.0264C126.211 47.2452 127.741 43.6342 130.438 41C141.901 29.9419 154.732 21.1204 168.389 14.5361H14.8232Z" fill="#30ABC2"/>
</g>
<g clip-path="url(#clip1_980_1079)">
<path d="M1012.83 144.979H976.324V271.572H1012.83V144.979Z" fill="white"/>
<path d="M1049.33 108.475H1012.83V144.976H1049.33V108.475Z" fill="white"/>
<path d="M683.114 32.9023H646.612V69.4038H683.114V32.9023Z" fill="white"/>
<path d="M1806.01 35.8867H1769.51V72.3882H1806.01V35.8867Z" fill="white"/>
<path d="M976.345 271.591H939.844V308.092H976.345V271.591Z" fill="white"/>
<path d="M606.563 70.2109V129.443C599.367 121.914 590.947 115.921 581.323 111.4C571.783 106.858 561.185 104.597 549.53 104.597C536.028 104.597 524.041 107.189 513.443 112.374C502.762 117.538 493.865 124.258 486.586 132.512C479.389 140.85 473.893 149.996 470.077 160.096C466.365 170.217 464.498 180.338 464.498 190.438V226.13C464.498 236.23 466.365 246.351 470.077 256.472C473.893 266.489 479.389 275.718 486.586 283.973C493.865 292.31 502.762 299.009 513.443 304.194C524.041 309.379 536.028 311.971 549.53 311.971C560.128 311.971 570.332 309.607 580.183 305.003C590.055 300.315 598.807 294.239 606.563 286.71L610.525 308.072H646.611V70.2109H606.563ZM606.563 228.474C606.563 233.887 605.361 239.383 602.934 244.962C600.425 250.561 596.94 255.58 592.419 260.102C587.877 264.623 582.464 268.273 576.139 271.031C569.751 273.686 562.886 275.075 555.358 275.075C546.772 275.075 539.326 273.603 533.021 270.616C526.634 267.63 521.366 263.752 517.093 258.961C512.8 254.191 509.648 248.861 507.615 243.033C505.521 237.205 504.463 231.543 504.463 226.13V190.438C504.463 184.942 505.521 179.363 507.615 173.535C509.648 167.707 512.8 162.377 517.093 157.586C521.366 152.816 526.634 148.855 533.021 145.786C539.326 142.633 546.772 141.098 555.358 141.098C562.886 141.098 569.751 142.633 576.139 145.786C582.464 148.855 587.877 152.816 592.419 157.586C596.94 162.377 600.425 167.707 602.934 173.535C605.361 179.363 606.563 184.942 606.563 190.438V228.474Z" fill="white"/>
<path d="M858.258 219.162V213.749C858.258 205.162 858.113 197.157 857.864 189.629C857.615 182.1 856.723 174.903 855.188 168.122C853.571 161.236 850.978 154.6 847.432 148.295C843.782 141.907 838.597 135.498 831.898 129.028C823.81 121.52 814.498 115.609 803.9 111.15C793.302 106.795 782.123 104.597 770.488 104.597H763.935C750.413 104.597 738.28 107.189 727.35 112.374C716.524 117.538 707.295 124.258 699.85 132.512C692.321 140.849 686.494 149.995 682.387 160.096C678.177 170.216 676.145 180.337 676.145 190.437V226.13C676.145 236.23 678.094 246.351 681.972 256.472C685.851 266.489 691.43 275.635 698.647 283.806C705.926 291.978 714.824 298.531 725.422 303.633C736.102 308.652 748.069 311.162 761.591 311.162H772.832C784.488 311.162 795.314 309.295 805.434 305.562C815.555 301.767 824.452 296.748 832.043 290.443C839.655 284.055 845.648 276.776 849.941 268.439C854.214 260.184 856.329 251.598 856.329 242.867H816.675C816.675 248.28 815.306 252.988 812.465 257.032C809.562 260.993 805.911 264.394 801.39 267.132C796.848 269.807 791.601 271.84 785.607 273.126C779.697 274.432 773.641 275.075 767.398 275.075C758.833 275.075 751.387 273.603 745.083 270.616C738.695 267.63 733.427 263.751 729.134 258.961C724.862 254.19 721.605 248.86 719.428 243.033C717.25 237.205 716.109 231.543 716.109 226.13V219.162H858.258ZM721.377 170.05C724.115 164.72 727.765 159.93 732.452 155.657C737.077 151.364 742.573 147.88 748.961 145.142C755.266 142.467 762.317 141.098 770.074 141.098C776.544 141.098 782.787 142.135 788.76 144.168C794.671 146.262 799.938 149.27 804.46 153.148C809.002 157.026 812.631 161.713 815.389 167.313C818.065 172.892 819.434 179.031 819.434 185.75H716.524C717.001 180.565 718.619 175.318 721.377 170.05Z" fill="white"/>
<path d="M960.316 271.591L959.321 269.164L900.587 108.475H860.207L936.342 308.071H975.27L960.316 271.591Z" fill="white"/>
<path d="M1243.45 219.162V213.749C1243.45 205.162 1243.37 197.157 1243.14 189.629C1242.81 182.1 1241.91 174.903 1240.38 168.122C1238.85 161.236 1236.25 154.6 1232.6 148.295C1228.97 141.907 1223.79 135.498 1217.07 129.028C1209.06 121.52 1199.77 115.609 1189.09 111.15C1178.49 106.795 1167.4 104.597 1155.74 104.597H1149.13C1135.69 104.597 1123.47 107.189 1112.62 112.374C1101.72 117.538 1092.57 124.258 1085.04 132.512C1077.51 140.849 1071.68 149.995 1067.56 160.096C1063.43 170.216 1061.34 180.337 1061.34 190.437V226.13C1061.34 236.23 1063.29 246.351 1067.16 256.472C1071.04 266.489 1076.62 275.635 1083.9 283.806C1091.12 291.978 1100.1 298.531 1110.7 303.633C1121.29 308.652 1133.34 311.162 1146.76 311.162H1158.02C1169.66 311.162 1180.59 309.295 1190.71 305.562C1200.81 301.767 1209.64 296.748 1217.32 290.443C1224.93 284.055 1230.84 276.776 1235.11 268.439C1239.41 260.184 1241.58 251.598 1241.58 242.867H1201.95C1201.95 248.28 1200.5 252.988 1197.66 257.032C1194.84 260.993 1191.1 264.394 1186.58 267.132C1182.04 269.807 1176.79 271.84 1170.88 273.126C1164.89 274.432 1158.83 275.075 1152.59 275.075C1144.11 275.075 1136.66 273.603 1130.27 270.616C1123.95 267.63 1118.62 263.751 1114.33 258.961C1110.12 254.19 1106.88 248.86 1104.62 243.033C1102.44 237.205 1101.38 231.543 1101.38 226.13V219.162H1243.45ZM1106.57 170.05C1109.31 164.72 1113.04 159.93 1117.64 155.657C1122.33 151.364 1127.85 147.88 1134.15 145.142C1140.54 142.467 1147.57 141.098 1155.35 141.098C1161.82 141.098 1168.04 142.135 1173.95 144.168C1179.94 146.262 1185.19 149.27 1189.73 153.148C1194.26 157.026 1197.82 161.713 1200.58 167.313C1203.32 172.892 1204.62 179.031 1204.62 185.75H1101.72C1102.28 180.565 1103.89 175.318 1106.57 170.05Z" fill="white"/>
<path d="M1273.4 29.998V308.073H1313.36V29.998H1273.4Z" fill="white"/>
<path d="M1526.63 160.096C1522.42 149.995 1516.59 140.849 1509.14 132.512C1501.62 124.258 1492.41 117.538 1481.56 112.374C1470.63 107.189 1458.5 104.597 1445.08 104.597H1430.67C1417.25 104.597 1405.03 107.189 1394.19 112.374C1383.26 117.538 1374.11 124.258 1366.6 132.512C1359.07 140.849 1353.25 149.995 1349.12 160.096C1344.99 170.216 1342.9 180.337 1342.9 190.437V226.13C1342.9 236.23 1344.83 246.351 1348.7 256.472C1352.6 266.489 1358.18 275.635 1365.46 283.806C1372.66 291.978 1381.55 298.531 1392.24 303.633C1402.83 308.652 1414.88 311.162 1428.32 311.162H1447.34C1460.84 311.162 1472.89 308.652 1483.51 303.633C1494.11 298.531 1503.01 291.978 1510.28 283.806C1517.56 275.635 1523.06 266.489 1526.94 256.472C1530.84 246.351 1532.77 236.23 1532.77 226.13V190.437C1532.77 180.337 1530.75 170.216 1526.63 160.096ZM1492.8 226.13C1492.8 234.135 1491.27 241.249 1488.11 247.326C1485.04 253.382 1480.92 258.484 1475.73 262.611C1470.55 266.821 1464.66 269.89 1458.02 271.985C1451.47 274.017 1444.67 275.075 1437.63 275.075C1430.6 275.075 1423.95 274.017 1417.48 271.985C1411 269.89 1405.18 266.821 1400.01 262.611C1394.83 258.484 1390.7 253.382 1387.55 247.326C1384.48 241.249 1382.94 234.135 1382.94 226.13V190.437C1382.94 182.681 1384.4 175.712 1387.38 169.656C1390.31 163.58 1394.27 158.395 1399.2 154.123C1404.14 149.829 1409.97 146.594 1416.67 144.416C1423.39 142.218 1430.42 141.098 1437.63 141.098C1444.85 141.098 1451.47 142.135 1458.02 144.168C1464.66 146.262 1470.55 149.332 1475.73 153.314C1480.92 157.358 1485.04 162.439 1488.11 168.682C1491.27 174.903 1492.8 182.1 1492.8 190.437V226.13Z" fill="white"/>
<path d="M1697.81 240.524C1697.81 245.937 1696.53 250.873 1693.94 255.249C1691.34 259.708 1687.94 263.254 1683.67 266.178C1679.38 268.999 1674.44 271.177 1668.94 272.732C1663.37 274.267 1657.62 275.076 1651.63 275.076C1645.16 275.076 1638.77 274.101 1632.36 272.151C1626.06 270.223 1620.39 267.215 1615.29 263.254C1610.27 259.21 1606.23 254.108 1603.08 247.886C1600.01 241.664 1598.47 234.302 1598.47 225.716V190.438C1598.47 181.872 1600.01 174.51 1603.08 168.267C1606.23 162.046 1610.27 157.027 1615.29 153.148C1620.39 149.27 1626.06 146.346 1632.36 144.417C1638.77 142.467 1645.16 141.493 1651.63 141.493C1657.62 141.493 1663.28 142.219 1668.7 143.836C1674.11 145.371 1679.04 147.569 1683.25 150.39C1687.55 153.231 1691.03 156.778 1693.62 161.071C1696.11 165.364 1697.42 170.217 1697.42 175.63H1737.47C1737.47 163.269 1735.21 152.505 1730.67 143.442C1726.14 134.379 1719.98 126.934 1712.23 121.106C1704.45 115.278 1695.47 110.985 1685.2 108.247C1675 105.572 1664.17 104.203 1652.83 104.203C1641.49 104.203 1629.71 105.904 1618.44 109.222C1607.2 112.603 1597.1 117.787 1588.12 124.756C1579.2 131.787 1572.01 140.684 1566.6 151.614C1561.18 162.44 1558.42 175.402 1558.42 190.438V225.716C1558.42 240.524 1561.18 253.299 1566.76 264.229C1572.34 275.076 1579.62 283.973 1588.52 291.004C1597.5 297.972 1607.53 303.136 1618.86 306.537C1630.1 309.856 1641.51 311.556 1653.16 311.556C1664.82 311.556 1675.42 310.188 1685.6 307.512C1695.8 304.754 1704.87 300.481 1712.62 294.654C1720.4 288.826 1726.54 281.463 1731.08 272.566C1735.6 263.586 1737.86 252.905 1737.86 240.524H1697.81Z" fill="white"/>
<path d="M1767.73 108.475V308.071H1807.77V108.475H1767.73Z" fill="white"/>
<path d="M1939.8 272.732C1929.12 272.732 1921.36 270.617 1916.51 266.323C1911.58 262.051 1909.07 253.548 1909.07 240.918V142.219H1958.43V108.475H1909.07V60.6709H1883.1C1883.1 72.0776 1881.57 81.5348 1878.39 89.0632C1875.32 96.5917 1871.2 102.419 1866.18 106.713C1861.18 110.985 1855.35 113.992 1848.88 115.693C1842.41 117.31 1835.92 118.202 1829.45 118.202V142.219H1869.1V241.664C1869.1 265.515 1873.87 283.164 1883.49 294.654C1893.06 306.226 1909.07 311.971 1931.63 311.971H1937.06C1939.41 311.971 1941.83 311.888 1944.43 311.805C1947.02 311.639 1949.53 311.473 1951.79 311.39C1954.13 311.245 1955.83 311.079 1956.87 310.83L1961.5 272.732H1939.8Z" fill="white"/>
<path d="M2161.48 108.475V327.587H2121.46V318.151C2121.5 317.383 2121.52 316.637 2121.52 315.849V277.004C2114.24 284.781 2105.82 290.92 2096.28 295.462C2086.74 299.983 2076.06 302.244 2064.4 302.244C2050.96 302.244 2038.91 299.672 2028.32 294.487C2017.72 289.302 2008.74 282.603 2001.54 274.266C1994.26 266.012 1988.74 256.783 1985.03 246.745C1981.24 236.645 1979.37 226.524 1979.37 216.403V108.475H2019.42V216.403C2019.42 221.837 2020.39 227.498 2022.49 233.326C2024.6 239.154 2027.76 244.484 2032.05 249.254C2036.24 254.024 2041.59 258.006 2047.89 261.076C2054.28 264.228 2061.73 265.763 2070.23 265.763C2077.76 265.763 2084.71 264.228 2091.01 261.076C2097.42 258.006 2102.83 254.024 2107.35 249.254C2111.9 244.484 2115.38 239.154 2117.81 233.326C2120.32 227.498 2121.52 221.837 2121.52 216.403V108.475H2161.48Z" fill="white"/>
<path d="M2121.46 327.591H2050.07V364.072H2121.46V327.591Z" fill="white"/>
<path d="M2050.07 364.069H2013.59V400.571H2050.07V364.069Z" fill="white"/>
</g>
<defs>
<clipPath id="clip0_980_1079">
<rect width="386.64" height="386.64" fill="white"/>
</clipPath>
<clipPath id="clip1_980_1079">
<rect width="1696.99" height="370.573" fill="white" transform="translate(464.498 29.998)"/>
</clipPath>
</defs>
</svg>
