<svg width="1440" height="831" viewBox="0 0 1440 831" fill="none" xmlns="http://www.w3.org/2000/svg">
<mask id="path-1-inside-1_2024_1124" fill="white">
<path d="M510.442 0C522.596 7.85825e-05 533.88 6.30535 540.25 16.6562L564.462 56H1440V831H0V0H510.442Z"/>
</mask>
<path d="M510.442 0C522.596 7.85825e-05 533.88 6.30535 540.25 16.6562L564.462 56H1440V831H0V0H510.442Z" fill="#0B0D0F"/>
<path d="M510.442 0V-1V-1V0ZM540.25 16.6562L541.102 16.1321L541.102 16.1321L540.25 16.6562ZM564.462 56L563.61 56.5241L563.903 57H564.462V56ZM1440 56H1441V55H1440V56ZM1440 831V832H1441V831H1440ZM0 831H-1V832H0V831ZM0 0V-1H-1V0H0ZM510.442 0V1C522.249 1.00008 533.21 7.1252 539.398 17.1804L540.25 16.6562L541.102 16.1321C534.55 5.48551 522.944 -0.999919 510.442 -1V0ZM540.25 16.6562L539.398 17.1804L563.61 56.5241L564.462 56L565.314 55.4759L541.102 16.1321L540.25 16.6562ZM564.462 56V57H1440V56V55H564.462V56ZM1440 56H1439V831H1440H1441V56H1440ZM1440 831V830H0V831V832H1440V831ZM0 831H1V0H0H-1V831H0ZM0 0V1H510.442V0V-1H0V0Z" fill="#2E3135" mask="url(#path-1-inside-1_2024_1124)"/>
</svg>
