<svg width="258" height="72" viewBox="0 0 258 72" fill="none" xmlns="http://www.w3.org/2000/svg">
<g clip-path="url(#clip0_2024_1242)">
<path fill-rule="evenodd" clip-rule="evenodd" d="M51.8489 12.9042H51.8392C47.3653 8.57233 41.5357 6.48709 35.7609 6.63558C35.748 6.63235 35.7383 6.63235 35.7254 6.63558C35.5317 6.63235 35.338 6.62912 35.1411 6.62912H1.06714V65.3742H41.4582C68.6373 40.6612 59.6573 20.4608 51.8489 12.9042ZM16.0028 53.7988L9.13696 50.4837V50.4708C9.09822 48.108 10.9866 46.168 13.3494 46.1325C15.7122 46.0938 17.6587 47.9756 17.691 50.3385C17.7136 51.7459 17.0454 53.0015 16.0028 53.7988ZM43.4627 37.7915C33.3852 48.1758 20.9673 36.0743 1.97741 29.1504V7.5394H29.9958C26.6646 8.52069 23.5238 10.2928 20.8672 12.8558C20.4573 13.2561 20.2249 13.8048 20.2184 14.3794C20.2184 14.9539 20.4508 15.5027 20.864 15.9062L23.7143 18.6661C24.4728 19.402 25.6543 19.4666 26.4903 18.8178C28.5949 17.1909 31.2289 16.2032 34.0985 16.158C41.1483 16.0482 46.9554 21.668 47.0619 28.7146C47.1168 32.2363 45.7384 35.4481 43.4627 37.7915Z" fill="white"/>
<path d="M251.609 58.67C251.609 60.5325 256.661 59.5286 256.661 62.6016C256.661 64.3059 254.982 65.2969 253.236 65.2969C251.596 65.2969 249.902 64.4124 249.55 62.4466H251.399C251.554 63.4634 252.481 63.9702 253.326 63.9702C254.172 63.9702 254.902 63.5151 254.902 62.6016C254.902 60.8553 249.85 61.9624 249.85 58.7474C249.85 57.0689 251.412 56.1038 253.026 56.1038C254.55 56.1038 256.099 56.9495 256.451 58.8636H254.589C254.447 57.9275 253.649 57.4433 252.91 57.4433C252.232 57.4433 251.609 57.8468 251.609 58.6667V58.67Z" fill="white"/>
<path d="M240.673 57.6659H236.57V59.9319H240.034V61.4555H236.57V63.7215H240.673V65.2451H234.827V56.1423H240.673V57.6659Z" fill="white"/>
<path d="M225.192 65.2451H223.446V56.1423H225.192V65.2451Z" fill="white"/>
<path d="M209.197 60.4H214.172V60.6227C214.172 63.8506 212.061 65.3613 209.914 65.3613C207.767 65.3613 205.369 63.7215 205.369 60.7002C205.369 57.6788 207.609 56.0261 209.862 56.0261C211.686 56.0261 213.523 57.1075 214.172 59.451H212.322C211.79 58.2405 210.76 57.653 209.756 57.653C208.416 57.653 207.125 58.7085 207.125 60.7002C207.125 62.6918 208.61 63.7215 210.017 63.7215C211.06 63.7215 212.061 63.1502 212.387 61.9235H209.197V60.4Z" fill="white"/>
<path d="M187.312 60.7002C187.312 57.5884 189.617 56.0261 191.909 56.0261C194.201 56.0261 196.505 57.5884 196.505 60.7002C196.505 63.8119 194.214 65.3613 191.909 65.3613C189.604 65.3613 187.312 63.799 187.312 60.7002ZM189.071 60.7002C189.071 62.7305 190.492 63.7473 191.909 63.7473C193.326 63.7473 194.746 62.7305 194.746 60.7002C194.746 58.6698 193.326 57.653 191.909 57.653C190.492 57.653 189.071 58.6698 189.071 60.7002Z" fill="white"/>
<path d="M174.801 63.7215H179.045V65.2451H173.054V56.1423H174.801V63.7215Z" fill="white"/>
<path d="M154.61 60.7002C154.61 57.5884 156.915 56.0261 159.207 56.0261C161.499 56.0261 163.803 57.5884 163.803 60.7002C163.803 63.8119 161.511 65.3613 159.207 65.3613C156.902 65.3613 154.61 63.799 154.61 60.7002ZM156.366 60.7002C156.366 62.7305 157.786 63.7473 159.203 63.7473C160.621 63.7473 162.041 62.7305 162.041 60.7002C162.041 58.6698 160.621 57.653 159.203 57.653C157.786 57.653 156.366 58.6698 156.366 60.7002Z" fill="white"/>
<path d="M143.622 56.1424H145.356V64.7351C145.356 65.0741 145.081 65.3613 144.729 65.3613C144.536 65.3613 144.352 65.271 144.235 65.1257L139.9 59.5769V65.2419H138.154V56.6621C138.154 56.3102 138.441 56.0229 138.793 56.0229C138.99 56.0229 139.171 56.1133 139.3 56.2586L143.622 61.7009V56.1392V56.1424Z" fill="white"/>
<path d="M126.772 56.1423H128.506V65.2451H126.772V61.4555H123.047V65.2451H121.301V56.1423H123.047V59.9319H126.772V56.1423Z" fill="white"/>
<path d="M105.061 60.7001C105.061 62.7854 106.401 63.8377 107.757 63.8377C108.786 63.8377 109.813 63.2244 110.255 61.9623H112.105C111.453 64.2799 109.606 65.3742 107.769 65.3742C105.529 65.3742 103.302 63.7473 103.302 60.7001C103.302 57.653 105.529 56.0132 107.769 56.0132C109.606 56.0132 111.456 57.1204 112.105 59.438H110.255C109.813 58.1759 108.783 57.5497 107.74 57.5497C106.401 57.5497 105.058 58.6181 105.058 60.7001H105.061Z" fill="white"/>
<path d="M94.4835 57.6659H90.3808V59.9319H93.8443V61.4555H90.3808V63.7215H94.4835V65.2451H88.6377V56.1423H94.4835V57.6659Z" fill="white"/>
<path d="M73.1208 56.1423H79.722V57.6659H77.2881V65.2451H75.5547V57.6659H73.1208V56.1423Z" fill="white"/>
<path d="M220.518 50.9745H212.655V6.62598H220.518V50.9745Z" fill="white"/>
<path d="M198.9 6.62598H206.764V35.2512C206.764 43.9118 199.701 50.9777 191.037 50.9777C182.373 50.9777 175.249 43.915 175.249 35.2512C175.249 24.6249 182.373 19.4021 189.317 19.4021C192.88 19.4021 196.379 20.7546 198.9 23.4564V6.62598ZM191.037 43.7891C195.337 43.7891 198.9 39.9802 198.9 35.2512C198.9 30.5223 195.337 26.652 191.037 26.652C186.737 26.652 183.113 30.461 183.113 35.2512C183.113 40.0415 186.676 43.7891 191.037 43.7891Z" fill="white"/>
<path d="M170.769 35.1287V48.5794C170.769 49.8706 169.723 50.9132 168.435 50.9132C167.761 50.9132 167.083 50.5453 166.654 49.9933L163.519 46.0617C161.001 49.2573 157.192 50.9132 153.322 50.9132C146.382 50.9132 139.255 45.6904 139.255 35.0641C139.255 26.3422 146.318 19.3376 155.043 19.3376C163.768 19.3376 170.769 26.339 170.769 35.1254V35.1287ZM162.909 35.1287V35.0673C162.909 30.3384 159.346 26.4681 155.046 26.4681C150.746 26.4681 147.121 30.3384 147.121 35.0673C147.121 39.7963 150.685 43.6665 155.046 43.6665C159.407 43.6665 162.848 39.8576 162.909 35.1287Z" fill="white"/>
<path d="M127.55 23.579C130.007 20.8773 133.448 19.4634 136.947 19.4021V26.7134C131.295 26.7134 127.918 28.9858 127.918 34.0246V50.9777H120.055V21.7972C120.055 20.5061 121.159 19.4021 122.45 19.4021C123.125 19.4021 123.741 19.6474 124.232 20.1381L127.55 23.579Z" fill="white"/>
<path d="M91.3653 27.3719H114.952V28.4209C114.952 43.7342 104.948 50.897 94.7611 50.897C84.5737 50.897 73.2114 43.1177 73.2114 28.7922C73.2114 14.4666 83.8345 6.62598 94.5157 6.62598C103.16 6.62598 111.866 11.7519 114.955 22.8657H106.188C103.657 17.1232 98.7798 14.344 94.0251 14.344C87.6661 14.344 81.5524 19.344 81.5524 28.7922C81.5524 38.2403 88.5925 43.1177 95.2614 43.1177C100.2 43.1177 104.955 40.3998 106.498 34.596H91.3685V27.3719H91.3653Z" fill="white"/>
<path d="M249.033 39.6444C247.62 42.2074 244.769 43.5405 241.913 43.5405C238.288 43.5405 234.543 41.3907 233.804 36.8458H256.9V35.9259C256.593 24.6862 248.914 19.4021 241.296 19.4021C233.678 19.4021 225.818 24.8702 225.818 35.1286C225.818 45.3869 234.049 50.9777 242.097 50.9777C247.92 50.9777 253.691 48.0726 256.206 41.9911L249.037 39.6477L249.033 39.6444ZM241.483 26.4648C244.308 26.4648 247.135 28.0013 248.362 31.0097H234.479C235.831 28.0013 238.656 26.4648 241.48 26.4648H241.483Z" fill="white"/>
</g>
<defs>
<clipPath id="clip0_2024_1242">
<rect width="256.62" height="58.7483" fill="white" transform="translate(1.10913 6.62598)"/>
</clipPath>
</defs>
</svg>
