<svg width="731" height="430" viewBox="0 0 731 430" fill="none" xmlns="http://www.w3.org/2000/svg">
<rect x="115.888" y="165.945" width="357.513" height="152.063" rx="17.5" fill="black" fill-opacity="0.01" stroke="#E1E1E1"/>
<rect x="202.069" y="216.762" width="33.0759" height="75.6624" fill="url(#paint0_linear_8396_13604)"/>
<rect x="153.993" y="239.031" width="33.0759" height="53.3921" fill="url(#paint1_linear_8396_13604)"/>
<rect x="250.146" y="199.613" width="33.0759" height="92.8105" fill="url(#paint2_linear_8396_13604)"/>
<rect x="298.222" y="185.641" width="33.0759" height="106.784" fill="url(#paint3_linear_8396_13604)"/>
<path d="M603.611 275.398H416.478V305.051H603.611V275.398Z" fill="#74F9FC"/>
<path d="M603.611 267.502H571.637C536.107 249.338 482.765 249.317 447.578 267.502H416.467V307.373H416.488C416.394 321.351 425.586 335.37 444.084 346.067C480.737 367.262 539.975 367.366 576.399 346.306C594.928 335.589 603.964 321.465 603.559 307.373H603.59V267.502H603.611Z" fill="url(#paint4_linear_8396_13604)"/>
<path d="M576.41 311.641C539.986 332.701 480.748 332.597 444.095 311.401C407.442 290.206 407.255 255.939 443.679 234.879C480.103 213.819 539.341 213.923 575.994 235.118C612.647 256.314 612.834 290.581 576.41 311.641Z" fill="#74F9FC"/>
<path d="M603.611 232.836H416.478V272.706H603.611V232.836Z" fill="#74F9FC"/>
<path d="M603.611 224.932H571.637C536.107 206.767 482.765 206.747 447.578 224.932H416.467V264.803H416.488C416.394 278.78 425.586 292.8 444.084 303.496C480.737 324.692 539.975 324.796 576.399 303.736C594.928 293.018 603.964 278.895 603.559 264.803H603.59V224.932H603.611Z" fill="url(#paint5_linear_8396_13604)"/>
<path d="M576.41 268.637C539.986 289.697 480.748 289.593 444.095 268.398C407.442 247.202 407.255 212.935 443.679 191.875C480.103 170.815 539.341 170.919 575.994 192.114C612.647 213.31 612.834 247.577 576.41 268.637Z" fill="#74F9FC"/>
<path d="M603.611 189.832H416.478V229.703H603.611V189.832Z" fill="#74F9FC"/>
<path d="M603.611 181.928H571.637C536.107 163.764 482.765 163.743 447.578 181.928H416.467V221.799H416.488C416.394 235.776 425.586 249.796 444.084 260.492C480.737 281.688 539.975 281.802 576.399 260.732C594.928 250.014 603.964 235.891 603.559 221.799H603.59V181.928H603.611Z" fill="url(#paint6_linear_8396_13604)"/>
<path d="M576.41 222.496C539.986 243.557 480.748 243.452 444.095 222.257C407.442 201.061 407.255 166.794 443.679 145.734C480.103 124.674 539.341 124.778 575.994 145.974C612.647 167.169 612.834 201.436 576.41 222.496Z" fill="url(#paint7_linear_8396_13604)"/>
<path d="M538.883 200.79C523.057 209.945 497.312 209.893 481.392 200.686C465.463 191.478 465.39 176.584 481.216 167.439C497.041 158.284 522.787 158.336 538.706 167.544C554.636 176.751 554.709 191.645 538.883 200.79Z" fill="url(#paint8_linear_8396_13604)"/>
<path d="M516.225 258.063C516.225 261.115 513.75 263.594 510.703 263.594C507.657 263.594 505.192 261.115 505.192 258.063C505.192 255.011 507.657 252.543 510.703 252.543C513.75 252.543 516.225 255.011 516.225 258.063Z" fill="white"/>
<path d="M497.821 255.919C497.821 258.97 495.346 261.439 492.31 261.439C489.274 261.439 486.799 258.96 486.799 255.919C486.799 252.877 489.274 250.398 492.31 250.398C495.346 250.398 497.821 252.877 497.821 255.919Z" fill="white"/>
<path d="M534.942 255.919C534.942 258.97 532.467 261.439 529.431 261.439C526.395 261.439 523.92 258.96 523.92 255.919C523.92 252.877 526.384 250.398 529.431 250.398C532.478 250.398 534.942 252.877 534.942 255.919Z" fill="white"/>
<path d="M516.225 301.833C516.225 304.884 513.75 307.353 510.703 307.353C507.657 307.353 505.192 304.874 505.192 301.833C505.192 298.791 507.657 296.312 510.703 296.312C513.75 296.312 516.225 298.791 516.225 301.833Z" fill="white"/>
<path d="M497.821 299.696C497.821 302.748 495.346 305.227 492.31 305.227C489.274 305.227 486.799 302.748 486.799 299.696C486.799 296.644 489.274 294.176 492.31 294.176C495.346 294.176 497.821 296.655 497.821 299.696Z" fill="white"/>
<path d="M534.942 299.696C534.942 302.748 532.467 305.227 529.431 305.227C526.395 305.227 523.92 302.748 523.92 299.696C523.92 296.644 526.384 294.176 529.431 294.176C532.478 294.176 534.942 296.655 534.942 299.696Z" fill="white"/>
<path d="M516.225 345.606C516.225 348.658 513.75 351.126 510.703 351.126C507.657 351.126 505.192 348.647 505.192 345.606C505.192 342.565 507.657 340.086 510.703 340.086C513.75 340.086 516.225 342.554 516.225 345.606Z" fill="white"/>
<path d="M497.821 343.462C497.821 346.513 495.346 348.982 492.31 348.982C489.274 348.982 486.799 346.503 486.799 343.462C486.799 340.42 489.274 337.941 492.31 337.941C495.346 337.941 497.821 340.42 497.821 343.462Z" fill="white"/>
<path d="M534.942 343.462C534.942 346.513 532.467 348.982 529.431 348.982C526.395 348.982 523.92 346.503 523.92 343.462C523.92 340.42 526.384 337.941 529.431 337.941C532.478 337.941 534.942 340.42 534.942 343.462Z" fill="white"/>
<path d="M422.669 307.275C418.791 305.077 415.297 304.889 412.781 306.358H412.771L399.139 314.597L409.329 329.043L410.972 325.148C412.729 329.314 415.401 333.24 418.562 336.24L415.172 344.26L419.404 348.801L432.964 340.594C432.964 340.594 432.984 340.583 432.995 340.573L433.036 340.552C435.521 339.042 437.029 335.907 436.977 331.47C436.873 322.513 430.468 311.68 422.669 307.275Z" fill="url(#paint9_linear_8396_13604)"/>
<path d="M471.394 342.751L463.19 335.085C462.14 334.106 461.34 332.7 460.996 331.315C460.269 328.378 459.353 325.389 458.241 322.379C457.711 320.952 457.669 319.587 458.168 318.733L461.943 312.182C462.598 311.046 462.317 309.068 461.256 307.266L455.61 297.715C454.55 295.923 452.948 294.725 451.638 294.746L444.068 294.892C443.081 294.913 441.906 294.225 440.907 293.069C438.807 290.642 436.634 288.393 434.409 286.341C433.358 285.372 432.516 283.987 432.163 282.602L429.397 271.718C428.918 269.843 427.598 268.01 426.111 267.166L418.229 262.708C417.356 262.219 416.576 262.177 415.973 262.479L415.921 262.437L402.268 270.738L404.15 272.124C404.057 272.124 403.953 272.113 403.859 272.124C402.871 272.155 401.696 271.52 400.698 270.374L393.024 261.604C391.693 260.083 390.103 259.469 389.063 260.083L384.144 262.989L383.989 263.083L383.573 263.333C383.573 263.333 383.562 263.354 383.552 263.354L375.327 268.405L385.517 282.852L387.139 279.008C387.472 280.227 387.441 281.341 387.004 282.071C385.943 283.852 385.08 285.831 384.415 287.976C384.103 288.986 383.313 289.497 382.273 289.288L374.142 287.716C373.632 287.622 373.227 287.726 372.863 287.934L372.811 287.893L359.033 296.246L366.645 300.402L371.896 296.444L371.927 299.162C371.948 300.86 372.915 302.912 374.329 304.224L376.689 306.432L376.003 328.836L383.645 335.19C383.219 336.356 383.5 338.085 384.456 339.7L390.103 349.251C390.602 350.105 391.236 350.802 391.891 351.313C391.371 352.25 391.049 352.958 391.215 353.073C391.797 353.458 408.757 377.674 408.757 377.674L415.099 370.467L416.316 375.248C416.794 377.122 418.115 378.956 419.602 379.799L420.194 380.133L416.285 382.424L416.035 392.85L429.875 384.486V384.413C430.229 384.195 430.541 383.882 430.696 383.382L433.244 375.508C433.566 374.498 434.388 374.05 435.428 374.269C437.632 374.727 439.784 374.925 441.854 374.852C442.436 374.831 443.081 375.071 443.715 375.487L435.5 374.779L447.895 392.256L460.05 384.892L462.151 383.653C463.18 383.049 463.419 381.351 462.722 379.456L458.74 368.509C458.449 367.707 458.334 366.936 458.376 366.259L459.25 367.353L472.913 359.062L472.881 359.01C473.516 358.656 473.911 357.916 473.9 356.843L473.796 347.792C473.776 346.095 472.809 344.053 471.394 342.73V342.751ZM441.209 354.521C431.341 360.343 415.131 351.167 405.003 334.023C394.865 316.879 394.646 298.267 404.514 292.444C407.02 290.965 409.942 290.465 413.061 290.799L410.878 292.267L435.979 315.806L443.902 346.386L442.852 353.344C442.342 353.771 441.802 354.167 441.219 354.51L441.209 354.521Z" fill="url(#paint10_linear_8396_13604)"/>
<path d="M423.355 339.72C423.459 348.678 417.231 352.354 409.432 347.938C401.634 343.522 395.228 332.69 395.124 323.743C395.02 314.786 401.249 311.109 409.047 315.525C416.846 319.941 423.251 330.774 423.355 339.72Z" fill="white"/>
<path d="M438.006 302.994L430.437 303.139C429.449 303.16 428.274 302.473 427.276 301.317C425.175 298.89 423.002 296.64 420.777 294.588C419.727 293.62 418.884 292.234 418.531 290.839L415.765 279.955C415.287 278.08 413.966 276.247 412.479 275.403L404.598 270.945C403.121 270.112 401.821 270.456 401.385 271.82L398.837 279.694C398.515 280.704 397.693 281.142 396.653 280.934C394.449 280.475 392.297 280.277 390.227 280.35C389.24 280.382 388.065 279.746 387.066 278.601L379.393 269.831C378.062 268.31 376.471 267.695 375.431 268.31L369.93 271.56C368.901 272.174 368.662 273.861 369.359 275.757L373.341 286.704C373.861 288.131 373.851 289.474 373.351 290.318C372.291 292.099 371.428 294.078 370.762 296.224C370.45 297.234 369.66 297.744 368.62 297.536L360.489 295.963C359.085 295.692 358.149 296.661 358.17 298.359L358.274 307.41C358.295 309.108 359.262 311.159 360.676 312.472L368.88 320.138C369.93 321.117 370.741 322.523 371.085 323.908C371.812 326.845 372.728 329.824 373.84 332.844C374.37 334.271 374.412 335.636 373.913 336.49L370.138 343.041C369.483 344.177 369.764 346.155 370.825 347.947L376.471 357.498C377.531 359.289 379.133 360.487 380.443 360.466L388.013 360.321C389 360.3 390.175 360.987 391.174 362.143C393.274 364.57 395.447 366.82 397.672 368.872C398.723 369.84 399.565 371.226 399.918 372.621L402.684 383.505C403.163 385.38 404.483 387.213 405.97 388.057L413.852 392.515C415.328 393.348 416.628 393.004 417.065 391.64L419.612 383.766C419.935 382.756 420.756 382.318 421.796 382.526C424 382.985 426.153 383.183 428.222 383.11C429.21 383.078 430.385 383.714 431.383 384.86L439.057 393.629C440.388 395.15 441.978 395.765 443.018 395.15L448.519 391.9C449.548 391.286 449.787 389.599 449.091 387.703L445.108 376.756C444.588 375.329 444.599 373.986 445.098 373.142C446.158 371.361 447.022 369.382 447.687 367.236C447.999 366.226 448.789 365.716 449.829 365.924L457.96 367.497C459.364 367.768 460.3 366.799 460.279 365.101L460.175 356.05C460.154 354.352 459.187 352.301 457.773 350.988L449.569 343.322C448.519 342.343 447.708 340.937 447.365 339.552C446.637 336.615 445.722 333.636 444.609 330.616C444.079 329.189 444.037 327.824 444.536 326.97L448.311 320.419C448.966 319.283 448.685 317.305 447.625 315.513L441.978 305.962C440.918 304.171 439.317 302.973 438.006 302.994ZM427.588 362.768C417.72 368.59 401.509 359.414 391.382 342.281C381.244 325.137 381.025 306.524 390.893 300.702C400.761 294.88 416.971 304.056 427.099 321.19C437.237 338.333 437.455 356.946 427.588 362.768Z" fill="#F8F8F8"/>
<defs>
<linearGradient id="paint0_linear_8396_13604" x1="202.069" y1="216.762" x2="264.913" y2="237.851" gradientUnits="userSpaceOnUse">
<stop stop-color="#209BC4"/>
<stop offset="1" stop-color="#4DC9C0"/>
</linearGradient>
<linearGradient id="paint1_linear_8396_13604" x1="153.993" y1="239.031" x2="211.018" y2="266.149" gradientUnits="userSpaceOnUse">
<stop stop-color="#209BC4"/>
<stop offset="1" stop-color="#4DC9C0"/>
</linearGradient>
<linearGradient id="paint2_linear_8396_13604" x1="250.146" y1="199.613" x2="315.198" y2="217.41" gradientUnits="userSpaceOnUse">
<stop stop-color="#209BC4"/>
<stop offset="1" stop-color="#4DC9C0"/>
</linearGradient>
<linearGradient id="paint3_linear_8396_13604" x1="298.222" y1="185.641" x2="364.401" y2="201.376" gradientUnits="userSpaceOnUse">
<stop stop-color="#209BC4"/>
<stop offset="1" stop-color="#4DC9C0"/>
</linearGradient>
<linearGradient id="paint4_linear_8396_13604" x1="416.477" y1="307.956" x2="603.611" y2="307.956" gradientUnits="userSpaceOnUse">
<stop stop-color="#45ACF4"/>
<stop offset="0.49" stop-color="#376ADB"/>
<stop offset="0.59" stop-color="#3A71DC"/>
<stop offset="0.75" stop-color="#4387E1"/>
<stop offset="0.94" stop-color="#52ABE9"/>
<stop offset="1" stop-color="#58B9EC"/>
</linearGradient>
<linearGradient id="paint5_linear_8396_13604" x1="359.59" y1="265.386" x2="360.629" y2="265.386" gradientUnits="userSpaceOnUse">
<stop stop-color="#45ACF4"/>
<stop offset="0.49" stop-color="#376ADB"/>
<stop offset="0.59" stop-color="#3A71DC"/>
<stop offset="0.75" stop-color="#4387E1"/>
<stop offset="0.94" stop-color="#52ABE9"/>
<stop offset="1" stop-color="#58B9EC"/>
</linearGradient>
<linearGradient id="paint6_linear_8396_13604" x1="359.59" y1="222.382" x2="360.629" y2="222.382" gradientUnits="userSpaceOnUse">
<stop stop-color="#45ACF4"/>
<stop offset="0.49" stop-color="#376ADB"/>
<stop offset="0.59" stop-color="#3A71DC"/>
<stop offset="0.75" stop-color="#4387E1"/>
<stop offset="0.94" stop-color="#52ABE9"/>
<stop offset="1" stop-color="#58B9EC"/>
</linearGradient>
<linearGradient id="paint7_linear_8396_13604" x1="427.519" y1="135.445" x2="444.894" y2="256.404" gradientUnits="userSpaceOnUse">
<stop stop-color="#F3F6FF"/>
<stop offset="0.76" stop-color="#ADF7FE"/>
<stop offset="1" stop-color="#96F8FE"/>
</linearGradient>
<linearGradient id="paint8_linear_8396_13604" x1="510.049" y1="207.331" x2="510.049" y2="159.649" gradientUnits="userSpaceOnUse">
<stop stop-color="#21ACEF"/>
<stop offset="1" stop-color="#6DEAF6"/>
</linearGradient>
<linearGradient id="paint9_linear_8396_13604" x1="377.448" y1="275.653" x2="477.777" y2="393.838" gradientUnits="userSpaceOnUse">
<stop stop-color="#45ACF4"/>
<stop offset="0.49" stop-color="#376ADB"/>
<stop offset="0.56" stop-color="#3A71DC"/>
<stop offset="0.67" stop-color="#4387E1"/>
<stop offset="0.81" stop-color="#52ABE8"/>
<stop offset="0.96" stop-color="#67DDF3"/>
<stop offset="1" stop-color="#6DEAF6"/>
</linearGradient>
<linearGradient id="paint10_linear_8396_13604" x1="377.178" y1="275.884" x2="465.234" y2="379.612" gradientUnits="userSpaceOnUse">
<stop stop-color="#45ACF4"/>
<stop offset="0.59" stop-color="#376ADB"/>
<stop offset="0.64" stop-color="#3A71DC"/>
<stop offset="0.73" stop-color="#4387E1"/>
<stop offset="0.84" stop-color="#52ABE8"/>
<stop offset="0.97" stop-color="#67DDF3"/>
<stop offset="1" stop-color="#6DEAF6"/>
</linearGradient>
</defs>
</svg>
