<?xml version="1.0" encoding="UTF-8"?>
<svg id="Layer_1" xmlns="http://www.w3.org/2000/svg" version="1.1" viewBox="0 0 2319 430">
  <!-- Generator: Adobe Illustrator 30.3.0, SVG Export Plug-In . SVG Version: 2.1.3 Build 182)  -->
  <defs>
    <style>
      .st0 {
        fill: #2ca7be;
      }

      .st1 {
        fill: #fff;
      }
    </style>
  </defs>
  <g>
    <path class="st0" d="M386,161.7V19H79.6v1.3c204.1,51.5,292.3,98.8,306.4,141.4Z"/>
    <path class="st0" d="M79.6,323.6v1.8h306.4v-139c-18,54.4-153.2,100.4-306.4,137.3Z"/>
    <path class="st0" d="M79.6,306.3c165.6-86.5,153.9-176.1,0-265.3v265.3Z"/>
  </g>
  <path class="st1" d="M712.8,18.1h-43.6v43.6h43.6V18.1Z"/>
  <path class="st1" d="M1115.1,103.5h-43.6v43.6h43.6v-43.6Z"/>
  <path class="st1" d="M1071.5,147.1h-43.6v138.2h43.6v-138.2Z"/>
  <path class="st1" d="M2197.6,385.6h-43.6v43.6h43.6v-43.6Z"/>
  <path class="st1" d="M1933.1,18.1h-43.6v43.6h43.6V18.1Z"/>
  <path class="st1" d="M625.6,126.1c-7.8-8.2-17-14.7-27.5-19.6-10.4-5-21.9-7.4-34.6-7.4s-27.8,2.8-39.3,8.5c-11.6,5.6-21.3,12.9-29.2,21.9-7.8,9.1-13.8,19-18,30-4,11-6.1,22-6.1,33v38.8c0,11,2,22,6.1,33,4.2,10.9,10.1,21,18,29.9,7.9,9.1,17.6,16.4,29.2,22,11.5,5.6,24.6,8.5,39.3,8.5s22.7-2.6,33.4-7.6c10.7-5.1,20.3-11.7,28.7-19.9l2.9,27.5h40.7V61.7h-43.6v64.5ZM625.6,233.9c0,5.9-1.3,11.9-3.9,17.9-2.7,6.1-6.5,11.6-11.5,16.5-5,4.9-10.8,8.9-17.7,11.9-7,2.9-14.4,4.4-22.6,4.4s-17.5-1.6-24.3-4.8c-7-3.2-12.7-7.5-17.3-12.7-4.7-5.2-8.1-11-10.3-17.3-2.3-6.3-3.4-12.5-3.4-18.4v-38.8c0-6,1.2-12.1,3.4-18.4,2.2-6.3,5.6-12.1,10.3-17.4,4.7-5.2,10.4-9.5,17.3-12.9,6.9-3.4,15-5.1,24.3-5.1s15.7,1.7,22.6,5.1c6.9,3.3,12.8,7.7,17.7,12.9,4.9,5.2,8.7,11,11.5,17.4,2.6,6.3,3.9,12.4,3.9,18.4v41.4h0Z"/>
  <path class="st1" d="M896.1,169.1c-1.8-7.5-4.6-14.7-8.5-21.6-4-7-9.6-13.9-16.9-21-8.8-8.2-18.9-14.6-30.5-19.5-11.5-4.7-23.7-7.1-36.4-7.1h-7.1c-14.7,0-27.9,2.8-39.8,8.5-11.8,5.6-21.8,12.9-29.9,21.9-8.2,9.1-14.5,19-19,30-4.6,11-6.8,22-6.8,33v38.8c0,11,2.1,22,6.3,33,4.2,10.9,10.3,20.9,18.1,29.8,7.9,8.9,17.6,16,29.2,21.6,11.6,5.5,24.7,8.2,39.4,8.2h12.2c12.7,0,24.5-2,35.5-6.1,11-4.1,20.7-9.6,29-16.5,8.3-7,14.8-14.9,19.5-24,4.7-9,7-18.3,7-27.8h-43.2c0,5.9-1.5,11-4.6,15.4-3.2,4.3-7.1,8-12.1,11-5,2.9-10.7,5.1-17.2,6.5-6.4,1.4-13,2.1-19.8,2.1s-17.4-1.6-24.3-4.8c-7-3.2-12.7-7.5-17.4-12.7-4.7-5.2-8.2-11-10.6-17.3-2.4-6.3-3.6-12.5-3.6-18.4v-7.6h154.7v-5.9c0-9.4-.2-18.1-.4-26.3-.3-8.2-1.2-16-2.9-23.4h0ZM745.1,188.3c.5-5.6,2.3-11.3,5.3-17.1,3-5.8,7-11,12.1-15.7,5-4.7,11-8.5,18-11.5,6.9-2.9,14.5-4.4,23-4.4s13.8,1.1,20.3,3.3c6.4,2.3,12.2,5.6,17.1,9.8,5,4.2,8.9,9.3,11.9,15.4,2.9,6.1,4.4,12.7,4.4,20.1h-112Z"/>
  <path class="st1" d="M1010.5,281.1l-1.1-2.6-63.9-174.9h-44l80.2,210.4,4.2,10.9h42v-39.5h-15.7l-1.7-4.2Z"/>
  <path class="st1" d="M1315.4,169.1c-1.7-7.5-4.5-14.7-8.5-21.6-4-7-9.6-13.9-16.9-21-8.7-8.2-18.8-14.6-30.4-19.5-11.5-4.7-23.6-7.1-36.3-7.1h-7.2c-14.6,0-27.9,2.8-39.7,8.5-11.9,5.6-21.8,12.9-30,21.9-8.2,9.1-14.5,19-19,30-4.5,11-6.8,22-6.8,33v38.8c0,11,2.1,22,6.3,33,4.2,10.9,10.3,20.9,18.2,29.8,7.8,8.9,17.6,16,29.2,21.6,11.5,5.5,24.7,8.2,39.2,8.2h12.2c12.7,0,24.6-2,35.6-6.1,11-4.1,20.6-9.6,29-16.5,8.3-7,14.7-14.9,19.4-24,4.7-9,7-18.3,7-27.8h-43.1c0,5.9-1.6,11-4.7,15.4-3,4.3-7.1,8-12,11-5,2.9-10.7,5.1-17.1,6.5-6.5,1.4-13.1,2.1-19.9,2.1s-17.4-1.6-24.3-4.8c-6.9-3.2-12.7-7.5-17.4-12.7-4.6-5.2-8.1-11-10.6-17.3-2.4-6.3-3.5-12.5-3.5-18.4v-7.6h154.7v-5.9c0-9.4,0-18.1-.3-26.3-.4-8.2-1.3-16-3-23.4h0ZM1164.4,188.3c.6-5.6,2.4-11.3,5.3-17.1,3-5.8,7.1-11,12.1-15.7,5.1-4.7,11.1-8.5,18-11.5,7-2.9,14.6-4.4,23.1-4.4s13.8,1.1,20.3,3.3c6.5,2.3,12.2,5.6,17.2,9.8,4.9,4.2,8.8,9.3,11.8,15.4,3,6.1,4.4,12.7,4.4,20.1h-112Z"/>
  <path class="st1" d="M1394.8,18.1h-43.5v306.7h43.5V18.1Z"/>
  <path class="st1" d="M1607.9,130.3c-8.2-9-18.2-16.3-30-21.9-11.9-5.6-25.1-8.5-39.7-8.5h-15.7c-14.6,0-27.9,2.8-39.7,8.5-11.9,5.6-21.9,12.9-30,21.9-8.2,9.1-14.5,19-19.1,30-4.5,11-6.8,22-6.8,33v38.8c0,11,2.1,22,6.3,33,4.2,10.9,10.3,20.9,18.2,29.8,7.8,8.9,17.5,16,29.2,21.6,11.5,5.5,24.7,8.2,39.3,8.2h20.7c14.7,0,27.8-2.7,39.4-8.2,11.5-5.6,21.2-12.7,29.2-21.6,7.9-8.9,13.9-18.9,18.1-29.8,4.2-11,6.3-22,6.3-33v-38.8c0-11-2.2-22-6.7-33-4.6-11-10.9-20.9-19-30h0ZM1590.2,232.2c0,8.7-1.7,16.5-5.1,23.1-3.3,6.6-7.8,12.1-13.5,16.6-5.6,4.6-12.1,7.9-19.3,10.2-7.1,2.2-14.5,3.4-22.2,3.4s-14.9-1.2-21.9-3.4c-7.1-2.3-13.4-5.6-19-10.2-5.6-4.5-10.2-10-13.6-16.6-3.3-6.6-5-14.4-5-23.1v-38.8c0-8.5,1.6-16,4.8-22.6,3.2-6.6,7.5-12.3,12.8-16.9,5.4-4.7,11.7-8.2,19-10.6,7.3-2.4,15-3.6,22.8-3.6s15.1,1.1,22.2,3.3c7.2,2.3,13.6,5.6,19.3,10,5.6,4.4,10.2,9.9,13.5,16.7,3.4,6.8,5.1,14.6,5.1,23.7v38.8Z"/>
  <path class="st1" d="M1809.1,263.6c-2.8,4.8-6.5,8.7-11.2,11.8-4.7,3.1-10,5.4-16,7.1-6.1,1.7-12.3,2.5-18.9,2.5s-14-1-21-3.2c-6.9-2.1-13-5.3-18.6-9.6-5.4-4.4-9.8-9.9-13.3-16.7-3.3-6.7-5-14.7-5-24v-38.2c0-9.3,1.7-17.3,5-24,3.4-6.7,7.8-12.2,13.3-16.4,5.6-4.2,11.7-7.4,18.6-9.5,7-2.1,13.9-3.2,21-3.2s12.7.8,18.6,2.5c5.9,1.7,11.3,4,15.8,7.1,4.7,3.1,8.5,6.9,11.3,11.6,2.7,4.7,4.1,9.9,4.1,15.8h43.6c0-13.4-2.5-25.1-7.4-34.9-4.9-9.8-11.6-17.9-20.1-24.2-8.5-6.3-18.2-11-29.4-13.9-11.1-2.9-22.9-4.4-35.2-4.4s-25.2,1.8-37.4,5.5c-12.2,3.7-23.2,9.3-33,16.8-9.7,7.6-17.5,17.3-23.4,29.1-5.9,11.7-8.9,25.8-8.9,42.1v38.2c0,16,3,29.9,9.1,41.7,6.1,11.8,14,21.4,23.7,29,9.8,7.5,20.7,13.1,33,16.8,12.2,3.6,24.7,5.5,37.3,5.5s24.2-1.5,35.3-4.4c11.1-3,21-7.6,29.4-13.9,8.5-6.3,15.1-14.3,20.1-23.9,4.9-9.7,7.4-21.3,7.4-34.7h-43.6c0,5.9-1.4,11.2-4.2,15.9h0Z"/>
  <path class="st1" d="M1933.1,103.5h-43.6v221.1h43.6V103.5Z"/>
  <path class="st1" d="M2275.4,103.5v117.5c0,5.9-1.3,12.1-4.1,18.4-2.6,6.3-6.4,12.1-11.4,17.3-4.9,5.2-10.8,9.5-17.8,12.9-6.9,3.4-14.4,5.1-22.6,5.1s-17.4-1.7-24.3-5.1c-6.9-3.3-12.7-7.7-17.2-12.9-4.7-5.2-8.1-11-10.4-17.3-2.3-6.3-3.3-12.5-3.3-18.4v-117.5h-43.6v117.5c0,11,2,22,6.2,33,4,10.9,10,21,18,30,7.8,9.1,17.6,16.4,29.2,22,11.5,5.6,24.7,8.5,39.3,8.5s24.3-2.5,34.7-7.4c10.4-5,19.5-11.6,27.5-20.1v42.3c0,.9,0,1.7,0,2.5v10.3h-77.7v43.6h77.7v-43.6h43.6V103.5h-43.6Z"/>
  <path class="st1" d="M2043.3,51.5h-28.3c0,12.4-1.7,22.7-5.1,30.9-3.3,8.2-7.8,14.5-13.3,19.2-5.5,4.7-11.8,7.9-18.8,9.8-7.1,1.8-14.1,2.7-21.2,2.7v26.1h43.2v108.3c0,26,5.2,45.2,15.7,57.7,9.3,11.3,24.2,17.4,44.8,18.6h36.8v-42.6h-23.4c-10-.4-17.4-2.7-22.2-6.9-5.4-4.7-8.1-13.9-8.1-27.6v-107.4h53.7v-36.7h-53.7v-52.1Z"/>
</svg>